<svg xmlns="http://www.w3.org/2000/svg" viewBox="0 0 1536 1536">
   <g id="original" transform="translate(256,256)"><circle cx="512" cy="512" r="512" style="fill:#6750a4"/>
   <path d="M590.93 716.07H373.87c-87 0-157.87-70.82-157.87-157.87s70.82-157.87 157.87-157.87a161.71 161.71 0 0 1 22.92 1.67c35.69-71.12 109.31-120 194.15-120C710.62 281.93 808 379.31 808 499s-97.38 217.07-217.07 217.07Zm-217-276.27a118.4 118.4 0 1 0 0 236.8h217c97.93 0 177.6-79.67 177.6-177.6s-79.67-177.6-177.6-177.6-177.6 79.67-177.6 177.6a19.73 19.73 0 1 1-39.47 0 216.5 216.5 0 0 1 8.14-58.93q-4-.27-8.09-.27Z" style="fill:#fff"/>
</g><g id="hat" transform="rotate(-19.664861,2554.5888,-1846.2773)"><path id="🎅" style="fill:rgb(255, 100, 76);stroke:#ffffff;stroke-width:39.4767;stroke-linecap:square;stroke-linejoin:round;stroke-miterlimit:5;stroke-dasharray:none;stroke-opacity:1" d="M 1.3888427 -777.64079 C -126.41754 -822.85625 -272.88081 -794.17541 -427.74092 -723.17061 L -411.15071 -760.0823 L -459.32489 -749.02795 L -495.42034 -783.89788 L -500.16434 -732.99008 L -543.31109 -708.17992 L -498.06911 -687.77279 L -488.63916 -637.57198 L -455.93489 -675.86625 L -406.96025 -669.64773 L -425.31773 -701.97648 C -290.88513 -689.16754 -86.608888 -639.13439 -273.63981 -347.58743 C -128.15384 -457.46783 0.38614654 -456.79247 307.39427 -419.56777 C 228.26451 -624.2273 123.30628 -734.50873 1.3888427 -777.64079 z "/></g></svg>
