<svg xmlns="http://www.w3.org/2000/svg" viewBox="0 0 1536 1536">
   <g id="original" transform="translate(256,256)"><circle cx="512" cy="512" r="512" style="fill:#6750a4"/>
   <path d="M667 690a184.82 184.82 0 0 1-131.5 54.49 186.1 186.1 0 0 1-184.61-162.72H489a23.26 23.26 0 1 0 0-46.51H349.45v-46.52h186a23.26 23.26 0 1 0 0-46.51H350.91c11.51-91.62 89.9-162.72 184.59-162.72h.06A184.84 184.84 0 0 1 667 334a23.26 23.26 0 0 0 32.88-32.9A232.55 232.55 0 0 0 535.57 233h-.08a232.6 232.6 0 0 0-231.4 209.23h-47.66a23.26 23.26 0 1 0 0 46.51h46.51v46.51h-46.51a23.26 23.26 0 1 0 0 46.51h47.67A232.57 232.57 0 0 0 535.44 791h.06a231 231 0 0 0 164.4-68.08A23.26 23.26 0 0 0 667 690Z" style="fill:#fff"/>
</g><g id="hat" transform="rotate(-19.664861,2554.5888,-1846.2773)"><path id="🎅" style="fill:rgb(255, 92, 104);stroke:#ffffff;stroke-width:39.4767;stroke-linecap:square;stroke-linejoin:round;stroke-miterlimit:5;stroke-dasharray:none;stroke-opacity:1" d="M 1.3888427 -777.64079 C -126.41754 -822.85625 -272.88081 -794.17541 -427.74092 -723.17061 L -411.15071 -760.0823 L -459.32489 -749.02795 L -495.42034 -783.89788 L -500.16434 -732.99008 L -543.31109 -708.17992 L -498.06911 -687.77279 L -488.63916 -637.57198 L -455.93489 -675.86625 L -406.96025 -669.64773 L -425.31773 -701.97648 C -290.88513 -689.16754 -86.608888 -639.13439 -273.63981 -347.58743 C -128.15384 -457.46783 0.38614654 -456.79247 307.39427 -419.56777 C 228.26451 -624.2273 123.30628 -734.50873 1.3888427 -777.64079 z "/></g></svg>
