<svg xmlns="http://www.w3.org/2000/svg" viewBox="0 0 1536 1536">
   <g id="original" transform="translate(256,256)"><circle cx="512" cy="512" r="512" style="fill:#6750a4"/>
   <path d="M265.1 749.67a20.58 20.58 0 0 1-17.85-30.77c.8-1.4 79.59-141.51 79.59-298.41 0-102.1 83.06-185.16 185.16-185.16s185.16 83.06 185.16 185.16c0 156.9 78.79 297 79.59 298.41A20.57 20.57 0 0 1 741 739.31c-3.47-6.07-85-150.69-85-318.82 0-79.41-64.61-144-144-144s-144 64.61-144 144c0 168.12-81.54 312.74-85 318.82a20.57 20.57 0 0 1-17.9 10.36Zm149.18-298.32A25.72 25.72 0 1 0 440 425.63a25.72 25.72 0 0 0-25.72 25.72Zm144 0A25.72 25.72 0 1 0 584 425.63a25.72 25.72 0 0 0-25.71 25.72ZM521.2 603.48l82.3-41.15a20.57 20.57 0 1 0-18.4-36.8L512 562.08l-73.1-36.55a20.57 20.57 0 0 0-18.4 36.8l82.3 41.15a20.58 20.58 0 0 0 18.4 0Zm-98.39 135.94a103.12 103.12 0 0 1 178.38 0 20.57 20.57 0 1 0 35.59-20.65 144.27 144.27 0 0 0-249.56 0 20.57 20.57 0 1 0 35.59 20.65Z" style="fill:#fff"/>
</g><g id="hat" transform="rotate(-19.664861,2554.5888,-1846.2773)"><path id="🎅" style="fill:rgb(255, 24, 47);stroke:#ffffff;stroke-width:39.4767;stroke-linecap:square;stroke-linejoin:round;stroke-miterlimit:5;stroke-dasharray:none;stroke-opacity:1" d="M 1.3888427 -777.64079 C -126.41754 -822.85625 -272.88081 -794.17541 -427.74092 -723.17061 L -411.15071 -760.0823 L -459.32489 -749.02795 L -495.42034 -783.89788 L -500.16434 -732.99008 L -543.31109 -708.17992 L -498.06911 -687.77279 L -488.63916 -637.57198 L -455.93489 -675.86625 L -406.96025 -669.64773 L -425.31773 -701.97648 C -290.88513 -689.16754 -86.608888 -639.13439 -273.63981 -347.58743 C -128.15384 -457.46783 0.38614654 -456.79247 307.39427 -419.56777 C 228.26451 -624.2273 123.30628 -734.50873 1.3888427 -777.64079 z "/></g></svg>
