<svg xmlns="http://www.w3.org/2000/svg" viewBox="0 0 1536 1536">
   <g id="original" transform="translate(256,256)"><circle cx="512" cy="512" r="512" style="fill:#6750a4"/>
   <path d="M769.8 334.62H253.17a37.73 37.73 0 0 0-37.69 37.69v278.18a37.73 37.73 0 0 0 37.69 37.69H769.8a37.73 37.73 0 0 0 37.69-37.69V372.31a37.73 37.73 0 0 0-37.69-37.69ZM399 652.54 251.12 523.19v-23.57L399 370.26h225l147.85 129.36v23.57L624 652.54Zm372.85-280.23v80l-93.71-82h91.66a2.05 2.05 0 0 1 2.05 2Zm-518.67-2.05h91.66l-93.72 82v-80a2.05 2.05 0 0 1 2.05-2Zm-2.05 280.23v-80l93.72 82h-91.68a2.05 2.05 0 0 1-2.05-2Zm518.67 2.05h-91.67l93.72-82v80a2.05 2.05 0 0 1-2.05 2ZM511.49 414.1a97.3 97.3 0 1 0 97.3 97.3 97.41 97.41 0 0 0-97.3-97.3Zm0 159a61.66 61.66 0 1 1 61.66-61.66 61.73 61.73 0 0 1-61.66 61.62Z" style="fill:#fff"/>
</g><g id="hat" transform="rotate(-19.664861,2554.5888,-1846.2773)"><path id="🎅" style="fill:rgb(255, 8, 52);stroke:#ffffff;stroke-width:39.4767;stroke-linecap:square;stroke-linejoin:round;stroke-miterlimit:5;stroke-dasharray:none;stroke-opacity:1" d="M 1.3888427 -777.64079 C -126.41754 -822.85625 -272.88081 -794.17541 -427.74092 -723.17061 L -411.15071 -760.0823 L -459.32489 -749.02795 L -495.42034 -783.89788 L -500.16434 -732.99008 L -543.31109 -708.17992 L -498.06911 -687.77279 L -488.63916 -637.57198 L -455.93489 -675.86625 L -406.96025 -669.64773 L -425.31773 -701.97648 C -290.88513 -689.16754 -86.608888 -639.13439 -273.63981 -347.58743 C -128.15384 -457.46783 0.38614654 -456.79247 307.39427 -419.56777 C 228.26451 -624.2273 123.30628 -734.50873 1.3888427 -777.64079 z "/></g></svg>
