<svg xmlns="http://www.w3.org/2000/svg" viewBox="0 0 1536 1536">
   <g id="original" transform="translate(256,256)"><circle cx="512" cy="512" r="512" style="fill:#6750a4"/>
   <path d="M679.65 712.09h-270a125.68 125.68 0 0 0 28.93-80.35v-91.83h103.3a23 23 0 1 0 0-45.91H438.61V379.22A103.44 103.44 0 0 1 542 275.91a102.37 102.37 0 0 1 72.83 30.21 23 23 0 0 0 32.63-32.3 148.62 148.62 0 0 0-105-43.83h-.6c-82.28 0-149.22 66.94-149.22 149.22V494h-80.29a23 23 0 1 0 0 45.91h80.35v91.83a80.44 80.44 0 0 1-80.35 80.35 23 23 0 0 0 0 45.91h367.3a23 23 0 0 0 0-45.91Z" style="fill:#fff"/>
</g><g id="hat" transform="rotate(-19.664861,2554.5888,-1846.2773)"><path id="🎅" style="fill:rgb(255, 71, 2);stroke:#ffffff;stroke-width:39.4767;stroke-linecap:square;stroke-linejoin:round;stroke-miterlimit:5;stroke-dasharray:none;stroke-opacity:1" d="M 1.3888427 -777.64079 C -126.41754 -822.85625 -272.88081 -794.17541 -427.74092 -723.17061 L -411.15071 -760.0823 L -459.32489 -749.02795 L -495.42034 -783.89788 L -500.16434 -732.99008 L -543.31109 -708.17992 L -498.06911 -687.77279 L -488.63916 -637.57198 L -455.93489 -675.86625 L -406.96025 -669.64773 L -425.31773 -701.97648 C -290.88513 -689.16754 -86.608888 -639.13439 -273.63981 -347.58743 C -128.15384 -457.46783 0.38614654 -456.79247 307.39427 -419.56777 C 228.26451 -624.2273 123.30628 -734.50873 1.3888427 -777.64079 z "/></g></svg>
