<svg xmlns="http://www.w3.org/2000/svg" viewBox="0 0 1536 1536">
   <g id="original" transform="translate(256,256)"><circle cx="512" cy="512" r="512" style="fill:#6750a4"/>
   <path d="M715.9 736.29H308.1a40.83 40.83 0 0 1-40.78-40.78V573.17a40.83 40.83 0 0 1 40.78-40.78h407.8a40.83 40.83 0 0 1 40.78 40.78v122.34a40.83 40.83 0 0 1-40.78 40.78ZM308.1 573.17v122.34h407.8V573.17Zm336.44 35.68A25.49 25.49 0 1 1 619 634.34a25.49 25.49 0 0 1 25.54-25.49Zm-153.3 25.49A20.39 20.39 0 0 0 470.85 614h-96.29a20.39 20.39 0 1 0 0 40.78h96.29a20.39 20.39 0 0 0 20.39-20.44ZM715.9 491.61H308.1a40.83 40.83 0 0 1-40.78-40.78V328.49a40.83 40.83 0 0 1 40.78-40.78h407.8a40.83 40.83 0 0 1 40.78 40.78v122.34a40.83 40.83 0 0 1-40.78 40.78ZM308.1 328.49v122.34h407.8V328.49Zm336.44 35.68A25.49 25.49 0 1 1 619 389.66a25.49 25.49 0 0 1 25.54-25.49Zm-153.3 25.49a20.39 20.39 0 0 0-20.39-20.39h-96.29a20.39 20.39 0 1 0 0 40.78h96.29a20.39 20.39 0 0 0 20.39-20.39Z" style="fill:#fff"/>
</g><g id="hat" transform="rotate(-19.664861,2554.5888,-1846.2773)"><path id="🎅" style="fill:rgb(255, 3, 104);stroke:#ffffff;stroke-width:39.4767;stroke-linecap:square;stroke-linejoin:round;stroke-miterlimit:5;stroke-dasharray:none;stroke-opacity:1" d="M 1.3888427 -777.64079 C -126.41754 -822.85625 -272.88081 -794.17541 -427.74092 -723.17061 L -411.15071 -760.0823 L -459.32489 -749.02795 L -495.42034 -783.89788 L -500.16434 -732.99008 L -543.31109 -708.17992 L -498.06911 -687.77279 L -488.63916 -637.57198 L -455.93489 -675.86625 L -406.96025 -669.64773 L -425.31773 -701.97648 C -290.88513 -689.16754 -86.608888 -639.13439 -273.63981 -347.58743 C -128.15384 -457.46783 0.38614654 -456.79247 307.39427 -419.56777 C 228.26451 -624.2273 123.30628 -734.50873 1.3888427 -777.64079 z "/></g></svg>
