<svg xmlns="http://www.w3.org/2000/svg" viewBox="0 0 1536 1536">
   <g id="original" transform="translate(256,256)"><circle cx="512" cy="512" r="512" style="fill:#6750a4"/>
   <path d="M673.61 578.37a56.54 56.54 0 0 0 55.75-46.61l28.92-158.58a19 19 0 0 0-18.65-22.37H357.17l-11.55-63.52A38 38 0 0 0 308.46 256h-42.9a19 19 0 1 0 0 37.93l42.73.08 48.62 267.33a18.8 18.8 0 0 0 .48 2.66l16 88a66.4 66.4 0 1 0 103.74 21.23H603.9a66.34 66.34 0 1 0 61.82-37.83 19.21 19.21 0 0 0-1.94-.1H408.9l-10.35-56.89h275.06ZM445.7 701.63a28.44 28.44 0 1 1-28.44-28.44 28.48 28.48 0 0 1 28.44 28.44Zm246.52 0a28.44 28.44 0 1 1-28.44-28.44 28.48 28.48 0 0 1 28.44 28.44ZM364.07 388.74h352.82L692 525a18.71 18.71 0 0 1-18.49 15.43H391.66Z" style="fill:#fff"/>
</g><g id="hat" transform="rotate(-19.664861,2554.5888,-1846.2773)"><path id="🎅" style="fill:rgb(255, 67, 61);stroke:#ffffff;stroke-width:39.4767;stroke-linecap:square;stroke-linejoin:round;stroke-miterlimit:5;stroke-dasharray:none;stroke-opacity:1" d="M 1.3888427 -777.64079 C -126.41754 -822.85625 -272.88081 -794.17541 -427.74092 -723.17061 L -411.15071 -760.0823 L -459.32489 -749.02795 L -495.42034 -783.89788 L -500.16434 -732.99008 L -543.31109 -708.17992 L -498.06911 -687.77279 L -488.63916 -637.57198 L -455.93489 -675.86625 L -406.96025 -669.64773 L -425.31773 -701.97648 C -290.88513 -689.16754 -86.608888 -639.13439 -273.63981 -347.58743 C -128.15384 -457.46783 0.38614654 -456.79247 307.39427 -419.56777 C 228.26451 -624.2273 123.30628 -734.50873 1.3888427 -777.64079 z "/></g></svg>
