<svg xmlns="http://www.w3.org/2000/svg" viewBox="0 0 1536 1536">
   <g id="original" transform="translate(256,256)"><circle cx="512" cy="512" r="512" style="fill:#6750a4"/>
   <path d="M642.44 489.26a120.25 120.25 0 0 0 37-86.88c0-62.8-48.26-114.51-109.63-120.07v-44.38a21.93 21.93 0 0 0-43.85 0v43.85h-43.81v-43.85a21.93 21.93 0 0 0-43.85 0v43.85h-87.7a21.93 21.93 0 0 0 0 43.85h21.93v372.74h-21.94a21.93 21.93 0 1 0 0 43.85h87.7v43.85a21.93 21.93 0 0 0 43.85 0v-43.85H526v43.85a21.93 21.93 0 0 0 43.85 0v-43.85h21.93c72.54 0 131.56-59 131.56-131.56a131.77 131.77 0 0 0-80.9-121.4Zm-6.81-86.88a76.83 76.83 0 0 1-76.74 76.74H416.37V325.63h142.52a76.83 76.83 0 0 1 76.74 76.74Zm-43.85 296H416.37V523h175.41a87.7 87.7 0 0 1 0 175.41Z" style="fill:#fff"/>
</g><g id="hat" transform="rotate(-19.664861,2554.5888,-1846.2773)"><path id="🎅" style="fill:rgb(255, 74, 42);stroke:#ffffff;stroke-width:39.4767;stroke-linecap:square;stroke-linejoin:round;stroke-miterlimit:5;stroke-dasharray:none;stroke-opacity:1" d="M 1.3888427 -777.64079 C -126.41754 -822.85625 -272.88081 -794.17541 -427.74092 -723.17061 L -411.15071 -760.0823 L -459.32489 -749.02795 L -495.42034 -783.89788 L -500.16434 -732.99008 L -543.31109 -708.17992 L -498.06911 -687.77279 L -488.63916 -637.57198 L -455.93489 -675.86625 L -406.96025 -669.64773 L -425.31773 -701.97648 C -290.88513 -689.16754 -86.608888 -639.13439 -273.63981 -347.58743 C -128.15384 -457.46783 0.38614654 -456.79247 307.39427 -419.56777 C 228.26451 -624.2273 123.30628 -734.50873 1.3888427 -777.64079 z "/></g></svg>
