<svg xmlns="http://www.w3.org/2000/svg" viewBox="0 0 1536 1536">
   <g id="original" transform="translate(256,256)"><circle cx="512" cy="512" r="512" style="fill:#6750a4"/>
   <path d="M575.43 490.86h-42.29V321.71h21.14a84.67 84.67 0 0 1 84.57 84.57 21.14 21.14 0 0 0 42.29 0 127 127 0 0 0-126.85-126.85h-21.15v-42.29a21.14 21.14 0 0 0-42.29 0v42.29h-31.71a126.86 126.86 0 0 0 0 253.71h31.71v169.15h-42.28A84.67 84.67 0 0 1 364 617.71a21.14 21.14 0 0 0-42.29 0 127 127 0 0 0 126.86 126.86h42.29v42.29a21.14 21.14 0 0 0 42.29 0v-42.29h42.29a126.86 126.86 0 1 0 0-253.71Zm-116.29 0a84.57 84.57 0 0 1 0-169.14h31.71v169.14Zm116.29 211.43h-42.29V533.14h42.29a84.57 84.57 0 0 1 0 169.14Z" style="fill:#fff"/>
</g><g id="hat" transform="rotate(-19.664861,2554.5888,-1846.2773)"><path id="🎅" style="fill:rgb(255, 19, 113);stroke:#ffffff;stroke-width:39.4767;stroke-linecap:square;stroke-linejoin:round;stroke-miterlimit:5;stroke-dasharray:none;stroke-opacity:1" d="M 1.3888427 -777.64079 C -126.41754 -822.85625 -272.88081 -794.17541 -427.74092 -723.17061 L -411.15071 -760.0823 L -459.32489 -749.02795 L -495.42034 -783.89788 L -500.16434 -732.99008 L -543.31109 -708.17992 L -498.06911 -687.77279 L -488.63916 -637.57198 L -455.93489 -675.86625 L -406.96025 -669.64773 L -425.31773 -701.97648 C -290.88513 -689.16754 -86.608888 -639.13439 -273.63981 -347.58743 C -128.15384 -457.46783 0.38614654 -456.79247 307.39427 -419.56777 C 228.26451 -624.2273 123.30628 -734.50873 1.3888427 -777.64079 z "/></g></svg>
