<svg xmlns="http://www.w3.org/2000/svg" viewBox="0 0 1536 1536">
   <g id="original" transform="translate(256,256)"><circle cx="512" cy="512" r="512" style="fill:#6750a4"/>
   <path d="M736 288H288a40.77 40.77 0 0 0-40.73 40.73v366.54A40.77 40.77 0 0 0 288 736h448a40.77 40.77 0 0 0 40.73-40.73V328.73A40.77 40.77 0 0 0 736 288Zm-448 40.73h448v276.65l-72.85-72.85-.39-.39a40.73 40.73 0 0 0-57.53.38l-52.39 52.39-.11.11-.11-.11-113.53-113.53-.33-.33a40.77 40.77 0 0 0-57.52.37L288 564.66V328.72Zm0 366.55v-73l122.07-122.1.12-.1.1.1 113.48 113.48a40.77 40.77 0 0 0 57.55.36l52.75-52.75s.1 0 .14-.08l.08.08L736 663v32.29Zm295.27-280a25.45 25.45 0 1 1-25.45 25.45 25.45 25.45 0 0 1 25.45-25.46Z" style="fill:#fff"/>
</g><g id="hat" transform="rotate(-19.664861,2554.5888,-1846.2773)"><path id="🎅" style="fill:rgb(255, 27, 57);stroke:#ffffff;stroke-width:39.4767;stroke-linecap:square;stroke-linejoin:round;stroke-miterlimit:5;stroke-dasharray:none;stroke-opacity:1" d="M 1.3888427 -777.64079 C -126.41754 -822.85625 -272.88081 -794.17541 -427.74092 -723.17061 L -411.15071 -760.0823 L -459.32489 -749.02795 L -495.42034 -783.89788 L -500.16434 -732.99008 L -543.31109 -708.17992 L -498.06911 -687.77279 L -488.63916 -637.57198 L -455.93489 -675.86625 L -406.96025 -669.64773 L -425.31773 -701.97648 C -290.88513 -689.16754 -86.608888 -639.13439 -273.63981 -347.58743 C -128.15384 -457.46783 0.38614654 -456.79247 307.39427 -419.56777 C 228.26451 -624.2273 123.30628 -734.50873 1.3888427 -777.64079 z "/></g></svg>
