<svg xmlns="http://www.w3.org/2000/svg" viewBox="0 0 1536 1536">
   <g id="original" transform="translate(256,256)"><circle cx="512" cy="512" r="512" style="fill:#6750a4"/>
   <path d="M553.32 430A20.66 20.66 0 0 1 574 409.37h82.63a20.66 20.66 0 0 1 0 41.32H574A20.66 20.66 0 0 1 553.32 430ZM450 409.37h-20.63v-20.66a20.66 20.66 0 0 0-41.32 0v20.66h-20.66a20.66 20.66 0 0 0 0 41.32h20.66v20.66a20.66 20.66 0 0 0 41.32 0v-20.66H450a20.66 20.66 0 1 0 0-41.32Zm355.32 280.45a93 93 0 0 1-142.17 12.5q-.37-.37-.72-.76L557.08 584.51l-90.09.42-105.45 116.66q-.34.37-.69.73a93 93 0 0 1-157.37-82l.06-.31 42.32-217a155 155 0 0 1 152.48-127.92l227.21-.77h.07c76.84 0 140.79 56.24 152.87 129.71l42 216 .05.29a92.35 92.35 0 0 1-15.22 69.5Zm-240-146.67h.12l60.09-.28a113.65 113.65 0 0 0 112.3-131.53l-.27-1.39c-.08-.4-.12-.8-.17-1.2a113.8 113.8 0 0 0-111.72-93.12l-227.21.77a113.78 113.78 0 0 0-111.94 94l-.06.35-42.32 217a51.65 51.65 0 0 0 87.13 45.74l111.19-123a20.66 20.66 0 0 1 15.23-6.81Zm214.55 84.59L757.19 511a155 155 0 0 1-131.57 73.2l-13.19.06 80.32 89.25a51.65 51.65 0 0 0 87.11-45.76Z" style="fill:#fff"/>
</g><g id="hat" transform="rotate(-19.664861,2554.5888,-1846.2773)"><path id="🎅" style="fill:rgb(255, 104, 103);stroke:#ffffff;stroke-width:39.4767;stroke-linecap:square;stroke-linejoin:round;stroke-miterlimit:5;stroke-dasharray:none;stroke-opacity:1" d="M 1.3888427 -777.64079 C -126.41754 -822.85625 -272.88081 -794.17541 -427.74092 -723.17061 L -411.15071 -760.0823 L -459.32489 -749.02795 L -495.42034 -783.89788 L -500.16434 -732.99008 L -543.31109 -708.17992 L -498.06911 -687.77279 L -488.63916 -637.57198 L -455.93489 -675.86625 L -406.96025 -669.64773 L -425.31773 -701.97648 C -290.88513 -689.16754 -86.608888 -639.13439 -273.63981 -347.58743 C -128.15384 -457.46783 0.38614654 -456.79247 307.39427 -419.56777 C 228.26451 -624.2273 123.30628 -734.50873 1.3888427 -777.64079 z "/></g></svg>
