<svg xmlns="http://www.w3.org/2000/svg" viewBox="0 0 1536 1536">
   <g id="original" transform="translate(256,256)"><circle cx="512" cy="512" r="512" style="fill:#6750a4"/>
   <path d="M605.46 533.54a20.77 20.77 0 0 1-20.77 20.77h-51.92v51.92a20.77 20.77 0 0 1-41.54 0v-51.92h-51.92a20.77 20.77 0 1 1 0-41.54h51.92v-51.92a20.77 20.77 0 0 1 41.54 0v51.92h51.92a20.77 20.77 0 0 1 20.77 20.77ZM782 367.38v332.31a41.59 41.59 0 0 1-41.54 41.54H283.54A41.59 41.59 0 0 1 242 699.69V367.38a41.59 41.59 0 0 1 41.54-41.54h103.84v-20.76a62.38 62.38 0 0 1 62.31-62.31h124.62a62.38 62.38 0 0 1 62.31 62.31v20.77h103.84A41.59 41.59 0 0 1 782 367.38Zm-353.08-41.53h166.16v-20.77a20.79 20.79 0 0 0-20.77-20.77H449.69a20.79 20.79 0 0 0-20.77 20.77Zm311.54 41.54H283.51V699.7h456.95Z" style="fill:#fff"/>
</g><g id="hat" transform="rotate(-19.664861,2554.5888,-1846.2773)"><path id="🎅" style="fill:rgb(255, 0, 24);stroke:#ffffff;stroke-width:39.4767;stroke-linecap:square;stroke-linejoin:round;stroke-miterlimit:5;stroke-dasharray:none;stroke-opacity:1" d="M 1.3888427 -777.64079 C -126.41754 -822.85625 -272.88081 -794.17541 -427.74092 -723.17061 L -411.15071 -760.0823 L -459.32489 -749.02795 L -495.42034 -783.89788 L -500.16434 -732.99008 L -543.31109 -708.17992 L -498.06911 -687.77279 L -488.63916 -637.57198 L -455.93489 -675.86625 L -406.96025 -669.64773 L -425.31773 -701.97648 C -290.88513 -689.16754 -86.608888 -639.13439 -273.63981 -347.58743 C -128.15384 -457.46783 0.38614654 -456.79247 307.39427 -419.56777 C 228.26451 -624.2273 123.30628 -734.50873 1.3888427 -777.64079 z "/></g></svg>
