<svg xmlns="http://www.w3.org/2000/svg" viewBox="0 0 1536 1536">
   <g id="original" transform="translate(256,256)"><circle cx="512" cy="512" r="512" style="fill:#6750a4"/>
   <path d="M421 432.83A19.79 19.79 0 0 1 440.83 413h158.34a19.79 19.79 0 1 1 0 39.58H440.83A19.79 19.79 0 0 1 421 432.83Zm19.79 99h158.38a19.79 19.79 0 1 0 0-39.58H440.83a19.79 19.79 0 0 0 0 39.58ZM520 571.37h-79.17a19.79 19.79 0 0 0 0 39.58H520a19.79 19.79 0 1 0 0-39.58Zm234.27 27.34-.2.44a39.37 39.37 0 0 1-8 11.66L618.85 738a39.48 39.48 0 0 1-11.51 8l-.71.31a39.2 39.2 0 0 1-15.56 3.2h-269a39.63 39.63 0 0 1-39.58-39.58V314.08a39.63 39.63 0 0 1 39.58-39.58h395.85a39.63 39.63 0 0 1 39.58 39.58V583a39 39 0 0 1-3.23 15.71ZM322.08 709.92h257.29V591.17a19.79 19.79 0 0 1 19.79-19.79h118.76v-257.3H322.08ZM619 611v71l71-71Z" style="fill:#fff"/>
</g><g id="hat" transform="rotate(-19.664861,2554.5888,-1846.2773)"><path id="🎅" style="fill:rgb(255, 127, 2);stroke:#ffffff;stroke-width:39.4767;stroke-linecap:square;stroke-linejoin:round;stroke-miterlimit:5;stroke-dasharray:none;stroke-opacity:1" d="M 1.3888427 -777.64079 C -126.41754 -822.85625 -272.88081 -794.17541 -427.74092 -723.17061 L -411.15071 -760.0823 L -459.32489 -749.02795 L -495.42034 -783.89788 L -500.16434 -732.99008 L -543.31109 -708.17992 L -498.06911 -687.77279 L -488.63916 -637.57198 L -455.93489 -675.86625 L -406.96025 -669.64773 L -425.31773 -701.97648 C -290.88513 -689.16754 -86.608888 -639.13439 -273.63981 -347.58743 C -128.15384 -457.46783 0.38614654 -456.79247 307.39427 -419.56777 C 228.26451 -624.2273 123.30628 -734.50873 1.3888427 -777.64079 z "/></g></svg>
