<svg xmlns="http://www.w3.org/2000/svg" viewBox="0 0 1536 1536">
   <g id="original" transform="translate(256,256)"><circle cx="512" cy="512" r="512" style="fill:#6750a4"/>
   <path d="M419.81 768a20.48 20.48 0 0 1-19.39-13.9l-33.09-97.65-97.39-32.85a20.48 20.48 0 0 1-7.94-33.91l61.43-61.43a20.48 20.48 0 0 1 14.48-6h52.95l37.77-37.77-163.5-109A20.48 20.48 0 0 1 262 344l61.43-61.43a20.46 20.46 0 0 1 21.48-4.76L557.5 355.1l67.56-71.39A20.58 20.58 0 0 1 628 280a82 82 0 0 1 118.95 112.85 20.68 20.68 0 0 1-1.43 1.59L744 396a20.84 20.84 0 0 1-1.71 1.53l-73.37 69 77.29 212.56a20.47 20.47 0 0 1-4.76 21.48L680 762a20.48 20.48 0 0 1-31.4-3L539.53 599.32l-37.82 34.39v52.37a20.48 20.48 0 0 1-6 14.48L434.28 762a20.47 20.47 0 0 1-14.47 6Zm123.36-220.14a20.48 20.48 0 0 1 16.91 8.93L668.5 715.56l34.74-34.75-77.45-213a20.47 20.47 0 0 1 5.21-21.88l85.09-80A41.06 41.06 0 0 0 660.26 306q-.53.66-1.12 1.28L578 393a20.47 20.47 0 0 1-21.87 5.17l-213-77.45-34.54 34.54 163.5 109a20.48 20.48 0 0 1 3.12 31.51l-61.43 61.43a20.48 20.48 0 0 1-14.48 6h-52.92l-32.1 32.1L390 620.86a20.48 20.48 0 0 1 12.85 12.83l25.77 76 32.13-32.13v-52.91a20.47 20.47 0 0 1 6.7-15.15l61.94-56.31a20.47 20.47 0 0 1 13.78-5.33Z" style="fill:#fff"/>
</g><g id="hat" transform="rotate(-19.664861,2554.5888,-1846.2773)"><path id="🎅" style="fill:rgb(255, 81, 45);stroke:#ffffff;stroke-width:39.4767;stroke-linecap:square;stroke-linejoin:round;stroke-miterlimit:5;stroke-dasharray:none;stroke-opacity:1" d="M 1.3888427 -777.64079 C -126.41754 -822.85625 -272.88081 -794.17541 -427.74092 -723.17061 L -411.15071 -760.0823 L -459.32489 -749.02795 L -495.42034 -783.89788 L -500.16434 -732.99008 L -543.31109 -708.17992 L -498.06911 -687.77279 L -488.63916 -637.57198 L -455.93489 -675.86625 L -406.96025 -669.64773 L -425.31773 -701.97648 C -290.88513 -689.16754 -86.608888 -639.13439 -273.63981 -347.58743 C -128.15384 -457.46783 0.38614654 -456.79247 307.39427 -419.56777 C 228.26451 -624.2273 123.30628 -734.50873 1.3888427 -777.64079 z "/></g></svg>
