<svg xmlns="http://www.w3.org/2000/svg" viewBox="0 0 1536 1536">
   <g id="original" transform="translate(256,256)"><circle cx="512" cy="512" r="512" style="fill:#6750a4"/>
   <path d="M512 797c-157.16 0-285-127.86-285-285s127.84-285 285-285 285 127.84 285 285-127.84 285-285 285Zm0-526.19C379 270.83 270.83 379 270.83 512S379 753.17 512 753.17 753.17 645 753.17 512 645 270.83 512 270.83Zm-54.54 394.66a43.85 43.85 0 0 1-40.1-61.39l30.72-71.69a98.62 98.62 0 1 1 127.84 0l30.77 71.8a43.85 43.85 0 0 1-40.07 61.26Zm54.46-263.08a54.83 54.83 0 0 0-26.16 103 21.92 21.92 0 0 1 9.66 27.89l-37.82 88.25 108.93.13-38-88.38a21.92 21.92 0 0 1 9.66-27.89 54.81 54.81 0 0 0-10.75-100.71 55.06 55.06 0 0 0-15.51-2.29Z" style="fill:#fff"/>
</g><g id="hat" transform="rotate(-19.664861,2554.5888,-1846.2773)"><path id="🎅" style="fill:rgb(255, 121, 110);stroke:#ffffff;stroke-width:39.4767;stroke-linecap:square;stroke-linejoin:round;stroke-miterlimit:5;stroke-dasharray:none;stroke-opacity:1" d="M 1.3888427 -777.64079 C -126.41754 -822.85625 -272.88081 -794.17541 -427.74092 -723.17061 L -411.15071 -760.0823 L -459.32489 -749.02795 L -495.42034 -783.89788 L -500.16434 -732.99008 L -543.31109 -708.17992 L -498.06911 -687.77279 L -488.63916 -637.57198 L -455.93489 -675.86625 L -406.96025 -669.64773 L -425.31773 -701.97648 C -290.88513 -689.16754 -86.608888 -639.13439 -273.63981 -347.58743 C -128.15384 -457.46783 0.38614654 -456.79247 307.39427 -419.56777 C 228.26451 -624.2273 123.30628 -734.50873 1.3888427 -777.64079 z "/></g></svg>
