<svg xmlns="http://www.w3.org/2000/svg" viewBox="0 0 1536 1536">
   <g id="original" transform="translate(256,256)"><circle cx="512" cy="512" r="512" style="fill:#6750a4"/>
   <path d="M710.35 288.15h-396.7A39.72 39.72 0 0 0 274 327.82v145.54c0 221.24 187 294.85 225.31 307.58a37.68 37.68 0 0 0 25.42 0C563 768.21 750 694.6 750 473.36V327.82a39.72 39.72 0 0 0-39.65-39.67Zm-396.7 39.67h396.7v145.54c0 43.84-8.41 81.05-21.8 112.56L523.38 470.25a19.83 19.83 0 0 0-22.76 0L335.45 585.92c-13.38-31.51-21.8-68.72-21.8-112.56ZM512 743.36c-22.69-7.52-107-40.06-158.09-121.94L512 510.71l158.09 110.71C619 703.3 534.69 735.84 512 743.36Z" style="fill:#fff"/>
</g><g id="hat" transform="rotate(-19.664861,2554.5888,-1846.2773)"><path id="🎅" style="fill:rgb(255, 122, 79);stroke:#ffffff;stroke-width:39.4767;stroke-linecap:square;stroke-linejoin:round;stroke-miterlimit:5;stroke-dasharray:none;stroke-opacity:1" d="M 1.3888427 -777.64079 C -126.41754 -822.85625 -272.88081 -794.17541 -427.74092 -723.17061 L -411.15071 -760.0823 L -459.32489 -749.02795 L -495.42034 -783.89788 L -500.16434 -732.99008 L -543.31109 -708.17992 L -498.06911 -687.77279 L -488.63916 -637.57198 L -455.93489 -675.86625 L -406.96025 -669.64773 L -425.31773 -701.97648 C -290.88513 -689.16754 -86.608888 -639.13439 -273.63981 -347.58743 C -128.15384 -457.46783 0.38614654 -456.79247 307.39427 -419.56777 C 228.26451 -624.2273 123.30628 -734.50873 1.3888427 -777.64079 z "/></g></svg>
