<svg xmlns="http://www.w3.org/2000/svg" viewBox="0 0 1536 1536">
   <g id="original" transform="translate(256,256)"><circle cx="512" cy="512" r="512" style="fill:#6750a4"/>
   <path d="M792.21 382.78a18.85 18.85 0 0 0-18.81-.06L669.7 442v-14.66a94.32 94.32 0 0 0-94.21-94.21H274a37.73 37.73 0 0 0-37.68 37.68v226.11a94.32 94.32 0 0 0 94.21 94.21H632a37.73 37.73 0 0 0 37.68-37.68v-71.17l103.72 59.26a18.84 18.84 0 0 0 28.19-16.36v-226.1a18.84 18.84 0 0 0-9.38-16.3ZM632 653.45H330.54A56.59 56.59 0 0 1 274 596.92v-226.1h301.5a56.59 56.59 0 0 1 56.5 56.52Zm131.89-60.73-94.19-53.84v-53.5l94.21-53.83Z" style="fill:#fff"/>
</g><g id="hat" transform="rotate(-19.664861,2554.5888,-1846.2773)"><path id="🎅" style="fill:rgb(255, 86, 54);stroke:#ffffff;stroke-width:39.4767;stroke-linecap:square;stroke-linejoin:round;stroke-miterlimit:5;stroke-dasharray:none;stroke-opacity:1" d="M 1.3888427 -777.64079 C -126.41754 -822.85625 -272.88081 -794.17541 -427.74092 -723.17061 L -411.15071 -760.0823 L -459.32489 -749.02795 L -495.42034 -783.89788 L -500.16434 -732.99008 L -543.31109 -708.17992 L -498.06911 -687.77279 L -488.63916 -637.57198 L -455.93489 -675.86625 L -406.96025 -669.64773 L -425.31773 -701.97648 C -290.88513 -689.16754 -86.608888 -639.13439 -273.63981 -347.58743 C -128.15384 -457.46783 0.38614654 -456.79247 307.39427 -419.56777 C 228.26451 -624.2273 123.30628 -734.50873 1.3888427 -777.64079 z "/></g></svg>
