<svg xmlns="http://www.w3.org/2000/svg" viewBox="0 0 1536 1536">
   <g id="original" transform="translate(256,256)"><circle cx="512" cy="512" r="512" style="fill:#45457c"/>
   <path d="M397.78 426.11A85.89 85.89 0 1 0 483.67 512a86.66 86.66 0 0 0-85.89-85.89zm0 153.74a67.42 67.42 0 1 1 67-67.85 67.85 67.85 0 0 1-67 67.85zm184.58-153.74A85.89 85.89 0 1 0 668.25 512a85.89 85.89 0 0 0-85.89-85.89zm0 153.74a67.42 67.42 0 1 1 67-67.85 66.74 66.74 0 0 1-65.61 67.84zM250.05 477.64a57.89 57.89 0 0 0-45.52 12v-45.49h77.3c2.58 0 4.29-.86 4.29-8.59s-3.44-7.73-5.15-7.73h-85a7.73 7.73 0 0 0-7.73 7.73v75.58c0 4.29 2.58 5.15 6.87 6a6.53 6.53 0 0 0 7.73-1.72 48.87 48.87 0 0 1 42.95-20.61 44.66 44.66 0 0 1 38.65 37.79 43.46 43.46 0 0 1-37.79 48.1h-5.15a43.8 43.8 0 0 1-40.37-28.34c-.86-2.58-2.58-4.29-9.45-1.72s-7.73 4.29-6.87 6.87a60.32 60.32 0 0 0 113.38-41.23 60.12 60.12 0 0 0-48.14-38.64zM726.66 427a46.55 46.55 0 0 0-41.23 46.38v76.44c0 4.29 3.44 5.15 8.59 5.15s8.59-.86 8.59-5.15v-76.47a28.86 28.86 0 0 1 24.91-29.2A28.26 28.26 0 0 1 749 451a27.4 27.4 0 0 1 9.45 20.61 34.36 34.36 0 0 1-6 16.32 27.06 27.06 0 0 1-24 11.17c-3.44 0-6 0-6.87 7.73 0 5.15 0 7.73 4.29 8.59a42.26 42.26 0 0 0 24.91-5.15 46.12 46.12 0 0 0 24.91-36.07 44.49 44.49 0 0 0-40.63-48l-.77-.06a23.79 23.79 0 0 1-7.63.86zm112.52 44.66 30.92-30.92c.86-.86 3.44-3.44-1.72-9.45a8.59 8.59 0 0 0-6-3.44 4.47 4.47 0 0 0-3.44 1.72L828 460.47l-30.92-31.78c-2.58-2.58-5.15-1.72-9.45 1.72s-4.29 6.87-1.72 9.45l30.92 30.92-31.09 31.78A6.53 6.53 0 0 0 784 506a7.21 7.21 0 0 0 3.44 6 13.83 13.83 0 0 0 6 3.44 9.1 9.1 0 0 0 4.29-1.72l30.92-30.92 30.92 30.92a4.47 4.47 0 0 0 3.44 1.72 8.59 8.59 0 0 0 6-3.44c2.58-3.44 3.44-6.87.86-8.59z" style="fill:#fff"/>
</g><g id="hat" transform="rotate(-19.664861,2554.5888,-1846.2773)"><path id="🎅" style="fill:rgb(255, 94, 36);stroke:#ffffff;stroke-width:39.4767;stroke-linecap:square;stroke-linejoin:round;stroke-miterlimit:5;stroke-dasharray:none;stroke-opacity:1" d="M 1.3888427 -777.64079 C -126.41754 -822.85625 -272.88081 -794.17541 -427.74092 -723.17061 L -411.15071 -760.0823 L -459.32489 -749.02795 L -495.42034 -783.89788 L -500.16434 -732.99008 L -543.31109 -708.17992 L -498.06911 -687.77279 L -488.63916 -637.57198 L -455.93489 -675.86625 L -406.96025 -669.64773 L -425.31773 -701.97648 C -290.88513 -689.16754 -86.608888 -639.13439 -273.63981 -347.58743 C -128.15384 -457.46783 0.38614654 -456.79247 307.39427 -419.56777 C 228.26451 -624.2273 123.30628 -734.50873 1.3888427 -777.64079 z "/></g></svg>
