<svg xmlns="http://www.w3.org/2000/svg" viewBox="0 0 1536 1536">
   <g id="original" transform="translate(256,256)"><circle cx="512" cy="512" r="512" style="fill:#2f9aff"/>
   <path d="M538.76 432.89c63.15 0 93.47 49.93 93.47 92.64s-30.33 92.66-93.48 92.66-93.49-49.94-93.49-92.66 30.32-92.64 93.48-92.64m0 136.63c22.49 0 41.57-18.55 41.57-43.99s-19.08-43.96-41.57-43.96-41.6 18.52-41.6 43.96 19.09 43.99 41.6 43.99m122.83-188.65h52.6v232.45h-52.6V380.87Zm115.45 164.18c-19.29 0-34.92 15.67-34.92 34.95s15.64 34.95 34.92 34.95 34.97-15.66 34.97-34.95-15.67-34.95-34.97-34.95M350.39 380.87h-46.84l-91.56 232.45h62.04l12.27-33.59h80.73l11.3 33.59h62.68l-90.63-232.45Zm-47.75 151.7 24.35-81.04 24.34 81.05h-48.69Z" style="fill:#fff"/>
</g><g id="hat" transform="rotate(-19.664861,2554.5888,-1846.2773)"><path id="🎅" style="fill:rgb(255, 108, 126);stroke:#ffffff;stroke-width:39.4767;stroke-linecap:square;stroke-linejoin:round;stroke-miterlimit:5;stroke-dasharray:none;stroke-opacity:1" d="M 1.3888427 -777.64079 C -126.41754 -822.85625 -272.88081 -794.17541 -427.74092 -723.17061 L -411.15071 -760.0823 L -459.32489 -749.02795 L -495.42034 -783.89788 L -500.16434 -732.99008 L -543.31109 -708.17992 L -498.06911 -687.77279 L -488.63916 -637.57198 L -455.93489 -675.86625 L -406.96025 -669.64773 L -425.31773 -701.97648 C -290.88513 -689.16754 -86.608888 -639.13439 -273.63981 -347.58743 C -128.15384 -457.46783 0.38614654 -456.79247 307.39427 -419.56777 C 228.26451 -624.2273 123.30628 -734.50873 1.3888427 -777.64079 z "/></g></svg>
