<svg xmlns="http://www.w3.org/2000/svg" viewBox="0 0 1536 1536">
   <g id="original" transform="translate(256,256)"><circle cx="512" cy="512" r="512" style="fill:#6abf4b"/>
   <path d="M553.72 610.65c0-5.8-4.35-8.7-8.7-8.7-8.7 0-20.31 1.45-29 1.45-49.32 0-89.94-40.62-89.94-89.94V297.3a3.12 3.12 0 0 0-2.9-2.9H299.85l-1.45 1.45V512A217.31 217.31 0 0 0 516 729.6c11.61 0 23.21-1.45 34.82-2.9a3.12 3.12 0 0 0 2.9-2.9ZM516 294.4c-11.61 0-24.66 1.45-36.27 2.9a3.12 3.12 0 0 0-2.9 2.9v113.15c0 5.8 4.35 10.15 8.7 8.7 4.35 0 29-1.45 29-1.45 49.32 0 89.94 40.62 89.94 89.94v195.85a1.42 1.42 0 0 0 1.45 1.45C681.38 674.47 733.6 599 733.6 512A217.31 217.31 0 0 0 516 294.4Z" style="fill:#fff"/>
</g><g id="hat" transform="rotate(-19.664861,2554.5888,-1846.2773)"><path id="🎅" style="fill:rgb(255, 25, 33);stroke:#ffffff;stroke-width:39.4767;stroke-linecap:square;stroke-linejoin:round;stroke-miterlimit:5;stroke-dasharray:none;stroke-opacity:1" d="M 1.3888427 -777.64079 C -126.41754 -822.85625 -272.88081 -794.17541 -427.74092 -723.17061 L -411.15071 -760.0823 L -459.32489 -749.02795 L -495.42034 -783.89788 L -500.16434 -732.99008 L -543.31109 -708.17992 L -498.06911 -687.77279 L -488.63916 -637.57198 L -455.93489 -675.86625 L -406.96025 -669.64773 L -425.31773 -701.97648 C -290.88513 -689.16754 -86.608888 -639.13439 -273.63981 -347.58743 C -128.15384 -457.46783 0.38614654 -456.79247 307.39427 -419.56777 C 228.26451 -624.2273 123.30628 -734.50873 1.3888427 -777.64079 z "/></g></svg>
