<svg xmlns="http://www.w3.org/2000/svg" viewBox="0 0 1536 1536">
   <g id="original" transform="translate(256,256)"><circle cx="512" cy="512" r="512" style="fill:#4630eb"/>
   <path d="M498.62 441c4.18-6.17 8.77-7 12.49-7s9.91.79 14.1 7c33 45.33 87.48 135.63 127.67 202.25 26.2 43.44 46.33 76.8 50.46 81 15.51 15.94 36.77 6 49.12-12.07C764.62 694.46 768 682 768 668.62c0-9.08-176.21-336.8-194-364.07-17.06-26.24-22.62-32.87-51.83-32.87h-21.82c-29.12 0-33.33 6.63-50.39 32.87-17.75 27.27-194 355-194 364.07 0 13.34 3.38 25.84 15.54 43.64 12.35 18.08 33.61 28 49.12 12.07 4.13-4.25 24.26-37.61 50.46-81 40.23-66.67 94.53-156.97 127.54-202.33Z" style="fill:#fff"/>
</g><g id="hat" transform="rotate(-19.664861,2554.5888,-1846.2773)"><path id="🎅" style="fill:rgb(255, 76, 50);stroke:#ffffff;stroke-width:39.4767;stroke-linecap:square;stroke-linejoin:round;stroke-miterlimit:5;stroke-dasharray:none;stroke-opacity:1" d="M 1.3888427 -777.64079 C -126.41754 -822.85625 -272.88081 -794.17541 -427.74092 -723.17061 L -411.15071 -760.0823 L -459.32489 -749.02795 L -495.42034 -783.89788 L -500.16434 -732.99008 L -543.31109 -708.17992 L -498.06911 -687.77279 L -488.63916 -637.57198 L -455.93489 -675.86625 L -406.96025 -669.64773 L -425.31773 -701.97648 C -290.88513 -689.16754 -86.608888 -639.13439 -273.63981 -347.58743 C -128.15384 -457.46783 0.38614654 -456.79247 307.39427 -419.56777 C 228.26451 -624.2273 123.30628 -734.50873 1.3888427 -777.64079 z "/></g></svg>
