<svg xmlns="http://www.w3.org/2000/svg" viewBox="0 0 1536 1536">
   <g id="original" transform="translate(256,256)"><circle cx="512" cy="512" r="512" style="fill:#fffc00"/>
   <path d="M516.39 272.91c21.12 0 92.74 5.89 126.51 81.52 11.29 25.45 8.6 68.67 6.38 103.4l-.06 1.28c-.26 3.84-.47 7.36-.64 10.88a16.58 16.58 0 0 0 8.55 1.92c6.4-.34 14.06-2.56 22-6.42a21.25 21.25 0 0 1 9.9-2.22 29.18 29.18 0 0 1 10.86 1.92c9.6 3.18 15.66 10.22 15.66 17.88q.48 14.37-25.88 24.92c-1.9.62-4.46 1.6-7.34 2.54-9.6 2.88-24.3 7.68-28.44 17.28-1.92 4.78-1.3 11.18 2.56 18.52l.32.32c1.28 2.9 32.55 74.13 102.21 85.63a10.64 10.64 0 0 1 9 10.86 12.92 12.92 0 0 1-1 4.8c-5.12 12.14-27.16 21.08-67.12 27.11-1.26 1.94-2.56 8-3.5 12.16a85.84 85.84 0 0 1-2.86 11.8c-1.62 5.78-5.76 8.64-11.84 8.64h-.64a68.07 68.07 0 0 1-11.48-1.58 128.72 128.72 0 0 0-27.16-2.88 103.66 103.66 0 0 0-19.38 1.58c-12.8 2.22-24 9.9-36.76 18.86-18.2 12.78-39 27.48-70.27 27.48-1.28 0-2.54-.32-3.84-.32h-3.18c-31.32 0-51.78-14.4-70-27.48-12.78-9-23.62-16.62-36.42-18.86a141.28 141.28 0 0 0-19.8-1.58c-11.52 0-20.44 1.9-27.14 3.18a61.41 61.41 0 0 1-11.52 1.58c-8 0-11.16-4.78-12.44-9s-1.92-8.3-2.88-12.1-2.24-10.54-3.54-12.16c-40.92-4.74-62.93-13.7-68-26.15a12.81 12.81 0 0 1-1.17-4.8 10.58 10.58 0 0 1 9-10.86c69.63-11.52 100.91-82.75 102.21-85.76l.34-.62c3.84-7.36 4.78-13.76 2.54-18.54-4.16-9.26-18.86-14-28.42-17.26a47.65 47.65 0 0 1-7.38-2.54c-23.62-9.28-26.82-19.84-25.54-27.16 1.92-10.22 14.38-16.92 24.92-16.92a21.61 21.61 0 0 1 8.17 1.58c9 4.14 16.83 6.4 23.55 6.4a20.17 20.17 0 0 0 9.92-2.24l-1-12.14c-2.09-34.69-4.8-77.89 6.55-103.19 32.83-75.24 104.24-81 125.31-81l8.94-.32h1.28z"/>
</g><g id="hat" transform="rotate(-19.664861,2554.5888,-1846.2773)"><path id="🎅" style="fill:rgb(255, 59, 68);stroke:#ffffff;stroke-width:39.4767;stroke-linecap:square;stroke-linejoin:round;stroke-miterlimit:5;stroke-dasharray:none;stroke-opacity:1" d="M 1.3888427 -777.64079 C -126.41754 -822.85625 -272.88081 -794.17541 -427.74092 -723.17061 L -411.15071 -760.0823 L -459.32489 -749.02795 L -495.42034 -783.89788 L -500.16434 -732.99008 L -543.31109 -708.17992 L -498.06911 -687.77279 L -488.63916 -637.57198 L -455.93489 -675.86625 L -406.96025 -669.64773 L -425.31773 -701.97648 C -290.88513 -689.16754 -86.608888 -639.13439 -273.63981 -347.58743 C -128.15384 -457.46783 0.38614654 -456.79247 307.39427 -419.56777 C 228.26451 -624.2273 123.30628 -734.50873 1.3888427 -777.64079 z "/></g></svg>
