<svg xmlns="http://www.w3.org/2000/svg" viewBox="0 0 1536 1536">
   <g id="original" transform="translate(256,256)"><circle cx="512" cy="512" r="512" style="fill:#06f"/>
   <path d="M491 394.23a148.68 148.68 0 0 0 126.9 55.23 5.12 5.12 0 0 1 4.83 7.92 148.75 148.75 0 0 0-13.29 137.77 5.12 5.12 0 0 1-6.09 6.86 148.74 148.74 0 0 0-135.31 30 5.17 5.17 0 0 1-8.46-3.67 148.7 148.7 0 0 0-70.19-119.24 5.17 5.17 0 0 1 .87-9.18 148.69 148.69 0 0 0 91.82-103.66 5.12 5.12 0 0 1 8.94-2ZM512 296a216.25 216.25 0 1 1-152.67 63.34A216 216 0 0 1 512 296Zm0-58a274 274 0 1 0 193.75 80.25A274 274 0 0 0 512 238Z" style="fill:#fff"/>
</g><g id="hat" transform="rotate(-19.664861,2554.5888,-1846.2773)"><path id="🎅" style="fill:rgb(255, 1, 32);stroke:#ffffff;stroke-width:39.4767;stroke-linecap:square;stroke-linejoin:round;stroke-miterlimit:5;stroke-dasharray:none;stroke-opacity:1" d="M 1.3888427 -777.64079 C -126.41754 -822.85625 -272.88081 -794.17541 -427.74092 -723.17061 L -411.15071 -760.0823 L -459.32489 -749.02795 L -495.42034 -783.89788 L -500.16434 -732.99008 L -543.31109 -708.17992 L -498.06911 -687.77279 L -488.63916 -637.57198 L -455.93489 -675.86625 L -406.96025 -669.64773 L -425.31773 -701.97648 C -290.88513 -689.16754 -86.608888 -639.13439 -273.63981 -347.58743 C -128.15384 -457.46783 0.38614654 -456.79247 307.39427 -419.56777 C 228.26451 -624.2273 123.30628 -734.50873 1.3888427 -777.64079 z "/></g></svg>
