<svg xmlns="http://www.w3.org/2000/svg" viewBox="0 0 1536 1536">
   <g id="original" transform="translate(256,256)"><circle cx="512" cy="512" r="512" style="fill:#006aff"/>
   <path d="M666.46 280H357.54A77.53 77.53 0 0 0 280 357.54v308.92A77.53 77.53 0 0 0 357.54 744h308.92A77.53 77.53 0 0 0 744 666.46V357.54A77.53 77.53 0 0 0 666.46 280Zm-6.81 355.15a24.49 24.49 0 0 1-24.49 24.49H388.84a24.49 24.49 0 0 1-24.49-24.49V388.84a24.49 24.49 0 0 1 24.49-24.49h246.32a24.49 24.49 0 0 1 24.49 24.49ZM462.78 575a14 14 0 0 1-14-14.09v-98.37a14.08 14.08 0 0 1 14-14.14h98.48a14.08 14.08 0 0 1 14 14.14v98.29a14.07 14.07 0 0 1-14 14.09h-98.48Z" style="fill:#fff"/>
</g><g id="hat" transform="rotate(-19.664861,2554.5888,-1846.2773)"><path id="🎅" style="fill:rgb(255, 80, 96);stroke:#ffffff;stroke-width:39.4767;stroke-linecap:square;stroke-linejoin:round;stroke-miterlimit:5;stroke-dasharray:none;stroke-opacity:1" d="M 1.3888427 -777.64079 C -126.41754 -822.85625 -272.88081 -794.17541 -427.74092 -723.17061 L -411.15071 -760.0823 L -459.32489 -749.02795 L -495.42034 -783.89788 L -500.16434 -732.99008 L -543.31109 -708.17992 L -498.06911 -687.77279 L -488.63916 -637.57198 L -455.93489 -675.86625 L -406.96025 -669.64773 L -425.31773 -701.97648 C -290.88513 -689.16754 -86.608888 -639.13439 -273.63981 -347.58743 C -128.15384 -457.46783 0.38614654 -456.79247 307.39427 -419.56777 C 228.26451 -624.2273 123.30628 -734.50873 1.3888427 -777.64079 z "/></g></svg>
