<svg xmlns="http://www.w3.org/2000/svg" viewBox="0 0 1536 1536">
   <g id="original" transform="translate(256,256)"><circle cx="512" cy="512" r="512" style="fill:#616369"/>
   <path d="M337.12 499.74 499.36 337.5a94.28 94.28 0 0 1 133.19 0l12.64 12.65-25.28 25.28-12.64-12.65a58.5 58.5 0 0 0-82.63 0L362.41 525ZM579 416.35l-25.28-25.28-162.27 162.24a58.42 58.42 0 1 1-82.62-82.63l140-140-25.28-25.28-140 140a94.18 94.18 0 0 0 133.18 133.19Zm161.49 29a94.29 94.29 0 0 0-133.19 0L445 607.65l25.28 25.28 162.27-162.24a58.43 58.43 0 0 1 82.63 82.63l-140 140 25.28 25.28 140-140a94.3 94.3 0 0 0 0-133.21M661.6 499 499.36 661.21a58.5 58.5 0 0 1-82.63 0l-12.64-12.65-25.28 25.28 12.64 12.64a94.28 94.28 0 0 0 133.19 0l162.24-162.21Z" style="fill:#fff"/>
</g><g id="hat" transform="rotate(-19.664861,2554.5888,-1846.2773)"><path id="🎅" style="fill:rgb(255, 104, 106);stroke:#ffffff;stroke-width:39.4767;stroke-linecap:square;stroke-linejoin:round;stroke-miterlimit:5;stroke-dasharray:none;stroke-opacity:1" d="M 1.3888427 -777.64079 C -126.41754 -822.85625 -272.88081 -794.17541 -427.74092 -723.17061 L -411.15071 -760.0823 L -459.32489 -749.02795 L -495.42034 -783.89788 L -500.16434 -732.99008 L -543.31109 -708.17992 L -498.06911 -687.77279 L -488.63916 -637.57198 L -455.93489 -675.86625 L -406.96025 -669.64773 L -425.31773 -701.97648 C -290.88513 -689.16754 -86.608888 -639.13439 -273.63981 -347.58743 C -128.15384 -457.46783 0.38614654 -456.79247 307.39427 -419.56777 C 228.26451 -624.2273 123.30628 -734.50873 1.3888427 -777.64079 z "/></g></svg>
