<svg xmlns="http://www.w3.org/2000/svg" viewBox="0 0 1536 1536">
   <g id="original" transform="translate(256,256)"><circle cx="512" cy="512" r="512" style="fill:#1387b8"/>
   <path d="M511.55 256c-134.42 0-244.64 103.68-255.07 235.45l137.21 56.7a72.26 72.26 0 0 1 40.79-12.59c1.34 0 2.67.09 4 .13l61-88.36v-1.26A96.51 96.51 0 1 1 596 542.68h-2.24l-87 62.1c0 1.11.09 2.24.09 3.39a72.39 72.39 0 0 1-143.38 14.27l-98.24-40.68C295.73 689.21 394.37 768 511.55 768c141.37 0 256-114.62 256-256s-114.65-256-256-256Zm-94.7 388.47-31.42-13a54.27 54.27 0 0 0 99.11-2.67 54.3 54.3 0 0 0-69.33-71.72l32.49 13.44a40.06 40.06 0 0 1-30.83 74ZM660.37 446a64.32 64.32 0 1 0-64.32 64.32A64.4 64.4 0 0 0 660.37 446Zm-112.49-.11a48.33 48.33 0 1 1 48.32 48.32 48.31 48.31 0 0 1-48.32-48.3Z" style="fill:#fff"/>
</g><g id="hat" transform="rotate(-19.664861,2554.5888,-1846.2773)"><path id="🎅" style="fill:rgb(255, 100, 8);stroke:#ffffff;stroke-width:39.4767;stroke-linecap:square;stroke-linejoin:round;stroke-miterlimit:5;stroke-dasharray:none;stroke-opacity:1" d="M 1.3888427 -777.64079 C -126.41754 -822.85625 -272.88081 -794.17541 -427.74092 -723.17061 L -411.15071 -760.0823 L -459.32489 -749.02795 L -495.42034 -783.89788 L -500.16434 -732.99008 L -543.31109 -708.17992 L -498.06911 -687.77279 L -488.63916 -637.57198 L -455.93489 -675.86625 L -406.96025 -669.64773 L -425.31773 -701.97648 C -290.88513 -689.16754 -86.608888 -639.13439 -273.63981 -347.58743 C -128.15384 -457.46783 0.38614654 -456.79247 307.39427 -419.56777 C 228.26451 -624.2273 123.30628 -734.50873 1.3888427 -777.64079 z "/></g></svg>
