<svg xmlns="http://www.w3.org/2000/svg" viewBox="0 0 1536 1536">
   <g id="original" transform="translate(256,256)"><circle cx="512" cy="512" r="512" style="fill:#aab0c6"/>
   <path d="M588.88 298h-272a18.06 18.06 0 0 0-18.13 18v124.52h255.08a19.38 19.38 0 0 1 14 6l59.2 62.12a3.58 3.58 0 0 1 0 4.94l-59.2 62.72c-3.65 3.86-7.65 7-13 7H298.76V708a18.06 18.06 0 0 0 18.13 18h271.94a22.67 22.67 0 0 0 16-6.57l183.7-182.55a36.14 36.14 0 0 0-.11-51.45L604.79 304.52a22.68 22.68 0 0 0-15.91-6.52Z" style="fill:#fff"/>
</g><g id="hat" transform="rotate(-19.664861,2554.5888,-1846.2773)"><path id="🎅" style="fill:rgb(255, 16, 101);stroke:#ffffff;stroke-width:39.4767;stroke-linecap:square;stroke-linejoin:round;stroke-miterlimit:5;stroke-dasharray:none;stroke-opacity:1" d="M 1.3888427 -777.64079 C -126.41754 -822.85625 -272.88081 -794.17541 -427.74092 -723.17061 L -411.15071 -760.0823 L -459.32489 -749.02795 L -495.42034 -783.89788 L -500.16434 -732.99008 L -543.31109 -708.17992 L -498.06911 -687.77279 L -488.63916 -637.57198 L -455.93489 -675.86625 L -406.96025 -669.64773 L -425.31773 -701.97648 C -290.88513 -689.16754 -86.608888 -639.13439 -273.63981 -347.58743 C -128.15384 -457.46783 0.38614654 -456.79247 307.39427 -419.56777 C 228.26451 -624.2273 123.30628 -734.50873 1.3888427 -777.64079 z "/></g></svg>
