<svg xmlns="http://www.w3.org/2000/svg" viewBox="0 0 1536 1536">
   <g id="original" transform="translate(256,256)"><circle cx="512" cy="512" r="512" style="fill:#aab0c6"/>
   <path d="M333.9 435.8h49.6l-2 5.1c-1.1 2.8-13.9 37.7-28.7 77.4L326 590.5l-26.4.2-26.5.3-29-76.7c-15.9-42.2-29.1-77.2-29.3-77.6-.2-.5 11.2-.9 25.2-.9h25.5l3.4 11c2 6.1 9.6 30.7 17.1 54.7 7.6 24 13.8 43.2 14.1 42.7.3-.5 7.9-25 17.1-54.7l16.7-53.7zm86.5-1.5c-18.2 2.9-31.5 12.6-37.6 27.1-3.1 7.6-6 20-4.8 21.2.8.8 42.1 4.2 43.2 3.5.4-.2.7-1.5.7-2.7 0-3.7 3.7-12.7 6.2-15 3-2.9 8.8-5.1 13.2-5.1 7.1.1 14.6 5 16.9 11.1 4.1 10.7-2.9 20.8-27.7 39.8-27.3 20.8-41 34.9-48.1 49.7-3.8 7.8-7.2 18-7.8 23.2l-.3 3.4h129.6l.3-17.5.2-17.4h-33.6l-33.7-.1 5.4-4.8c2.9-2.7 8.9-7.4 13.3-10.5 21.8-15.4 32.5-24.8 38.5-34.1 9.2-14 11-32.2 4.3-46.2-5.8-12.3-15.9-20.1-31.2-24.1-10.4-2.8-34.5-3.6-47-1.5zm362.5 115.6c-13.9-21.2-25.3-38.8-25.3-39.1 0-.4 10.6-17.2 23.6-37.3 13-20.2 23.6-37 23.6-37.3 0-.3-11.9-.5-26.3-.5h-26.3l-12.7 22.6c-6.9 12.5-12.9 22.8-13.3 23.1-.3.2-6.6-10-13.8-22.6l-13.2-23.1h-26.7c-14.7 0-26.8.2-26.8.4s10.7 16.7 23.8 36.6c13.1 19.8 23.7 36.6 23.7 37.3 0 .7-10.8 17.4-24 37.2l-24 36-.3-13.8-.3-13.9-40.9-.2-40.9-.3v-29.5l37.1-.3 37-.2-.2-16-.3-15.9-37-.3-37.1-.2V469h80.5v-33.4H514.1v155.1l90.5-.2 90.5-.3 14.5-23.6c8.1-13 14.8-23.7 15.3-23.8.4-.2 7.3 10.5 15.4 23.8l14.6 24h27.4c21.6 0 27.2-.3 26.6-1.3-.3-.3-12-18.2-26-39.4z" style="fill:#fff"/>
</g><g id="hat" transform="rotate(-19.664861,2554.5888,-1846.2773)"><path id="🎅" style="fill:rgb(255, 94, 115);stroke:#ffffff;stroke-width:39.4767;stroke-linecap:square;stroke-linejoin:round;stroke-miterlimit:5;stroke-dasharray:none;stroke-opacity:1" d="M 1.3888427 -777.64079 C -126.41754 -822.85625 -272.88081 -794.17541 -427.74092 -723.17061 L -411.15071 -760.0823 L -459.32489 -749.02795 L -495.42034 -783.89788 L -500.16434 -732.99008 L -543.31109 -708.17992 L -498.06911 -687.77279 L -488.63916 -637.57198 L -455.93489 -675.86625 L -406.96025 -669.64773 L -425.31773 -701.97648 C -290.88513 -689.16754 -86.608888 -639.13439 -273.63981 -347.58743 C -128.15384 -457.46783 0.38614654 -456.79247 307.39427 -419.56777 C 228.26451 -624.2273 123.30628 -734.50873 1.3888427 -777.64079 z "/></g></svg>
