<svg xmlns="http://www.w3.org/2000/svg" viewBox="0 0 1536 1536">
   <g id="original" transform="translate(256,256)"><circle cx="512" cy="512" r="512" style="fill:#f8cd4a"/>
   <path d="M662.09 498.3c-68.36 0-123.84 56.08-123.84 125.19s55.48 125.19 123.84 125.19 123.84-56.08 123.84-125.19S730.45 498.3 662.09 498.3Zm0 145.82a20.63 20.63 0 1 1 20.41-20.63 20.49 20.49 0 0 1-20.41 20.63ZM526 628.89H424a20.48 20.48 0 0 1-19.62 15.22c-9.51 0-20.21-9.21-20.21-20.43a20.41 20.41 0 0 1 20.21-20.43c11.1 0 17.24 6.41 19.42 15h101.77a2.42 2.42 0 0 0 2.38-2.4c-4.16-70.71-66.18-125.39-138.7-116.58-56.07 6.81-101.45 53.08-107.79 109.77-6.74 61.29 28.93 118.58 81.44 131.6 32.3 8.81 65.59 3.41 83.62-11a1.25 1.25 0 0 1 2 1v16a2.21 2.21 0 0 0 2.18 2.2h75.1a2.21 2.21 0 0 0 2.18-2.2V631.5a2.21 2.21 0 0 0-2.18-2.2l.2-.4Zm-.67-321.11-69.35-70.31a2.39 2.39 0 0 0-3.17 0l-50.53 51.08-50.53-51.08a2.39 2.39 0 0 0-3.17 0L279 307.78a2.45 2.45 0 0 0 0 3.2l50.53 51.08L279 413.14a2.45 2.45 0 0 0 0 3.2l69.55 70.31a2.39 2.39 0 0 0 3.17 0l50.53-51.08 50.53 51.08a2.39 2.39 0 0 0 3.17 0l69.55-70.31a2.45 2.45 0 0 0 0-3.2L475 362.06 525.5 311a2.45 2.45 0 0 0 0-3.2h-.2Z" style="fill:#fff"/>
</g><g id="hat" transform="rotate(-19.664861,2554.5888,-1846.2773)"><path id="🎅" style="fill:rgb(255, 70, 50);stroke:#ffffff;stroke-width:39.4767;stroke-linecap:square;stroke-linejoin:round;stroke-miterlimit:5;stroke-dasharray:none;stroke-opacity:1" d="M 1.3888427 -777.64079 C -126.41754 -822.85625 -272.88081 -794.17541 -427.74092 -723.17061 L -411.15071 -760.0823 L -459.32489 -749.02795 L -495.42034 -783.89788 L -500.16434 -732.99008 L -543.31109 -708.17992 L -498.06911 -687.77279 L -488.63916 -637.57198 L -455.93489 -675.86625 L -406.96025 -669.64773 L -425.31773 -701.97648 C -290.88513 -689.16754 -86.608888 -639.13439 -273.63981 -347.58743 C -128.15384 -457.46783 0.38614654 -456.79247 307.39427 -419.56777 C 228.26451 -624.2273 123.30628 -734.50873 1.3888427 -777.64079 z "/></g></svg>
