<svg xmlns="http://www.w3.org/2000/svg" viewBox="0 0 1536 1536">
   <g id="original" transform="translate(256,256)"><circle cx="512" cy="512" r="512" style="fill:#f34"/>
   <path d="m512 576.14 77.28-215.57h171.38s24.15 1.19 35.42-12.68c6.72-.48-1.41 28.93-9 50.55-7.15 20.28-16 31.87-36.06 31.87h-90.9l-96.6 275.8h-103l-96.6-275.8H273c-20.1 0-28.91-11.59-36.06-31.87-7.62-21.61-15.74-51-9-50.55 11.27 13.87 35.42 12.68 35.42 12.68h171.36L512 576.14ZM302 468.36s-24.15 1.19-35.42-12.68c-6.72-.48 1.41 28.93 9 50.55 7.15 20.28 16 31.87 36.06 31.87h71.56l-24.15-69.74Zm38.64 107.78s-24.15 1.19-35.42-12.68c-6.72-.48 1.41 28.93 9 50.55 7.15 20.28 16 31.87 36.06 31.87h71.56l-24.15-69.74ZM722 468.36s24.15 1.19 35.42-12.68c6.72-.48-1.41 28.93-9 50.55-7.15 20.28-16 31.87-36.06 31.87H640.8l24.15-69.74Zm-38.62 107.78s24.15 1.19 35.42-12.68c6.72-.48-1.41 28.93-9 50.55-7.15 20.28-16 31.87-36.06 31.87h-71.58l24.15-69.74Z" style="fill:#fff"/>
</g><g id="hat" transform="rotate(-19.664861,2554.5888,-1846.2773)"><path id="🎅" style="fill:rgb(255, 81, 46);stroke:#ffffff;stroke-width:39.4767;stroke-linecap:square;stroke-linejoin:round;stroke-miterlimit:5;stroke-dasharray:none;stroke-opacity:1" d="M 1.3888427 -777.64079 C -126.41754 -822.85625 -272.88081 -794.17541 -427.74092 -723.17061 L -411.15071 -760.0823 L -459.32489 -749.02795 L -495.42034 -783.89788 L -500.16434 -732.99008 L -543.31109 -708.17992 L -498.06911 -687.77279 L -488.63916 -637.57198 L -455.93489 -675.86625 L -406.96025 -669.64773 L -425.31773 -701.97648 C -290.88513 -689.16754 -86.608888 -639.13439 -273.63981 -347.58743 C -128.15384 -457.46783 0.38614654 -456.79247 307.39427 -419.56777 C 228.26451 -624.2273 123.30628 -734.50873 1.3888427 -777.64079 z "/></g></svg>
