<svg xmlns="http://www.w3.org/2000/svg" viewBox="0 0 1536 1536">
   <g id="original" transform="translate(256,256)"><circle cx="512" cy="512" r="512" style="fill:#ffc708"/>
   <path d="M512 256c-141.39 0-256 114.62-256 256s114.61 256 256 256 256-114.62 256-256-114.62-256-256-256zm29.12 38.11 39.55 10.09v55.39l44.22-36.37 32.81 24.22-84.24 69.28-32.33-.17zM347.71 625.62 308.17 592V441.57l39.55-36.28zM425.17 673l-39.55 34.4V320.05l39.55 34.4zm199.71 33.16-44.22-36.37v55.39l-39.55 10.09V612.83l32.33-.17 84.24 69.27zm58.28-52.78L585 575h-81.66v160.27H463.8V535.48h135l109 87zm55.91-177.64L695.15 512l43.93 36.25-25.17 30.51L633 512l80.89-66.75zM598.8 488.52h-135v-199.8h39.55V449H585l98.21-78.37 24.67 30.91z"/>
</g><g id="hat" transform="rotate(-19.664861,2554.5888,-1846.2773)"><path id="🎅" style="fill:rgb(255, 2, 24);stroke:#ffffff;stroke-width:39.4767;stroke-linecap:square;stroke-linejoin:round;stroke-miterlimit:5;stroke-dasharray:none;stroke-opacity:1" d="M 1.3888427 -777.64079 C -126.41754 -822.85625 -272.88081 -794.17541 -427.74092 -723.17061 L -411.15071 -760.0823 L -459.32489 -749.02795 L -495.42034 -783.89788 L -500.16434 -732.99008 L -543.31109 -708.17992 L -498.06911 -687.77279 L -488.63916 -637.57198 L -455.93489 -675.86625 L -406.96025 -669.64773 L -425.31773 -701.97648 C -290.88513 -689.16754 -86.608888 -639.13439 -273.63981 -347.58743 C -128.15384 -457.46783 0.38614654 -456.79247 307.39427 -419.56777 C 228.26451 -624.2273 123.30628 -734.50873 1.3888427 -777.64079 z "/></g></svg>
