<svg xmlns="http://www.w3.org/2000/svg" viewBox="0 0 1536 1536">
   <g id="original" transform="translate(256,256)"><circle cx="512" cy="512" r="512" style="fill:#29d7a4"/>
   <path d="M697.4 367.1H547.5l86.8-86.8-21.5-21.5-100.4 100.4-101.9-100.4-21.5 21.5 86.1 86.1H327.3c-22.3-.4-40.6 17.8-40.2 40.2v236c0 21.8 17.7 39.4 39.4 39.4h46.6l25.8 40.9c1.7 2.7 4.7 4.3 7.9 4.3 3.5.3 6.8-1.4 8.6-4.3l25.8-40.9h136.3l25.8 40.9c1.9 2.9 5.2 4.6 8.6 4.3 3.6 0 6.4-1.5 7.9-4.3l25.8-40.9h51.6c21.8 0 39.4-17.7 39.4-39.4V405.8c-.1-21.4-17.7-38.7-39.2-38.7z" style="fill:#fff"/>
</g><g id="hat" transform="rotate(-19.664861,2554.5888,-1846.2773)"><path id="🎅" style="fill:rgb(255, 59, 75);stroke:#ffffff;stroke-width:39.4767;stroke-linecap:square;stroke-linejoin:round;stroke-miterlimit:5;stroke-dasharray:none;stroke-opacity:1" d="M 1.3888427 -777.64079 C -126.41754 -822.85625 -272.88081 -794.17541 -427.74092 -723.17061 L -411.15071 -760.0823 L -459.32489 -749.02795 L -495.42034 -783.89788 L -500.16434 -732.99008 L -543.31109 -708.17992 L -498.06911 -687.77279 L -488.63916 -637.57198 L -455.93489 -675.86625 L -406.96025 -669.64773 L -425.31773 -701.97648 C -290.88513 -689.16754 -86.608888 -639.13439 -273.63981 -347.58743 C -128.15384 -457.46783 0.38614654 -456.79247 307.39427 -419.56777 C 228.26451 -624.2273 123.30628 -734.50873 1.3888427 -777.64079 z "/></g></svg>
