<svg xmlns="http://www.w3.org/2000/svg" viewBox="0 0 1536 1536">
   <g id="original" transform="translate(256,256)"><circle cx="512" cy="512" r="512" style="fill:#fddd35"/>
   <path d="M174.9 514.9v-5.62a26.22 26.22 0 0 0 18.46-7.6 25.84 25.84 0 0 0 7.64-18.32h5.22a25.78 25.78 0 0 0 7.64 18.36 26.14 26.14 0 0 0 18.48 7.61v5.61a26.22 26.22 0 0 0-18.46 7.6 25.84 25.84 0 0 0-7.65 18.33H201a25.78 25.78 0 0 0-7.64-18.36 26.27 26.27 0 0 0-18.46-7.61Zm26.1-41.28h44.91c21.94 0 37.62 15.56 37.62 38.38s-15.67 38.38-37.61 38.38H201v65.35h18.79V567h26.12c31.55 0 56.41-24.69 56.41-55s-24.87-55-56.41-55H201Zm168.81-16.8c16.5 0 31.13 8.3 40.32 21.37v-18H429v103.67h-18.8v-18c-9.42 13.09-24 21.37-40.32 21.37-30.93 0-57-24.27-57-55.18s26.02-55.23 56.95-55.23Zm0 93.77c24.23 0 40.32-16.6 40.32-38.58 0-22.2-15.87-38.58-40.32-38.58-21.73 0-38.24 15.56-38.24 38.58s16.53 38.57 38.26 38.57Zm128.69-93.77c16.51 0 31.13 8.3 40.32 21.37v-69.91h18.8v155.58h-18.8v-18c-9.19 13.09-23.81 21.37-40.32 21.37-30.92 0-57-24.27-57-55.18s26.1-55.23 57.02-55.23Zm0 93.77c24.44 0 40.32-16.39 40.32-38.58s-15.82-38.59-40.3-38.59c-21.73 0-38.24 15.56-38.24 38.58s16.52 38.58 38.24 38.58Zm130.79-93.77c16.51 0 31.13 8.3 40.33 21.37v-69.91h18.8v155.58h-18.8v-18c-9.2 13.09-23.82 21.37-40.33 21.37-30.92 0-57-24.27-57-55.18s26.11-55.23 57.03-55.23Zm0 93.77c24.45 0 40.33-16.39 40.33-38.58s-15.88-38.58-40.33-38.58c-21.73 0-38.23 15.56-38.23 38.58s16.53 38.57 38.26 38.57Zm77.91 13.28V408.28H726v155.58ZM795.62 457c36.14 0 53.48 28 53.48 62.24h-90.25c2.92 20.12 18 33.19 36.77 33.19 13 0 23-5.81 30.5-17.22h20.27c-7.1 16-25.69 31.74-50.77 31.74-31.55 0-56-25.1-56-55s24.45-55 56-55Zm34.68 47.72c0-17-14.62-33.2-34.68-33.2-18.8 0-33.85 13.1-36.77 33.2Z"/>
</g><g id="hat" transform="rotate(-19.664861,2554.5888,-1846.2773)"><path id="🎅" style="fill:rgb(255, 87, 84);stroke:#ffffff;stroke-width:39.4767;stroke-linecap:square;stroke-linejoin:round;stroke-miterlimit:5;stroke-dasharray:none;stroke-opacity:1" d="M 1.3888427 -777.64079 C -126.41754 -822.85625 -272.88081 -794.17541 -427.74092 -723.17061 L -411.15071 -760.0823 L -459.32489 -749.02795 L -495.42034 -783.89788 L -500.16434 -732.99008 L -543.31109 -708.17992 L -498.06911 -687.77279 L -488.63916 -637.57198 L -455.93489 -675.86625 L -406.96025 -669.64773 L -425.31773 -701.97648 C -290.88513 -689.16754 -86.608888 -639.13439 -273.63981 -347.58743 C -128.15384 -457.46783 0.38614654 -456.79247 307.39427 -419.56777 C 228.26451 -624.2273 123.30628 -734.50873 1.3888427 -777.64079 z "/></g></svg>
