<svg xmlns="http://www.w3.org/2000/svg" viewBox="0 0 1536 1536">
   <g id="original" transform="translate(256,256)"><circle cx="512" cy="512" r="512" style="fill:#055bb5"/>
   <path d="M560.1 658.9H390.7v-58.3l169.3.7c16.7 0 30.3-13.6 30.3-30.3 0-16.7-13.6-30.3-30.3-30.3h-94c-48.4 0-88-39.6-88-88s39.6-87.9 88-87.9h169.3v58.3l-169.3-.7c-16.7 0-30.3 13.6-30.3 30.3 0 16.7 13.6 30.3 30.3 30.3h94c48.4 0 87.9 39.6 87.9 88 .1 48.3-39.5 87.9-87.8 87.9zM256 285.8v323.7c0 33.7 18.3 64.7 47.7 81.1l208.1 115.6 208.4-115.7c29.5-16.4 47.8-47.4 47.8-81.1V285.8H256z" style="fill:#fff"/>
</g><g id="hat" transform="rotate(-19.664861,2554.5888,-1846.2773)"><path id="🎅" style="fill:rgb(255, 36, 14);stroke:#ffffff;stroke-width:39.4767;stroke-linecap:square;stroke-linejoin:round;stroke-miterlimit:5;stroke-dasharray:none;stroke-opacity:1" d="M 1.3888427 -777.64079 C -126.41754 -822.85625 -272.88081 -794.17541 -427.74092 -723.17061 L -411.15071 -760.0823 L -459.32489 -749.02795 L -495.42034 -783.89788 L -500.16434 -732.99008 L -543.31109 -708.17992 L -498.06911 -687.77279 L -488.63916 -637.57198 L -455.93489 -675.86625 L -406.96025 -669.64773 L -425.31773 -701.97648 C -290.88513 -689.16754 -86.608888 -639.13439 -273.63981 -347.58743 C -128.15384 -457.46783 0.38614654 -456.79247 307.39427 -419.56777 C 228.26451 -624.2273 123.30628 -734.50873 1.3888427 -777.64079 z "/></g></svg>
