<svg xmlns="http://www.w3.org/2000/svg" viewBox="0 0 1536 1536">
   <g id="original" transform="translate(256,256)"><circle cx="512" cy="512" r="512" style="fill:#3bbbbc"/>
   <path d="M511.34 402.56c108.07 0 196.38 88.3 196.38 196.38C707.72 705.7 619.41 794 511.34 794s-195.06-88.3-195.06-195.06c0-108.07 86.99-196.38 195.06-196.38ZM363.73 294.49c0-34.27 26.36-72.49 77.76-72.49h145c47.45 0 72.49 40.86 72.49 71.17v46.13l-46.16-1.3v-42.19c0-15.82-13.18-27.68-26.36-27.68H436.22c-14.5 0-26.36 11.86-26.36 25 1.32 14.5 0 109.39 0 109.39a225.17 225.17 0 0 0-22.41 14.5C376.91 425 365 435.51 365 435.51s-1.27-105.44-1.27-141.02Zm-2.64 304.45c0 81.71 67.22 148.93 150.25 148.93s150.25-67.22 150.25-148.93a150.25 150.25 0 1 0-300.5 0Zm150.25-117.3c64.58 0 117.3 52.72 117.3 117.3 0 63.26-52.72 116-117.3 116-63.26 0-116-52.72-116-116 .02-64.58 52.74-117.3 116-117.3Zm-39.54 90.94c0 13.18 6.59 26.36 17.13 32.95v58h46.13v-58c9.23-6.59 17.13-19.77 17.13-32.95 0-22.41-18.45-39.54-40.86-39.54a39.65 39.65 0 0 0-39.53 39.54Z" style="fill:#fff"/>
</g><g id="hat" transform="rotate(-19.664861,2554.5888,-1846.2773)"><path id="🎅" style="fill:rgb(255, 25, 88);stroke:#ffffff;stroke-width:39.4767;stroke-linecap:square;stroke-linejoin:round;stroke-miterlimit:5;stroke-dasharray:none;stroke-opacity:1" d="M 1.3888427 -777.64079 C -126.41754 -822.85625 -272.88081 -794.17541 -427.74092 -723.17061 L -411.15071 -760.0823 L -459.32489 -749.02795 L -495.42034 -783.89788 L -500.16434 -732.99008 L -543.31109 -708.17992 L -498.06911 -687.77279 L -488.63916 -637.57198 L -455.93489 -675.86625 L -406.96025 -669.64773 L -425.31773 -701.97648 C -290.88513 -689.16754 -86.608888 -639.13439 -273.63981 -347.58743 C -128.15384 -457.46783 0.38614654 -456.79247 307.39427 -419.56777 C 228.26451 -624.2273 123.30628 -734.50873 1.3888427 -777.64079 z "/></g></svg>
