<svg xmlns="http://www.w3.org/2000/svg" viewBox="0 0 1536 1536">
   <g id="original" transform="translate(256,256)"><circle cx="512" cy="512" r="512" style="fill:#fcb400"/>
   <path d="M484.52 303.43 294 382.22c-10.73 4.45-10.47 19.37.26 23.82L485.82 482a69.67 69.67 0 0 0 52.35 0l191.61-76c10.73-4.19 10.73-19.37.26-23.82L539 303.43a70.16 70.16 0 0 0-54.45 0m44.24 220.14v189.78a12.79 12.79 0 0 0 17.54 11.78l213.6-83a12.45 12.45 0 0 0 8.07-11.76V440.59a12.79 12.79 0 0 0-17.54-11.78l-213.6 82.72a13.05 13.05 0 0 0-8.11 12M479 533.26l-63.35 30.63-6.52 3.11-133.76 64.15C267 635.34 256 629.06 256 619.64V441.38c0-3.4 1.83-6.28 4.19-8.64a12.3 12.3 0 0 1 3.14-2.36 13.59 13.59 0 0 1 11.52-.79L477.71 510c10.47 3.93 11.26 18.58 1.31 23.3" style="fill:#fff"/>
</g><g id="hat" transform="rotate(-19.664861,2554.5888,-1846.2773)"><path id="🎅" style="fill:rgb(255, 11, 23);stroke:#ffffff;stroke-width:39.4767;stroke-linecap:square;stroke-linejoin:round;stroke-miterlimit:5;stroke-dasharray:none;stroke-opacity:1" d="M 1.3888427 -777.64079 C -126.41754 -822.85625 -272.88081 -794.17541 -427.74092 -723.17061 L -411.15071 -760.0823 L -459.32489 -749.02795 L -495.42034 -783.89788 L -500.16434 -732.99008 L -543.31109 -708.17992 L -498.06911 -687.77279 L -488.63916 -637.57198 L -455.93489 -675.86625 L -406.96025 -669.64773 L -425.31773 -701.97648 C -290.88513 -689.16754 -86.608888 -639.13439 -273.63981 -347.58743 C -128.15384 -457.46783 0.38614654 -456.79247 307.39427 -419.56777 C 228.26451 -624.2273 123.30628 -734.50873 1.3888427 -777.64079 z "/></g></svg>
