<svg xmlns="http://www.w3.org/2000/svg" viewBox="0 0 1536 1536">
   <g id="original" transform="translate(256,256)"><circle cx="512" cy="512" r="512" style="fill:#ed6b1e"/>
   <path d="M426.81 492h170.8v38.34h-170.8Zm256-139.71H569.93L597.19 391l82.64 25.13a35 35 0 0 1 24.71 34.08v123.55a35.67 35.67 0 0 1-24.71 34.08L597.61 633l-27.69 38.76h112.89A85.17 85.17 0 0 0 768 586.54V437.46c.43-46.85-37.91-85.19-85.19-85.19m-341.61 0h112.87L426.81 391l-82.21 25.16a35 35 0 0 0-24.71 34.08v123.52a35.67 35.67 0 0 0 24.71 34.08L426.81 633l27.26 38.76H341.19A85.44 85.44 0 0 1 256 586.54V437.46a85.44 85.44 0 0 1 85.19-85.19" style="fill:#fff"/>
</g><g id="hat" transform="rotate(-19.664861,2554.5888,-1846.2773)"><path id="🎅" style="fill:rgb(255, 37, 109);stroke:#ffffff;stroke-width:39.4767;stroke-linecap:square;stroke-linejoin:round;stroke-miterlimit:5;stroke-dasharray:none;stroke-opacity:1" d="M 1.3888427 -777.64079 C -126.41754 -822.85625 -272.88081 -794.17541 -427.74092 -723.17061 L -411.15071 -760.0823 L -459.32489 -749.02795 L -495.42034 -783.89788 L -500.16434 -732.99008 L -543.31109 -708.17992 L -498.06911 -687.77279 L -488.63916 -637.57198 L -455.93489 -675.86625 L -406.96025 -669.64773 L -425.31773 -701.97648 C -290.88513 -689.16754 -86.608888 -639.13439 -273.63981 -347.58743 C -128.15384 -457.46783 0.38614654 -456.79247 307.39427 -419.56777 C 228.26451 -624.2273 123.30628 -734.50873 1.3888427 -777.64079 z "/></g></svg>
