<svg xmlns="http://www.w3.org/2000/svg" viewBox="0 0 1536 1536">
   <g id="original" transform="translate(256,256)"><circle cx="512" cy="512" r="512" style="fill:#999"/>
   <path d="M407.2 722.1c-10.1-6.7-19-15-26.5-24.5-8.2-9.9-15.7-20.3-22.7-31-16.3-23.9-29.1-50-38-77.5-10.7-32-15.8-62.7-15.8-92.7 0-33.5 7.2-62.7 21.4-87.2 10.4-19.2 26-35.2 44.8-46.5 18.1-11.3 39.2-17.5 60.6-17.9 7.5 0 15.6 1.1 24.1 3.2 6.2 1.7 13.6 4.5 22.8 7.9 11.7 4.5 18.1 7.2 20.3 7.9 6.8 2.6 12.6 3.6 17.1 3.6 3.4 0 8.3-1.1 13.8-2.8 3.1-1.1 9-3 17.3-6.6 8.2-3 14.8-5.5 19.9-7.5 7.9-2.3 15.5-4.5 22.4-5.5 8.3-1.3 16.6-1.7 24.5-1.1 15.1 1.1 29 4.3 41.4 9 21.7 8.7 39.3 22.4 52.4 41.8-5.5 3.4-10.7 7.4-15.5 11.7-10.4 9.2-19.2 20-26.2 32.1-9.2 16.4-13.9 35-13.7 53.7.3 23.1 6.2 43.4 17.9 61 8.3 12.8 19.3 23.8 32.7 32.7 6.6 4.5 12.4 7.6 17.9 9.6-2.6 8-5.4 15.8-8.6 23.5-7.4 17.2-16.2 33.7-26.7 49.3-9.2 13.4-16.5 23.5-22 30.1-8.6 10.2-16.8 17.9-25.2 23.4-9.2 6.1-19.9 9.3-31 9.3-7.5.3-14.9-.6-22-2.7-6.2-2-12.3-4.3-18.3-6.9-6.2-2.9-12.7-5.3-19.3-7.2-8.1-2.1-16.4-3.2-24.8-3.1-8.5 0-16.8 1.1-24.7 3.1-6.6 1.9-13 4.2-19.3 6.9-9 3.7-14.8 6.2-18.2 7.2-6.9 2-14 3.3-21.1 3.7-11.1 0-21.4-3.2-31.7-9.6v-.4zm146.1-393.6c-14.5 7.2-28.3 10.3-42.1 9.3-2.1-13.8 0-27.9 5.8-43.4 5.1-13.2 11.9-25.2 21.3-35.8 9.8-11.1 21.5-20.3 34.8-26.9 14.1-7.2 27.5-11.1 40.3-11.7 1.7 14.5 0 28.8-5.3 44.1-4.9 13.6-12.1 26.2-21.3 37.5-9.3 11.1-20.8 20.3-33.8 26.9h.3z" style="fill:#fff"/>
</g><g id="hat" transform="rotate(-19.664861,2554.5888,-1846.2773)"><path id="🎅" style="fill:rgb(255, 15, 49);stroke:#ffffff;stroke-width:39.4767;stroke-linecap:square;stroke-linejoin:round;stroke-miterlimit:5;stroke-dasharray:none;stroke-opacity:1" d="M 1.3888427 -777.64079 C -126.41754 -822.85625 -272.88081 -794.17541 -427.74092 -723.17061 L -411.15071 -760.0823 L -459.32489 -749.02795 L -495.42034 -783.89788 L -500.16434 -732.99008 L -543.31109 -708.17992 L -498.06911 -687.77279 L -488.63916 -637.57198 L -455.93489 -675.86625 L -406.96025 -669.64773 L -425.31773 -701.97648 C -290.88513 -689.16754 -86.608888 -639.13439 -273.63981 -347.58743 C -128.15384 -457.46783 0.38614654 -456.79247 307.39427 -419.56777 C 228.26451 -624.2273 123.30628 -734.50873 1.3888427 -777.64079 z "/></g></svg>
