<svg xmlns="http://www.w3.org/2000/svg" viewBox="0 0 1536 1536">
   <g id="original" transform="translate(256,256)"><circle cx="512" cy="512" r="512" style="fill:#1793d1"/>
   <path d="M512 236c-22.79 55.87-36.53 92.42-61.91 146.63 15.56 16.49 34.65 35.69 65.66 57.38-33.34-13.72-56.08-27.49-73.07-41.78C410.16 466 359.29 562.5 256 748c81.14-46.84 144-75.73 202.66-86.75a148.56 148.56 0 0 1-3.85-34.76l.1-2.6c1.29-52 28.33-92 60.37-89.25s56.94 47.08 55.65 99.07a146.85 146.85 0 0 1-3.27 27.92C625.68 673 687.91 701.79 768 748c-15.78-29.06-29.87-55.25-43.32-80.2-21.19-16.42-43.29-37.8-88.38-60.94 31 8.05 53.18 17.34 70.47 27.73C569.94 379.92 558.86 346.08 512 236Z" style="fill:#fff"/>
</g><g id="hat" transform="rotate(-19.664861,2554.5888,-1846.2773)"><path id="🎅" style="fill:rgb(255, 54, 63);stroke:#ffffff;stroke-width:39.4767;stroke-linecap:square;stroke-linejoin:round;stroke-miterlimit:5;stroke-dasharray:none;stroke-opacity:1" d="M 1.3888427 -777.64079 C -126.41754 -822.85625 -272.88081 -794.17541 -427.74092 -723.17061 L -411.15071 -760.0823 L -459.32489 -749.02795 L -495.42034 -783.89788 L -500.16434 -732.99008 L -543.31109 -708.17992 L -498.06911 -687.77279 L -488.63916 -637.57198 L -455.93489 -675.86625 L -406.96025 -669.64773 L -425.31773 -701.97648 C -290.88513 -689.16754 -86.608888 -639.13439 -273.63981 -347.58743 C -128.15384 -457.46783 0.38614654 -456.79247 307.39427 -419.56777 C 228.26451 -624.2273 123.30628 -734.50873 1.3888427 -777.64079 z "/></g></svg>
