<svg xmlns="http://www.w3.org/2000/svg" viewBox="0 0 1536 1536">
   <g id="original" transform="translate(256,256)"><circle cx="512" cy="512" r="512" style="fill:#00979d"/>
   <path d="M668 362a138.67 138.67 0 0 0-23.26 1.75c-64.87 9.42-108.4 57.37-132.73 94.16-24.33-36.79-67.86-84.74-132.73-94.16A166.31 166.31 0 0 0 356 362c-83.65 0-151.51 67.23-151.51 150S272.57 662 356 662a142.9 142.9 0 0 0 23.47-1.75c64.87-9.63 108.4-57.59 132.73-94.38 24.33 36.79 67.86 84.74 132.73 94.38a166.82 166.82 0 0 0 23.49 1.75c83 0 151.08-67.23 151.08-150S751.43 362 668 362ZM371.8 607.69a98.31 98.31 0 0 1-16 1.1c-55.06 0-99.65-43.58-99.65-96.79 0-53.43 44.81-96.79 99.87-96.79a131 131 0 0 1 16 1.09c61.24 9 98.59 70.95 111.39 95.69-13.02 25.01-50.58 86.73-111.61 95.7Zm296.2 1.1a130.86 130.86 0 0 1-16-1.1c-61.24-9-98.8-70.95-111.39-95.69 12.59-24.75 50.15-86.72 111.39-95.69a131 131 0 0 1 16-1.09c55.05 0 99.65 43.58 99.65 96.79-.01 53.42-44.82 96.78-99.65 96.78ZM313.27 495.93h91.63v28.84h-91.63Zm397 29h-30.9v30.31h-29.61V525h-30.9v-29h30.9v-30.38h29.61v30.31h30.9Z" style="fill:#fff"/>
</g><g id="hat" transform="rotate(-19.664861,2554.5888,-1846.2773)"><path id="🎅" style="fill:rgb(255, 94, 104);stroke:#ffffff;stroke-width:39.4767;stroke-linecap:square;stroke-linejoin:round;stroke-miterlimit:5;stroke-dasharray:none;stroke-opacity:1" d="M 1.3888427 -777.64079 C -126.41754 -822.85625 -272.88081 -794.17541 -427.74092 -723.17061 L -411.15071 -760.0823 L -459.32489 -749.02795 L -495.42034 -783.89788 L -500.16434 -732.99008 L -543.31109 -708.17992 L -498.06911 -687.77279 L -488.63916 -637.57198 L -455.93489 -675.86625 L -406.96025 -669.64773 L -425.31773 -701.97648 C -290.88513 -689.16754 -86.608888 -639.13439 -273.63981 -347.58743 C -128.15384 -457.46783 0.38614654 -456.79247 307.39427 -419.56777 C 228.26451 -624.2273 123.30628 -734.50873 1.3888427 -777.64079 z "/></g></svg>
