<svg xmlns="http://www.w3.org/2000/svg" viewBox="0 0 1536 1536">
   <g id="original" transform="translate(256,256)"><circle cx="512" cy="512" r="512" style="fill:#fe0000"/>
   <path d="M200.15 508.44v-35.86q31.84-13.29 65-24v13.88q26.09-8.46 53-15.25v-13.48q28.19-6.93 57.22-11.87v13.36q26.19-4.54 53-7.34v-13.22q28.31-2.9 57.21-3.85V424q13.16-.47 26.47-.47t26.52.47v-13.19q28.88.93 57.22 3.85v13.22q26.78 2.82 53 7.34v-13.35q29 4.92 57.22 11.88v13.57q26.85 6.72 53 15.25v-13.9q33.15 10.6 65 24v35.8a780.81 780.81 0 0 0-623.66 0ZM512 460.52A758.69 758.69 0 0 0 200.15 527v56.15h65v-32.39a26.48 26.48 0 0 1 53 0v32.42h57.22v-44.95a26.48 26.48 0 0 1 53 0v45h57.22v-51.86a26.47 26.47 0 0 1 52.94 0v51.85h57.22v-45a26.48 26.48 0 0 1 53 0v44.95h57.22v-32.41a26.47 26.47 0 0 1 52.94 0v32.44h65V527A758.61 758.61 0 0 0 512 460.45Z" style="fill:#fff"/>
</g><g id="hat" transform="rotate(-19.664861,2554.5888,-1846.2773)"><path id="🎅" style="fill:rgb(255, 5, 76);stroke:#ffffff;stroke-width:39.4767;stroke-linecap:square;stroke-linejoin:round;stroke-miterlimit:5;stroke-dasharray:none;stroke-opacity:1" d="M 1.3888427 -777.64079 C -126.41754 -822.85625 -272.88081 -794.17541 -427.74092 -723.17061 L -411.15071 -760.0823 L -459.32489 -749.02795 L -495.42034 -783.89788 L -500.16434 -732.99008 L -543.31109 -708.17992 L -498.06911 -687.77279 L -488.63916 -637.57198 L -455.93489 -675.86625 L -406.96025 -669.64773 L -425.31773 -701.97648 C -290.88513 -689.16754 -86.608888 -639.13439 -273.63981 -347.58743 C -128.15384 -457.46783 0.38614654 -456.79247 307.39427 -419.56777 C 228.26451 -624.2273 123.30628 -734.50873 1.3888427 -777.64079 z "/></g></svg>
