<svg xmlns="http://www.w3.org/2000/svg" viewBox="0 0 1536 1536">
   <g id="original" transform="translate(256,256)"><circle cx="512" cy="512" r="512" style="fill:#ff7800"/>
   <path d="M475.63 319.8a64.59 64.59 0 0 1 94.89 25.69l149.4 315.84A254.81 254.81 0 0 0 768 513.86C769 372.46 655.19 257 513.78 256S257 368.81 256 510.22a254.52 254.52 0 0 0 47.42 150.08l6-1.35 97.49-21.48a2.47 2.47 0 0 1 1.78 4.53L328 689.85a255.77 255.77 0 0 0 381.54-15.11L465.26 417.57a64.62 64.62 0 0 1 10.37-97.77Zm45.85 290.35-157.33 13.63a27.77 27.77 0 1 1 4-54.74l153.69 36.22a2.49 2.49 0 0 1-.36 4.89Zm-72.81-138.29 190.74 154.3a2.47 2.47 0 0 1-2.45 4.21l-229.41-87a41.8 41.8 0 1 1 41.11-71.55Z" style="fill:#fff"/>
</g><g id="hat" transform="rotate(-19.664861,2554.5888,-1846.2773)"><path id="🎅" style="fill:rgb(255, 118, 116);stroke:#ffffff;stroke-width:39.4767;stroke-linecap:square;stroke-linejoin:round;stroke-miterlimit:5;stroke-dasharray:none;stroke-opacity:1" d="M 1.3888427 -777.64079 C -126.41754 -822.85625 -272.88081 -794.17541 -427.74092 -723.17061 L -411.15071 -760.0823 L -459.32489 -749.02795 L -495.42034 -783.89788 L -500.16434 -732.99008 L -543.31109 -708.17992 L -498.06911 -687.77279 L -488.63916 -637.57198 L -455.93489 -675.86625 L -406.96025 -669.64773 L -425.31773 -701.97648 C -290.88513 -689.16754 -86.608888 -639.13439 -273.63981 -347.58743 C -128.15384 -457.46783 0.38614654 -456.79247 307.39427 -419.56777 C 228.26451 -624.2273 123.30628 -734.50873 1.3888427 -777.64079 z "/></g></svg>
