<svg xmlns="http://www.w3.org/2000/svg" viewBox="0 0 1536 1536">
   <g id="original" transform="translate(256,256)"><circle cx="512" cy="512" r="512" style="fill:#f50"/>
   <path d="m700 438.9-45.4-45.4c-.4-.4-.9-.5-1.3-.2-.5.2-.7.6-.7 1.1v318.8c0 .5.3.9.7 1.1.2.1.3.1.5.1.3 0 .6-.2.9-.4l45.4-45.4c1.7-1.7 3.1-5.1 3.1-7.5V446.5c-.1-2.4-1.6-6-3.2-7.6m-242.6-72.3c-1.3 0-2.5-1.1-2.5-2.5V230.2c0-.5-.3-.9-.7-1.1-.5-.2-1-.1-1.3.2l-45.4 45.4c-1.7 1.7-3.2 5.2-3.2 7.5V416c0 .7.6 1.3 1.3 1.3h160.7c1.3 0 2.5 1.1 2.5 2.5v24c0 3.5-2.8 6.3-6.3 6.3H405.6c-.3 0-.6.2-.9.4-.2.2-.4.5-.4.9V622c0 19.6 16 35.6 35.6 35.6h122.5c3.5 0 6.3 2.8 6.3 6.3v24c0 1.3-1.1 2.5-2.5 2.5H439.9c-37.7 0-68.4-30.7-68.4-68.4V313.6c0-.5-.3-.9-.7-1.1-.5-.2-1-.1-1.3.2L324 358.2c-1.7 1.7-3.1 5.2-3.1 7.5v271.1c0 57.5 46.7 104.3 104.2 104.3h193.2c.7 0 1.3-.6 1.3-1.3l.2-371.8c0-.7-.7-1.3-1.3-1.3l-161.1-.1zM568.8 507v93.6c0 3.5-2.8 6.3-6.3 6.3H457.7c-1.3 0-2.5-1.1-2.5-2.5V507c0-3.5 2.8-6.3 6.3-6.3h100.9c3.6-.1 6.4 2.8 6.4 6.3" style="fill:#fff"/>
</g><g id="hat" transform="rotate(-19.664861,2554.5888,-1846.2773)"><path id="🎅" style="fill:rgb(255, 84, 78);stroke:#ffffff;stroke-width:39.4767;stroke-linecap:square;stroke-linejoin:round;stroke-miterlimit:5;stroke-dasharray:none;stroke-opacity:1" d="M 1.3888427 -777.64079 C -126.41754 -822.85625 -272.88081 -794.17541 -427.74092 -723.17061 L -411.15071 -760.0823 L -459.32489 -749.02795 L -495.42034 -783.89788 L -500.16434 -732.99008 L -543.31109 -708.17992 L -498.06911 -687.77279 L -488.63916 -637.57198 L -455.93489 -675.86625 L -406.96025 -669.64773 L -425.31773 -701.97648 C -290.88513 -689.16754 -86.608888 -639.13439 -273.63981 -347.58743 C -128.15384 -457.46783 0.38614654 -456.79247 307.39427 -419.56777 C 228.26451 -624.2273 123.30628 -734.50873 1.3888427 -777.64079 z "/></g></svg>
