<svg xmlns="http://www.w3.org/2000/svg" viewBox="0 0 1536 1536">
   <g id="original" transform="translate(256,256)"><circle cx="512" cy="512" r="512" style="fill:#7ec2b1"/>
   <path d="M529.24 521.86v95.6L612 569.65v-95.52Zm-100-77.59L512 492l82.77-47.73L512 396.46ZM412 569.65l82.76 47.81v-95.6L412 474.13Zm314.63-48.33-14.47-10.22 14.45-10.21a98.08 98.08 0 0 0-7.88-165.1l-1.27-.78a98.24 98.24 0 0 0-88.85-4.72l-15.71 7-1.85-17.12a98.49 98.49 0 0 0-48.64-74.69l-.43-.19a97.38 97.38 0 0 0-49-13.14 98.54 98.54 0 0 0-50.87 14.15l-2.48 1.51a98.88 98.88 0 0 0-46.54 72.55l-2 16.92-15.51-6.9a98.09 98.09 0 0 0-89 4.62l-1.55.87a98.42 98.42 0 0 0-49 84.21v3.28a98.4 98.4 0 0 0 41.44 79.28l14.4 10.21-14.4 10.21A98.47 98.47 0 0 0 256 602.4v1.53a98.32 98.32 0 0 0 49.11 84.19l1.41.88a98.65 98.65 0 0 0 88.95 4.67l15.71-7 1.8 17.12a98.52 98.52 0 0 0 48.39 74.55l.63.34a98.12 98.12 0 0 0 99.94-1.12l2.43-1.47a98.66 98.66 0 0 0 46.54-72.55l2-16.92 15.56 7a97.79 97.79 0 0 0 40 8.46 98.78 98.78 0 0 0 49.16-13.18l1.37-.82a98.29 98.29 0 0 0 49-84.91v-1.8a98.45 98.45 0 0 0-41.39-80.05Zm-13.93 81.85a42.93 42.93 0 0 1-21.4 37l-1.46.88a43.19 43.19 0 0 1-42.84 0L607.17 618l-50.87 29.47v44.84a43 43 0 0 1-20.57 36.57l-2.48 1.51a42.9 42.9 0 0 1-43.57.48l-.53-.34a43 43 0 0 1-21.45-37v-46L416.83 618 377 641.1a43 43 0 0 1-42.75 0l-1.51-.93a42.74 42.74 0 0 1-.44-73.86l41.53-24.57-.34-58.6-40.75-23.54a42.79 42.79 0 0 1-21.45-37v-1.75a42.94 42.94 0 0 1 21.45-37.06l1.46-.92a43.07 43.07 0 0 1 42.8 0l39.82 23.05 50.87-29.37V331.7a43.22 43.22 0 0 1 20.63-36.57l2.48-1.5a42.7 42.7 0 0 1 43.53-.49l.54.29a42.85 42.85 0 0 1 21.44 37.11v46l50.87 29.37L647 382.86a43.16 43.16 0 0 1 42.84 0l1.46.92a42.8 42.8 0 0 1 .44 73.87l-41.58 24.56.34 58.6 40.8 23.54a42.81 42.81 0 0 1 21.4 37Z" style="fill:#fff"/>
</g><g id="hat" transform="rotate(-19.664861,2554.5888,-1846.2773)"><path id="🎅" style="fill:rgb(255, 61, 32);stroke:#ffffff;stroke-width:39.4767;stroke-linecap:square;stroke-linejoin:round;stroke-miterlimit:5;stroke-dasharray:none;stroke-opacity:1" d="M 1.3888427 -777.64079 C -126.41754 -822.85625 -272.88081 -794.17541 -427.74092 -723.17061 L -411.15071 -760.0823 L -459.32489 -749.02795 L -495.42034 -783.89788 L -500.16434 -732.99008 L -543.31109 -708.17992 L -498.06911 -687.77279 L -488.63916 -637.57198 L -455.93489 -675.86625 L -406.96025 -669.64773 L -425.31773 -701.97648 C -290.88513 -689.16754 -86.608888 -639.13439 -273.63981 -347.58743 C -128.15384 -457.46783 0.38614654 -456.79247 307.39427 -419.56777 C 228.26451 -624.2273 123.30628 -734.50873 1.3888427 -777.64079 z "/></g></svg>
