<svg xmlns="http://www.w3.org/2000/svg" viewBox="0 0 1536 1536">
   <g id="original" transform="translate(256,256)"><circle cx="512" cy="512" r="512" style="fill:#9b2ad6"/>
   <path d="M568.52 527.07c0 34.8-23.27 55.86-54.31 55.86s-54.53-21.06-54.53-55.86c0-35 23.5-56.08 54.53-56.08s54.31 21.06 54.31 56.08ZM778 512c0 146.91-119.09 266-266 266S246 658.91 246 512s119.09-266 266-266 266 119.09 266 266Zm-159.16 15.07h-.44c0-63.62-46.55-104-106.4-104-26.6 0-48.32 7.76-64.28 24.38v-98h-53.87v278.48h51.2v-23.27c15.52 17.51 38.58 26.34 67.39 26.34 59.85 0 106.4-40.53 106.4-103.93Zm70.71 71.6c0-17.73-13.74-29.26-31.48-29.26-17.29 0-31 11.53-31 29.26 0 17.29 13.74 29.92 31.25 29.92 17.27.01 31.24-12.18 31.24-29.92Z" style="fill:#fff"/>
</g><g id="hat" transform="rotate(-19.664861,2554.5888,-1846.2773)"><path id="🎅" style="fill:rgb(255, 36, 60);stroke:#ffffff;stroke-width:39.4767;stroke-linecap:square;stroke-linejoin:round;stroke-miterlimit:5;stroke-dasharray:none;stroke-opacity:1" d="M 1.3888427 -777.64079 C -126.41754 -822.85625 -272.88081 -794.17541 -427.74092 -723.17061 L -411.15071 -760.0823 L -459.32489 -749.02795 L -495.42034 -783.89788 L -500.16434 -732.99008 L -543.31109 -708.17992 L -498.06911 -687.77279 L -488.63916 -637.57198 L -455.93489 -675.86625 L -406.96025 -669.64773 L -425.31773 -701.97648 C -290.88513 -689.16754 -86.608888 -639.13439 -273.63981 -347.58743 C -128.15384 -457.46783 0.38614654 -456.79247 307.39427 -419.56777 C 228.26451 -624.2273 123.30628 -734.50873 1.3888427 -777.64079 z "/></g></svg>
