<svg xmlns="http://www.w3.org/2000/svg" viewBox="0 0 1536 1536">
   <g id="original" transform="translate(256,256)"><circle cx="512" cy="512" r="512" style="fill:#d9000d"/>
   <path d="m298.94 294.54-60.311 104.54 213 368.92h120.74l215.58-373.31-57.792-100.15zm367.2 29.1-54.024 93.634h-87.135l10.554-18.198h-263.23l43.516-75.389zm21.018 0h26.116l43.543 75.389h-113.2zm-270.72 93.634h87.632l10.554 18.228h216.11l-43.561 75.389h-.452l-131.18 227.95h-87.073l-175.2-303.37h87.086l67.052 116.1 12.98-22.481h87.15l-56.554 97.886 21.002 36.429 87.662-152.53h-128.71z" style="fill:#f9f9f9"/>
</g><g id="hat" transform="rotate(-19.664861,2554.5888,-1846.2773)"><path id="🎅" style="fill:rgb(255, 64, 28);stroke:#ffffff;stroke-width:39.4767;stroke-linecap:square;stroke-linejoin:round;stroke-miterlimit:5;stroke-dasharray:none;stroke-opacity:1" d="M 1.3888427 -777.64079 C -126.41754 -822.85625 -272.88081 -794.17541 -427.74092 -723.17061 L -411.15071 -760.0823 L -459.32489 -749.02795 L -495.42034 -783.89788 L -500.16434 -732.99008 L -543.31109 -708.17992 L -498.06911 -687.77279 L -488.63916 -637.57198 L -455.93489 -675.86625 L -406.96025 -669.64773 L -425.31773 -701.97648 C -290.88513 -689.16754 -86.608888 -639.13439 -273.63981 -347.58743 C -128.15384 -457.46783 0.38614654 -456.79247 307.39427 -419.56777 C 228.26451 -624.2273 123.30628 -734.50873 1.3888427 -777.64079 z "/></g></svg>