<svg xmlns="http://www.w3.org/2000/svg" viewBox="0 0 1536 1536">
   <g id="original" transform="translate(256,256)"><circle cx="512" cy="512" r="512" style="fill:#3d89f5"/>
   <path d="m299.86 444.79-23.35 23.35A66.07 66.07 0 0 0 261.34 490a66.82 66.82 0 0 0-5.34 26.17A66.11 66.11 0 0 0 276.51 564l188.13 190.16A59.38 59.38 0 0 0 480 765.33V535Zm424.28 0 23.35 23.35a66.1 66.1 0 0 1 0 95.73L559.36 754A59.38 59.38 0 0 1 544 765.16V535Zm-45.2-47.7L561.2 279a64.62 64.62 0 0 0-22-15 66.08 66.08 0 0 0-52 0 70.73 70.73 0 0 0-22 15L347.23 397.09l165.44 82.55Z" style="fill:#fff"/>
</g><g id="hat" transform="rotate(-19.664861,2554.5888,-1846.2773)"><path id="🎅" style="fill:rgb(255, 44, 127);stroke:#ffffff;stroke-width:39.4767;stroke-linecap:square;stroke-linejoin:round;stroke-miterlimit:5;stroke-dasharray:none;stroke-opacity:1" d="M 1.3888427 -777.64079 C -126.41754 -822.85625 -272.88081 -794.17541 -427.74092 -723.17061 L -411.15071 -760.0823 L -459.32489 -749.02795 L -495.42034 -783.89788 L -500.16434 -732.99008 L -543.31109 -708.17992 L -498.06911 -687.77279 L -488.63916 -637.57198 L -455.93489 -675.86625 L -406.96025 -669.64773 L -425.31773 -701.97648 C -290.88513 -689.16754 -86.608888 -639.13439 -273.63981 -347.58743 C -128.15384 -457.46783 0.38614654 -456.79247 307.39427 -419.56777 C 228.26451 -624.2273 123.30628 -734.50873 1.3888427 -777.64079 z "/></g></svg>
