<svg xmlns="http://www.w3.org/2000/svg" viewBox="0 0 1536 1536">
   <g id="original" transform="translate(256,256)"><circle cx="512" cy="512" r="512" style="fill:#263238"/>
   <path d="M768 554.7V640c0 23.6-19.1 42.7-42.7 42.7H298.7c-23.6 0-42.7-19.1-42.7-42.7v-85.3c0-23.6 19.1-42.7 42.7-42.7h426.7c23.5 0 42.6 19.1 42.6 42.7zm-42.7-71.1c9.4 0 18.7 1.9 27.4 5.5l-85.8-128.7c-7.9-11.9-21.2-19-35.5-19H392.6c-14.3 0-27.6 7.1-35.5 19L271.3 489c8.7-3.6 18-5.5 27.4-5.5h426.6zm-42.6 85.3c-15.7 0-28.4 12.7-28.4 28.4s12.7 28.4 28.4 28.4 28.4-12.7 28.4-28.4-12.7-28.4-28.4-28.4zm-85.4 0c-15.7 0-28.4 12.7-28.4 28.4s12.7 28.4 28.4 28.4 28.4-12.7 28.4-28.4c.1-15.7-12.7-28.4-28.4-28.4z" style="fill:#fff"/>
</g><g id="hat" transform="rotate(-19.664861,2554.5888,-1846.2773)"><path id="🎅" style="fill:rgb(255, 99, 28);stroke:#ffffff;stroke-width:39.4767;stroke-linecap:square;stroke-linejoin:round;stroke-miterlimit:5;stroke-dasharray:none;stroke-opacity:1" d="M 1.3888427 -777.64079 C -126.41754 -822.85625 -272.88081 -794.17541 -427.74092 -723.17061 L -411.15071 -760.0823 L -459.32489 -749.02795 L -495.42034 -783.89788 L -500.16434 -732.99008 L -543.31109 -708.17992 L -498.06911 -687.77279 L -488.63916 -637.57198 L -455.93489 -675.86625 L -406.96025 -669.64773 L -425.31773 -701.97648 C -290.88513 -689.16754 -86.608888 -639.13439 -273.63981 -347.58743 C -128.15384 -457.46783 0.38614654 -456.79247 307.39427 -419.56777 C 228.26451 -624.2273 123.30628 -734.50873 1.3888427 -777.64079 z "/></g></svg>
