<svg xmlns="http://www.w3.org/2000/svg" viewBox="0 0 1536 1536">
   <g id="original" transform="translate(256,256)"><circle cx="512" cy="512" r="512" style="fill:#00317a"/>
   <path d="M306.79 302.43c-37 0-61.52 41.12-46.13 72.45l100.57 204.8V302.43Zm107.06 0v265.08c3 97.92 85.7 176 183 174h.61c97-2.27 173.39-83.37 170.44-181.08a178.85 178.85 0 0 0-55.46-124.52 176.64 176.64 0 0 0-126.33-49.51h-.64a172.63 172.63 0 0 0-89.72 27.51V302.43Zm183 169.1a90.65 90.65 0 0 1 56.7 23.15 91.73 91.73 0 0 1 30.71 62.89c3.29 50.15-34.42 93.19-84.17 96.12h-.31a90.63 90.63 0 0 1-65.71-23.09 91.91 91.91 0 0 1-30.73-62.92 90.08 90.08 0 0 1 22.28-65.89 88.71 88.71 0 0 1 61.88-30.21h.34q4.53-.26 9-.07Z" style="fill:#fff"/>
</g><g id="hat" transform="rotate(-19.664861,2554.5888,-1846.2773)"><path id="🎅" style="fill:rgb(255, 12, 122);stroke:#ffffff;stroke-width:39.4767;stroke-linecap:square;stroke-linejoin:round;stroke-miterlimit:5;stroke-dasharray:none;stroke-opacity:1" d="M 1.3888427 -777.64079 C -126.41754 -822.85625 -272.88081 -794.17541 -427.74092 -723.17061 L -411.15071 -760.0823 L -459.32489 -749.02795 L -495.42034 -783.89788 L -500.16434 -732.99008 L -543.31109 -708.17992 L -498.06911 -687.77279 L -488.63916 -637.57198 L -455.93489 -675.86625 L -406.96025 -669.64773 L -425.31773 -701.97648 C -290.88513 -689.16754 -86.608888 -639.13439 -273.63981 -347.58743 C -128.15384 -457.46783 0.38614654 -456.79247 307.39427 -419.56777 C 228.26451 -624.2273 123.30628 -734.50873 1.3888427 -777.64079 z "/></g></svg>
