<svg xmlns="http://www.w3.org/2000/svg" viewBox="0 0 1536 1536">
   <g id="original" transform="translate(256,256)"><circle cx="512" cy="512" r="512" style="fill:#2d87c3"/>
   <path d="M509.39 256.67 282.71 381.55a5.41 5.41 0 0 0 .07 9.52l121.15 64.42a5.41 5.41 0 0 0 5.24-.09l100.14-57.53a5.41 5.41 0 0 1 5.4 0L614.8 455.4a5.42 5.42 0 0 0 5.24.09l121.21-64.44a5.41 5.41 0 0 0 .07-9.52L514.61 256.67a5.41 5.41 0 0 0-5.22 0ZM403.71 488.49 281.9 423.73a5.41 5.41 0 0 0-8 4.78v216.84a5.41 5.41 0 0 0 2.8 4.74l212.87 117.23a5.41 5.41 0 0 0 8-4.74V633.45a5.42 5.42 0 0 0-2.72-4.69l-85.55-49.19a5.41 5.41 0 0 1-2.72-4.69v-81.61a5.41 5.41 0 0 0-2.87-4.78Zm216.59 0 121.8-64.76a5.41 5.41 0 0 1 8 4.78v216.84a5.41 5.41 0 0 1-2.8 4.74L534.43 767.32a5.41 5.41 0 0 1-8-4.74V633.45a5.41 5.41 0 0 1 2.72-4.69l85.58-49.18a5.41 5.41 0 0 0 2.72-4.69v-81.62a5.41 5.41 0 0 1 2.84-4.78Z" style="fill:#fff"/>
</g><g id="hat" transform="rotate(-19.664861,2554.5888,-1846.2773)"><path id="🎅" style="fill:rgb(255, 56, 7);stroke:#ffffff;stroke-width:39.4767;stroke-linecap:square;stroke-linejoin:round;stroke-miterlimit:5;stroke-dasharray:none;stroke-opacity:1" d="M 1.3888427 -777.64079 C -126.41754 -822.85625 -272.88081 -794.17541 -427.74092 -723.17061 L -411.15071 -760.0823 L -459.32489 -749.02795 L -495.42034 -783.89788 L -500.16434 -732.99008 L -543.31109 -708.17992 L -498.06911 -687.77279 L -488.63916 -637.57198 L -455.93489 -675.86625 L -406.96025 -669.64773 L -425.31773 -701.97648 C -290.88513 -689.16754 -86.608888 -639.13439 -273.63981 -347.58743 C -128.15384 -457.46783 0.38614654 -456.79247 307.39427 -419.56777 C 228.26451 -624.2273 123.30628 -734.50873 1.3888427 -777.64079 z "/></g></svg>
