<svg xmlns="http://www.w3.org/2000/svg" viewBox="0 0 1536 1536">
   <g id="original" transform="translate(256,256)"><circle cx="512" cy="512" r="512" style="fill:#0369b9"/>
   <path d="M304.39 448.41 300.08 489c-16.52-22.78-54.79-7.06-57.8 21.32-3.82 36 33 44.43 53.07 23.21L291 574.16a96.6 96.6 0 0 1-17.61 6.77 71.89 71.89 0 0 1-17.21 2.48 66.82 66.82 0 0 1-19.55-2.25 47.73 47.73 0 0 1-15.86-7.68 56.35 56.35 0 0 1-19.63-25.27q-6-15.41-4-34.82a85.39 85.39 0 0 1 7.91-28.51 82.62 82.62 0 0 1 17.19-23.51A73.12 73.12 0 0 1 244.86 446a71.29 71.29 0 0 1 26.52-5.46 65.48 65.48 0 0 1 16.76 1.77 75.15 75.15 0 0 1 16.25 6.1Zm494.69-4.94 28.25 137.93h-44.47l-3.27-18.4h-43.15l-9.93 18.38h-45.08l67-137.93Zm-24.86 85.21L768 487.8l-16.4 40.87Zm-131.84-21.57-37.11-64.22h-54.16l37.11 64.22Zm3.52 0h.35l50.4-63.45h-58l-17 21.41L645 505.59Zm-225.19-63.64L449 581.4h-44.51l-3.27-18.4h-43.15l-9.93 18.38h-45.08l67-137.93Zm-24.86 85.21-6.19-40.87-.07.17-16.33 40.7Zm212.62 31.46 12.37 20.49H677l-36.78-60.93Zm-27.89-43.35L530.18 581h58l50.4-64.23Zm-91.16-73.32L470 581.4h44.81l19.41-137.93Z" style="fill:#fff"/>
</g><g id="hat" transform="rotate(-19.664861,2554.5888,-1846.2773)"><path id="🎅" style="fill:rgb(255, 79, 62);stroke:#ffffff;stroke-width:39.4767;stroke-linecap:square;stroke-linejoin:round;stroke-miterlimit:5;stroke-dasharray:none;stroke-opacity:1" d="M 1.3888427 -777.64079 C -126.41754 -822.85625 -272.88081 -794.17541 -427.74092 -723.17061 L -411.15071 -760.0823 L -459.32489 -749.02795 L -495.42034 -783.89788 L -500.16434 -732.99008 L -543.31109 -708.17992 L -498.06911 -687.77279 L -488.63916 -637.57198 L -455.93489 -675.86625 L -406.96025 -669.64773 L -425.31773 -701.97648 C -290.88513 -689.16754 -86.608888 -639.13439 -273.63981 -347.58743 C -128.15384 -457.46783 0.38614654 -456.79247 307.39427 -419.56777 C 228.26451 -624.2273 123.30628 -734.50873 1.3888427 -777.64079 z "/></g></svg>
