<svg xmlns="http://www.w3.org/2000/svg" viewBox="0 0 1536 1536">
   <g id="original" transform="translate(256,256)"><circle cx="512" cy="512" r="512" style="fill:#00bfb4"/>
   <path d="M718.66 272.16v60H479a179.65 179.65 0 1 0-.38 359.3h240v60H483.5c-1.5 0-3 .38-4.5.38a239.84 239.84 0 1 1-.38-479.69h240ZM479 377.17a19.81 19.81 0 0 0-4.88.38C401.74 380.17 344 439.43 344 512.19c0 74.26 60.76 134.64 135 134.64h74.63l60.38-60H479c-41.26 0-75-33.75-75-74.63a74.59 74.59 0 0 1 74.63-74.63c1.5 0 3-.38 4.5-.38h131.64l-59.63-60Zm195.4 60h44.26v-60H614.77Zm-61.13 209.66h105.39v-60h-45ZM449 511.81a30.09 30.09 0 0 0 30 30h180l30.38-30-29.63-30H479a29.85 29.85 0 0 0-30 30Z" style="fill:#fff"/>
</g><g id="hat" transform="rotate(-19.664861,2554.5888,-1846.2773)"><path id="🎅" style="fill:rgb(255, 96, 83);stroke:#ffffff;stroke-width:39.4767;stroke-linecap:square;stroke-linejoin:round;stroke-miterlimit:5;stroke-dasharray:none;stroke-opacity:1" d="M 1.3888427 -777.64079 C -126.41754 -822.85625 -272.88081 -794.17541 -427.74092 -723.17061 L -411.15071 -760.0823 L -459.32489 -749.02795 L -495.42034 -783.89788 L -500.16434 -732.99008 L -543.31109 -708.17992 L -498.06911 -687.77279 L -488.63916 -637.57198 L -455.93489 -675.86625 L -406.96025 -669.64773 L -425.31773 -701.97648 C -290.88513 -689.16754 -86.608888 -639.13439 -273.63981 -347.58743 C -128.15384 -457.46783 0.38614654 -456.79247 307.39427 -419.56777 C 228.26451 -624.2273 123.30628 -734.50873 1.3888427 -777.64079 z "/></g></svg>
