<svg xmlns="http://www.w3.org/2000/svg" viewBox="0 0 1536 1536">
   <g id="original" transform="translate(256,256)"><circle cx="512" cy="512" r="512" style="fill:#f37321"/>
   <path d="M658.27 562.07c-8 49.49-58.4 97.49-94.54 97.49-46.51 0-64.33-33.13-64.33-76.26 0-34.15 11.4-74.24 28.22-108.89 132.64-10.37 197.46-75.16 197.46-128.16 0-38.59-34.65-71.25-103-71.25-92.06 0-159.37 76.22-189.55 167.78-81.75-19.31-143-71.42-146.09-154.5-61.35 29.71-87.59 58.9-87.59 85.13 0 50.48 96.07 89.57 225.26 100a369.25 369.25 0 0 0-9.41 80.16C414.76 656.94 464.25 749 578.07 749c84.14 0 138.07-82.05 138.1-133.93.01-33.12-20.3-53-57.9-53ZM611.6 394.29c11.4 0 19.31 6.92 19.31 15.34 0 14.84-23.19 35.64-89.44 40.58 20.27-32.67 46.01-55.92 70.13-55.92Z" style="fill:#fff"/>
</g><g id="hat" transform="rotate(-19.664861,2554.5888,-1846.2773)"><path id="🎅" style="fill:rgb(255, 112, 30);stroke:#ffffff;stroke-width:39.4767;stroke-linecap:square;stroke-linejoin:round;stroke-miterlimit:5;stroke-dasharray:none;stroke-opacity:1" d="M 1.3888427 -777.64079 C -126.41754 -822.85625 -272.88081 -794.17541 -427.74092 -723.17061 L -411.15071 -760.0823 L -459.32489 -749.02795 L -495.42034 -783.89788 L -500.16434 -732.99008 L -543.31109 -708.17992 L -498.06911 -687.77279 L -488.63916 -637.57198 L -455.93489 -675.86625 L -406.96025 -669.64773 L -425.31773 -701.97648 C -290.88513 -689.16754 -86.608888 -639.13439 -273.63981 -347.58743 C -128.15384 -457.46783 0.38614654 -456.79247 307.39427 -419.56777 C 228.26451 -624.2273 123.30628 -734.50873 1.3888427 -777.64079 z "/></g></svg>
