<svg xmlns="http://www.w3.org/2000/svg" viewBox="0 0 1536 1536">
   <g id="original" transform="translate(256,256)"><circle cx="512" cy="512" r="512" style="fill:#03a9f4"/>
   <path d="M647.82 273.49c-29.29-17.25-241.66-17.55-271-.37S241 477.2 241 511.63s105.89 221.63 135.18 238.88 241.66 17.55 271 .37S783 546.8 783 512.38 677.11 290.74 647.82 273.49Zm-53.14 175.93c0 19.11-15.23 34.6-34 34.6h-55a33.54 33.54 0 0 1-7.66-.89v57.75a33.54 33.54 0 0 1 7.66-.89h55c18.79 0 34 15.49 34 34.6v55.89c0 19.11-15.23 34.6-34 34.6h-55c-18.79 0-34-15.49-34-34.6v-56.83a33.54 33.54 0 0 1-7.66.89h-55c-18.79 0-34-15.49-34-34.6v-55.88c0-19.11 15.23-34.6 34-34.6h55a33.54 33.54 0 0 1 7.66.89v-56.82c0-19.11 15.23-34.6 34-34.6h55c18.79 0 34 15.49 34 34.6Z" style="fill:#fff"/>
</g><g id="hat" transform="rotate(-19.664861,2554.5888,-1846.2773)"><path id="🎅" style="fill:rgb(255, 31, 96);stroke:#ffffff;stroke-width:39.4767;stroke-linecap:square;stroke-linejoin:round;stroke-miterlimit:5;stroke-dasharray:none;stroke-opacity:1" d="M 1.3888427 -777.64079 C -126.41754 -822.85625 -272.88081 -794.17541 -427.74092 -723.17061 L -411.15071 -760.0823 L -459.32489 -749.02795 L -495.42034 -783.89788 L -500.16434 -732.99008 L -543.31109 -708.17992 L -498.06911 -687.77279 L -488.63916 -637.57198 L -455.93489 -675.86625 L -406.96025 -669.64773 L -425.31773 -701.97648 C -290.88513 -689.16754 -86.608888 -639.13439 -273.63981 -347.58743 C -128.15384 -457.46783 0.38614654 -456.79247 307.39427 -419.56777 C 228.26451 -624.2273 123.30628 -734.50873 1.3888427 -777.64079 z "/></g></svg>
