<svg xmlns="http://www.w3.org/2000/svg" viewBox="0 0 1536 1536">
   <g id="original" transform="translate(256,256)"><circle cx="512" cy="512" r="512" style="fill:#3448c5"/>
   <path d="M509.08 292.75a195.78 195.78 0 0 0-173.6 103.15 147.62 147.62 0 0 0-35.64 279.44l3.73 1.72h.21v-42a110.22 110.22 0 0 1 45.92-203.54l10.3-1.05 4.52-9.45a158.7 158.7 0 0 1 144.52-90.84A161.56 161.56 0 0 1 665 453.65l3.45 14.18 14.59.24a91.63 91.63 0 0 1 89.7 91.21c0 34.88-20.11 63.34-54.23 77.8v39.85l2.45-.83c55-18 89.22-62.75 89.22-116.81a129.34 129.34 0 0 0-112.4-127.61 199.54 199.54 0 0 0-188.71-138.93ZM388.76 468a1.59 1.59 0 0 0-1.15.5l-55 54.92a1.66 1.66 0 0 0 1.17 2.79h14a1.62 1.62 0 0 1 1.62 1.62v126a29.43 29.43 0 0 0 29.43 29.43h64.76a1.62 1.62 0 0 0 1.17-2.79l-8.21-8.21a29.43 29.43 0 0 1-8.62-20.7V527.84a1.62 1.62 0 0 1 1.62-1.62h14a1.62 1.62 0 0 0 1.17-2.79l-54.8-54.93a1.59 1.59 0 0 0-1.16-.5Zm121.44 31.63a1.59 1.59 0 0 0-1.16.5l-54.82 54.92a1.66 1.66 0 0 0 1.17 2.79h13.76a1.62 1.62 0 0 1 1.62 1.62v94.32a29.43 29.43 0 0 0 29.43 29.43h64.89a1.62 1.62 0 0 0 1.17-2.79l-8.21-8.21a29.43 29.43 0 0 1-8.62-20.7V559.4a1.62 1.62 0 0 1 1.59-1.66h14.08a1.62 1.62 0 0 0 1.17-2.79l-54.92-54.82a1.59 1.59 0 0 0-1.16-.5Zm121.44 31.66a1.66 1.66 0 0 0-1.16.47l-54.92 55a1.62 1.62 0 0 0 1.14 2.79h14a1.62 1.62 0 0 1 1.62 1.62v62.68a29.46 29.46 0 0 0 29.46 29.43h64.89a1.62 1.62 0 0 0 1.14-2.79l-8.21-8.21a29.43 29.43 0 0 1-8.8-20.7v-60.51a1.62 1.62 0 0 1 1.62-1.62h14.07a1.62 1.62 0 0 0 1.17-2.72l-54.92-55a1.66 1.66 0 0 0-1.16-.47Z" style="fill:#fff"/>
</g><g id="hat" transform="rotate(-19.664861,2554.5888,-1846.2773)"><path id="🎅" style="fill:rgb(255, 84, 112);stroke:#ffffff;stroke-width:39.4767;stroke-linecap:square;stroke-linejoin:round;stroke-miterlimit:5;stroke-dasharray:none;stroke-opacity:1" d="M 1.3888427 -777.64079 C -126.41754 -822.85625 -272.88081 -794.17541 -427.74092 -723.17061 L -411.15071 -760.0823 L -459.32489 -749.02795 L -495.42034 -783.89788 L -500.16434 -732.99008 L -543.31109 -708.17992 L -498.06911 -687.77279 L -488.63916 -637.57198 L -455.93489 -675.86625 L -406.96025 -669.64773 L -425.31773 -701.97648 C -290.88513 -689.16754 -86.608888 -639.13439 -273.63981 -347.58743 C -128.15384 -457.46783 0.38614654 -456.79247 307.39427 -419.56777 C 228.26451 -624.2273 123.30628 -734.50873 1.3888427 -777.64079 z "/></g></svg>
