<svg xmlns="http://www.w3.org/2000/svg" viewBox="0 0 1536 1536">
   <g id="original" transform="translate(256,256)"><circle cx="512" cy="512" r="512" style="fill:#f46a54"/>
   <path d="M681.33 291H342.67a37 37 0 0 0-36.94 36.84v368.33A37 37 0 0 0 342.67 733h338.66a37 37 0 0 0 36.94-36.83V679c-.62-22.09-1.24-68.13-1.24-89 0-11.66-8.61-21.48-19.7-21.48-12.31 0-20.32 7.36-26.48 13.5-18.46 16.58-46.16 19.65-70.17 15.35-11.09-2.45-21.56-5.52-30.18-11-26.47-15.35-43.71-44.21-43.71-74.9s17.24-58.93 43.71-74.9c9.24-5.52 19.7-8.59 30.17-11 23.39-4.31 51.73-1.24 70.2 15.35 6.77 6.14 14.78 13.49 26.48 13.49 11.08 0 19.69-9.81 19.69-21.47 0-20.26.62-66.92 1.24-89v-16A37 37 0 0 0 681.33 291Z" style="fill:#fff"/>
</g><g id="hat" transform="rotate(-19.664861,2554.5888,-1846.2773)"><path id="🎅" style="fill:rgb(255, 17, 114);stroke:#ffffff;stroke-width:39.4767;stroke-linecap:square;stroke-linejoin:round;stroke-miterlimit:5;stroke-dasharray:none;stroke-opacity:1" d="M 1.3888427 -777.64079 C -126.41754 -822.85625 -272.88081 -794.17541 -427.74092 -723.17061 L -411.15071 -760.0823 L -459.32489 -749.02795 L -495.42034 -783.89788 L -500.16434 -732.99008 L -543.31109 -708.17992 L -498.06911 -687.77279 L -488.63916 -637.57198 L -455.93489 -675.86625 L -406.96025 -669.64773 L -425.31773 -701.97648 C -290.88513 -689.16754 -86.608888 -639.13439 -273.63981 -347.58743 C -128.15384 -457.46783 0.38614654 -456.79247 307.39427 -419.56777 C 228.26451 -624.2273 123.30628 -734.50873 1.3888427 -777.64079 z "/></g></svg>
