<svg xmlns="http://www.w3.org/2000/svg" viewBox="0 0 1536 1536">
   <g id="original" transform="translate(256,256)"><circle cx="512" cy="512" r="512" style="fill:#2185d0"/>
   <path d="m290.2 629.4-2.8 3.6c-19.4-36-30.5-77.2-30.5-121 0-140.9 114.2-255.1 255.1-255.1S767.1 371.1 767.1 512c0 44-11.2 85.5-30.8 121.6l-2.8-3.6-1-1.4-207.3-268-6.6-8.6c-.8-1-1.9-1.9-3.2-2.4-1.1-.5-2.4-.7-3.7-.7-2.8 0-5.4 1.2-6.9 3.2l-6.6 8.6-205 265.1-3 3.6zm5 15.2-.1.1c37 58.9 96.7 102.1 166.9 117.4 16.2 3.2 32.9 4.9 50 4.9 36.1 0 70.4-7.5 101.4-21L511.7 364.8 295.2 644.6z" style="fill:#fff"/>
</g><g id="hat" transform="rotate(-19.664861,2554.5888,-1846.2773)"><path id="🎅" style="fill:rgb(255, 86, 126);stroke:#ffffff;stroke-width:39.4767;stroke-linecap:square;stroke-linejoin:round;stroke-miterlimit:5;stroke-dasharray:none;stroke-opacity:1" d="M 1.3888427 -777.64079 C -126.41754 -822.85625 -272.88081 -794.17541 -427.74092 -723.17061 L -411.15071 -760.0823 L -459.32489 -749.02795 L -495.42034 -783.89788 L -500.16434 -732.99008 L -543.31109 -708.17992 L -498.06911 -687.77279 L -488.63916 -637.57198 L -455.93489 -675.86625 L -406.96025 -669.64773 L -425.31773 -701.97648 C -290.88513 -689.16754 -86.608888 -639.13439 -273.63981 -347.58743 C -128.15384 -457.46783 0.38614654 -456.79247 307.39427 -419.56777 C 228.26451 -624.2273 123.30628 -734.50873 1.3888427 -777.64079 z "/></g></svg>
