<svg xmlns="http://www.w3.org/2000/svg" viewBox="0 0 1536 1536">
   <g id="original" transform="translate(256,256)"><circle cx="512" cy="512" r="512" style="fill:#ff9332"/>
   <path d="m375.67 631.68-52.62 52.18A252 252 0 0 1 256 511.92c0-68.2 26.48-132 74.56-179.68a257.56 257.56 0 0 1 103.94-62.61L450.76 342A182.85 182.85 0 0 0 383 384.46a179.34 179.34 0 0 0-7.32 247.21m135.93-119.82L456 263.9a259.44 259.44 0 0 1 237.5 69.31 251.34 251.34 0 0 1 68.41 234Zm128 219.7c-59.57 34.1-128.52 43.27-194.2 25.83A258.07 258.07 0 0 1 338.39 699L391 646.87a182.19 182.19 0 0 0 291.83-74.58l73.27 16.22c-19.18 60.25-60.51 111-116.46 143" style="fill:#fff"/>
</g><g id="hat" transform="rotate(-19.664861,2554.5888,-1846.2773)"><path id="🎅" style="fill:rgb(255, 115, 0);stroke:#ffffff;stroke-width:39.4767;stroke-linecap:square;stroke-linejoin:round;stroke-miterlimit:5;stroke-dasharray:none;stroke-opacity:1" d="M 1.3888427 -777.64079 C -126.41754 -822.85625 -272.88081 -794.17541 -427.74092 -723.17061 L -411.15071 -760.0823 L -459.32489 -749.02795 L -495.42034 -783.89788 L -500.16434 -732.99008 L -543.31109 -708.17992 L -498.06911 -687.77279 L -488.63916 -637.57198 L -455.93489 -675.86625 L -406.96025 -669.64773 L -425.31773 -701.97648 C -290.88513 -689.16754 -86.608888 -639.13439 -273.63981 -347.58743 C -128.15384 -457.46783 0.38614654 -456.79247 307.39427 -419.56777 C 228.26451 -624.2273 123.30628 -734.50873 1.3888427 -777.64079 z "/></g></svg>
