<svg xmlns="http://www.w3.org/2000/svg" viewBox="0 0 1536 1536">
   <g id="original" transform="translate(256,256)"><circle cx="512" cy="512" r="512" style="fill:#00aaeb"/>
   <path d="M735.49 457.36a148.51 148.51 0 0 0-105.21-43.66A148.62 148.62 0 0 0 525 457.36L491.07 491l31.75 31.75 33.74-33.79a104.09 104.09 0 0 1 177.65 73.62 104.14 104.14 0 0 1-104 104.14 103.63 103.63 0 0 1-60.38-19.48l-1 1s-23 23.36-30.67 31.29a148.26 148.26 0 0 0 92 32.11A149 149 0 0 0 779 562.63a148.26 148.26 0 0 0-43.51-105.27zm-246 179A103.68 103.68 0 0 1 415.92 667a104.14 104.14 0 0 1-104-104.24v-.26a104 104 0 0 1 104-103.88A103.58 103.58 0 0 1 476 477.91l.87-.92 31.24-31.24a148.67 148.67 0 0 0-92-32.05A149 149 0 0 0 267 562.52a148.87 148.87 0 0 0 148.82 148.87 148.62 148.62 0 0 0 105.26-43.3c2.1-2 33.28-33.74 33.28-33.74l-31.74-31.75zm-79.6-242.54a103.58 103.58 0 0 1 98.82-71.88 103.52 103.52 0 0 1 73.57 30.67 102.25 102.25 0 0 1 25.56 42.89 162.83 162.83 0 0 1 18.66-1.43h7.05a177.34 177.34 0 0 1 20.81 1.64A148.26 148.26 0 0 0 508.81 277a148.26 148.26 0 0 0-146.72 125.61 168.09 168.09 0 0 1 47.8-8.79z" style="fill:#fff"/>
</g><g id="hat" transform="rotate(-19.664861,2554.5888,-1846.2773)"><path id="🎅" style="fill:rgb(255, 24, 43);stroke:#ffffff;stroke-width:39.4767;stroke-linecap:square;stroke-linejoin:round;stroke-miterlimit:5;stroke-dasharray:none;stroke-opacity:1" d="M 1.3888427 -777.64079 C -126.41754 -822.85625 -272.88081 -794.17541 -427.74092 -723.17061 L -411.15071 -760.0823 L -459.32489 -749.02795 L -495.42034 -783.89788 L -500.16434 -732.99008 L -543.31109 -708.17992 L -498.06911 -687.77279 L -488.63916 -637.57198 L -455.93489 -675.86625 L -406.96025 -669.64773 L -425.31773 -701.97648 C -290.88513 -689.16754 -86.608888 -639.13439 -273.63981 -347.58743 C -128.15384 -457.46783 0.38614654 -456.79247 307.39427 -419.56777 C 228.26451 -624.2273 123.30628 -734.50873 1.3888427 -777.64079 z "/></g></svg>
