<svg xmlns="http://www.w3.org/2000/svg" viewBox="0 0 1536 1536">
   <g id="original" transform="translate(256,256)"><circle cx="512" cy="512" r="512" style="fill:#009bde"/>
   <path d="M471.14 405.4v90.25h81.66V352.23h-55v-90.16h27.3v63.49h27.67v-90.18h-81.63v143.34h54v90.78h-27.3v-64.1zM512 768c-141.16 0-256-114.84-256-256a255.3 255.3 0 0 1 158.21-236.56l3.24-1.34v72.59l-1.17.68A191.28 191.28 0 0 0 321.45 512c0 105.07 85.48 190.54 190.55 190.54S702.55 617.06 702.55 512c0-66.79-35.77-129.55-93.35-163.79l-1.15-.68v-72.86l3.25 1.33A255.57 255.57 0 0 1 768 512c0 141.15-114.84 256-256 256z" style="fill:#fff"/>
</g><g id="hat" transform="rotate(-19.664861,2554.5888,-1846.2773)"><path id="🎅" style="fill:rgb(255, 104, 113);stroke:#ffffff;stroke-width:39.4767;stroke-linecap:square;stroke-linejoin:round;stroke-miterlimit:5;stroke-dasharray:none;stroke-opacity:1" d="M 1.3888427 -777.64079 C -126.41754 -822.85625 -272.88081 -794.17541 -427.74092 -723.17061 L -411.15071 -760.0823 L -459.32489 -749.02795 L -495.42034 -783.89788 L -500.16434 -732.99008 L -543.31109 -708.17992 L -498.06911 -687.77279 L -488.63916 -637.57198 L -455.93489 -675.86625 L -406.96025 -669.64773 L -425.31773 -701.97648 C -290.88513 -689.16754 -86.608888 -639.13439 -273.63981 -347.58743 C -128.15384 -457.46783 0.38614654 -456.79247 307.39427 -419.56777 C 228.26451 -624.2273 123.30628 -734.50873 1.3888427 -777.64079 z "/></g></svg>
