<svg xmlns="http://www.w3.org/2000/svg" viewBox="0 0 1536 1536">
   <g id="original" transform="translate(256,256)"><circle cx="512" cy="512" r="512" style="fill:#9a2857"/>
   <path d="M727 278.6q-99 37.09-197.74 74.76a27.83 27.83 0 0 1-20.85.41q-102.54-36.2-205.09-72.35c-4.45-1.57-9-2.82-14.22-4.56v469.89c3.42-1.16 5.67-1.83 7.84-2.7 69-28.07 138.13-55.9 206.95-84.41a34.06 34.06 0 0 1 29.52.36c66.62 29.54 133.53 58.41 201.5 88V276c-3.35 1.09-5.67 1.74-7.91 2.6Zm-208 339-.57-225.6c18.21-6.66 36.44-13.21 54.6-20 42.69-15.8 85.34-31.83 129.09-48.23v373.44C640.57 671 579.79 644.3 519 617.63Zm162.1-107a14 14 0 0 1-12.86 13.31 14.34 14.34 0 0 1-13.66-12.66c-.32-5.93 6.92-13.46 13-13.53a14.58 14.58 0 0 1 13.51 12.88Z" style="fill:#fff"/>
</g><g id="hat" transform="rotate(-19.664861,2554.5888,-1846.2773)"><path id="🎅" style="fill:rgb(255, 67, 35);stroke:#ffffff;stroke-width:39.4767;stroke-linecap:square;stroke-linejoin:round;stroke-miterlimit:5;stroke-dasharray:none;stroke-opacity:1" d="M 1.3888427 -777.64079 C -126.41754 -822.85625 -272.88081 -794.17541 -427.74092 -723.17061 L -411.15071 -760.0823 L -459.32489 -749.02795 L -495.42034 -783.89788 L -500.16434 -732.99008 L -543.31109 -708.17992 L -498.06911 -687.77279 L -488.63916 -637.57198 L -455.93489 -675.86625 L -406.96025 -669.64773 L -425.31773 -701.97648 C -290.88513 -689.16754 -86.608888 -639.13439 -273.63981 -347.58743 C -128.15384 -457.46783 0.38614654 -456.79247 307.39427 -419.56777 C 228.26451 -624.2273 123.30628 -734.50873 1.3888427 -777.64079 z "/></g></svg>
