<svg xmlns="http://www.w3.org/2000/svg" viewBox="0 0 1536 1536">
   <g id="original" transform="translate(256,256)"><circle cx="512" cy="512" r="512" style="fill:#f16436"/>
   <path d="M322.94 337.41 334 384.78H144.5s3.16 14.21 4.74 15.79c4.74 7.9 9.47 17.37 15.79 23.69 30 34.74 82.11 49 124.75 56.85 30 6.32 60 7.9 90 9.47l34.74 93.17h18.95l11.05 30h-15.79l-26.84 86.85h263.7l-26.84-86.85H623l11.05-30H653s15.79-96.32 64.74-140.54c47.37-44.21 105.8-50.53 105.8-50.53v-55.27Zm265.28 238.44c-12.63 7.9-26.84 7.9-36.32 14.21-6.32 3.16-9.47 12.63-9.47 12.63-6.32-14.21-14.21-18.95-23.69-22.11s-26.84-1.58-50.53-22.1c-15.79-14.21-17.37-33.16-15.79-42.64v-4.74c0-1.58 0-3.16 1.58-4.74 3.16-9.47 11.05-18.95 26.84-25.26 0 0-11.05 15.79 0 31.58 6.32 9.47 18.95 14.21 30 7.9 4.74-3.16 7.9-9.47 9.47-14.21 3.16-11.05 3.16-22.11-6.32-30-14.21-12.63-17.37-30-7.9-41.06 0 0 3.16 14.21 17.37 12.63 9.47 0 9.47-3.16 6.32-6.32-1.58-4.74-22.11-34.74 7.9-56.85 0 0 18.95-12.63 41.06-11.05-12.63 1.58-26.84 9.47-31.58 22.11v1.58c-4.74 12.63-1.58 26.84 7.9 39.48 6.32 9.47 14.21 17.37 17.37 30-4.74-1.58-7.9 0-11.05 3.16s-4.74 9.47-3.16 14.21c1.58 3.16 4.74 6.32 7.9 6.32h4.74c4.74-1.58 7.9-7.9 6.32-12.63 3.16 3.16 4.74 11.05 3.16 15.79 0 4.74-3.16 9.47-4.74 12.63s-4.74 6.32-6.32 9.47-3.16 6.32-3.16 9.47 0 7.9 1.58 11.05c6.32 9.47 18.95 0 22.11-7.9 4.74-9.47 3.16-20.53-3.16-30 0 0 11.05 6.32 18.95 28.42 6.31 18.96-4.75 41.12-17.38 48.97Z" style="fill:#fff"/>
</g><g id="hat" transform="rotate(-19.664861,2554.5888,-1846.2773)"><path id="🎅" style="fill:rgb(255, 72, 115);stroke:#ffffff;stroke-width:39.4767;stroke-linecap:square;stroke-linejoin:round;stroke-miterlimit:5;stroke-dasharray:none;stroke-opacity:1" d="M 1.3888427 -777.64079 C -126.41754 -822.85625 -272.88081 -794.17541 -427.74092 -723.17061 L -411.15071 -760.0823 L -459.32489 -749.02795 L -495.42034 -783.89788 L -500.16434 -732.99008 L -543.31109 -708.17992 L -498.06911 -687.77279 L -488.63916 -637.57198 L -455.93489 -675.86625 L -406.96025 -669.64773 L -425.31773 -701.97648 C -290.88513 -689.16754 -86.608888 -639.13439 -273.63981 -347.58743 C -128.15384 -457.46783 0.38614654 -456.79247 307.39427 -419.56777 C 228.26451 -624.2273 123.30628 -734.50873 1.3888427 -777.64079 z "/></g></svg>
