<svg xmlns="http://www.w3.org/2000/svg" viewBox="0 0 1536 1536">
   <g id="original" transform="translate(256,256)"><circle cx="512" cy="512" r="512" style="fill:#10353e"/>
   <path d="M544.7 458.93c-4.2-1.49-6.83-4.35-6.83-7.47V315.1c0-6.44 10.59-10.54 19.28-7.47L611 327.39c4.2 1.49 6.82 4.35 6.82 7.46v136.38c0 6.44-10.58 10.54-19.28 7.47l-53.84-19.77m0 244.81 53.83 19.76c8.7 3.07 19.28-1 19.28-7.47V579.66c0-3.12-2.62-6-6.82-7.46l-53.83-19.76c-8.7-3.07-19.28 1-19.28 7.47v136.36c0 3.11 2.63 6 6.83 7.47M445 413.33l53.83 19.76c8.7 3.07 19.28-1 19.28-7.46V277.26c0-3.11-2.62-6-6.82-7.47L457.47 250c-8.7-3.07-19.28 1-19.28 7.46v148.4c0 3.12 2.62 6 6.82 7.47m0 326.87 53.83 19.8c8.7 3.07 19.28-1 19.28-7.47v-148c0-3.12-2.62-6-6.82-7.47l-53.83-19.76c-8.7-3.07-19.28 1-19.28 7.47v148c0 3.11 2.62 6 6.82 7.47m-26.58-457.42c0-3.12-2.62-6-6.83-7.47l-53.83-19.75c-8.7-3.07-19.28 1-19.28 7.47v464.1c0 3.12 2.62 6 6.83 7.47l53.83 19.76c8.7 3.07 19.28-1 19.28-7.47ZM710.68 406l-53.83-19.76c-8.7-3.07-19.28 1-19.28 7.47v224c0 3.12 2.62 6 6.82 7.46l53.83 19.76c8.69 3.07 19.28-1 19.28-7.47v-224c0-3.11-2.63-6-6.83-7.47" style="fill:#fff"/>
</g><g id="hat" transform="rotate(-19.664861,2554.5888,-1846.2773)"><path id="🎅" style="fill:rgb(255, 71, 2);stroke:#ffffff;stroke-width:39.4767;stroke-linecap:square;stroke-linejoin:round;stroke-miterlimit:5;stroke-dasharray:none;stroke-opacity:1" d="M 1.3888427 -777.64079 C -126.41754 -822.85625 -272.88081 -794.17541 -427.74092 -723.17061 L -411.15071 -760.0823 L -459.32489 -749.02795 L -495.42034 -783.89788 L -500.16434 -732.99008 L -543.31109 -708.17992 L -498.06911 -687.77279 L -488.63916 -637.57198 L -455.93489 -675.86625 L -406.96025 -669.64773 L -425.31773 -701.97648 C -290.88513 -689.16754 -86.608888 -639.13439 -273.63981 -347.58743 C -128.15384 -457.46783 0.38614654 -456.79247 307.39427 -419.56777 C 228.26451 -624.2273 123.30628 -734.50873 1.3888427 -777.64079 z "/></g></svg>
