<svg xmlns="http://www.w3.org/2000/svg" viewBox="0 0 1536 1536">
   <g id="original" transform="translate(256,256)"><circle cx="512" cy="512" r="512" style="fill:#fdb813"/>
   <path d="M780.36 350.67H570.77c-3.07 0-5.53 3.17-5.53 7.09v58.76c0 3.82 2.45 7 5.53 7h91.11L465.43 620a7.08 7.08 0 0 0 0 9.9l41.67 41.61c2.42 2.45 7.37 2.45 9.86 0l196.12-196.18v192.23c0 3.08 3.17 5.53 7.1 5.53H779c3.83 0 7-2.45 7-5.53V356.49a4.33 4.33 0 0 0-1.16-3c-1.23-1.89-2.76-2.87-4.48-2.87Zm-536.76 0a5.38 5.38 0 0 0-4.33 2.75 5 5 0 0 0-1.26 3.09v311c0 3.06 3.17 5.57 7 5.57h58.87c3.92 0 7-2.51 7-5.57V475.36l116.44 116.41c2.17 2.17 6.15 1.66 8.91-1.1l41.57-41.57c2.7-2.7 3.18-6.65 1-8.83L362.15 423.58h156.34c3.07 0 5.59-3.16 5.59-7v-58.86c0-3.86-2.52-7-5.59-7Z" style="fill:#fff"/>
</g><g id="hat" transform="rotate(-19.664861,2554.5888,-1846.2773)"><path id="🎅" style="fill:rgb(255, 9, 65);stroke:#ffffff;stroke-width:39.4767;stroke-linecap:square;stroke-linejoin:round;stroke-miterlimit:5;stroke-dasharray:none;stroke-opacity:1" d="M 1.3888427 -777.64079 C -126.41754 -822.85625 -272.88081 -794.17541 -427.74092 -723.17061 L -411.15071 -760.0823 L -459.32489 -749.02795 L -495.42034 -783.89788 L -500.16434 -732.99008 L -543.31109 -708.17992 L -498.06911 -687.77279 L -488.63916 -637.57198 L -455.93489 -675.86625 L -406.96025 -669.64773 L -425.31773 -701.97648 C -290.88513 -689.16754 -86.608888 -639.13439 -273.63981 -347.58743 C -128.15384 -457.46783 0.38614654 -456.79247 307.39427 -419.56777 C 228.26451 -624.2273 123.30628 -734.50873 1.3888427 -777.64079 z "/></g></svg>
