<svg xmlns="http://www.w3.org/2000/svg" viewBox="0 0 1536 1536">
   <g id="original" transform="translate(256,256)"><circle cx="512" cy="512" r="512" style="fill:#1bdfcb"/>
   <path d="M536.56 744V640a128 128 0 0 0-.56-256H408L304 280h232.56a232.26 232.26 0 0 1 46.73 4.74 229.4 229.4 0 0 1 82.8 35.06 233.57 233.57 0 0 1 97.21 239.49 230.84 230.84 0 0 1-180 180 234.49 234.49 0 0 1-46.74 4.71ZM356.27 511.14c0-33.88 26.5-61.95 58.44-62 34.06-.08 63.24 28.44 63.62 62.16.39 34.57-27.79 63.84-61.3 63.64s-60.83-28.94-60.76-63.8Zm-.64 129.6h144.16V744H355.63A51.63 51.63 0 0 1 304 692.37a51.63 51.63 0 0 1 51.63-51.63Z" style="fill:#fff"/>
</g><g id="hat" transform="rotate(-19.664861,2554.5888,-1846.2773)"><path id="🎅" style="fill:rgb(255, 43, 99);stroke:#ffffff;stroke-width:39.4767;stroke-linecap:square;stroke-linejoin:round;stroke-miterlimit:5;stroke-dasharray:none;stroke-opacity:1" d="M 1.3888427 -777.64079 C -126.41754 -822.85625 -272.88081 -794.17541 -427.74092 -723.17061 L -411.15071 -760.0823 L -459.32489 -749.02795 L -495.42034 -783.89788 L -500.16434 -732.99008 L -543.31109 -708.17992 L -498.06911 -687.77279 L -488.63916 -637.57198 L -455.93489 -675.86625 L -406.96025 -669.64773 L -425.31773 -701.97648 C -290.88513 -689.16754 -86.608888 -639.13439 -273.63981 -347.58743 C -128.15384 -457.46783 0.38614654 -456.79247 307.39427 -419.56777 C 228.26451 -624.2273 123.30628 -734.50873 1.3888427 -777.64079 z "/></g></svg>
