<svg xmlns="http://www.w3.org/2000/svg" viewBox="0 0 1536 1536">
   <g id="original" transform="translate(256,256)"><circle cx="512" cy="512" r="512" style="fill:#94c1dd"/>
   <path d="m369.95 555.8-41.97 74.03c-29.11-9.78-63.23-15.3-104.33-13.83 36.86-48.21 90.9-60.41 146.3-60.2ZM292.6 692.22l14.52 7.26 36.23-63.89c-4.97-2.05-10.08-3.97-15.37-5.75l-35.37 62.39Zm214.14-344.8 21.78 65.33 18.15-72.59 79.85-3.63-65.33-39.93 21.78-72.59-61.71 50.81-61.71-43.56 29.03 72.59-61.71 36.29h65.33L369.93 555.78c6.11.02 12.23.2 18.35.49l118.43-208.88v.02Zm50.81 431.91c-74.57-5.53-111.33-101.41-214.2-143.74l44.96-79.29c80.49 3.87 160.2 28.35 191.02 1.63 54.44-47.18 134.28-195.99 83.47-333.91 181.47 333.91-7.26 562.56-105.25 555.31Zm-83.47-123.4c0-10.03-8.12-18.15-18.15-18.15s-18.15 8.12-18.15 18.15 8.12 18.15 18.15 18.15 18.15-8.12 18.15-18.15Zm116.14 72.59c0-10.03-8.12-18.15-18.15-18.15s-18.15 8.12-18.15 18.15 8.12 18.15 18.15 18.15 18.15-8.12 18.15-18.15Zm29.03-108.88c0-10.03-8.12-18.15-18.15-18.15s-18.15 8.12-18.15 18.15 8.12 18.15 18.15 18.15 18.15-8.12 18.15-18.15Zm72.59-108.88c0-10.03-8.12-18.15-18.15-18.15s-18.15 8.12-18.15 18.15 8.12 18.15 18.15 18.15 18.15-8.12 18.15-18.15Z" style="fill:#fff"/>
</g><g id="hat" transform="rotate(-19.664861,2554.5888,-1846.2773)"><path id="🎅" style="fill:rgb(255, 86, 99);stroke:#ffffff;stroke-width:39.4767;stroke-linecap:square;stroke-linejoin:round;stroke-miterlimit:5;stroke-dasharray:none;stroke-opacity:1" d="M 1.3888427 -777.64079 C -126.41754 -822.85625 -272.88081 -794.17541 -427.74092 -723.17061 L -411.15071 -760.0823 L -459.32489 -749.02795 L -495.42034 -783.89788 L -500.16434 -732.99008 L -543.31109 -708.17992 L -498.06911 -687.77279 L -488.63916 -637.57198 L -455.93489 -675.86625 L -406.96025 -669.64773 L -425.31773 -701.97648 C -290.88513 -689.16754 -86.608888 -639.13439 -273.63981 -347.58743 C -128.15384 -457.46783 0.38614654 -456.79247 307.39427 -419.56777 C 228.26451 -624.2273 123.30628 -734.50873 1.3888427 -777.64079 z "/></g></svg>
