<svg xmlns="http://www.w3.org/2000/svg" viewBox="0 0 1536 1536">
   <g id="original" transform="translate(256,256)"><circle cx="512" cy="512" r="512"/>
   <path d="M582.07 253.75c-144.42-38.7-292.87 47.01-331.57 191.43 0 0 26.58-26.49 43.58-26.49s43.58 26.49 43.58 26.49 26.58-26.49 43.58-26.49 43.58 26.49 43.58 26.49 26.58-26.49 43.58-26.49c11.88 0 28.4 12.91 37.3 20.7h-1.17v269.66c0 40.74 23.89 70.49 53.34 70.49s53.33-29.79 53.33-70.53c0 0-4.7-4.47-7.67-4.53-2.8-.05-7.39 4-7.39 4 0 29.24-17.14 56.73-38.27 56.73s-38.27-27.49-38.27-56.73V439.39h-1.34c8.9-7.79 25.43-20.7 37.3-20.7 17 0 43.58 26.49 43.58 26.49s26.58-26.49 43.58-26.49 43.58 26.49 43.58 26.49 26.58-26.49 43.58-26.49 43.58 26.49 43.58 26.49c-25.03-93.42-98.01-166.4-191.43-191.43Z" style="fill:#fff"/>
</g><g id="hat" transform="rotate(-19.664861,2554.5888,-1846.2773)"><path id="🎅" style="fill:rgb(255, 92, 13);stroke:#ffffff;stroke-width:39.4767;stroke-linecap:square;stroke-linejoin:round;stroke-miterlimit:5;stroke-dasharray:none;stroke-opacity:1" d="M 1.3888427 -777.64079 C -126.41754 -822.85625 -272.88081 -794.17541 -427.74092 -723.17061 L -411.15071 -760.0823 L -459.32489 -749.02795 L -495.42034 -783.89788 L -500.16434 -732.99008 L -543.31109 -708.17992 L -498.06911 -687.77279 L -488.63916 -637.57198 L -455.93489 -675.86625 L -406.96025 -669.64773 L -425.31773 -701.97648 C -290.88513 -689.16754 -86.608888 -639.13439 -273.63981 -347.58743 C -128.15384 -457.46783 0.38614654 -456.79247 307.39427 -419.56777 C 228.26451 -624.2273 123.30628 -734.50873 1.3888427 -777.64079 z "/></g></svg>
