<svg xmlns="http://www.w3.org/2000/svg" viewBox="0 0 1536 1536">
   <g id="original" transform="translate(256,256)"><circle cx="512" cy="512" r="512" style="fill:#ec0016"/>
   <path d="M728 323H296a54.26 54.26 0 0 0-54 54v270a54.53 54.53 0 0 0 54.27 54H728a54.53 54.53 0 0 0 54-54.38V377a54.26 54.26 0 0 0-54-54Zm14.58 323.64v.54a15 15 0 0 1-14.58 14.9H296.26a15 15 0 0 1-14.86-14.91V376.24a15 15 0 0 1 14.87-14.91H728a15 15 0 0 1 14.6 14.9v.76Zm-335.45-10.92h-90.84V388.28h90.83c64 0 99.37 40.07 99.37 122.59.11 71.6-23.92 124.26-99.36 124.85Zm256.08-129.44a60.94 60.94 0 0 0 43.2-57.62c0-5.13-1-60.27-70.64-60.27H532.52v247.33H620c23.17 0 95.37 0 95.37-69.56.01-17.38-7.12-50.11-52.16-59.88Zm-47.47 89.32h-24.36V532h26c30.84 0 38.4 18 38.4 31.81 0 31.75-30.35 31.75-40 31.75ZM446.6 516c0-49.85-5.4-88.78-58.86-88.78h-12V595.6h21.12c31.48 0 49.79-25.16 49.79-79.6Zm144.78-89.48h18.68c26.62 0 37.21 9.29 37.21 29.81 0 16.2-11.66 29.92-32.4 29.92h-23.49Z" style="fill:#fff"/>
</g><g id="hat" transform="rotate(-19.664861,2554.5888,-1846.2773)"><path id="🎅" style="fill:rgb(255, 106, 2);stroke:#ffffff;stroke-width:39.4767;stroke-linecap:square;stroke-linejoin:round;stroke-miterlimit:5;stroke-dasharray:none;stroke-opacity:1" d="M 1.3888427 -777.64079 C -126.41754 -822.85625 -272.88081 -794.17541 -427.74092 -723.17061 L -411.15071 -760.0823 L -459.32489 -749.02795 L -495.42034 -783.89788 L -500.16434 -732.99008 L -543.31109 -708.17992 L -498.06911 -687.77279 L -488.63916 -637.57198 L -455.93489 -675.86625 L -406.96025 -669.64773 L -425.31773 -701.97648 C -290.88513 -689.16754 -86.608888 -639.13439 -273.63981 -347.58743 C -128.15384 -457.46783 0.38614654 -456.79247 307.39427 -419.56777 C 228.26451 -624.2273 123.30628 -734.50873 1.3888427 -777.64079 z "/></g></svg>
