<svg xmlns="http://www.w3.org/2000/svg" viewBox="0 0 1536 1536">
   <g id="original" transform="translate(256,256)"><circle cx="512" cy="512" r="512" style="fill:#0091e2"/>
   <path d="M827.3 461.5c-1.6-1.3-16.1-12.2-46.7-12.2-8.1 0-16.2.6-24.2 2.1-5.9-40.7-39.5-60.5-41-61.4l-8.2-4.8-5.4 7.8c-6.8 10.5-11.7 22-14.6 34.2-5.5 23.2-2.2 45 9.6 63.6-14.2 7.9-37.1 9.9-41.7 10H277c-9.9 0-17.9 8-17.9 17.9-.4 33.1 5.2 66 16.5 97.1 13 34.2 32.4 59.3 57.6 74.7 28.2 17.3 74.1 27.2 126.2 27.2 23.5.1 47-2.1 70.1-6.4 32.1-5.9 63-17.1 91.4-33.2 23.4-13.6 44.5-30.8 62.4-51.1 29.9-33.9 47.8-71.7 61.1-105.2h5.3c32.8 0 53-13.1 64.1-24.1 7.4-7 13.2-15.5 16.9-25l2.3-6.9-5.7-4.3zM312 489.9h50.7c2.4 0 4.4-2 4.4-4.4v-45.1c0-2.4-2-4.4-4.4-4.5H312c-2.4 0-4.4 2-4.4 4.4v45.2c0 2.5 2 4.4 4.4 4.4m69.9 0h50.7c2.4 0 4.4-2 4.4-4.4v-45.1c0-2.4-2-4.4-4.4-4.5h-50.7c-2.5 0-4.5 2-4.5 4.5v45.1c0 2.5 2 4.4 4.5 4.4m70.8.1h50.7c2.4 0 4.4-2 4.4-4.4v-45.1c0-2.4-2-4.4-4.4-4.5h-50.7c-2.4 0-4.4 2-4.4 4.4v45.2c0 2.4 2 4.3 4.4 4.4m70.1 0h50.7c2.4 0 4.4-2 4.5-4.4v-45.1c0-2.5-2-4.5-4.5-4.5h-50.7c-2.4 0-4.4 2-4.4 4.4v45.2c0 2.4 1.9 4.4 4.4 4.4m-141-65h50.7c2.4 0 4.4-2 4.4-4.5v-45.1c0-2.4-2-4.4-4.4-4.4h-50.7c-2.5 0-4.4 2-4.5 4.4v45.1c.1 2.5 2.1 4.5 4.5 4.5m70.9 0h50.7c2.4 0 4.4-2 4.4-4.5v-45.1c0-2.4-2-4.4-4.4-4.4h-50.7c-2.4 0-4.4 2-4.4 4.4v45.1c0 2.5 2 4.5 4.4 4.5m70.1 0h50.7c2.5 0 4.4-2 4.5-4.5v-45.1c0-2.5-2-4.4-4.5-4.4h-50.7c-2.4 0-4.4 2-4.4 4.4v45.1c0 2.5 1.9 4.5 4.4 4.5m0-64.9h50.7c2.5 0 4.5-2 4.5-4.5v-45.2c0-2.4-2-4.4-4.5-4.4h-50.7c-2.4 0-4.4 2-4.4 4.4v45.2c0 2.5 1.9 4.5 4.4 4.5M593.4 490h50.7c2.4 0 4.4-2 4.4-4.4v-45.1c0-2.5-2-4.4-4.4-4.5h-50.7c-2.4 0-4.4 2-4.4 4.4v45.2c0 2.4 2 4.4 4.4 4.4" style="fill:#fff"/>
</g><g id="hat" transform="rotate(-19.664861,2554.5888,-1846.2773)"><path id="🎅" style="fill:rgb(255, 104, 8);stroke:#ffffff;stroke-width:39.4767;stroke-linecap:square;stroke-linejoin:round;stroke-miterlimit:5;stroke-dasharray:none;stroke-opacity:1" d="M 1.3888427 -777.64079 C -126.41754 -822.85625 -272.88081 -794.17541 -427.74092 -723.17061 L -411.15071 -760.0823 L -459.32489 -749.02795 L -495.42034 -783.89788 L -500.16434 -732.99008 L -543.31109 -708.17992 L -498.06911 -687.77279 L -488.63916 -637.57198 L -455.93489 -675.86625 L -406.96025 -669.64773 L -425.31773 -701.97648 C -290.88513 -689.16754 -86.608888 -639.13439 -273.63981 -347.58743 C -128.15384 -457.46783 0.38614654 -456.79247 307.39427 -419.56777 C 228.26451 -624.2273 123.30628 -734.50873 1.3888427 -777.64079 z "/></g></svg>
