<svg xmlns="http://www.w3.org/2000/svg" viewBox="0 0 1536 1536">
   <g id="original" transform="translate(256,256)"><circle cx="512" cy="512" r="512" style="fill:#ffa41e"/>
   <path d="M771.44 498c-8.71-125-98.98-203-227.61-213.45H327.66c-16 3.87-24.66 14.35-29.66 29.66V708.5c3.87 18.7 18.22 27.57 37.4 31h207.3c129.76-6.18 238.09-101.28 228.74-241.5ZM574.61 661.27s-1.61-41.75-3.87-63.83c-31.27-5-58.84-9.83-84.14-21.92-68.67-33-157.81-129.76-157.81-196.34 69.31 39.65 127.67 99.62 233.74 84.15L553.17 399s112.68 77.05 163.29 109.94C670.2 560 574.61 661.27 574.61 661.27Z" style="fill:#fff"/>
</g><g id="hat" transform="rotate(-19.664861,2554.5888,-1846.2773)"><path id="🎅" style="fill:rgb(255, 21, 77);stroke:#ffffff;stroke-width:39.4767;stroke-linecap:square;stroke-linejoin:round;stroke-miterlimit:5;stroke-dasharray:none;stroke-opacity:1" d="M 1.3888427 -777.64079 C -126.41754 -822.85625 -272.88081 -794.17541 -427.74092 -723.17061 L -411.15071 -760.0823 L -459.32489 -749.02795 L -495.42034 -783.89788 L -500.16434 -732.99008 L -543.31109 -708.17992 L -498.06911 -687.77279 L -488.63916 -637.57198 L -455.93489 -675.86625 L -406.96025 -669.64773 L -425.31773 -701.97648 C -290.88513 -689.16754 -86.608888 -639.13439 -273.63981 -347.58743 C -128.15384 -457.46783 0.38614654 -456.79247 307.39427 -419.56777 C 228.26451 -624.2273 123.30628 -734.50873 1.3888427 -777.64079 z "/></g></svg>
