<svg xmlns="http://www.w3.org/2000/svg" viewBox="0 0 1536 1536">
   <style>
      .st1{fill:#fff}
   </style>
   <g id="Icon">
      <g id="original" transform="translate(256,256)"><circle cx="512" cy="512" r="512" style="fill:#0073ec"/>
      <g id="mark_1_">
         <path class="st1" d="M755.4 640.6c-41.2 22.7-89.1 35.3-139.5 34.5-148.8-3.4-267.3-123.6-264.8-269.8.8-49.6 16-95.8 41.2-134.5-79.9 44.6-134.5 127.8-136.2 224.4-3.4 146.3 116 266.5 264.8 269.8 98.3 1.7 185.7-47.9 234.5-124.4"/>
         <path class="st1" d="M536.8 259c-40.3 0-78.2 10.1-111.8 28.6-21 34.5-32.8 74-34.5 114.3-2.5 126.9 100.9 232 229.5 234.5 38.7 0 82.4-9.2 116-27.7 20.2-34.5 32-74.9 32-117.7.8-127.8-103.4-232-231.2-232z"/>
      </g>
   </g>
</g><g id="hat" transform="rotate(-19.664861,2554.5888,-1846.2773)"><path id="🎅" style="fill:rgb(255, 45, 122);stroke:#ffffff;stroke-width:39.4767;stroke-linecap:square;stroke-linejoin:round;stroke-miterlimit:5;stroke-dasharray:none;stroke-opacity:1" d="M 1.3888427 -777.64079 C -126.41754 -822.85625 -272.88081 -794.17541 -427.74092 -723.17061 L -411.15071 -760.0823 L -459.32489 -749.02795 L -495.42034 -783.89788 L -500.16434 -732.99008 L -543.31109 -708.17992 L -498.06911 -687.77279 L -488.63916 -637.57198 L -455.93489 -675.86625 L -406.96025 -669.64773 L -425.31773 -701.97648 C -290.88513 -689.16754 -86.608888 -639.13439 -273.63981 -347.58743 C -128.15384 -457.46783 0.38614654 -456.79247 307.39427 -419.56777 C 228.26451 -624.2273 123.30628 -734.50873 1.3888427 -777.64079 z "/></g></svg>
