<svg xmlns="http://www.w3.org/2000/svg" viewBox="0 0 1536 1536">
   <g id="original" transform="translate(256,256)"><circle cx="512" cy="512" r="512" style="fill:#696158"/>
   <path d="M257 469.1q20.73 0 31.25 10.49t10.52 31.31v7.85h-81.54q.3 16.45 8.32 24.22t24.52 7.77h6.65q12.26 0 19.67-3.77a20.65 20.65 0 0 0 10.29-11.16h9.68a28.36 28.36 0 0 1-13 17.73q-10 6.1-26.33 6.11h-7.27q-20.73 0-31.25-10.49T208 517.84v-6.94q0-20.82 10.52-31.31t31.25-10.49Zm103.36 0q18.46 0 28.9 8.37t12.41 25h-9.23q-2-12.51-9.91-18.48t-22.47-6h-6.66q-16.8 0-24.82 8.15t-8 25.2v6q0 17.06 8 25.2t24.82 8.15h6.65q14.53 0 22.48-6t9.91-18.49h9.23q-2 16.6-12.41 25t-28.9 8.37h-7.26q-20.74 0-31.25-10.49t-10.52-31.31v-6.87q0-20.82 10.52-31.31t31.25-10.49Zm102.21 0q20.73 0 31.25 10.49t10.52 31.31v6.94q0 20.83-10.52 31.31t-31.24 10.49h-7.26q-20.74 0-31.25-10.49t-10.52-31.31v-6.94q0-20.82 10.52-31.31t31.25-10.49h7.26Zm65-29.07v43a28.68 28.68 0 0 1 12.78-10.42q8.1-3.47 19.75-3.47h7.27q20.73 0 31.25 10.49t10.52 31.31v6.94q0 20.83-10.52 31.31t-31.25 10.49h-7.27q-20.73 0-31.25-10.49t-10.45-31.35V440Zm143.3 29.07q20.73 0 31.25 10.49t10.52 31.31v7.85h-81.56q.3 16.45 8.32 24.22t24.51 7.77h6.66q12.26 0 19.67-3.77a20.65 20.65 0 0 0 10.29-11.16h9.68a28.36 28.36 0 0 1-13 17.73q-10 6.1-26.34 6.11h-7.26q-20.74 0-31.25-10.49t-10.52-31.31v-6.95q0-20.82 10.52-31.31t31.25-10.49Zm103.37 0q20.72 0 31.25 10.49T816 510.9v7.85h-81.56q.3 16.45 8.32 24.22t24.51 7.77h6.66q12.26 0 19.67-3.77a20.65 20.65 0 0 0 10.29-11.16h9.68a28.36 28.36 0 0 1-13 17.73q-10 6.11-26.33 6.11H767q-20.74 0-31.25-10.49t-10.52-31.31v-6.95q0-20.82 10.52-31.31T767 469.1ZM462.31 478h-6.66q-16.8 0-24.82 8.15t-8 25.2v6q0 17.06 8 25.2t24.82 8.15h6.66q16.79 0 24.82-8.15t8-25.2v-6q0-17.05-8-25.2T462.3 478Zm104.82 0h-6.66q-16.79 0-24.82 8.15t-8 25.2v6q0 17.06 8 25.2t24.82 8.15h6.65q16.8 0 24.82-8.15t8-25.2v-6q0-17.05-8-25.2T567.12 478Zm-310.4 0h-6.66q-16.5 0-24.51 7.77t-8.32 24.07h72.33q-.3-16.3-8.32-24.07T256.72 478Zm413.84 0h-6.65q-16.5 0-24.52 7.77t-8.32 24.07h72.32q-.3-16.3-8.32-24.07T670.57 478Zm103.37 0h-6.66q-16.5 0-24.52 7.77t-8.32 24.07h72.33q-.31-16.3-8.32-24.07T773.93 478Z" style="fill:#fff"/>
</g><g id="hat" transform="rotate(-19.664861,2554.5888,-1846.2773)"><path id="🎅" style="fill:rgb(255, 12, 42);stroke:#ffffff;stroke-width:39.4767;stroke-linecap:square;stroke-linejoin:round;stroke-miterlimit:5;stroke-dasharray:none;stroke-opacity:1" d="M 1.3888427 -777.64079 C -126.41754 -822.85625 -272.88081 -794.17541 -427.74092 -723.17061 L -411.15071 -760.0823 L -459.32489 -749.02795 L -495.42034 -783.89788 L -500.16434 -732.99008 L -543.31109 -708.17992 L -498.06911 -687.77279 L -488.63916 -637.57198 L -455.93489 -675.86625 L -406.96025 -669.64773 L -425.31773 -701.97648 C -290.88513 -689.16754 -86.608888 -639.13439 -273.63981 -347.58743 C -128.15384 -457.46783 0.38614654 -456.79247 307.39427 -419.56777 C 228.26451 -624.2273 123.30628 -734.50873 1.3888427 -777.64079 z "/></g></svg>
