<svg xmlns="http://www.w3.org/2000/svg" viewBox="0 0 1536 1536">
   <g id="original" transform="translate(256,256)"><circle cx="512" cy="512" r="512" style="fill:#19ba19"/>
   <path d="M773.38 439.94a19.85 19.85 0 0 0 0-28.08l-162-162a19.85 19.85 0 0 0-28.08 0l-58 58a19.85 19.85 0 0 1-28.08 0l-57.56-57.76a19.85 19.85 0 0 0-28.08 0l-161.77 162a19.85 19.85 0 0 0 0 28.08l58 58a19.85 19.85 0 0 1 0 28.08l-58 57.49a19.85 19.85 0 0 0 0 28.08l162 162a19.85 19.85 0 0 0 28.08 0l58-58a19.85 19.85 0 0 1 28.08 0l58 58a19.85 19.85 0 0 0 28.08 0l162-162a19.85 19.85 0 0 0 0-28.08l-58-58a19.85 19.85 0 0 1 0-28.08L773.38 440ZM656.53 543.68c0 62.3-50.8 113.1-113.1 113.1h-63.64c-62.3 0-113.1-50.8-113.1-113.1V480c0-62.3 50.8-113.1 113.1-113.1h63.64c62.3 0 113.1 50.8 113.1 113.1Z" style="fill:#fff"/>
</g><g id="hat" transform="rotate(-19.664861,2554.5888,-1846.2773)"><path id="🎅" style="fill:rgb(255, 55, 98);stroke:#ffffff;stroke-width:39.4767;stroke-linecap:square;stroke-linejoin:round;stroke-miterlimit:5;stroke-dasharray:none;stroke-opacity:1" d="M 1.3888427 -777.64079 C -126.41754 -822.85625 -272.88081 -794.17541 -427.74092 -723.17061 L -411.15071 -760.0823 L -459.32489 -749.02795 L -495.42034 -783.89788 L -500.16434 -732.99008 L -543.31109 -708.17992 L -498.06911 -687.77279 L -488.63916 -637.57198 L -455.93489 -675.86625 L -406.96025 -669.64773 L -425.31773 -701.97648 C -290.88513 -689.16754 -86.608888 -639.13439 -273.63981 -347.58743 C -128.15384 -457.46783 0.38614654 -456.79247 307.39427 -419.56777 C 228.26451 -624.2273 123.30628 -734.50873 1.3888427 -777.64079 z "/></g></svg>
