<svg xmlns="http://www.w3.org/2000/svg" viewBox="0 0 1536 1536">
   <g id="original" transform="translate(256,256)"><circle cx="512" cy="512" r="512" style="fill:#da3940"/>
   <path d="M389.1 717.9c-57.5 0-94.2-32.3-94.2-77.2 0-14.8 4.4-32.8 21.4-69.5H256l55.3-118.3h385c8.8 0 14.8-6.6 14.8-14.2 0-7.7-6-14.2-14.8-14.2H384.7l27.4-58.6c17-36.1 53.7-59.7 93.6-59.7h130.9c75.6 0 131.4 52 131.4 119.9 0 80.5-73.9 145.1-159.3 145.1h-253c-7.7 15.9 1.1 28.5 19.7 28.5h201.5c33.4 0 59.1 23.5 59.1 53.7 0 34.5-33.4 64.6-71.2 64.6H389.1v-.1z" style="fill:#fff"/>
</g><g id="hat" transform="rotate(-19.664861,2554.5888,-1846.2773)"><path id="🎅" style="fill:rgb(255, 126, 29);stroke:#ffffff;stroke-width:39.4767;stroke-linecap:square;stroke-linejoin:round;stroke-miterlimit:5;stroke-dasharray:none;stroke-opacity:1" d="M 1.3888427 -777.64079 C -126.41754 -822.85625 -272.88081 -794.17541 -427.74092 -723.17061 L -411.15071 -760.0823 L -459.32489 -749.02795 L -495.42034 -783.89788 L -500.16434 -732.99008 L -543.31109 -708.17992 L -498.06911 -687.77279 L -488.63916 -637.57198 L -455.93489 -675.86625 L -406.96025 -669.64773 L -425.31773 -701.97648 C -290.88513 -689.16754 -86.608888 -639.13439 -273.63981 -347.58743 C -128.15384 -457.46783 0.38614654 -456.79247 307.39427 -419.56777 C 228.26451 -624.2273 123.30628 -734.50873 1.3888427 -777.64079 z "/></g></svg>
