<svg xmlns="http://www.w3.org/2000/svg" viewBox="0 0 1536 1536">
   <g id="original" transform="translate(256,256)"><circle cx="512" cy="512" r="512" style="fill:#ff9800"/>
   <path d="M259.8 468.5h364.4c1.5 0 2.9-.9 3.5-2.2l33.1-71.7c.9-1.9.1-4.2-1.9-5.1-.5-.2-1.1-.4-1.6-.4H287.5C331 309.8 415.2 256 512 256c141.3 0 255.8 114.6 255.8 256S653.3 768 512 768 256.2 653.4 256.2 512c0-14.8 1.2-29.4 3.6-43.5zm157.5 207.3c0 2.8 2.3 5.1 5.1 5.1h6.6l80.4-101.1h63.3c1.5 0 2.9-.9 3.5-2.2l33.1-71.6c.2-.5.4-1.1.4-1.6 0-2.1-1.7-3.8-3.8-3.8H417.3v175.2z" style="fill:#fff"/>
</g><g id="hat" transform="rotate(-19.664861,2554.5888,-1846.2773)"><path id="🎅" style="fill:rgb(255, 76, 111);stroke:#ffffff;stroke-width:39.4767;stroke-linecap:square;stroke-linejoin:round;stroke-miterlimit:5;stroke-dasharray:none;stroke-opacity:1" d="M 1.3888427 -777.64079 C -126.41754 -822.85625 -272.88081 -794.17541 -427.74092 -723.17061 L -411.15071 -760.0823 L -459.32489 -749.02795 L -495.42034 -783.89788 L -500.16434 -732.99008 L -543.31109 -708.17992 L -498.06911 -687.77279 L -488.63916 -637.57198 L -455.93489 -675.86625 L -406.96025 -669.64773 L -425.31773 -701.97648 C -290.88513 -689.16754 -86.608888 -639.13439 -273.63981 -347.58743 C -128.15384 -457.46783 0.38614654 -456.79247 307.39427 -419.56777 C 228.26451 -624.2273 123.30628 -734.50873 1.3888427 -777.64079 z "/></g></svg>
