<svg xmlns="http://www.w3.org/2000/svg" viewBox="0 0 1536 1536">
   <g id="original" transform="translate(256,256)"><circle cx="512" cy="512" r="512" style="fill:#f4633a"/>
   <path d="M567.1 523.7h-41.3v-68.8h41.3v68.8zm0 96.3h-41.3v-68.8h41.3V620zm-68.8-96.3H457v-68.8h41.3v68.8zm0 96.3H457v-68.8h41.3V620zm96.3-178.8c0-7.6-6.2-13.8-13.8-13.8H443.3c-7.6 0-13.8 6.2-13.8 13.8v222.4c26.5-1.5 54.2-2.3 82.5-2.3 28.3 0 56 .8 82.5 2.5V441.2zm55 110h41.3V620h-41.3v-68.8zm0-96.3h41.3v68.8h-41.3v-68.8zm0-96.3h41.3v68.8h-41.3v-68.8zm68.8 192.6h41.3V620h-41.3v-68.8zm0-96.3h41.3v68.8h-41.3v-68.8zm0-96.3h41.3v68.8h-41.3v-68.8zm-96.3-13.7v320.7c64.1 5.1 120.9 14.7 164.9 27.2v-348c0-7.6-6.2-13.8-13.8-13.8H635.8c-7.5.1-13.7 6.3-13.7 13.9M374.5 620h-41.3v-68.8h41.3V620zm-68.7 0h-41.3v-68.8h41.3V620zm-55-96.3c-7.6 0-13.8 6.2-13.8 13.8v155.3c44-12.5 100.8-22.1 165-27.2v-128c0-7.6-6.2-13.8-13.8-13.8H250.8z" style="fill:#fff"/>
</g><g id="hat" transform="rotate(-19.664861,2554.5888,-1846.2773)"><path id="🎅" style="fill:rgb(255, 15, 90);stroke:#ffffff;stroke-width:39.4767;stroke-linecap:square;stroke-linejoin:round;stroke-miterlimit:5;stroke-dasharray:none;stroke-opacity:1" d="M 1.3888427 -777.64079 C -126.41754 -822.85625 -272.88081 -794.17541 -427.74092 -723.17061 L -411.15071 -760.0823 L -459.32489 -749.02795 L -495.42034 -783.89788 L -500.16434 -732.99008 L -543.31109 -708.17992 L -498.06911 -687.77279 L -488.63916 -637.57198 L -455.93489 -675.86625 L -406.96025 -669.64773 L -425.31773 -701.97648 C -290.88513 -689.16754 -86.608888 -639.13439 -273.63981 -347.58743 C -128.15384 -457.46783 0.38614654 -456.79247 307.39427 -419.56777 C 228.26451 -624.2273 123.30628 -734.50873 1.3888427 -777.64079 z "/></g></svg>
