<svg xmlns="http://www.w3.org/2000/svg" viewBox="0 0 1536 1536">
   <g id="original" transform="translate(256,256)"><circle cx="512" cy="512" r="512" style="fill:#0caa41"/>
   <path d="M621.7 694.9H329.1c0 40.4 32.7 73.1 73.1 73.1h219.4c40.4 0 73.1-32.7 73.1-73.1V394.5c0-1.5-1.2-2.7-2.7-2.7h-67.8c-1.5 0-2.7 1.2-2.7 2.7v300.4h.2zm0-438.9c40.4 0 73.1 32.7 73.1 73.1H402.3v300.4c0 1.5-1.2 2.7-2.7 2.7h-67.8c-1.5 0-2.7-1.2-2.7-2.7V329.1c0-40.4 32.7-73.1 73.1-73.1h219.5z" style="fill:#fff"/>
</g><g id="hat" transform="rotate(-19.664861,2554.5888,-1846.2773)"><path id="🎅" style="fill:rgb(255, 12, 60);stroke:#ffffff;stroke-width:39.4767;stroke-linecap:square;stroke-linejoin:round;stroke-miterlimit:5;stroke-dasharray:none;stroke-opacity:1" d="M 1.3888427 -777.64079 C -126.41754 -822.85625 -272.88081 -794.17541 -427.74092 -723.17061 L -411.15071 -760.0823 L -459.32489 -749.02795 L -495.42034 -783.89788 L -500.16434 -732.99008 L -543.31109 -708.17992 L -498.06911 -687.77279 L -488.63916 -637.57198 L -455.93489 -675.86625 L -406.96025 -669.64773 L -425.31773 -701.97648 C -290.88513 -689.16754 -86.608888 -639.13439 -273.63981 -347.58743 C -128.15384 -457.46783 0.38614654 -456.79247 307.39427 -419.56777 C 228.26451 -624.2273 123.30628 -734.50873 1.3888427 -777.64079 z "/></g></svg>
