<svg xmlns="http://www.w3.org/2000/svg" viewBox="0 0 1536 1536">
   <g id="original" transform="translate(256,256)"><circle cx="512" cy="512" r="512" style="fill:#03c197"/>
   <path d="M512 256c-141.38 0-256 114.61-256 256s114.62 256 256 256 256-114.62 256-256-114.61-256-256-256Zm144.37 389.49a17.35 17.35 0 0 1-20.56 17.06c-8.37-1.51-14.1-9.41-14.1-17.91v-16.5l3.29-18.25a148.62 148.62 0 0 1-113 51.49c-85.9 0-155-71.16-150-158.31 4.3-74.9 64.82-136.15 139.6-141.17a150 150 0 0 1 136.93 69 17.16 17.16 0 0 1-5.16 22.78c-7.87 5.47-18.23 3.06-24.15-5.29-20.53-28.93-56.38-52.86-97.24-52.86-78.4 0-138.57 78.74-107 161.2 13.92 36.33 46.91 62.34 85.32 68.37 47.18 7.41 90.34-9.38 115.19-45.88l-15.53 2.18h-26.8c-8.51 0-16.38-5.74-17.89-14.12a17.35 17.35 0 0 1 17-20.58h94.09Z" style="fill:#fff"/>
</g><g id="hat" transform="rotate(-19.664861,2554.5888,-1846.2773)"><path id="🎅" style="fill:rgb(255, 46, 21);stroke:#ffffff;stroke-width:39.4767;stroke-linecap:square;stroke-linejoin:round;stroke-miterlimit:5;stroke-dasharray:none;stroke-opacity:1" d="M 1.3888427 -777.64079 C -126.41754 -822.85625 -272.88081 -794.17541 -427.74092 -723.17061 L -411.15071 -760.0823 L -459.32489 -749.02795 L -495.42034 -783.89788 L -500.16434 -732.99008 L -543.31109 -708.17992 L -498.06911 -687.77279 L -488.63916 -637.57198 L -455.93489 -675.86625 L -406.96025 -669.64773 L -425.31773 -701.97648 C -290.88513 -689.16754 -86.608888 -639.13439 -273.63981 -347.58743 C -128.15384 -457.46783 0.38614654 -456.79247 307.39427 -419.56777 C 228.26451 -624.2273 123.30628 -734.50873 1.3888427 -777.64079 z "/></g></svg>
