<svg xmlns="http://www.w3.org/2000/svg" viewBox="0 0 1536 1536">
   <g id="original" transform="translate(256,256)"><circle cx="512" cy="512" r="512" style="fill:#00a2e5"/>
   <path d="M736.87 612.69V411.31A51.79 51.79 0 1 0 672 336.9H352a51.79 51.79 0 1 0-64.11 74.76v201.47A51.79 51.79 0 1 0 352.54 689h320.61a51.81 51.81 0 1 0 63.72-76.33zM664.59 656H361.1a51.79 51.79 0 0 0-40.1-46.31V413.88a51.46 51.46 0 0 0 14.37-6.22l129 118.07a51.81 51.81 0 1 0 102.3-2.06l124.84-114.29a51.46 51.46 0 0 0 14.16 5.17v194.9A51.81 51.81 0 0 0 664.59 656zM669 385.16 550.12 494a51.62 51.62 0 0 0-70.26 1.17L356.27 382a51.39 51.39 0 0 0 3-12.08h305.5a51.38 51.38 0 0 0 4.23 15.24z" style="fill:#fff"/>
</g><g id="hat" transform="rotate(-19.664861,2554.5888,-1846.2773)"><path id="🎅" style="fill:rgb(255, 0, 19);stroke:#ffffff;stroke-width:39.4767;stroke-linecap:square;stroke-linejoin:round;stroke-miterlimit:5;stroke-dasharray:none;stroke-opacity:1" d="M 1.3888427 -777.64079 C -126.41754 -822.85625 -272.88081 -794.17541 -427.74092 -723.17061 L -411.15071 -760.0823 L -459.32489 -749.02795 L -495.42034 -783.89788 L -500.16434 -732.99008 L -543.31109 -708.17992 L -498.06911 -687.77279 L -488.63916 -637.57198 L -455.93489 -675.86625 L -406.96025 -669.64773 L -425.31773 -701.97648 C -290.88513 -689.16754 -86.608888 -639.13439 -273.63981 -347.58743 C -128.15384 -457.46783 0.38614654 -456.79247 307.39427 -419.56777 C 228.26451 -624.2273 123.30628 -734.50873 1.3888427 -777.64079 z "/></g></svg>
