<svg xmlns="http://www.w3.org/2000/svg" viewBox="0 0 1536 1536">
   <g id="original" transform="translate(256,256)"><circle cx="512" cy="512" r="512" style="fill:#b7236a"/>
   <path d="M769.83 729.3c-92.31 22.57-124.47-48.29-128.4-58-9.07-69.12 14.79-159.11-18.18-182.91-24.45-17.3-52.89 4.07-61.54 11.52h-.07c-14.62 12.83-24.24 31.37-38.5 59.89-21.76 43.64-39.57 73.82-53.59 94.64-6.55-44.24-8.15-110-3.21-197C478.09 252.44 352.61 256 352.61 256c7.49 150.43-7.49 350.78-7.49 350.78-.36 61.31 2.14 112.29 52.4 141.88 50.52 30 87.25 9 108.78-13 25.34-26.74 52.22-92.89 52.43-95.68a288.69 288.69 0 0 0 2.84 30.27C571.91 740.07 625 760 625 760c47.06 20.32 95.89-4.63 95.89-4.63-.36 0 39.38-17.78 49.61-24.31.71-.71.35-2.14-.71-1.78" style="fill:#fff"/>
</g><g id="hat" transform="rotate(-19.664861,2554.5888,-1846.2773)"><path id="🎅" style="fill:rgb(255, 72, 107);stroke:#ffffff;stroke-width:39.4767;stroke-linecap:square;stroke-linejoin:round;stroke-miterlimit:5;stroke-dasharray:none;stroke-opacity:1" d="M 1.3888427 -777.64079 C -126.41754 -822.85625 -272.88081 -794.17541 -427.74092 -723.17061 L -411.15071 -760.0823 L -459.32489 -749.02795 L -495.42034 -783.89788 L -500.16434 -732.99008 L -543.31109 -708.17992 L -498.06911 -687.77279 L -488.63916 -637.57198 L -455.93489 -675.86625 L -406.96025 -669.64773 L -425.31773 -701.97648 C -290.88513 -689.16754 -86.608888 -639.13439 -273.63981 -347.58743 C -128.15384 -457.46783 0.38614654 -456.79247 307.39427 -419.56777 C 228.26451 -624.2273 123.30628 -734.50873 1.3888427 -777.64079 z "/></g></svg>
