<svg xmlns="http://www.w3.org/2000/svg" viewBox="0 0 1536 1536">
   <g id="original" transform="translate(256,256)"><circle cx="512" cy="512" r="512" style="fill:#8cc864"/>
   <path d="M539.19 738.63C433 752.2 311.71 668.88 296 546c-8.63-67.58 1.59-134.51 44.56-177.34s56 43.67 55.67 82.79 9.16 126.57 16.45 155.72c19.58 78.31 67.05 131.61 126.5 131.42ZM320 253.64c71.83-21.89 165.48 21.36 190.8 104.45 13.93 45.7 14.74 93.15-9.9 127.81s-43.84-23.59-48.23-50.65-21.25-86.39-29.67-105.69c-22.8-51.81-61.89-83.05-103-75.92Zm164.76 31.73C591 271.8 712.29 355.12 728 478c8.63 67.58-1.6 134.51-44.56 177.34s-56-43.67-55.67-82.79-9.15-126.57-16.44-155.72c-19.58-78.31-67.06-131.61-126.5-131.42ZM704 770.36C632.17 792.25 538.52 749 513.2 665.91c-13.93-45.7-14.75-93.15 9.9-127.81s43.84 23.59 48.23 50.64 21.24 86.4 29.71 105.7C623.8 746.26 662.9 777.5 704 770.36Z" style="fill:#fff"/>
</g><g id="hat" transform="rotate(-19.664861,2554.5888,-1846.2773)"><path id="🎅" style="fill:rgb(255, 67, 48);stroke:#ffffff;stroke-width:39.4767;stroke-linecap:square;stroke-linejoin:round;stroke-miterlimit:5;stroke-dasharray:none;stroke-opacity:1" d="M 1.3888427 -777.64079 C -126.41754 -822.85625 -272.88081 -794.17541 -427.74092 -723.17061 L -411.15071 -760.0823 L -459.32489 -749.02795 L -495.42034 -783.89788 L -500.16434 -732.99008 L -543.31109 -708.17992 L -498.06911 -687.77279 L -488.63916 -637.57198 L -455.93489 -675.86625 L -406.96025 -669.64773 L -425.31773 -701.97648 C -290.88513 -689.16754 -86.608888 -639.13439 -273.63981 -347.58743 C -128.15384 -457.46783 0.38614654 -456.79247 307.39427 -419.56777 C 228.26451 -624.2273 123.30628 -734.50873 1.3888427 -777.64079 z "/></g></svg>
