<svg xmlns="http://www.w3.org/2000/svg" viewBox="0 0 1536 1536">
   <g id="original" transform="translate(256,256)"><circle cx="512" cy="512" r="512" style="fill:#0096d6"/>
   <path d="M512 768h-7.55l52.48-143.89h71.94c12.74 0 26.65-9.56 31-21.48l56.83-155.82c9.15-25.43-5.16-46.51-32.6-46.51H584l-131.2 361C339.9 734.17 256 632.79 256 512c0-117.27 79.1-216.26 186.84-246.46L312.45 624.09h54.06l69.16-190.42h41l-69.22 190.42h54.08l64.79-177.71c9.13-25.43-5.16-46.51-32.6-46.51H448l52.48-143.47c4 0 7.55-.41 11.52-.41 141.53 0 256 114.47 256 256S653.53 768 512 768Zm155-334.31h-41l-57.15 156.58h40.94Z" style="fill:#fff"/>
</g><g id="hat" transform="rotate(-19.664861,2554.5888,-1846.2773)"><path id="🎅" style="fill:rgb(255, 32, 17);stroke:#ffffff;stroke-width:39.4767;stroke-linecap:square;stroke-linejoin:round;stroke-miterlimit:5;stroke-dasharray:none;stroke-opacity:1" d="M 1.3888427 -777.64079 C -126.41754 -822.85625 -272.88081 -794.17541 -427.74092 -723.17061 L -411.15071 -760.0823 L -459.32489 -749.02795 L -495.42034 -783.89788 L -500.16434 -732.99008 L -543.31109 -708.17992 L -498.06911 -687.77279 L -488.63916 -637.57198 L -455.93489 -675.86625 L -406.96025 -669.64773 L -425.31773 -701.97648 C -290.88513 -689.16754 -86.608888 -639.13439 -273.63981 -347.58743 C -128.15384 -457.46783 0.38614654 -456.79247 307.39427 -419.56777 C 228.26451 -624.2273 123.30628 -734.50873 1.3888427 -777.64079 z "/></g></svg>
