<svg xmlns="http://www.w3.org/2000/svg" viewBox="0 0 1536 1536">
   <g id="original" transform="translate(256,256)"><circle cx="512" cy="512" r="512" style="fill:#ff7a59"/>
   <path d="M644.52 424.52v-61a46.83 46.83 0 0 0 27.33-42.29v-1.41c0-25.78-21.32-46.86-47.35-46.86h-1.43c-26 0-47.35 21.09-47.35 46.86v1.41a46.85 46.85 0 0 0 27.33 42.29v61a135.08 135.08 0 0 0-63.86 27.79L370.11 322.14A52.49 52.49 0 0 0 372 309c0-29.21-23.89-52.92-53.4-53s-53.45 23.59-53.48 52.81 23.85 52.88 53.36 52.93a53.29 53.29 0 0 0 26.33-7.09l166.37 128.1a132.14 132.14 0 0 0 2.07 150.3l-50.62 50.1A43.42 43.42 0 1 0 450.1 768c24.24 0 43.9-19.46 43.9-43.45a42.24 42.24 0 0 0-2-12.42l50-49.52a135.28 135.28 0 0 0 81.8 27.47c74.61 0 135.06-59.83 135.06-133.65-.01-66.81-49.63-122.01-114.34-131.91ZM623.8 624.94c-38.23 0-69.24-30.67-69.24-68.51s31-68.52 69.24-68.52 69.26 30.67 69.26 68.52-31 68.51-69.26 68.51Z" style="fill:#fff"/>
</g><g id="hat" transform="rotate(-19.664861,2554.5888,-1846.2773)"><path id="🎅" style="fill:rgb(255, 79, 61);stroke:#ffffff;stroke-width:39.4767;stroke-linecap:square;stroke-linejoin:round;stroke-miterlimit:5;stroke-dasharray:none;stroke-opacity:1" d="M 1.3888427 -777.64079 C -126.41754 -822.85625 -272.88081 -794.17541 -427.74092 -723.17061 L -411.15071 -760.0823 L -459.32489 -749.02795 L -495.42034 -783.89788 L -500.16434 -732.99008 L -543.31109 -708.17992 L -498.06911 -687.77279 L -488.63916 -637.57198 L -455.93489 -675.86625 L -406.96025 -669.64773 L -425.31773 -701.97648 C -290.88513 -689.16754 -86.608888 -639.13439 -273.63981 -347.58743 C -128.15384 -457.46783 0.38614654 -456.79247 307.39427 -419.56777 C 228.26451 -624.2273 123.30628 -734.50873 1.3888427 -777.64079 z "/></g></svg>
