<svg xmlns="http://www.w3.org/2000/svg" viewBox="0 0 1536 1536">
   <g id="original" transform="translate(256,256)"><circle cx="512" cy="512" r="512" style="fill:#2483ff"/>
   <path d="M569.57 397.57c0-73.51-35.83-136.73-63.08-157.32-.11-.06-2.09-1.17-1.92 1.77v.09c-2.26 141.94-74.81 180.41-114.69 232.23-92 119.59-6.44 250.71 80.72 274.94 48.77 13.56-11.26-24-19-103.31-9.35-95.87 118-169 118-248.4m41.82 48.33c-.56-.38-1.35-.64-1.9.27-1.5 17.87-19.76 56.09-42.9 91.18-78.5 119-33.76 176.43-8.61 207.25 14.61 17.89 0 0 36.51-18.29 2.86-1.43 71.23-39.76 78.63-127.08 7.17-84.56-43.64-137.85-61.72-153.34" style="fill:#fff"/>
</g><g id="hat" transform="rotate(-19.664861,2554.5888,-1846.2773)"><path id="🎅" style="fill:rgb(255, 52, 22);stroke:#ffffff;stroke-width:39.4767;stroke-linecap:square;stroke-linejoin:round;stroke-miterlimit:5;stroke-dasharray:none;stroke-opacity:1" d="M 1.3888427 -777.64079 C -126.41754 -822.85625 -272.88081 -794.17541 -427.74092 -723.17061 L -411.15071 -760.0823 L -459.32489 -749.02795 L -495.42034 -783.89788 L -500.16434 -732.99008 L -543.31109 -708.17992 L -498.06911 -687.77279 L -488.63916 -637.57198 L -455.93489 -675.86625 L -406.96025 -669.64773 L -425.31773 -701.97648 C -290.88513 -689.16754 -86.608888 -639.13439 -273.63981 -347.58743 C -128.15384 -457.46783 0.38614654 -456.79247 307.39427 -419.56777 C 228.26451 -624.2273 123.30628 -734.50873 1.3888427 -777.64079 z "/></g></svg>
