<svg xmlns="http://www.w3.org/2000/svg" viewBox="0 0 1536 1536">
   <g id="original" transform="translate(256,256)"><circle cx="512" cy="512" r="512"/>
   <path d="M315.4 297c-7.2 6.9-11.3 16.5-11.4 26.4v165.9h177.8v-140c-39.5-19.9-78-38.9-116.5-58.8-16.5-7.5-35.9-5-49.9 6.5zm438.4 188.8c-4.6-3.5-9.7-6.4-15.1-8.6l-196.6-96.6v261.6l199.6-98.5c4.3-1.7 8.3-4 12.1-6.7 7.9-6.2 12.4-15.7 12.3-25.7.6-10.1-4-19.7-12.3-25.5zm-451.6 55.8v161.2c.5 14 9.4 26.3 22.5 31.3 12.6 5.8 27.1 5.8 39.7 0 39.5-19.7 78-39.8 117.7-59.8V542.6H302.3v-1z" style="fill:#fff"/>
</g><g id="hat" transform="rotate(-19.664861,2554.5888,-1846.2773)"><path id="🎅" style="fill:rgb(255, 56, 70);stroke:#ffffff;stroke-width:39.4767;stroke-linecap:square;stroke-linejoin:round;stroke-miterlimit:5;stroke-dasharray:none;stroke-opacity:1" d="M 1.3888427 -777.64079 C -126.41754 -822.85625 -272.88081 -794.17541 -427.74092 -723.17061 L -411.15071 -760.0823 L -459.32489 -749.02795 L -495.42034 -783.89788 L -500.16434 -732.99008 L -543.31109 -708.17992 L -498.06911 -687.77279 L -488.63916 -637.57198 L -455.93489 -675.86625 L -406.96025 -669.64773 L -425.31773 -701.97648 C -290.88513 -689.16754 -86.608888 -639.13439 -273.63981 -347.58743 C -128.15384 -457.46783 0.38614654 -456.79247 307.39427 -419.56777 C 228.26451 -624.2273 123.30628 -734.50873 1.3888427 -777.64079 z "/></g></svg>
