<svg xmlns="http://www.w3.org/2000/svg" viewBox="0 0 1536 1536">
   <g id="original" transform="translate(256,256)"><circle cx="512" cy="512" r="512" style="fill:#1f4fd0"/>
   <path d="M476.88 258.41C532 250.77 589.62 261.39 638 289c54.28 30.53 97 81.45 116.52 140.69 16.71 48.8 17.87 102.62 4 152.26a256.48 256.48 0 0 1-96 137.42c-42.36 31-94.6 48.48-147.1 48.59a252.5 252.5 0 0 1-157.68-51.19c-50.49-37.72-86-94.87-97.39-156.9-11.4-60.07-.78-124.17 30.4-176.86 38.62-67.18 109.25-114.78 186.13-124.6m-76.49 135.95c-20.82-11.19-48.29 2.33-53.85 24.87-14.89 9.82-29.46 20.5-41.72 33.51-14.86 49.8-10.3 105 12.21 151.83C340.53 654.71 384.18 695 436 714.51a215.88 215.88 0 0 0 121.46 9.23 96.58 96.58 0 0 1-12.15-22.89c-14.38-38.71 3.78-87 41.77-104.39 19-11.21 41.77-3.89 62.19-9.39 26-6.25 47.7-25 61.65-47.3 5.37-7.62.86-17.41-4.88-23.37-23-23-53.82-35.25-82.42-49.34-11.78-14.41-13-37.05-29.89-47.73-56.26-37-129.37-44.72-193.3-25m127.89 59.32c-6.17 3.38-13.84 11.27-7.81 18.32 15 0 30 1.74 45 .38 6-1.5 13.15-8.08 8.37-14.38-6.2-2.82-13.09-3.41-19.61-5.18-8.42-2.15-18.06-4.05-25.94.86" style="fill:#fff"/>
</g><g id="hat" transform="rotate(-19.664861,2554.5888,-1846.2773)"><path id="🎅" style="fill:rgb(255, 1, 117);stroke:#ffffff;stroke-width:39.4767;stroke-linecap:square;stroke-linejoin:round;stroke-miterlimit:5;stroke-dasharray:none;stroke-opacity:1" d="M 1.3888427 -777.64079 C -126.41754 -822.85625 -272.88081 -794.17541 -427.74092 -723.17061 L -411.15071 -760.0823 L -459.32489 -749.02795 L -495.42034 -783.89788 L -500.16434 -732.99008 L -543.31109 -708.17992 L -498.06911 -687.77279 L -488.63916 -637.57198 L -455.93489 -675.86625 L -406.96025 -669.64773 L -425.31773 -701.97648 C -290.88513 -689.16754 -86.608888 -639.13439 -273.63981 -347.58743 C -128.15384 -457.46783 0.38614654 -456.79247 307.39427 -419.56777 C 228.26451 -624.2273 123.30628 -734.50873 1.3888427 -777.64079 z "/></g></svg>
