<svg xmlns="http://www.w3.org/2000/svg" viewBox="0 0 1536 1536">
   <g id="original" transform="translate(256,256)"><circle cx="512" cy="512" r="512" style="fill:#3093fb"/>
   <path d="M566 518.65q9.33 9.32 11.46 20.78v18.06q-2.13 11.33-11.46 20.66a42.14 42.14 0 1 1 0-59.49Zm246.74 76.8c-14.08 58.55-58.6 95.78-121 97.52-58.06 1.62-116.18.35-174.28.35v-.26c-56.16 0-112.38 1.61-168.46-.41-70.62-2.53-127.7-52.83-138.29-118.28-12.62-77.89 19.65-143.4 89.2-169.89 28.52-10.86 48.71-26.51 68.46-49.14 88.81-101.75 249.66-81.21 312 40.06 14.82 28.85 30.83 48.44 62.14 61.77 56.57 24.12 83.37 83.45 70.18 138.28ZM440.13 423.62H415.7V612.5h24.43Zm161.82 0h-24.54v75.79q-17.71-18.29-41.19-18.3-27.87 0-47.51 19.71T469 548.4q0 27.86 19.66 47.57t47.51 19.71q23.48 0 41.19-18.3v15.12H602Z" style="fill:#fff"/>
</g><g id="hat" transform="rotate(-19.664861,2554.5888,-1846.2773)"><path id="🎅" style="fill:rgb(255, 60, 82);stroke:#ffffff;stroke-width:39.4767;stroke-linecap:square;stroke-linejoin:round;stroke-miterlimit:5;stroke-dasharray:none;stroke-opacity:1" d="M 1.3888427 -777.64079 C -126.41754 -822.85625 -272.88081 -794.17541 -427.74092 -723.17061 L -411.15071 -760.0823 L -459.32489 -749.02795 L -495.42034 -783.89788 L -500.16434 -732.99008 L -543.31109 -708.17992 L -498.06911 -687.77279 L -488.63916 -637.57198 L -455.93489 -675.86625 L -406.96025 -669.64773 L -425.31773 -701.97648 C -290.88513 -689.16754 -86.608888 -639.13439 -273.63981 -347.58743 C -128.15384 -457.46783 0.38614654 -456.79247 307.39427 -419.56777 C 228.26451 -624.2273 123.30628 -734.50873 1.3888427 -777.64079 z "/></g></svg>
