<svg xmlns="http://www.w3.org/2000/svg" viewBox="0 0 1536 1536">
   <g id="original" transform="translate(256,256)"><circle cx="512" cy="512" r="512" style="fill:#bf1313"/>
   <path d="M357 410.37a183.82 183.82 0 0 1 52.92-52.92 711.86 711.86 0 0 1 12.18-75.17 248.33 248.33 0 0 0-140.5 140.5c22.25-5.15 47.54-9.13 75.17-12.18m256.88-53.86v.47a188.39 188.39 0 0 1 53.16 53.16A711.86 711.86 0 0 1 742 422.55a248.85 248.85 0 0 0-141-140.74 700.49 700.49 0 0 1 12.65 74.93M409.9 667.25a188.39 188.39 0 0 1-53.16-53.16H356c-27.87-3.28-52.92-7.49-74.7-12.64a248.16 248.16 0 0 0 140.73 141c-5.15-22.25-9.13-47.54-12.18-75.17m257.64-53.18h-.7a188.39 188.39 0 0 1-53.16 53.16v.7A695.57 695.57 0 0 1 601 742.65a248 248 0 0 0 141.2-141.2 676 676 0 0 1-74.7 12.65M466.1 231.23h91.33c19.9 43.32 28.1 107.48 30.44 129.26a82.53 82.53 0 0 1 1.41 14.75L512 444.56l-77.28-69.31a87.6 87.6 0 0 1 1.17-12.88C438.24 340.12 446 274.56 466.1 231m-31.37 417.75a87.6 87.6 0 0 0 1.17 12.88c2.34 22.25 10.1 87.81 30.2 131.37h91.33c19.9-43.09 28.1-107.48 30.44-129.26a83.08 83.08 0 0 0 1.41-15L512 579.44Zm-59.48-214.26a87.6 87.6 0 0 0-12.88 1.17c-22.25 2.81-87.81 10.54-131.37 30.68v91.32c43.09 19.9 107.48 27.87 129.26 30.44a83.08 83.08 0 0 0 15 1.41l69.08-77.28L375.25 435ZM793 465.87c-43.56-20.14-109.12-27.87-131.37-30.21a87.6 87.6 0 0 0-12.88-1.17l-69.31 77.28L648.75 589a87.14 87.14 0 0 0 15-1.41c21.78-2.58 86.17-10.54 129.26-30.44Z" style="fill:#fff"/>
</g><g id="hat" transform="rotate(-19.664861,2554.5888,-1846.2773)"><path id="🎅" style="fill:rgb(255, 22, 78);stroke:#ffffff;stroke-width:39.4767;stroke-linecap:square;stroke-linejoin:round;stroke-miterlimit:5;stroke-dasharray:none;stroke-opacity:1" d="M 1.3888427 -777.64079 C -126.41754 -822.85625 -272.88081 -794.17541 -427.74092 -723.17061 L -411.15071 -760.0823 L -459.32489 -749.02795 L -495.42034 -783.89788 L -500.16434 -732.99008 L -543.31109 -708.17992 L -498.06911 -687.77279 L -488.63916 -637.57198 L -455.93489 -675.86625 L -406.96025 -669.64773 L -425.31773 -701.97648 C -290.88513 -689.16754 -86.608888 -639.13439 -273.63981 -347.58743 C -128.15384 -457.46783 0.38614654 -456.79247 307.39427 -419.56777 C 228.26451 -624.2273 123.30628 -734.50873 1.3888427 -777.64079 z "/></g></svg>
