<svg xmlns="http://www.w3.org/2000/svg" viewBox="0 0 1536 1536">
   <g id="original" transform="translate(256,256)"><circle cx="512" cy="512" r="512" style="fill:#ff5833"/>
   <path fill="#ff5833" d="M283.91 306.55v62.525l149.38-15.391h55.129v101.22l-92.83 28.404-125.79 30.321 18.662 61.139 120.55-46.33 79.407-24.26v166.14h-55.111l-149.38-15.409v62.543h456.15v-62.525l-149.36 15.409h-55.129v-166.16l79.013 24.141 120.94 46.449 18.662-61.121-125.44-30.254-93.172-28.489v-101.22h55.129l149.38 15.409v-62.543z" style="fill:#fff"/>
</g><g id="hat" transform="rotate(-19.664861,2554.5888,-1846.2773)"><path id="🎅" style="fill:rgb(255, 115, 62);stroke:#ffffff;stroke-width:39.4767;stroke-linecap:square;stroke-linejoin:round;stroke-miterlimit:5;stroke-dasharray:none;stroke-opacity:1" d="M 1.3888427 -777.64079 C -126.41754 -822.85625 -272.88081 -794.17541 -427.74092 -723.17061 L -411.15071 -760.0823 L -459.32489 -749.02795 L -495.42034 -783.89788 L -500.16434 -732.99008 L -543.31109 -708.17992 L -498.06911 -687.77279 L -488.63916 -637.57198 L -455.93489 -675.86625 L -406.96025 -669.64773 L -425.31773 -701.97648 C -290.88513 -689.16754 -86.608888 -639.13439 -273.63981 -347.58743 C -128.15384 -457.46783 0.38614654 -456.79247 307.39427 -419.56777 C 228.26451 -624.2273 123.30628 -734.50873 1.3888427 -777.64079 z "/></g></svg>
