<svg xmlns="http://www.w3.org/2000/svg" viewBox="0 0 1536 1536">
   <g id="original" transform="translate(256,256)"><circle cx="512" cy="512" r="512" style="fill:#0077c5"/>
   <path d="M390.5 486.8h37v102.9h32.9V486.8h36.9v-29.2H390.5v29.2zm218.3 43.4c0 17.6-9.9 35.8-30.7 35.8-21.1 0-24.7-19.5-24.7-35.2v-73.1h-32.9v82.5c0 27 14.3 53.3 48.6 53.3 19.5 0 35.1-11.8 40.9-25h.5v21.2h31.3v-132h-33v72.5zm66.6 59.5h33v-132h-33v132zM444 440.3c5.3 0 10.4-2.1 14.1-5.8 3.7-3.7 5.8-8.8 5.8-14.1 0-5.3-2.1-10.4-5.8-14.1s-8.8-5.8-14.1-5.8c-2.6 0-5.2.5-7.6 1.5-2.4 1-4.6 2.5-6.5 4.3-1.8 1.9-3.3 4.1-4.3 6.5-1 2.4-1.5 5-1.5 7.6 0 11 8.9 19.9 19.9 19.9zm340.9 0c2.6 0 5.2-.5 7.6-1.5 2.4-1 4.6-2.5 6.5-4.3 1.9-1.9 3.3-4.1 4.3-6.5 1-2.4 1.5-5 1.5-7.6 0-3.9-1.2-7.8-3.4-11.1s-5.3-5.8-8.9-7.3c-3.6-1.5-7.6-1.9-11.5-1.1-3.9.8-7.4 2.7-10.2 5.5-2.8 2.8-4.7 6.3-5.4 10.2-.8 3.9-.4 7.9 1.1 11.5 1.5 3.6 4.1 6.7 7.3 8.9 3.3 2.2 7.2 3.3 11.1 3.3zm-53.4 17.3v29.3h37v102.9h32.9v-103h37v-29.2H731.5zM185.7 589.7h33v-132h-33v132zm139.5-135.9c-19.5 0-35.1 11.8-40.9 25h-.5v-21.2h-31.3v132h32.9V517c0-17.6 9.9-35.8 30.8-35.8 21.1 0 24.7 19.6 24.7 35.2v73.2h33v-82.5c-.1-26.9-14.4-53.3-48.7-53.3z" style="fill:#fff"/>
</g><g id="hat" transform="rotate(-19.664861,2554.5888,-1846.2773)"><path id="🎅" style="fill:rgb(255, 81, 101);stroke:#ffffff;stroke-width:39.4767;stroke-linecap:square;stroke-linejoin:round;stroke-miterlimit:5;stroke-dasharray:none;stroke-opacity:1" d="M 1.3888427 -777.64079 C -126.41754 -822.85625 -272.88081 -794.17541 -427.74092 -723.17061 L -411.15071 -760.0823 L -459.32489 -749.02795 L -495.42034 -783.89788 L -500.16434 -732.99008 L -543.31109 -708.17992 L -498.06911 -687.77279 L -488.63916 -637.57198 L -455.93489 -675.86625 L -406.96025 -669.64773 L -425.31773 -701.97648 C -290.88513 -689.16754 -86.608888 -639.13439 -273.63981 -347.58743 C -128.15384 -457.46783 0.38614654 -456.79247 307.39427 -419.56777 C 228.26451 -624.2273 123.30628 -734.50873 1.3888427 -777.64079 z "/></g></svg>
