<svg xmlns="http://www.w3.org/2000/svg" viewBox="0 0 1536 1536">
   <g id="original" transform="translate(256,256)"><circle cx="512" cy="512" r="512" style="fill:#4b9bd0"/>
   <path d="M527.33 634.63c-2.05 3-3.77 6.37-6.45 8.94-2.32 1.93-5.07 3.71-8.21 3.68-5.31.38-10-3.27-12.69-7.55-5.26-8.23-186.73-287-209.14-321.31-3.39-5.24-8.09-11.15-5.67-17.78 2.21-4.48 7.62-6 12.26-5.76h430.54c4.37.06 9.4 1.95 11.06 6.35 1.28 4.1-.17 8.51-2.44 12-12.09 18.49-43.65 67-47.39 72.8-7.78 11.8-145.63 223.74-161.87 248.63zm211.59 50.76V543.14c.06-3.54.12-7.46-2-10.46a4 4 0 0 0-3.92-1.44 2.78 2.78 0 0 0-1.17.38 20.08 20.08 0 0 0-6.27 6c-6.55 8.95-97.1 131.19-108.76 147.06-6.87 9.35-13.88 18.61-20.67 28a13 13 0 0 0-2.28 10.76c1.46 3.78 5.77 5.47 9.56 5.64h113.8c10.33.66 19.61-7.66 21.51-17.57.54-8.65.04-17.4.2-26.12zm-308 33.83c-.26-3-2.11-5.65-3.76-8.1-7-9.4-120.8-163.32-128.87-174.22a29.78 29.78 0 0 0-3.32-3.77c-2.21-1.76-5.4-2.93-7.67-.65-2.26 2.78-1.58 9.33-1.66 14.06V709.2c0 3.11 1.19 6.06 2.45 8.85a23.12 23.12 0 0 0 13.46 10.63 29.91 29.91 0 0 0 4.38.44h115.28c4.18-.1 9.25-2.7 9.7-7.16a9.6 9.6 0 0 0 0-2.67z" style="fill:#fff"/>
</g><g id="hat" transform="rotate(-19.664861,2554.5888,-1846.2773)"><path id="🎅" style="fill:rgb(255, 71, 85);stroke:#ffffff;stroke-width:39.4767;stroke-linecap:square;stroke-linejoin:round;stroke-miterlimit:5;stroke-dasharray:none;stroke-opacity:1" d="M 1.3888427 -777.64079 C -126.41754 -822.85625 -272.88081 -794.17541 -427.74092 -723.17061 L -411.15071 -760.0823 L -459.32489 -749.02795 L -495.42034 -783.89788 L -500.16434 -732.99008 L -543.31109 -708.17992 L -498.06911 -687.77279 L -488.63916 -637.57198 L -455.93489 -675.86625 L -406.96025 -669.64773 L -425.31773 -701.97648 C -290.88513 -689.16754 -86.608888 -639.13439 -273.63981 -347.58743 C -128.15384 -457.46783 0.38614654 -456.79247 307.39427 -419.56777 C 228.26451 -624.2273 123.30628 -734.50873 1.3888427 -777.64079 z "/></g></svg>
