<svg xmlns="http://www.w3.org/2000/svg" viewBox="0 0 1536 1536">
   <g id="original" transform="translate(256,256)"><circle cx="512" cy="512" r="512" style="fill:#f05223"/>
   <path d="M512 240c-150.22 0-272 121.78-272 272s121.78 272 272 272 272-121.78 272-272-121.78-272-272-272Zm0 20.66c138.59 0 251.33 112.75 251.33 251.33S650.59 763.34 512 763.34 260.67 650.59 260.67 511.99 373.41 260.66 512 260.66Zm0 8.45c-133.94 0-242.88 108.96-242.88 242.88S378.07 754.87 512 754.87s242.88-108.95 242.88-242.88S645.92 269.11 512 269.11Zm-87.3 78.65c21.39 0 38.8 17.41 38.8 38.81 0 17-11.02 31.46-26.28 36.68v76.16h50.81l78.1-92.85c-3.54-5.85-5.62-12.67-5.62-19.99 0-21.39 17.4-38.81 38.79-38.81s38.79 17.41 38.79 38.81-17.4 38.79-38.79 38.79c-4.95 0-9.67-.98-14.03-2.68l-75.07 89.25 75.08 89.36c4.36-1.7 9.07-2.66 14.02-2.66 21.39 0 38.79 17.4 38.79 38.79s-17.4 38.79-38.79 38.79-38.79-17.4-38.79-38.79c0-7.33 2.08-14.17 5.62-20.02l-78.11-92.96h-50.8v76.3c15.26 5.22 26.28 19.68 26.28 36.68 0 21.39-17.4 38.79-38.79 38.79s-38.79-17.4-38.79-38.79c0-17 11.01-31.46 26.28-36.68v-177.5c-15.26-5.22-26.28-19.68-26.28-36.68 0-21.39 17.4-38.81 38.79-38.81Zm0 20.19c-10.26 0-18.62 8.34-18.62 18.62s8.35 18.6 18.62 18.6 18.62-8.35 18.62-18.6-8.35-18.62-18.62-18.62Zm174.6 0c-10.26 0-18.62 8.34-18.62 18.62s8.35 18.6 18.62 18.6 18.62-8.35 18.62-18.6-8.35-18.62-18.62-18.62ZM424.7 618.82c-10.26 0-18.62 8.35-18.62 18.62s8.35 18.62 18.62 18.62 18.62-8.35 18.62-18.62-8.35-18.62-18.62-18.62Zm174.6 0c-10.26 0-18.62 8.35-18.62 18.62s8.35 18.62 18.62 18.62 18.62-8.35 18.62-18.62-8.35-18.62-18.62-18.62Z" style="fill:#fff"/>
</g><g id="hat" transform="rotate(-19.664861,2554.5888,-1846.2773)"><path id="🎅" style="fill:rgb(255, 35, 116);stroke:#ffffff;stroke-width:39.4767;stroke-linecap:square;stroke-linejoin:round;stroke-miterlimit:5;stroke-dasharray:none;stroke-opacity:1" d="M 1.3888427 -777.64079 C -126.41754 -822.85625 -272.88081 -794.17541 -427.74092 -723.17061 L -411.15071 -760.0823 L -459.32489 -749.02795 L -495.42034 -783.89788 L -500.16434 -732.99008 L -543.31109 -708.17992 L -498.06911 -687.77279 L -488.63916 -637.57198 L -455.93489 -675.86625 L -406.96025 -669.64773 L -425.31773 -701.97648 C -290.88513 -689.16754 -86.608888 -639.13439 -273.63981 -347.58743 C -128.15384 -457.46783 0.38614654 -456.79247 307.39427 -419.56777 C 228.26451 -624.2273 123.30628 -734.50873 1.3888427 -777.64079 z "/></g></svg>
