<svg xmlns="http://www.w3.org/2000/svg" viewBox="0 0 1536 1536">
   <g id="original" transform="translate(256,256)"><circle cx="512" cy="512" r="512" style="fill:#1d99f3"/>
   <path d="m553.23 249-87.48 8.37v360.21l86.55-13V451l116.35 170.31 91.21-28.86-119.14-163.81 120.07-154.51-93.07-21.4-115.41 154.5Zm-198.29 87.78a4.44 4.44 0 0 0-2.68 1.28l-34.33 34.33a4.44 4.44 0 0 0-.65 5.45l40.2 66.2a171.82 171.82 0 0 0-16.93 38.54l-73.8 15.35a4.44 4.44 0 0 0-3.53 4.35v48.55a4.43 4.43 0 0 0 3.38 4.31l71.63 17.51a171.6 171.6 0 0 0 17.56 44.51l-41.46 63.22a4.44 4.44 0 0 0 .58 5.58l34.32 34.33a4.47 4.47 0 0 0 5.46.66l65-39.46a171.77 171.77 0 0 0 41.07 17.09l15.16 72.88a4.44 4.44 0 0 0 4.35 3.53h48.55a4.43 4.43 0 0 0 4.31-3.4l17.85-73a171.11 171.11 0 0 0 42.25-17.78l64 42a4.44 4.44 0 0 0 5.58-.57l34.33-34.33a4.43 4.43 0 0 0 .65-5.45l-23.39-38.54-7.56 2.39a2.61 2.61 0 0 1-3-1l-34.16-50A139.11 139.11 0 1 1 448.8 405.17v-35.89a171.37 171.37 0 0 0-25.41 11.2l-65.53-43a4.45 4.45 0 0 0-2.89-.71Z" style="fill:#fcfcfc"/>
</g><g id="hat" transform="rotate(-19.664861,2554.5888,-1846.2773)"><path id="🎅" style="fill:rgb(255, 47, 15);stroke:#ffffff;stroke-width:39.4767;stroke-linecap:square;stroke-linejoin:round;stroke-miterlimit:5;stroke-dasharray:none;stroke-opacity:1" d="M 1.3888427 -777.64079 C -126.41754 -822.85625 -272.88081 -794.17541 -427.74092 -723.17061 L -411.15071 -760.0823 L -459.32489 -749.02795 L -495.42034 -783.89788 L -500.16434 -732.99008 L -543.31109 -708.17992 L -498.06911 -687.77279 L -488.63916 -637.57198 L -455.93489 -675.86625 L -406.96025 -669.64773 L -425.31773 -701.97648 C -290.88513 -689.16754 -86.608888 -639.13439 -273.63981 -347.58743 C -128.15384 -457.46783 0.38614654 -456.79247 307.39427 -419.56777 C 228.26451 -624.2273 123.30628 -734.50873 1.3888427 -777.64079 z "/></g></svg>
