<svg xmlns="http://www.w3.org/2000/svg" viewBox="0 0 1536 1536">
   <g id="original" transform="translate(256,256)"><circle cx="512" cy="512" r="512" style="fill:#2771a7"/>
   <path d="M512.21 302.3a210.48 210.48 0 0 1 31.6 2.37L582.48 266C446.61 227.08 304.9 305.67 266 441.54s39.62 277.59 175.5 316.52A255.92 255.92 0 0 0 647 729.45l-33.66-33.67L429.56 512l183.77-183.74L647 294.59A254.73 254.73 0 0 0 603.44 273l-36.52 36.5-65.68 65.67L364.39 512l202.53 202.54c-111.84 30.17-227-36-257.13-147.88s36-227 147.88-257.13a209.74 209.74 0 0 1 54.56-7.24M665.62 369l-85.25 85.3-57.72 57.7 143 143a209.69 209.69 0 0 0 12.82-270.84l32.81-32.81a255.89 255.89 0 0 1-47.61 366.84l-33-33L457.48 512 630.6 338.9l33-33a257.73 257.73 0 0 1 34.58 30.59z" style="fill:#fff"/>
</g><g id="hat" transform="rotate(-19.664861,2554.5888,-1846.2773)"><path id="🎅" style="fill:rgb(255, 116, 17);stroke:#ffffff;stroke-width:39.4767;stroke-linecap:square;stroke-linejoin:round;stroke-miterlimit:5;stroke-dasharray:none;stroke-opacity:1" d="M 1.3888427 -777.64079 C -126.41754 -822.85625 -272.88081 -794.17541 -427.74092 -723.17061 L -411.15071 -760.0823 L -459.32489 -749.02795 L -495.42034 -783.89788 L -500.16434 -732.99008 L -543.31109 -708.17992 L -498.06911 -687.77279 L -488.63916 -637.57198 L -455.93489 -675.86625 L -406.96025 -669.64773 L -425.31773 -701.97648 C -290.88513 -689.16754 -86.608888 -639.13439 -273.63981 -347.58743 C -128.15384 -457.46783 0.38614654 -456.79247 307.39427 -419.56777 C 228.26451 -624.2273 123.30628 -734.50873 1.3888427 -777.64079 z "/></g></svg>
