<svg xmlns="http://www.w3.org/2000/svg" viewBox="0 0 1536 1536">
   <g id="original" transform="translate(256,256)"><circle cx="512" cy="512" r="512" style="fill:#23af91"/>
   <path d="m426 512.1 151.6 151.7 95.7-95.7c17.1-15.4 43.3-14.7 59.6 1.6s17 42.5 1.6 59.6L608.2 755.5c-17 16.7-44.2 16.7-61.1 0L364.9 573.2v108.3c0 23.9-19.4 43.3-43.3 43.3s-43.3-19.4-43.3-43.3V342.4c0-23.9 19.4-43.3 43.3-43.3s43.3 19.4 43.3 43.3v108.3l182.2-182.2c17-16.7 44.2-16.7 61.1 0l126.4 126.3c15.4 17.1 14.7 43.3-1.6 59.6-16.3 16.3-42.5 17-59.6 1.6l-95.7-95.7L426 512.1zm151.8-43.4c-17.5 0-33.3 10.5-40.1 26.7-6.7 16.2-3 34.8 9.4 47.2s31 16.1 47.2 9.4c16.2-6.7 26.8-22.5 26.8-40 0-11.5-4.6-22.5-12.7-30.7-8.1-8-19.1-12.6-30.6-12.6z" style="fill:#fff"/>
</g><g id="hat" transform="rotate(-19.664861,2554.5888,-1846.2773)"><path id="🎅" style="fill:rgb(255, 109, 70);stroke:#ffffff;stroke-width:39.4767;stroke-linecap:square;stroke-linejoin:round;stroke-miterlimit:5;stroke-dasharray:none;stroke-opacity:1" d="M 1.3888427 -777.64079 C -126.41754 -822.85625 -272.88081 -794.17541 -427.74092 -723.17061 L -411.15071 -760.0823 L -459.32489 -749.02795 L -495.42034 -783.89788 L -500.16434 -732.99008 L -543.31109 -708.17992 L -498.06911 -687.77279 L -488.63916 -637.57198 L -455.93489 -675.86625 L -406.96025 -669.64773 L -425.31773 -701.97648 C -290.88513 -689.16754 -86.608888 -639.13439 -273.63981 -347.58743 C -128.15384 -457.46783 0.38614654 -456.79247 307.39427 -419.56777 C 228.26451 -624.2273 123.30628 -734.50873 1.3888427 -777.64079 z "/></g></svg>
