<svg xmlns="http://www.w3.org/2000/svg" viewBox="0 0 1536 1536">
   <g id="original" transform="translate(256,256)"><circle cx="512" cy="512" r="512" style="fill:#e6af32"/>
   <path d="M589.47 275.9c-24.76.19-50.72 2.8-77.47 8.06-171.21 33.67-310 163.07-310 289.01s138.79 200.76 310 167.08c171.21-33.67 310-162.95 310-288.99 0-106.35-98.81-176.17-232.53-175.16Zm-8.05 9.98c130.39-1.76 225.53 66.59 220.98 168.75-4.94 111.44-143.99 239.55-296.52 269.57-164 32.27-295.15-36.77-295.15-156.09S343.14 327.59 505.76 294.3c26.15-5.36 51.51-8.09 75.65-8.42h.01Zm-200.46 131c-1.98 0-6.99-.35-7.88 3.75-.25 1.37.15 2.78 1.1 3.8 1.67 1.46 3.65 2.52 5.78 3.12 13.78 4.97 58.55 20.68 83.48 37.61l2.33 1.68 186.09-2.92c.33-.44 7.18-12.5 11.22-20.26 4.45-8.54 4.66-15.84-.3-20.69-5.48-5.27-14.34-6.11-32.25-6.11H380.97Zm373.2 57.39c-4.13 0-276.58 4.29-280.81 4.45-2.33 0-2.94.61-2.94 3.05 0 19.77-26.28 38.75-61.89 55.75-37.57 17.91-84.72 35.75-109.25 44.78-5.83 2.14-16.32 5.85-19.68 7.56-2.68 1.37-4.66 3.5-3.71 5.94.96 2.45 3.59 3.71 12.9 1.24 4.17-1.1 8.86-2.33 13.99-3.59 47.06-12.24 133.27-33.84 217.22-54.8 86.93-21.71 172.57-40.48 235.53-51.81 4.94-.88 9-3.55 8.79-7.3-.21-3.75-4.31-5.43-10.14-5.27Zm-142.69 54.8-287.22 70.59 205.93-3.57s12.24.32 21.17-5.04c14.39-8.63 33.3-24.3 60.12-61.98Z" style="fill:#fff"/>
</g><g id="hat" transform="rotate(-19.664861,2554.5888,-1846.2773)"><path id="🎅" style="fill:rgb(255, 24, 122);stroke:#ffffff;stroke-width:39.4767;stroke-linecap:square;stroke-linejoin:round;stroke-miterlimit:5;stroke-dasharray:none;stroke-opacity:1" d="M 1.3888427 -777.64079 C -126.41754 -822.85625 -272.88081 -794.17541 -427.74092 -723.17061 L -411.15071 -760.0823 L -459.32489 -749.02795 L -495.42034 -783.89788 L -500.16434 -732.99008 L -543.31109 -708.17992 L -498.06911 -687.77279 L -488.63916 -637.57198 L -455.93489 -675.86625 L -406.96025 -669.64773 L -425.31773 -701.97648 C -290.88513 -689.16754 -86.608888 -639.13439 -273.63981 -347.58743 C -128.15384 -457.46783 0.38614654 -456.79247 307.39427 -419.56777 C 228.26451 -624.2273 123.30628 -734.50873 1.3888427 -777.64079 z "/></g></svg>
