<svg xmlns="http://www.w3.org/2000/svg" viewBox="0 0 1536 1536">
   <g id="original" transform="translate(256,256)"><circle cx="512" cy="512" r="512" style="fill:#db202e"/>
   <path d="m547.06 238-22.25 20.89 54.34 52.64L600 290.64Zm-62.32 1.7-52.64 52.64 20.9 20.72 52.64-52.64Zm155.72 91.36-20.89 21.06 52.64 52.64 20.89-21.06ZM578 332.42l-53 52.64 21.23 20.89 52.64-52.64Zm-126.85 1.7-20.38 21.06 52.64 52.64 20.38-21.06-52.64-52.64Zm-62.7 1.88-52.64 52.64 21.06 20.89 52.64-52.64Zm344.9 88.14-20.72 21.06 52.64 52.64L786 476.76l-52.64-52.64Zm-62.66 1.36L618 478.12l21.06 20.72 52.64-52.64-21.06-20.72Zm-126.51 1.7-20.72 21.06 52.64 52.64 20.72-21.06Zm-62.84 1.8-52.64 52.69 21.06 20.72 52.64-52.64L481.34 429Zm-126.17 1.19-20.89 20.89 52.64 52.64 20.89-20.89-52.64-52.64Zm-62.83 2-52.64 52.72 20.89 20.72 52.64-53-20.89-20.38Zm471.25 86.01-52.64 53 19.36 20.55 54.34-52.64-21.06-20.91Zm-126.51 2-22.24 21.06 54.34 52.64 20.89-21.06-53-52.64Zm-62.49 1.7-53 52.64 21.06 20.72 52.64-52.64-20.72-20.72Zm-126.51 1.36-20.72 20.89L480 596.82l20.72-20.89-52.64-52.64Zm-63 1.7-52.64 52.64 21.06 20.89 52.64-52.64L385.08 525Zm-126.17 1.36L238 547.07l52.64 52.64L311.55 579Zm408.41 88.3-52.64 53 20.72 22.24 53-54.34-21.06-20.89Zm-126.17 1.7-20.72 20.89 52.64 52.64L593.79 669l-52.64-52.64Zm-63 1.7-52.65 52.67 20.89 20.72L499 638.77l-20.89-20.72Zm-126.34 1.36-20.72 20.72 53 53 20.72-21.06-53-52.64Zm219.4 91.7-53 52.64 21.23 20.72 52.64-53Zm-126 1.36-20.89 20.89L477 786l20.89-20.89Z" style="fill:#fff"/>
</g><g id="hat" transform="rotate(-19.664861,2554.5888,-1846.2773)"><path id="🎅" style="fill:rgb(255, 99, 71);stroke:#ffffff;stroke-width:39.4767;stroke-linecap:square;stroke-linejoin:round;stroke-miterlimit:5;stroke-dasharray:none;stroke-opacity:1" d="M 1.3888427 -777.64079 C -126.41754 -822.85625 -272.88081 -794.17541 -427.74092 -723.17061 L -411.15071 -760.0823 L -459.32489 -749.02795 L -495.42034 -783.89788 L -500.16434 -732.99008 L -543.31109 -708.17992 L -498.06911 -687.77279 L -488.63916 -637.57198 L -455.93489 -675.86625 L -406.96025 -669.64773 L -425.31773 -701.97648 C -290.88513 -689.16754 -86.608888 -639.13439 -273.63981 -347.58743 C -128.15384 -457.46783 0.38614654 -456.79247 307.39427 -419.56777 C 228.26451 -624.2273 123.30628 -734.50873 1.3888427 -777.64079 z "/></g></svg>
