<svg xmlns="http://www.w3.org/2000/svg" viewBox="0 0 1536 1536">
   <g id="original" transform="translate(256,256)"><circle cx="512" cy="512" r="512" style="fill:#14ae5c"/>
   <path d="m476.48 399.78 25 31.25 27.5-23.75s38.75-33.75 43.75-37.5l15-11.25c21.25-15 41.25-30 63.75-45s43.75-28.75 65-43.75c11.25-7.5 72.51-42.5 72.51-42.5-5.3-.49-10.61-.76-15.93-.81-9.07-.09-18.45.5-27.82 2.06-13.75 1.25-28.75 3.75-42.5 6.25-27.5 6.25-55 15-81.26 27.5-13.75 6.25-26.25 12.5-38.75 20s-25 15-36.25 23.75c-9.56 7.06-39.04 34.04-42.31 37.66l-12.7-10.16c-13.75-10-27.5-18.75-41.25-26.25-15-7.5-30-15-45-20-16.25-5-32.5-8.75-48.75-8.75 12.5 8.75 25 18.75 36.25 30 11.25 10 21.25 21.25 31.25 32.5l30 33.75m-70.01-4.89c-82.51 56.25-116.25 162.52-81.26 256.27l80.01-33.75c-5-13.75-7.5-28.75-7.5-42.5 0-46.25 25-90.01 63.75-113.76l-55-66.26Zm256.27 5-75.01 55c25 12.5 46.25 32.5 58.76 56.25l78.76-33.75c-13.75-30-35-56.25-62.5-77.5Zm72.51 95.01-78.76 33.75c22.5 62.5-3.75 132.51-62.51 163.76l33.75 78.76c75.01-36.25 122.51-112.51 122.51-196.27 0-27.5-5-55-15-80.01ZM388.96 609.92l-78.76 33.75c48.75 103.76 170.01 152.51 277.52 111.26l-33.75-78.76c-15 5-30 7.5-46.25 7.5-50 0-96.26-28.75-118.76-73.76Z" style="fill:#fff"/>
</g><g id="hat" transform="rotate(-19.664861,2554.5888,-1846.2773)"><path id="🎅" style="fill:rgb(255, 93, 77);stroke:#ffffff;stroke-width:39.4767;stroke-linecap:square;stroke-linejoin:round;stroke-miterlimit:5;stroke-dasharray:none;stroke-opacity:1" d="M 1.3888427 -777.64079 C -126.41754 -822.85625 -272.88081 -794.17541 -427.74092 -723.17061 L -411.15071 -760.0823 L -459.32489 -749.02795 L -495.42034 -783.89788 L -500.16434 -732.99008 L -543.31109 -708.17992 L -498.06911 -687.77279 L -488.63916 -637.57198 L -455.93489 -675.86625 L -406.96025 -669.64773 L -425.31773 -701.97648 C -290.88513 -689.16754 -86.608888 -639.13439 -273.63981 -347.58743 C -128.15384 -457.46783 0.38614654 -456.79247 307.39427 -419.56777 C 228.26451 -624.2273 123.30628 -734.50873 1.3888427 -777.64079 z "/></g></svg>
