<svg xmlns="http://www.w3.org/2000/svg" viewBox="0 0 1536 1536">
   <g id="original" transform="translate(256,256)"><circle cx="512" cy="512" r="512" style="fill:#b996f7"/>
   <path d="M579.3 444.7a144.8 144.8 0 0 1 .34 204.53l-.34.35-64 64c-56.49 56.49-148.4 56.48-204.88 0s-56.49-148.4 0-204.88l35.37-35.37c9.38-9.38 25.53-3.15 26 10.11a175.63 175.63 0 0 0 9.21 50.3 15.34 15.34 0 0 1-3.61 15.83L364.91 562c-26.71 26.71-27.55 70.21-1.1 97.18a68.7 68.7 0 0 0 97.53.49l64-64a68.61 68.61 0 0 0 0-97.06 71.4 71.4 0 0 0-9.86-8.17 15.29 15.29 0 0 1-6.62-12 38 38 0 0 1 11.2-28.44l20.06-20a15.31 15.31 0 0 1 19.62-1.65 145.33 145.33 0 0 1 19.56 16.35Zm134.33-134.33c-56.48-56.48-148.39-56.49-204.88 0l-64 64-.34.35a144.9 144.9 0 0 0 19.9 220.92 15.31 15.31 0 0 0 19.57-1.64l20.06-20a38 38 0 0 0 11.15-28.41 15.29 15.29 0 0 0-6.62-12 71.4 71.4 0 0 1-9.86-8.17 68.61 68.61 0 0 1 0-97.06l64-64a68.7 68.7 0 0 1 97.53.49c26.45 27 25.61 70.47-1.1 97.18l-12.47 12.47a15.34 15.34 0 0 0-3.57 15.76 175.63 175.63 0 0 1 9.24 50.25c.49 13.25 16.64 19.49 26 10.11l35.37-35.37c56.49-56.48 56.49-148.4 0-204.88Z" style="fill:#fff"/>
</g><g id="hat" transform="rotate(-19.664861,2554.5888,-1846.2773)"><path id="🎅" style="fill:rgb(255, 102, 7);stroke:#ffffff;stroke-width:39.4767;stroke-linecap:square;stroke-linejoin:round;stroke-miterlimit:5;stroke-dasharray:none;stroke-opacity:1" d="M 1.3888427 -777.64079 C -126.41754 -822.85625 -272.88081 -794.17541 -427.74092 -723.17061 L -411.15071 -760.0823 L -459.32489 -749.02795 L -495.42034 -783.89788 L -500.16434 -732.99008 L -543.31109 -708.17992 L -498.06911 -687.77279 L -488.63916 -637.57198 L -455.93489 -675.86625 L -406.96025 -669.64773 L -425.31773 -701.97648 C -290.88513 -689.16754 -86.608888 -639.13439 -273.63981 -347.58743 C -128.15384 -457.46783 0.38614654 -456.79247 307.39427 -419.56777 C 228.26451 -624.2273 123.30628 -734.50873 1.3888427 -777.64079 z "/></g></svg>
