<svg xmlns="http://www.w3.org/2000/svg" viewBox="0 0 1536 1536">
   <g id="original" transform="translate(256,256)"><circle cx="512" cy="512" r="512" style="fill:#c22026"/>
   <path d="M512 415.21A96.82 96.82 0 1 0 608.82 512 96.83 96.83 0 0 0 512 415.21ZM361.06 512A151 151 0 0 1 663 512a161.51 161.51 0 0 1-.84 16.3c-1.14 14.73 9.68 26 24.29 26 24.84 0 27.48-32 27.48-42.28 0-111.49-90.39-201.82-201.82-201.82S310.18 400.6 310.18 512 400.57 713.85 512 713.85a201.42 201.42 0 0 0 149.38-66.09l41.49 34.82A255.45 255.45 0 0 1 512 768c-141.38 0-256-114.62-256-256s114.62-256 256-256 256 114.65 256 256c0 56.83-27.06 103-81.42 103-23.93 0-38.49-10.94-46.43-23.21A150.91 150.91 0 0 1 361.06 512ZM512 467.77a44.32 44.32 0 1 1-44.32 44.32A44.32 44.32 0 0 1 512 467.77Z" style="fill:#fff"/>
</g><g id="hat" transform="rotate(-19.664861,2554.5888,-1846.2773)"><path id="🎅" style="fill:rgb(255, 92, 6);stroke:#ffffff;stroke-width:39.4767;stroke-linecap:square;stroke-linejoin:round;stroke-miterlimit:5;stroke-dasharray:none;stroke-opacity:1" d="M 1.3888427 -777.64079 C -126.41754 -822.85625 -272.88081 -794.17541 -427.74092 -723.17061 L -411.15071 -760.0823 L -459.32489 -749.02795 L -495.42034 -783.89788 L -500.16434 -732.99008 L -543.31109 -708.17992 L -498.06911 -687.77279 L -488.63916 -637.57198 L -455.93489 -675.86625 L -406.96025 -669.64773 L -425.31773 -701.97648 C -290.88513 -689.16754 -86.608888 -639.13439 -273.63981 -347.58743 C -128.15384 -457.46783 0.38614654 -456.79247 307.39427 -419.56777 C 228.26451 -624.2273 123.30628 -734.50873 1.3888427 -777.64079 z "/></g></svg>
