<svg xmlns="http://www.w3.org/2000/svg" viewBox="0 0 1536 1536">
   <g id="original" transform="translate(256,256)"><circle cx="512" cy="512" r="512" style="fill:#76bc21"/>
   <path d="M232.37 428.37v-.6c0-21.77 21.78-21.77 21.78-21.77H467v59.68l-90.1 61.68ZM254.14 618H467V497.35l-84.34 57.5c-6 4.09-12 0-12 0l-138.29-95.16v136.54s0 21.77 21.78 21.77m488.47 0h49V481.89c0-58.33-30.88-75.89-77-75.89a162.14 162.14 0 0 0-60 11.43C646.83 412.57 634.76 406 606 406c-25.55 0-65.73 8.58-79.38 19v193h48.46V452.13c11.32-2.76 19-4.88 31.5-4.79 19.6.15 27.58 8.61 28.16 35.86V618h48.34l-.29-137.8c0-19.44-3.78-28.07-3.78-28.07 10-3.34 19.59-4.79 33.68-4.79 22.06 0 29.18 9.15 30 36.44Z" style="fill:#fff"/>
</g><g id="hat" transform="rotate(-19.664861,2554.5888,-1846.2773)"><path id="🎅" style="fill:rgb(255, 69, 99);stroke:#ffffff;stroke-width:39.4767;stroke-linecap:square;stroke-linejoin:round;stroke-miterlimit:5;stroke-dasharray:none;stroke-opacity:1" d="M 1.3888427 -777.64079 C -126.41754 -822.85625 -272.88081 -794.17541 -427.74092 -723.17061 L -411.15071 -760.0823 L -459.32489 -749.02795 L -495.42034 -783.89788 L -500.16434 -732.99008 L -543.31109 -708.17992 L -498.06911 -687.77279 L -488.63916 -637.57198 L -455.93489 -675.86625 L -406.96025 -669.64773 L -425.31773 -701.97648 C -290.88513 -689.16754 -86.608888 -639.13439 -273.63981 -347.58743 C -128.15384 -457.46783 0.38614654 -456.79247 307.39427 -419.56777 C 228.26451 -624.2273 123.30628 -734.50873 1.3888427 -777.64079 z "/></g></svg>
