<svg xmlns="http://www.w3.org/2000/svg" viewBox="0 0 1536 1536">
   <g id="original" transform="translate(256,256)"><circle cx="512" cy="512" r="512" style="fill:#1e325c"/>
   <path d="M661.89 305.61c88 63.86 128.34 179.76 91.65 288.16-45.16 133.39-189.91 204.93-323.31 159.77S225.3 563.63 270.46 430.23C307.21 321.66 409.94 254.07 518.82 257l-34.9 41.23C419.33 309.93 363.55 354 341.63 418.8c-32.63 96.34 22.05 201.91 122.1 235.77s207.6-16.78 240.21-113.12c21.85-64.54 4.52-133.21-39.37-181.7l-2.69-54.14Zm-62.53 159.75-1.85-75.69-1.51-43.55-1-37.73s.21-18.19-.43-22.47a6.92 6.92 0 0 0-.75-2.27l-.13-.27-.15-.23a5.86 5.86 0 0 0-7.47-2.46h-.08l-.45.23a7 7 0 0 0-1.86 1.29c-3.1 3-14 17.59-14 17.59L546 329.19l-27.63 33.7-47.44 59s-21.77 27.17-17 60.62 29.68 49.74 49 56.27 48.94 8.69 73.08-15 23.35-58.46 23.35-58.46Z" style="fill:#fff;fill-rule:evenodd"/>
</g><g id="hat" transform="rotate(-19.664861,2554.5888,-1846.2773)"><path id="🎅" style="fill:rgb(255, 49, 74);stroke:#ffffff;stroke-width:39.4767;stroke-linecap:square;stroke-linejoin:round;stroke-miterlimit:5;stroke-dasharray:none;stroke-opacity:1" d="M 1.3888427 -777.64079 C -126.41754 -822.85625 -272.88081 -794.17541 -427.74092 -723.17061 L -411.15071 -760.0823 L -459.32489 -749.02795 L -495.42034 -783.89788 L -500.16434 -732.99008 L -543.31109 -708.17992 L -498.06911 -687.77279 L -488.63916 -637.57198 L -455.93489 -675.86625 L -406.96025 -669.64773 L -425.31773 -701.97648 C -290.88513 -689.16754 -86.608888 -639.13439 -273.63981 -347.58743 C -128.15384 -457.46783 0.38614654 -456.79247 307.39427 -419.56777 C 228.26451 -624.2273 123.30628 -734.50873 1.3888427 -777.64079 z "/></g></svg>
