<svg xmlns="http://www.w3.org/2000/svg" viewBox="0 0 1536 1536">
   <g id="original" transform="translate(256,256)"><circle cx="512" cy="512" r="512" style="fill:#0043ce"/>
   <path d="m773.78 601.3-.06-41.11A154.55 154.55 0 0 0 620 406h-1a153.81 153.81 0 0 0-60 12.24l-.4-.2c-5.71-80.21-72.75-143.52-154.37-143.38A154.55 154.55 0 0 0 250 425.75l.13 63.64v2.91c.06 21.77.09 37.24.11 54.63v8C249 631.67 303 713 405 715.33h.15l.22-94-.54-.06v-.35q-2 0-3.87-.14c-10.3-1.47-19.26-4.08-26.81-7.86-15.57-9-26.62-26.91-29.51-44-1.73-50.1 36.31-69.35 59.94-68.45 39 1.47 62.33 32 60.2 70.86l.22 143.9 94.41-.17-.28-154.48q0-3 .28-6a60.47 60.47 0 0 1 2-10.83 59.56 59.56 0 0 1 30.62-36.93 62.43 62.43 0 0 1 14.25-5.09 68.64 68.64 0 0 1 8-1.3h8.74a60.7 60.7 0 0 1 56.17 59.2l.28 155.25 94.41-.17c-.02-23.61 0-41.77-.1-113.41ZM344.33 500.9a22.33 22.33 0 1 1 22.29-22.37 22.34 22.34 0 0 1-22.29 22.37Z" style="fill:#fcfcfc"/>
</g><g id="hat" transform="rotate(-19.664861,2554.5888,-1846.2773)"><path id="🎅" style="fill:rgb(255, 19, 68);stroke:#ffffff;stroke-width:39.4767;stroke-linecap:square;stroke-linejoin:round;stroke-miterlimit:5;stroke-dasharray:none;stroke-opacity:1" d="M 1.3888427 -777.64079 C -126.41754 -822.85625 -272.88081 -794.17541 -427.74092 -723.17061 L -411.15071 -760.0823 L -459.32489 -749.02795 L -495.42034 -783.89788 L -500.16434 -732.99008 L -543.31109 -708.17992 L -498.06911 -687.77279 L -488.63916 -637.57198 L -455.93489 -675.86625 L -406.96025 -669.64773 L -425.31773 -701.97648 C -290.88513 -689.16754 -86.608888 -639.13439 -273.63981 -347.58743 C -128.15384 -457.46783 0.38614654 -456.79247 307.39427 -419.56777 C 228.26451 -624.2273 123.30628 -734.50873 1.3888427 -777.64079 z "/></g></svg>
