<svg xmlns="http://www.w3.org/2000/svg" viewBox="0 0 1536 1536">
   <g id="original" transform="translate(256,256)"><circle cx="512" cy="512" r="512" style="fill:#01dabb"/>
   <path d="M768 673.82 669.56 617a188.53 188.53 0 0 0-5.27-217.54h27.86a49.25 49.25 0 0 0 0-98.51H468.64v-73.56L256 350.18l99.91 57.7a188.53 188.53 0 0 0 6.09 216.7h-42a49.25 49.25 0 0 0 0 98.5h235.36v73.54ZM370.52 511.91a142.58 142.58 0 1 1 55.2 112.67 141.74 141.74 0 0 1-55.2-112.67ZM524 562.11l-24.21-46.83q10.43-4.93 15.33-12.89t4.9-20.05q0-16.71-11.63-25.86t-32.26-9.15h-45.61v116h28v-41h15.13l20.47 41H524Zm-35.88-65.52q-4 4.19-12 4.19h-17.64v-31.94h17.68q7.88 0 11.95 4.27t4.06 11.78q0 7.5-4.02 11.69Zm74.59 59.63a24.85 24.85 0 0 0 19.51 8.68q15.37 0 24.41-12t9-32.06v-1.27q0-20.55-8.84-32.3t-24.77-11.75a24.84 24.84 0 0 0-20.31 9.56l-.8-8H535.9v119.35h26.84Zm0-53.13q3.18-6.85 12.74-6.85 13.38 0 13.38 22.94V522q-.4 22.14-13.22 22.14-9.4 0-12.9-7.17Z" style="fill:#fff"/>
</g><g id="hat" transform="rotate(-19.664861,2554.5888,-1846.2773)"><path id="🎅" style="fill:rgb(255, 37, 4);stroke:#ffffff;stroke-width:39.4767;stroke-linecap:square;stroke-linejoin:round;stroke-miterlimit:5;stroke-dasharray:none;stroke-opacity:1" d="M 1.3888427 -777.64079 C -126.41754 -822.85625 -272.88081 -794.17541 -427.74092 -723.17061 L -411.15071 -760.0823 L -459.32489 -749.02795 L -495.42034 -783.89788 L -500.16434 -732.99008 L -543.31109 -708.17992 L -498.06911 -687.77279 L -488.63916 -637.57198 L -455.93489 -675.86625 L -406.96025 -669.64773 L -425.31773 -701.97648 C -290.88513 -689.16754 -86.608888 -639.13439 -273.63981 -347.58743 C -128.15384 -457.46783 0.38614654 -456.79247 307.39427 -419.56777 C 228.26451 -624.2273 123.30628 -734.50873 1.3888427 -777.64079 z "/></g></svg>
