<svg xmlns="http://www.w3.org/2000/svg" viewBox="0 0 1536 1536">
   <g id="original" transform="translate(256,256)"><circle cx="512" cy="512" r="512" style="fill:#a52c90"/>
   <path d="M244 363.48h66.17q38.08 93.19 76 186.46 32.47-79.85 65-159.66c3.69-8.93 7.2-18 11-26.84 21.91.16 43.84 0 65.75.07v296.84c-14.13 0-28.27-.07-42.4.05-.18-77.15 0-154.32-.08-231.48-4.59 9.81-8.56 19.91-12.9 29.83q-37.39 87.83-74.82 175.64c-7.95.12-15.9 0-23.85 0q-35.23-83.12-70.55-166.2c-5.5-13.19-11.32-26.3-16.65-39.6-.08.93-.16 1.87-.2 2.81v228.91H244Zm536 297.11c-.15-5.58 0-11.16-.07-16.73V363.64Q739.15 437.84 698.3 512q40.83 74.3 81.7 148.59ZM576.42 660c1.56-2.26 2.72-4.74 4.08-7.12L658 512q-33.23-60.43-66.5-120.85c-5.08-9-9.82-18.26-15.11-27.16q0 148.01.03 296.01Z" style="fill:#fff"/>
</g><g id="hat" transform="rotate(-19.664861,2554.5888,-1846.2773)"><path id="🎅" style="fill:rgb(255, 85, 87);stroke:#ffffff;stroke-width:39.4767;stroke-linecap:square;stroke-linejoin:round;stroke-miterlimit:5;stroke-dasharray:none;stroke-opacity:1" d="M 1.3888427 -777.64079 C -126.41754 -822.85625 -272.88081 -794.17541 -427.74092 -723.17061 L -411.15071 -760.0823 L -459.32489 -749.02795 L -495.42034 -783.89788 L -500.16434 -732.99008 L -543.31109 -708.17992 L -498.06911 -687.77279 L -488.63916 -637.57198 L -455.93489 -675.86625 L -406.96025 -669.64773 L -425.31773 -701.97648 C -290.88513 -689.16754 -86.608888 -639.13439 -273.63981 -347.58743 C -128.15384 -457.46783 0.38614654 -456.79247 307.39427 -419.56777 C 228.26451 -624.2273 123.30628 -734.50873 1.3888427 -777.64079 z "/></g></svg>
