<svg xmlns="http://www.w3.org/2000/svg" viewBox="0 0 1536 1536">
   <g id="original" transform="translate(256,256)"><circle cx="512" cy="512" r="512" style="fill:#2e51a2"/>
   <path d="M432.49 410.61V590.3l-44.86-.06V479l-43.31 51.29-42.43-52.44-.43 112.75H256V410.65h47l39.79 54.29 43-54.31zm184.06 44.14.53 135.15h-50.45l-.17-61.25h-59.73c1.49 10.65 4.48 27 8.9 38 3.31 8.13 6.36 16 12.44 24.06l-36.37 24c-7.45-13.57-13.27-28.52-18.73-44.42a198.31 198.31 0 0 1-10.82-46.49c-1.81-16-2.07-31.38 2.28-47.19a83.37 83.37 0 0 1 24.77-39.81c6.68-6.25 16-10.67 23.47-14.66s15.85-5.63 23.62-7.66a158 158 0 0 1 25.41-3.9c8.49-.73 23.62-1.41 51-.6l11.63 37.31h-58.78c-12.65.17-18.73 0-28.61 4.46a47.7 47.7 0 0 0-27.26 41l56.81.7.81-38.61h49.26zM701.72 410v141.35L768 552l-9.17 37.87H656.28V409.33z" style="fill:#fff"/>
</g><g id="hat" transform="rotate(-19.664861,2554.5888,-1846.2773)"><path id="🎅" style="fill:rgb(255, 124, 119);stroke:#ffffff;stroke-width:39.4767;stroke-linecap:square;stroke-linejoin:round;stroke-miterlimit:5;stroke-dasharray:none;stroke-opacity:1" d="M 1.3888427 -777.64079 C -126.41754 -822.85625 -272.88081 -794.17541 -427.74092 -723.17061 L -411.15071 -760.0823 L -459.32489 -749.02795 L -495.42034 -783.89788 L -500.16434 -732.99008 L -543.31109 -708.17992 L -498.06911 -687.77279 L -488.63916 -637.57198 L -455.93489 -675.86625 L -406.96025 -669.64773 L -425.31773 -701.97648 C -290.88513 -689.16754 -86.608888 -639.13439 -273.63981 -347.58743 C -128.15384 -457.46783 0.38614654 -456.79247 307.39427 -419.56777 C 228.26451 -624.2273 123.30628 -734.50873 1.3888427 -777.64079 z "/></g></svg>
