<svg xmlns="http://www.w3.org/2000/svg" viewBox="0 0 1536 1536">
   <g id="original" transform="translate(256,256)"><circle cx="512" cy="512" r="512" style="fill:#031b4e"/>
   <path d="M668 415.5c0 16.6-69.9 30.2-156 30.2s-156-13.6-156-30.2v85c0 17.1 69.9 30.7 156 30.7s156-13.6 156-30.7v-85zM512 556.4c86.1 0 156-13.6 156-30.2v85.5c0 16.6-69.9 30.2-156 30.2s-156-13.6-156-30.2v-85.5c0 16.6 69.9 30.2 156 30.2zm156 80.5c0 16.6-69.9 30.2-156 30.2s-156-13.6-156-30.2v85.5c0 16.6 69.9 30.2 156 30.2s156-13.6 156-30.2v-85.5zm0-296.9L512 239.4 356 340v55.4c0 14.1 69.9 25.2 156 25.2s156-11.1 156-25.2V340z" style="fill:#fff"/>
</g><g id="hat" transform="rotate(-19.664861,2554.5888,-1846.2773)"><path id="🎅" style="fill:rgb(255, 6, 10);stroke:#ffffff;stroke-width:39.4767;stroke-linecap:square;stroke-linejoin:round;stroke-miterlimit:5;stroke-dasharray:none;stroke-opacity:1" d="M 1.3888427 -777.64079 C -126.41754 -822.85625 -272.88081 -794.17541 -427.74092 -723.17061 L -411.15071 -760.0823 L -459.32489 -749.02795 L -495.42034 -783.89788 L -500.16434 -732.99008 L -543.31109 -708.17992 L -498.06911 -687.77279 L -488.63916 -637.57198 L -455.93489 -675.86625 L -406.96025 -669.64773 L -425.31773 -701.97648 C -290.88513 -689.16754 -86.608888 -639.13439 -273.63981 -347.58743 C -128.15384 -457.46783 0.38614654 -456.79247 307.39427 -419.56777 C 228.26451 -624.2273 123.30628 -734.50873 1.3888427 -777.64079 z "/></g></svg>
