<svg xmlns="http://www.w3.org/2000/svg" viewBox="0 0 1536 1536">
   <g id="original" transform="translate(256,256)"><circle cx="512" cy="512" r="512" style="fill:#03cf5d"/>
   <path d="m368.22 447-51.01 130h43.36l6.16-17.22h48.89l6.16 17.22h43.36l-51.02-130Zm8.41 81.62 14.54-40.63 14.54 40.63Zm268.95 16.58h61.21V577H604.14V447h101.38v31.88h-59.94v17.53h59.3v31.24h-59.3ZM547.39 447h43.36l-51.01 130h-45.91l-51.01-130h43.36l30.61 85.53Zm-285.65 0h42.08v130h-40.17l-48.46-69.62V577h-42.08V447h40.17l48.46 69.62ZM818 532.41l3.95-1.65c15.12-6.33 22.8-20 22.8-37.39 0-16.43-6-28.59-17.81-36.13-11-7-25.24-10.28-44.84-10.28h-54.9V577H768v-36.31h14.66L807.54 577h43.36Zm-28.32-24.88h-22.31v-27.41h22.32a13.71 13.71 0 0 1 0 27.42" style="fill:#fff"/>
</g><g id="hat" transform="rotate(-19.664861,2554.5888,-1846.2773)"><path id="🎅" style="fill:rgb(255, 4, 22);stroke:#ffffff;stroke-width:39.4767;stroke-linecap:square;stroke-linejoin:round;stroke-miterlimit:5;stroke-dasharray:none;stroke-opacity:1" d="M 1.3888427 -777.64079 C -126.41754 -822.85625 -272.88081 -794.17541 -427.74092 -723.17061 L -411.15071 -760.0823 L -459.32489 -749.02795 L -495.42034 -783.89788 L -500.16434 -732.99008 L -543.31109 -708.17992 L -498.06911 -687.77279 L -488.63916 -637.57198 L -455.93489 -675.86625 L -406.96025 -669.64773 L -425.31773 -701.97648 C -290.88513 -689.16754 -86.608888 -639.13439 -273.63981 -347.58743 C -128.15384 -457.46783 0.38614654 -456.79247 307.39427 -419.56777 C 228.26451 -624.2273 123.30628 -734.50873 1.3888427 -777.64079 z "/></g></svg>
