<svg xmlns="http://www.w3.org/2000/svg" viewBox="0 0 1536 1536">
   <g id="original" transform="translate(256,256)"><circle cx="512" cy="512" r="512" style="fill:#1e5078"/>
   <path d="M768 512a254.86 254.86 0 0 1-55 158.49c-.06 0 15.43-79.76 15.45-159.25 0-79-15.47-157.84-15.48-157.91A254.77 254.77 0 0 1 768 512zM357.3 308a256.06 256.06 0 0 1 338.52 25.8S734.52 755 357.3 308zm297.62 416.4a256.09 256.09 0 0 1-333.59-41.6s-29.72-439.37 333.59 41.6zM256 512a261.09 261.09 0 0 1 43.81-144.74s-12.87 72-12.87 144 12.88 144 12.89 144C272.33 614.59 256 562.4 256 512z" style="fill:#fff"/>
</g><g id="hat" transform="rotate(-19.664861,2554.5888,-1846.2773)"><path id="🎅" style="fill:rgb(255, 41, 117);stroke:#ffffff;stroke-width:39.4767;stroke-linecap:square;stroke-linejoin:round;stroke-miterlimit:5;stroke-dasharray:none;stroke-opacity:1" d="M 1.3888427 -777.64079 C -126.41754 -822.85625 -272.88081 -794.17541 -427.74092 -723.17061 L -411.15071 -760.0823 L -459.32489 -749.02795 L -495.42034 -783.89788 L -500.16434 -732.99008 L -543.31109 -708.17992 L -498.06911 -687.77279 L -488.63916 -637.57198 L -455.93489 -675.86625 L -406.96025 -669.64773 L -425.31773 -701.97648 C -290.88513 -689.16754 -86.608888 -639.13439 -273.63981 -347.58743 C -128.15384 -457.46783 0.38614654 -456.79247 307.39427 -419.56777 C 228.26451 -624.2273 123.30628 -734.50873 1.3888427 -777.64079 z "/></g></svg>
