<svg xmlns="http://www.w3.org/2000/svg" viewBox="0 0 1536 1536">
   <g id="original" transform="translate(256,256)"><circle cx="512" cy="512" r="512" style="fill:#2853c3"/>
   <path d="m372.1 421.9 8.1 4.7 7.8 4.5 248 143.3v-134l-23.1-13.3L496 359.7l-114.9-66.4c-.7-.4-1.6-.4-2.2 0l-115 66.4 108.2 62.2zM636 297.2l-108.1 62.5L636 422.1V297.2zm15.9 152.4v134l116.1 67V365.5c0-.8-.4-1.6-1.2-1.9l-115-66.4v152.4zm-16 143.2L388 449.6v134l254.8 147.1c.7.4 1.6.4 2.2 0l115-66.4-2.6-1.5-121.5-70zM372.1 440.4l-116.1-67v285.1c0 .8.4 1.6 1.2 1.9l115 66.4V440.4zM496 664.3l-108-62.4v124.9l108-62.5z" style="fill:#fff"/>
</g><g id="hat" transform="rotate(-19.664861,2554.5888,-1846.2773)"><path id="🎅" style="fill:rgb(255, 112, 43);stroke:#ffffff;stroke-width:39.4767;stroke-linecap:square;stroke-linejoin:round;stroke-miterlimit:5;stroke-dasharray:none;stroke-opacity:1" d="M 1.3888427 -777.64079 C -126.41754 -822.85625 -272.88081 -794.17541 -427.74092 -723.17061 L -411.15071 -760.0823 L -459.32489 -749.02795 L -495.42034 -783.89788 L -500.16434 -732.99008 L -543.31109 -708.17992 L -498.06911 -687.77279 L -488.63916 -637.57198 L -455.93489 -675.86625 L -406.96025 -669.64773 L -425.31773 -701.97648 C -290.88513 -689.16754 -86.608888 -639.13439 -273.63981 -347.58743 C -128.15384 -457.46783 0.38614654 -456.79247 307.39427 -419.56777 C 228.26451 -624.2273 123.30628 -734.50873 1.3888427 -777.64079 z "/></g></svg>
