<svg xmlns="http://www.w3.org/2000/svg" viewBox="0 0 1536 1536">
   <g id="original" transform="translate(256,256)"><circle cx="512" cy="512" r="512" style="fill:#ffe01a"/>
   <path d="M768 512c0 141.42-114.84 256.47-256 256.47S256 653.43 256 512s114.84-256.48 256-256.48A254 254 0 0 1 621.15 280l-42.52 54.88A187.8 187.8 0 0 0 512 322.75c-99.54 0-181.33 77.51-188.41 175.47q-.21 3-.33 6-.16 3.89-.17 7.82c0 104.35 84.74 189.24 188.91 189.24S700.9 616.36 700.9 512a190.16 190.16 0 0 0-4.38-40.65l49.34-63.67A255.37 255.37 0 0 1 768 512m-52.19-155-43.12 55.63L521.32 608 397.83 497.36l44.71-50.12 69.88 62.59L627 362l41.12-53.08A258.18 258.18 0 0 1 715.81 357" style="fill:#fff"/>
</g><g id="hat" transform="rotate(-19.664861,2554.5888,-1846.2773)"><path id="🎅" style="fill:rgb(255, 104, 69);stroke:#ffffff;stroke-width:39.4767;stroke-linecap:square;stroke-linejoin:round;stroke-miterlimit:5;stroke-dasharray:none;stroke-opacity:1" d="M 1.3888427 -777.64079 C -126.41754 -822.85625 -272.88081 -794.17541 -427.74092 -723.17061 L -411.15071 -760.0823 L -459.32489 -749.02795 L -495.42034 -783.89788 L -500.16434 -732.99008 L -543.31109 -708.17992 L -498.06911 -687.77279 L -488.63916 -637.57198 L -455.93489 -675.86625 L -406.96025 -669.64773 L -425.31773 -701.97648 C -290.88513 -689.16754 -86.608888 -639.13439 -273.63981 -347.58743 C -128.15384 -457.46783 0.38614654 -456.79247 307.39427 -419.56777 C 228.26451 -624.2273 123.30628 -734.50873 1.3888427 -777.64079 z "/></g></svg>
