<svg xmlns="http://www.w3.org/2000/svg" viewBox="0 0 1536 1536">
   <g id="original" transform="translate(256,256)"><circle cx="512" cy="512" r="512" style="fill:#bebebe"/>
   <path d="m378.67 481.29 56.57 87.27V463.52l33.94-11.31v147.06l-43.64 14.55L369 526.55V631.6l-34 9.69V494.22Zm122.82 155.15 248.89 67.88-227.87 71.11L272 707.55Zm0-387.88v377.52l2.63.72 246.3 67.2L752 295.44ZM532 543.08a2.71 2.71 0 0 1 3.59-2.75L663 574.45a5.11 5.11 0 0 1 3.59 4.68v12.93a2.71 2.71 0 0 1-3.59 2.75l-127.4-34.12A5.11 5.11 0 0 1 532 556Zm166.66 95c0 1.62-1.62 3.23-3.23 1.62l-160-42-3.23-4.85V581.5c0-3.23 1.62-3.23 3.23-3.23l160 42 3.23 4.85Zm0-76-3.23 3.23-160-43.64c-1.62 0-3.23-1.62-3.23-4.85v-11.28l3.23-3.23 160 43.64 3.23 3.23Z" style="fill:#fff"/>
</g><g id="hat" transform="rotate(-19.664861,2554.5888,-1846.2773)"><path id="🎅" style="fill:rgb(255, 32, 84);stroke:#ffffff;stroke-width:39.4767;stroke-linecap:square;stroke-linejoin:round;stroke-miterlimit:5;stroke-dasharray:none;stroke-opacity:1" d="M 1.3888427 -777.64079 C -126.41754 -822.85625 -272.88081 -794.17541 -427.74092 -723.17061 L -411.15071 -760.0823 L -459.32489 -749.02795 L -495.42034 -783.89788 L -500.16434 -732.99008 L -543.31109 -708.17992 L -498.06911 -687.77279 L -488.63916 -637.57198 L -455.93489 -675.86625 L -406.96025 -669.64773 L -425.31773 -701.97648 C -290.88513 -689.16754 -86.608888 -639.13439 -273.63981 -347.58743 C -128.15384 -457.46783 0.38614654 -456.79247 307.39427 -419.56777 C 228.26451 -624.2273 123.30628 -734.50873 1.3888427 -777.64079 z "/></g></svg>
