<svg xmlns="http://www.w3.org/2000/svg" viewBox="0 0 1536 1536">
   <g id="original" transform="translate(256,256)"><circle cx="512" cy="512" r="512" style="fill:#76b900"/>
   <path d="M430.58 436.9v-33.66c3.26-.23 6.56-.41 9.92-.51 92.04-2.89 152.41 79.09 152.41 79.09S527.7 572.4 457.78 572.4c-10.06 0-19.09-1.63-27.2-4.35V466.01c35.83 4.33 43.03 20.15 64.57 56.06l47.91-40.4s-34.97-45.87-93.91-45.87c-6.42 0-12.55.45-18.56 1.1m0-111.17V376c3.3-.27 6.61-.47 9.92-.59 127.99-4.31 211.37 104.95 211.37 104.95s-95.77 116.47-195.55 116.47c-9.14 0-17.7-.85-25.74-2.27v31.08c6.87.87 14 1.39 21.44 1.39 92.85 0 160-47.42 225.03-103.54 10.77 8.64 54.9 29.63 63.99 38.83-61.83 51.76-205.91 93.48-287.59 93.48-7.87 0-15.44-.47-22.86-1.19v43.67h352.91V325.75H430.6Zm0 242.31v26.52c-85.89-15.3-109.73-104.58-109.73-104.58s41.24-45.69 109.73-53.08V466c-.06 0-.09-.01-.14-.01-35.93-4.31-64.02 29.25-64.02 29.25s15.74 56.53 64.16 72.8m-152.54-81.92s50.9-75.11 152.54-82.87v-27.24c-112.58 9.02-210.06 104.36-210.06 104.36s55.21 159.62 210.06 174.23v-28.96c-113.63-14.3-152.54-139.52-152.54-139.52" style="fill:#fff"/>
</g><g id="hat" transform="rotate(-19.664861,2554.5888,-1846.2773)"><path id="🎅" style="fill:rgb(255, 39, 63);stroke:#ffffff;stroke-width:39.4767;stroke-linecap:square;stroke-linejoin:round;stroke-miterlimit:5;stroke-dasharray:none;stroke-opacity:1" d="M 1.3888427 -777.64079 C -126.41754 -822.85625 -272.88081 -794.17541 -427.74092 -723.17061 L -411.15071 -760.0823 L -459.32489 -749.02795 L -495.42034 -783.89788 L -500.16434 -732.99008 L -543.31109 -708.17992 L -498.06911 -687.77279 L -488.63916 -637.57198 L -455.93489 -675.86625 L -406.96025 -669.64773 L -425.31773 -701.97648 C -290.88513 -689.16754 -86.608888 -639.13439 -273.63981 -347.58743 C -128.15384 -457.46783 0.38614654 -456.79247 307.39427 -419.56777 C 228.26451 -624.2273 123.30628 -734.50873 1.3888427 -777.64079 z "/></g></svg>
