<svg xmlns="http://www.w3.org/2000/svg" viewBox="0 0 1536 1536">
   <g id="original" transform="translate(256,256)"><circle cx="512" cy="512" r="512" style="fill:#e54b4d"/>
   <path d="M512.4 254.5c-146.8 0-266.3 125.6-266.3 279.9 0 98.3 48.9 184.6 120.9 234.5l.09-.06-.09.06 1.92 1.42c36.53-21.89 76.22-37.5 120.61-43.84v-23.65h-.03V557.1h-14.4v-30.3h72v199.7c40.3 6.1 76.3 21.2 109.4 42.4 73.4-49.9 120.9-136.2 120.9-234.5 1.3-154.3-118.2-279.9-265-279.9Zm0 196.7c-43.2 0-79.2 37.8-79.2 83.2 0 31.8 17.3 60.5 43.2 74.1v16.6c-33.1-15.1-57.6-49.9-57.6-90.8 0-54.5 41.7-98.3 93.6-98.3s93.6 43.9 93.6 98.3c0 34.8-17.3 65.1-43.2 83.2v-18.2c17.3-16.5 28.8-39.2 28.8-64.9 0-45.4-36-83.2-79.2-83.2Zm50.4 248.1v-16.6c59-21.2 100.8-80.2 100.8-149.8 0-86.2-67.7-157.4-151.1-157.4s-151.1 71.1-151.1 158.9c0 74.1 48.9 137.7 115.1 154.3v15.1C403.1 687.2 347 617.6 347 534.3c0-96.8 73.4-174 165.5-174S678 437.5 678 534.3c-.1 77.3-49 143.8-115.2 165Z" style="fill:#fff"/>
</g><g id="hat" transform="rotate(-19.664861,2554.5888,-1846.2773)"><path id="🎅" style="fill:rgb(255, 99, 99);stroke:#ffffff;stroke-width:39.4767;stroke-linecap:square;stroke-linejoin:round;stroke-miterlimit:5;stroke-dasharray:none;stroke-opacity:1" d="M 1.3888427 -777.64079 C -126.41754 -822.85625 -272.88081 -794.17541 -427.74092 -723.17061 L -411.15071 -760.0823 L -459.32489 -749.02795 L -495.42034 -783.89788 L -500.16434 -732.99008 L -543.31109 -708.17992 L -498.06911 -687.77279 L -488.63916 -637.57198 L -455.93489 -675.86625 L -406.96025 -669.64773 L -425.31773 -701.97648 C -290.88513 -689.16754 -86.608888 -639.13439 -273.63981 -347.58743 C -128.15384 -457.46783 0.38614654 -456.79247 307.39427 -419.56777 C 228.26451 -624.2273 123.30628 -734.50873 1.3888427 -777.64079 z "/></g></svg>
