<svg xmlns="http://www.w3.org/2000/svg" viewBox="0 0 1536 1536">
   <g id="original" transform="translate(256,256)"><circle cx="512" cy="512" r="512" style="fill:#ea7e20"/>
   <path d="M592.2 515.3c0-44.9-36.1-81-81-81s-81 36.1-81 81c0 35 21.9 64.5 52.5 75.5L451 757.1h120.3l-30.6-166.3c29.6-12.1 51.5-40.5 51.5-75.5m175.8 5.5c0-140-114.9-253.8-256-253.8S256 380.7 256 520.8c0 93 50.3 173.9 125.8 217.7l16.4-108.3c-24.1-26.3-39.4-62.4-39.4-100.6 0-83.1 67.8-151 152.1-151S663 446.4 663 529.5c0 39.4-15.3 74.4-39.4 101.7L640 739.6c76.6-43.8 128-125.9 128-218.8" style="fill:#fff"/>
</g><g id="hat" transform="rotate(-19.664861,2554.5888,-1846.2773)"><path id="🎅" style="fill:rgb(255, 74, 126);stroke:#ffffff;stroke-width:39.4767;stroke-linecap:square;stroke-linejoin:round;stroke-miterlimit:5;stroke-dasharray:none;stroke-opacity:1" d="M 1.3888427 -777.64079 C -126.41754 -822.85625 -272.88081 -794.17541 -427.74092 -723.17061 L -411.15071 -760.0823 L -459.32489 -749.02795 L -495.42034 -783.89788 L -500.16434 -732.99008 L -543.31109 -708.17992 L -498.06911 -687.77279 L -488.63916 -637.57198 L -455.93489 -675.86625 L -406.96025 -669.64773 L -425.31773 -701.97648 C -290.88513 -689.16754 -86.608888 -639.13439 -273.63981 -347.58743 C -128.15384 -457.46783 0.38614654 -456.79247 307.39427 -419.56777 C 228.26451 -624.2273 123.30628 -734.50873 1.3888427 -777.64079 z "/></g></svg>
