<svg xmlns="http://www.w3.org/2000/svg" viewBox="0 0 1536 1536">
   <g id="original" transform="translate(256,256)"><circle cx="512" cy="512" r="512" style="fill:#787878"/>
   <path d="M753.36 372.75c-10.12-52.67-49.48-92-102.15-102.15l-8.53-1.6H381.32l-8.53 1.64c-52.67 10.12-92 49.48-102.15 102.15l-1.64 8.5v261.36l1.64 8.53c7.7 40.06 32.55 73.14 68.2 90.75a133.72 133.72 0 0 0 44.64 12.9c1.58.15 60.71.24 131.4.2l128.52-.08 8.19-1.64c52.87-10.55 91.65-49.48 101.77-102.13l1.64-8.53V381.29Zm-82.3 152.35c-2.11 39.35-11.9 69.08-31.2 94.69-23.46 31.13-58.54 49.55-103 54.09-38 3.88-74.91-1.47-102.74-14.9-39.26-18.95-66.18-55.21-75.46-101.66-3.34-16.7-4-23.88-4-45.36 0-21 .61-28.28 3.7-44.22 12.71-65.68 57.55-107.85 124.41-117 25.27-3.46 57.41-1.91 80.33 3.9 41.3 10.45 72.12 35.08 90.66 72.44 13.31 26.77 19.3 60.73 17.3 98.02ZM503 605.26c-21-3.59-33.33-13.83-41.61-34.64a134.21 134.21 0 0 1-6.94-26.14c-2.52-16.74-2.37-48.86.29-65.27 3.63-22.33 10.81-38.31 21.91-48.78 9.32-8.79 19.44-12.23 36.08-12.25 11.35 0 17.72 1.19 25.83 4.91 17 7.78 28.58 28.53 32.95 59 1.86 13 1.89 50 .05 62.28-3.23 21.72-10.68 38.57-21.44 48.53S519.5 608.08 503 605.26Z" style="fill:#fff"/>
</g><g id="hat" transform="rotate(-19.664861,2554.5888,-1846.2773)"><path id="🎅" style="fill:rgb(255, 4, 31);stroke:#ffffff;stroke-width:39.4767;stroke-linecap:square;stroke-linejoin:round;stroke-miterlimit:5;stroke-dasharray:none;stroke-opacity:1" d="M 1.3888427 -777.64079 C -126.41754 -822.85625 -272.88081 -794.17541 -427.74092 -723.17061 L -411.15071 -760.0823 L -459.32489 -749.02795 L -495.42034 -783.89788 L -500.16434 -732.99008 L -543.31109 -708.17992 L -498.06911 -687.77279 L -488.63916 -637.57198 L -455.93489 -675.86625 L -406.96025 -669.64773 L -425.31773 -701.97648 C -290.88513 -689.16754 -86.608888 -639.13439 -273.63981 -347.58743 C -128.15384 -457.46783 0.38614654 -456.79247 307.39427 -419.56777 C 228.26451 -624.2273 123.30628 -734.50873 1.3888427 -777.64079 z "/></g></svg>
