<svg xmlns="http://www.w3.org/2000/svg" viewBox="0 0 1536 1536">
   <g id="original" transform="translate(256,256)"><circle cx="512" cy="512" r="512" style="fill:#0948b3"/>
   <path d="M495.14 496.75c9.27 5.38 24.44 5.38 33.72 0l169.44-98.33c9.27-5.38 9.26-14.17 0-19.53l-169.4-97.81c-9.28-5.36-24.47-5.36-33.76 0l-169.46 97.83c-9.29 5.36-9.29 14.15 0 19.53zm9.55 41.93c0-10.72-7.59-23.89-16.86-29.27l-170-98.6c-9.27-5.38-16.86-1-16.86 9.71v196.8c0 10.72 7.59 23.87 16.88 29.24l169.93 98.11c9.29 5.36 16.88 1 16.88-9.75V538.68zm31.48-29.27c-9.27 5.38-16.86 18.56-16.86 29.27v196.23c0 10.72 7.6 15.11 16.88 9.75l169.92-98.11C715.4 641.19 723 628 723 617.31V420.47c0-10.72-7.59-15.09-16.86-9.71z" style="fill:#fff"/>
</g><g id="hat" transform="rotate(-19.664861,2554.5888,-1846.2773)"><path id="🎅" style="fill:rgb(255, 96, 93);stroke:#ffffff;stroke-width:39.4767;stroke-linecap:square;stroke-linejoin:round;stroke-miterlimit:5;stroke-dasharray:none;stroke-opacity:1" d="M 1.3888427 -777.64079 C -126.41754 -822.85625 -272.88081 -794.17541 -427.74092 -723.17061 L -411.15071 -760.0823 L -459.32489 -749.02795 L -495.42034 -783.89788 L -500.16434 -732.99008 L -543.31109 -708.17992 L -498.06911 -687.77279 L -488.63916 -637.57198 L -455.93489 -675.86625 L -406.96025 -669.64773 L -425.31773 -701.97648 C -290.88513 -689.16754 -86.608888 -639.13439 -273.63981 -347.58743 C -128.15384 -457.46783 0.38614654 -456.79247 307.39427 -419.56777 C 228.26451 -624.2273 123.30628 -734.50873 1.3888427 -777.64079 z "/></g></svg>
