<svg xmlns="http://www.w3.org/2000/svg" viewBox="0 0 1536 1536">
   <g id="original" transform="translate(256,256)"><circle cx="512" cy="512" r="512" style="fill:#ed1b2c"/>
   <path d="m660.75 708.03-145.99 62.76-103.77-41.38V613.8l15.84 36.85 86.8 34.61 85.85-36.9.25-.64 110.61-64.05-49.58 124.36ZM306.29 570.35l105.86-61.31-22.23 55.77.83 1.93v154.6l-23.59-9.41-60.87-141.59Zm55.19-147.56 118.21 31.51-55.15 23.71-.25.63-110.61 64.05 47.81-119.91Zm147.74-180.25 144.11 166.62-32.45 121.71-23.71-55.15-.19-.08-101.99-216.07 14.24-17.03Zm124.86 319.02-.28-.63 32.93-123.5 50.98 118.59-105.87 61.31 22.23-55.77ZM510.68 463l71.22 28.4 30.28 70.45-28.4 71.23-70.45 30.29-71.23-28.4-30.28-70.45 28.4-71.23 70.46-30.28Zm-.29-21.9-.63.28-136.4-36.37L480.7 276.66l88.73 187.99-59.04-23.55Zm162.78-39.95-164.2-189.84-162.35 194.14-64.12 160.78 69.38 161.39 163.17 65.06 161.39-69.37 65.06-163.17-68.34-158.98Z" style="fill:#fff"/>
</g><g id="hat" transform="rotate(-19.664861,2554.5888,-1846.2773)"><path id="🎅" style="fill:rgb(255, 32, 38);stroke:#ffffff;stroke-width:39.4767;stroke-linecap:square;stroke-linejoin:round;stroke-miterlimit:5;stroke-dasharray:none;stroke-opacity:1" d="M 1.3888427 -777.64079 C -126.41754 -822.85625 -272.88081 -794.17541 -427.74092 -723.17061 L -411.15071 -760.0823 L -459.32489 -749.02795 L -495.42034 -783.89788 L -500.16434 -732.99008 L -543.31109 -708.17992 L -498.06911 -687.77279 L -488.63916 -637.57198 L -455.93489 -675.86625 L -406.96025 -669.64773 L -425.31773 -701.97648 C -290.88513 -689.16754 -86.608888 -639.13439 -273.63981 -347.58743 C -128.15384 -457.46783 0.38614654 -456.79247 307.39427 -419.56777 C 228.26451 -624.2273 123.30628 -734.50873 1.3888427 -777.64079 z "/></g></svg>
