<svg xmlns="http://www.w3.org/2000/svg" viewBox="0 0 1536 1536">
   <g id="original" transform="translate(256,256)"><circle cx="512" cy="512" r="512" style="fill:#003087"/>
   <path d="m445.13 533.84 25-158.76a15.25 15.25 0 0 1 15.07-12.88H618c24.15 0 46.2 5.63 65 15.47C727.55 401 753.64 448.2 745.52 500a149.87 149.87 0 0 1-148 126.87h-46.85a15.25 15.25 0 0 0-15.06 12.88l-21 133a15.24 15.24 0 0 1-15 12.88h-79.72a12.4 12.4 0 0 1-12.26-14.32m47.17-398.69a30.62 30.62 0 0 1 30.39-26H618a157.61 157.61 0 0 1 64 13.27c-7.8-58.23-59.36-103.63-127.95-103.63H394.72a15.25 15.25 0 0 0-15.06 12.88l-62.49 396.34a12.38 12.38 0 0 0 12.23 14.33h77" style="fill:#fff"/>
</g><g id="hat" transform="rotate(-19.664861,2554.5888,-1846.2773)"><path id="🎅" style="fill:rgb(255, 53, 122);stroke:#ffffff;stroke-width:39.4767;stroke-linecap:square;stroke-linejoin:round;stroke-miterlimit:5;stroke-dasharray:none;stroke-opacity:1" d="M 1.3888427 -777.64079 C -126.41754 -822.85625 -272.88081 -794.17541 -427.74092 -723.17061 L -411.15071 -760.0823 L -459.32489 -749.02795 L -495.42034 -783.89788 L -500.16434 -732.99008 L -543.31109 -708.17992 L -498.06911 -687.77279 L -488.63916 -637.57198 L -455.93489 -675.86625 L -406.96025 -669.64773 L -425.31773 -701.97648 C -290.88513 -689.16754 -86.608888 -639.13439 -273.63981 -347.58743 C -128.15384 -457.46783 0.38614654 -456.79247 307.39427 -419.56777 C 228.26451 -624.2273 123.30628 -734.50873 1.3888427 -777.64079 z "/></g></svg>
