<svg xmlns="http://www.w3.org/2000/svg" viewBox="0 0 1536 1536">
   <g id="original" transform="translate(256,256)"><circle cx="512" cy="512" r="512" style="fill:#00e6a5"/>
   <path d="M520.46 247.54q7.46 0 14.81.41v123.31a141.11 141.11 0 0 0-16.93-1 139.64 139.64 0 0 0-139.61 137.32V735.3A264.27 264.27 0 0 1 256 512c0-146.06 118.4-264.46 264.46-264.46Zm-2.12 169.26a93.74 93.74 0 0 1 15.28 1.2l1.65.29v93.12a139 139 0 0 0 26.73 80.7 93.1 93.1 0 1 1-43.69-175.31ZM425.25 614a139.67 139.67 0 0 0 171.37 11.57 139.69 139.69 0 0 0 165.94-6.95c-41 93-134 157.88-242.11 157.88a263.85 263.85 0 0 1-95.21-17.65Zm249.66-197.21a93.09 93.09 0 1 1-43.69 175.31 139.68 139.68 0 0 0 0-164.44 92.68 92.68 0 0 1 43.69-10.87Zm-78.28 42.69a93.16 93.16 0 0 1 0 100.8 93.17 93.17 0 0 1-.77-99.58Zm-14.81-204.79a265 265 0 0 1 177.73 144.12 139.7 139.7 0 0 0-162.92-4.57 139.6 139.6 0 0 0-12.9-7.77l-1.91-1Z" style="fill:#fff"/>
</g><g id="hat" transform="rotate(-19.664861,2554.5888,-1846.2773)"><path id="🎅" style="fill:rgb(255, 0, 11);stroke:#ffffff;stroke-width:39.4767;stroke-linecap:square;stroke-linejoin:round;stroke-miterlimit:5;stroke-dasharray:none;stroke-opacity:1" d="M 1.3888427 -777.64079 C -126.41754 -822.85625 -272.88081 -794.17541 -427.74092 -723.17061 L -411.15071 -760.0823 L -459.32489 -749.02795 L -495.42034 -783.89788 L -500.16434 -732.99008 L -543.31109 -708.17992 L -498.06911 -687.77279 L -488.63916 -637.57198 L -455.93489 -675.86625 L -406.96025 -669.64773 L -425.31773 -701.97648 C -290.88513 -689.16754 -86.608888 -639.13439 -273.63981 -347.58743 C -128.15384 -457.46783 0.38614654 -456.79247 307.39427 -419.56777 C 228.26451 -624.2273 123.30628 -734.50873 1.3888427 -777.64079 z "/></g></svg>
