<svg xmlns="http://www.w3.org/2000/svg" viewBox="0 0 1536 1536">
   <g id="original" transform="translate(256,256)"><circle cx="512" cy="512" r="512" style="fill:#e60023"/>
   <path d="M512.21 255.58C370.71 255.58 256 370.29 256 511.79c0 108.6 67.48 201.38 162.79 238.71-2.32-20.24-4.22-51.45.84-73.59 4.64-20 29.94-127.37 29.94-127.37s-7.59-15.39-7.59-38c0-35.64 20.67-62.21 46.39-62.21 21.93 0 32.47 16.45 32.47 36.06 0 21.93-13.92 54.83-21.3 85.4-6.12 25.52 12.86 46.39 38 46.39 45.55 0 80.55-48.08 80.55-117.25 0-61.36-44.07-104.17-107.12-104.17-73 0-115.77 54.62-115.77 111.13 0 21.93 8.43 45.55 19 58.41a7.63 7.63 0 0 1 1.69 7.38c-1.9 8-6.33 25.52-7.17 29.1-1.05 4.64-3.8 5.69-8.65 3.37-32.05-15-52.09-61.57-52.09-99.32 0-80.76 58.62-155 169.33-155 88.78 0 157.94 63.26 157.94 148 0 88.36-55.67 159.42-132.85 159.42-25.94 0-50.4-13.5-58.62-29.52l-16 60.94C462 712.12 446.42 740 435.87 757a257.34 257.34 0 0 0 75.91 11.39C653.28 768.42 768 653.71 768 512.21c.42-141.92-114.29-256.63-255.79-256.63z" style="fill:#fff"/>
</g><g id="hat" transform="rotate(-19.664861,2554.5888,-1846.2773)"><path id="🎅" style="fill:rgb(255, 14, 78);stroke:#ffffff;stroke-width:39.4767;stroke-linecap:square;stroke-linejoin:round;stroke-miterlimit:5;stroke-dasharray:none;stroke-opacity:1" d="M 1.3888427 -777.64079 C -126.41754 -822.85625 -272.88081 -794.17541 -427.74092 -723.17061 L -411.15071 -760.0823 L -459.32489 -749.02795 L -495.42034 -783.89788 L -500.16434 -732.99008 L -543.31109 -708.17992 L -498.06911 -687.77279 L -488.63916 -637.57198 L -455.93489 -675.86625 L -406.96025 -669.64773 L -425.31773 -701.97648 C -290.88513 -689.16754 -86.608888 -639.13439 -273.63981 -347.58743 C -128.15384 -457.46783 0.38614654 -456.79247 307.39427 -419.56777 C 228.26451 -624.2273 123.30628 -734.50873 1.3888427 -777.64079 z "/></g></svg>
