<svg xmlns="http://www.w3.org/2000/svg" viewBox="0 0 1536 1536">
   <g id="original" transform="translate(256,256)"><circle cx="512" cy="512" r="512" style="fill:#ee2f5a"/>
   <path d="M598.2 275.16c-130.59-47.53-275.51 20-323 150.64s20 275.51 150.63 323 275.52-20 323.05-150.64-20.05-275.51-150.64-323zM512 789.5C359 789.5 234.5 665 234.5 512S359 234.5 512 234.5 789.5 359 789.5 512 665 789.5 512 789.5zM689.41 512 441.06 368.61v64.27l-57.09-33v224.2l57.09-33v64.27zM464.83 409.78 641.87 512l-177 102.22v-36.83L578.09 512l-113.26-65.4zm0 140.16v-75.89L530.54 512zm-57.09 33V441.09l33.32 19.24v103.34z" style="fill:#fff"/>
</g><g id="hat" transform="rotate(-19.664861,2554.5888,-1846.2773)"><path id="🎅" style="fill:rgb(255, 47, 110);stroke:#ffffff;stroke-width:39.4767;stroke-linecap:square;stroke-linejoin:round;stroke-miterlimit:5;stroke-dasharray:none;stroke-opacity:1" d="M 1.3888427 -777.64079 C -126.41754 -822.85625 -272.88081 -794.17541 -427.74092 -723.17061 L -411.15071 -760.0823 L -459.32489 -749.02795 L -495.42034 -783.89788 L -500.16434 -732.99008 L -543.31109 -708.17992 L -498.06911 -687.77279 L -488.63916 -637.57198 L -455.93489 -675.86625 L -406.96025 -669.64773 L -425.31773 -701.97648 C -290.88513 -689.16754 -86.608888 -639.13439 -273.63981 -347.58743 C -128.15384 -457.46783 0.38614654 -456.79247 307.39427 -419.56777 C 228.26451 -624.2273 123.30628 -734.50873 1.3888427 -777.64079 z "/></g></svg>
