<svg xmlns="http://www.w3.org/2000/svg" viewBox="0 0 1536 1536">
   <g id="original" transform="translate(256,256)"><circle cx="512" cy="512" r="512" style="fill:#ff6c37"/>
   <path d="M510.79 503a3 3 0 0 0-1.36 4 8.84 8.84 0 0 1-1.11 9.61 3 3 0 0 0 4.56 3.77 14.76 14.76 0 0 0 1.84-16 3 3 0 0 0-3.95-1.32Zm33.8-244.47c-140.23-17.95-268.5 81-286.48 221s81.07 268 221.3 286 268.51-81 286.48-220.94-81.07-268.11-221.3-286.09Zm52.71 159.41a18.25 18.25 0 0 0-12.64 5.34l-95 94.81-20.25-20.23c93.59-93.2 110.46-94.1 127.89-79.92ZM493.54 521.47l94.72-94.58a13.19 13.19 0 1 1 18 19.22L506.07 534Zm7 14.76-23.47 5.05a1.31 1.31 0 0 1-1.21-2.21l13.75-13.74Zm-59.81-9.77 25-25 18.75 18.71-42.23 9.07a1.67 1.67 0 0 1-1.53-2.82ZM363 655.54a1.62 1.62 0 0 1-1-2.77l20.18-20.15 26.06 26Zm51.74-26.79a4.87 4.87 0 0 0-2.51 5.42l4.33 18.45a2.71 2.71 0 0 1-4.51 2.51L385.87 629l80.23-80.1 38.83-8.33 18.64 18.61c-26.8 23.41-63.41 46.83-108.82 69.57Zm112.58-73-17.9-17.86L609.68 450a18.29 18.29 0 0 0 2.52-2.71c-3.2 28.71-43.29 69.12-84.84 108.43Zm78-137.63a38.84 38.84 0 0 1 52.45-57.17l-34.41 34.35a2.54 2.54 0 0 0 0 3.61L650 425.46a38.8 38.8 0 0 1-44.59-7.37Zm55 0a38 38 0 0 1-5.76 4.7l-25.77-25.73 32.71-32.65a38.76 38.76 0 0 1-1.19 53.66Z" style="fill:#fff"/>
</g><g id="hat" transform="rotate(-19.664861,2554.5888,-1846.2773)"><path id="🎅" style="fill:rgb(255, 105, 54);stroke:#ffffff;stroke-width:39.4767;stroke-linecap:square;stroke-linejoin:round;stroke-miterlimit:5;stroke-dasharray:none;stroke-opacity:1" d="M 1.3888427 -777.64079 C -126.41754 -822.85625 -272.88081 -794.17541 -427.74092 -723.17061 L -411.15071 -760.0823 L -459.32489 -749.02795 L -495.42034 -783.89788 L -500.16434 -732.99008 L -543.31109 -708.17992 L -498.06911 -687.77279 L -488.63916 -637.57198 L -455.93489 -675.86625 L -406.96025 -669.64773 L -425.31773 -701.97648 C -290.88513 -689.16754 -86.608888 -639.13439 -273.63981 -347.58743 C -128.15384 -457.46783 0.38614654 -456.79247 307.39427 -419.56777 C 228.26451 -624.2273 123.30628 -734.50873 1.3888427 -777.64079 z "/></g></svg>
