<svg xmlns="http://www.w3.org/2000/svg" viewBox="0 0 1536 1536">
   <g id="original" transform="translate(256,256)"><circle cx="512" cy="512" r="512" style="fill:#8a40ff"/>
   <path d="M386.98 255.97a35.721 35.721 0 0 0-35.72 35.72 35.721 35.721 0 0 0 35.72 35.72 35.721 35.721 0 0 0 35.722-35.72 35.721 35.721 0 0 0-35.722-35.72zm127.01 3.969c-17.464 0-31.751 14.288-31.751 31.75 0 17.465 14.288 31.752 31.751 31.752 78.983 0 146.45 48.025 175.82 116.29 1.588 3.572 2.382 7.937 2.382 12.303 0 17.464-14.288 31.753-31.751 31.753-13.097 0-24.608-7.939-29.371-19.45-19.448-45.643-64.694-77.394-117.08-77.394H386.98c-17.464 0-31.751 14.288-31.751 31.75v317.52c0 17.465 14.288 31.752 31.75 31.752 17.465 0 31.754-14.288 31.754-31.751v-285.76h95.252c34.927 0 63.505 28.578 63.505 63.505 0 34.927-28.578 63.503-63.505 63.503-17.464 0-31.751 14.288-31.751 31.75 0 17.464 14.288 31.752 31.75 31.752 52.392 0 97.639-31.75 116.69-76.997 5.16-11.51 16.275-19.45 29.372-19.45 17.464 0 31.75 14.289 31.75 31.752 0 4.366-.793 8.334-2.381 12.303-28.974 67.87-96.445 115.9-175.43 115.9-17.464 0-31.751 14.288-31.751 31.75 0 17.465 14.288 31.752 31.75 31.752 140.11 0 254.02-113.91 254.02-254.02s-113.91-254.02-254.02-254.02z" style="fill:#fff"/>
</g><g id="hat" transform="rotate(-19.664861,2554.5888,-1846.2773)"><path id="🎅" style="fill:rgb(255, 105, 117);stroke:#ffffff;stroke-width:39.4767;stroke-linecap:square;stroke-linejoin:round;stroke-miterlimit:5;stroke-dasharray:none;stroke-opacity:1" d="M 1.3888427 -777.64079 C -126.41754 -822.85625 -272.88081 -794.17541 -427.74092 -723.17061 L -411.15071 -760.0823 L -459.32489 -749.02795 L -495.42034 -783.89788 L -500.16434 -732.99008 L -543.31109 -708.17992 L -498.06911 -687.77279 L -488.63916 -637.57198 L -455.93489 -675.86625 L -406.96025 -669.64773 L -425.31773 -701.97648 C -290.88513 -689.16754 -86.608888 -639.13439 -273.63981 -347.58743 C -128.15384 -457.46783 0.38614654 -456.79247 307.39427 -419.56777 C 228.26451 -624.2273 123.30628 -734.50873 1.3888427 -777.64079 z "/></g></svg>
