<svg xmlns="http://www.w3.org/2000/svg" viewBox="0 0 1536 1536">
   <g id="original" transform="translate(256,256)"><circle cx="512" cy="512" r="512" style="fill:#580062"/>
   <path d="m247 296 12.35 18.05 4.33 6.33L260.35 728l496.34-7.78 6.53-403.85 13.78-19h-13.48v-1.2l-276.18.49L247 296Zm259.58 26.9a114.91 114.91 0 1 1-114.9 114.91 114.87 114.87 0 0 1 114.9-114.91Zm220.55 4L621.54 472.26a120 120 0 0 0-68.32-145.06l173.91-.31Zm-267.57.48a120 120 0 0 0-70.25 135.92l-92.79-135.64 163-.29Zm272.27 32.2-5.13 317.15-145.95-109.16 151.07-208ZM294 364.72l141.92 207.47-144.52 111 2.6-318.46Zm212.58 6.88a72.66 72.66 0 1 0 72.66 72.66 72.69 72.69 0 0 0-72.67-72.66ZM457.95 404a13.11 13.11 0 0 1 1.95.23c7.46 1.45 12.4 9 11 16.84s-8.56 13-16 11.58-12.4-9-11-16.84A13.92 13.92 0 0 1 457.95 404ZM575 536.39l-69.9 96.18-64.82-94.75A119.87 119.87 0 0 0 575 536.39Zm-7.73 49.79 139.18 104.13-394.63 6.19 137.1-105.3 55.61 81.3 62.69-86.31Z" style="fill:#fff"/>
</g><g id="hat" transform="rotate(-19.664861,2554.5888,-1846.2773)"><path id="🎅" style="fill:rgb(255, 101, 87);stroke:#ffffff;stroke-width:39.4767;stroke-linecap:square;stroke-linejoin:round;stroke-miterlimit:5;stroke-dasharray:none;stroke-opacity:1" d="M 1.3888427 -777.64079 C -126.41754 -822.85625 -272.88081 -794.17541 -427.74092 -723.17061 L -411.15071 -760.0823 L -459.32489 -749.02795 L -495.42034 -783.89788 L -500.16434 -732.99008 L -543.31109 -708.17992 L -498.06911 -687.77279 L -488.63916 -637.57198 L -455.93489 -675.86625 L -406.96025 -669.64773 L -425.31773 -701.97648 C -290.88513 -689.16754 -86.608888 -639.13439 -273.63981 -347.58743 C -128.15384 -457.46783 0.38614654 -456.79247 307.39427 -419.56777 C 228.26451 -624.2273 123.30628 -734.50873 1.3888427 -777.64079 z "/></g></svg>
