<svg xmlns="http://www.w3.org/2000/svg" viewBox="0 0 1536 1536">
   <g id="original" transform="translate(256,256)"><circle cx="512" cy="512" r="512" style="fill:#ed2e26"/>
   <path d="M512 236.48c150.7 0 226.47 80.63 226.47 80.63s8.66 59.68 3.13 179.85C733.21 678.49 512 787.51 512 787.52S290.79 678.49 282.44 497c-5.53-120.17 3.13-179.85 3.13-179.85s75.7-80.63 226.4-80.63ZM398.89 475.1c0-64.19 50.74-116.41 113.11-116.41A113.34 113.34 0 0 1 625.21 471.9c0 49.83-42.84 90.83-75.85 111.9 12.81 7.31 41.07 15 68.14 17.46a163.38 163.38 0 0 0 63.62-129.36 169.12 169.12 0 0 0-338.23 0c0 56.32 23.45 106.35 67.82 144.69 41.48 35.84 102.15 59.77 171.23 71.09 15-8.27 40.56-32.69 50.16-47-57.69-7.42-112.3-21.49-148.89-40.69-55.94-29.34-84.31-71.37-84.31-124.91Z" style="fill:#fff"/>
</g><g id="hat" transform="rotate(-19.664861,2554.5888,-1846.2773)"><path id="🎅" style="fill:rgb(255, 93, 0);stroke:#ffffff;stroke-width:39.4767;stroke-linecap:square;stroke-linejoin:round;stroke-miterlimit:5;stroke-dasharray:none;stroke-opacity:1" d="M 1.3888427 -777.64079 C -126.41754 -822.85625 -272.88081 -794.17541 -427.74092 -723.17061 L -411.15071 -760.0823 L -459.32489 -749.02795 L -495.42034 -783.89788 L -500.16434 -732.99008 L -543.31109 -708.17992 L -498.06911 -687.77279 L -488.63916 -637.57198 L -455.93489 -675.86625 L -406.96025 -669.64773 L -425.31773 -701.97648 C -290.88513 -689.16754 -86.608888 -639.13439 -273.63981 -347.58743 C -128.15384 -457.46783 0.38614654 -456.79247 307.39427 -419.56777 C 228.26451 -624.2273 123.30628 -734.50873 1.3888427 -777.64079 z "/></g></svg>
