<svg xmlns="http://www.w3.org/2000/svg" viewBox="0 0 1536 1536">
   <g id="original" transform="translate(256,256)"><circle cx="512" cy="512" r="512" style="fill:#2a2a48"/>
   <path d="m317.45 412.86 293.7-95.43 95.43 293.7-293.7 95.43-12.47-38.4a326.89 326.89 0 0 1-51.28 0L381.57 768 768 642.43 642.43 256 256 381.57l60.72 186.89 4.15 1 .57.14a203.08 203.08 0 0 0 48.71 5.51ZM470 586.57a288.8 288.8 0 0 0 131.37-84l32.51 20.32a306.66 306.66 0 0 1-150.33 102.94 307.56 307.56 0 0 1-182.8 6.77l13.55-35.22A289.13 289.13 0 0 0 470 586.57Z" style="fill:#fff"/>
</g><g id="hat" transform="rotate(-19.664861,2554.5888,-1846.2773)"><path id="🎅" style="fill:rgb(255, 19, 49);stroke:#ffffff;stroke-width:39.4767;stroke-linecap:square;stroke-linejoin:round;stroke-miterlimit:5;stroke-dasharray:none;stroke-opacity:1" d="M 1.3888427 -777.64079 C -126.41754 -822.85625 -272.88081 -794.17541 -427.74092 -723.17061 L -411.15071 -760.0823 L -459.32489 -749.02795 L -495.42034 -783.89788 L -500.16434 -732.99008 L -543.31109 -708.17992 L -498.06911 -687.77279 L -488.63916 -637.57198 L -455.93489 -675.86625 L -406.96025 -669.64773 L -425.31773 -701.97648 C -290.88513 -689.16754 -86.608888 -639.13439 -273.63981 -347.58743 C -128.15384 -457.46783 0.38614654 -456.79247 307.39427 -419.56777 C 228.26451 -624.2273 123.30628 -734.50873 1.3888427 -777.64079 z "/></g></svg>
