<svg xmlns="http://www.w3.org/2000/svg" viewBox="0 0 1536 1536">
   <g id="original" transform="translate(256,256)"><circle cx="512" cy="512" r="512" style="fill:#7832f1"/>
   <path d="M551.4 272c61.1 0 108.2 17.2 140 48.6 26.7 26.7 41.3 64.3 41.3 111.1 0 77.5-41.7 126.1-102.7 148.8 7.8 11.5 47 68.6 117.4 171.5H623.8L519.6 598.5 456 505.2h88.8c51.5 0 80.8-27.4 80.8-69.1 0-45.3-31.4-68.7-83-68.7h-181l-65-95.4h254.8zM429.3 605.3c-1 .1-1 49 0 146.7h-110V605.3c74.4-.1 111-.1 110 0z" style="fill:#fff"/>
</g><g id="hat" transform="rotate(-19.664861,2554.5888,-1846.2773)"><path id="🎅" style="fill:rgb(255, 35, 37);stroke:#ffffff;stroke-width:39.4767;stroke-linecap:square;stroke-linejoin:round;stroke-miterlimit:5;stroke-dasharray:none;stroke-opacity:1" d="M 1.3888427 -777.64079 C -126.41754 -822.85625 -272.88081 -794.17541 -427.74092 -723.17061 L -411.15071 -760.0823 L -459.32489 -749.02795 L -495.42034 -783.89788 L -500.16434 -732.99008 L -543.31109 -708.17992 L -498.06911 -687.77279 L -488.63916 -637.57198 L -455.93489 -675.86625 L -406.96025 -669.64773 L -425.31773 -701.97648 C -290.88513 -689.16754 -86.608888 -639.13439 -273.63981 -347.58743 C -128.15384 -457.46783 0.38614654 -456.79247 307.39427 -419.56777 C 228.26451 -624.2273 123.30628 -734.50873 1.3888427 -777.64079 z "/></g></svg>
