<svg xmlns="http://www.w3.org/2000/svg" viewBox="0 0 1536 1536">
   <g id="original" transform="translate(256,256)"><circle cx="512" cy="512" r="512" style="fill:#46e3b7"/>
   <path d="M589.49 273.66h-5.58v62.72h63v-62.72h-57.42Zm-166.7 0A149.06 149.06 0 0 0 273.66 422.8v224.12h63V422a89.74 89.74 0 0 1 86.41-85.3H543.5v-63H422.8ZM692.91 480.5h-5.58v63h63v-63h-57.42Zm0-103.42h-5.58v63h63v-63h-57.42Zm51.85-103.42h-57.42v62.72h63v-62.72Zm-51.85 310.26h-5.58v63h63v-63h-57.42Zm0 103.42h-5.58v63h63v-63h-57.42Zm-103.42 0h-5.58v63h63v-63h-57.42Zm-103.42 0h-5.57v63h63v-63h-57.42Zm-103.42 0h-5.58v63h63v-63h-57.41Zm-103.42 0h-5.58v63h62.72v-63h-57.13Z" style="fill:#fff"/>
</g><g id="hat" transform="rotate(-19.664861,2554.5888,-1846.2773)"><path id="🎅" style="fill:rgb(255, 121, 59);stroke:#ffffff;stroke-width:39.4767;stroke-linecap:square;stroke-linejoin:round;stroke-miterlimit:5;stroke-dasharray:none;stroke-opacity:1" d="M 1.3888427 -777.64079 C -126.41754 -822.85625 -272.88081 -794.17541 -427.74092 -723.17061 L -411.15071 -760.0823 L -459.32489 -749.02795 L -495.42034 -783.89788 L -500.16434 -732.99008 L -543.31109 -708.17992 L -498.06911 -687.77279 L -488.63916 -637.57198 L -455.93489 -675.86625 L -406.96025 -669.64773 L -425.31773 -701.97648 C -290.88513 -689.16754 -86.608888 -639.13439 -273.63981 -347.58743 C -128.15384 -457.46783 0.38614654 -456.79247 307.39427 -419.56777 C 228.26451 -624.2273 123.30628 -734.50873 1.3888427 -777.64079 z "/></g></svg>
