<svg xmlns="http://www.w3.org/2000/svg" viewBox="0 0 1536 1536">
   <g id="original" transform="translate(256,256)"><circle cx="512" cy="512" r="512" style="fill:#e4411f"/>
   <path d="M709.85 455.54a95.17 95.17 0 0 0-18.16-5.7 141.66 141.66 0 0 0-14.78-53.21 178.48 178.48 0 0 1-19.85 34.84c-20.48 27.66-46.88 50.25-74.75 69.68-56.59 38.64-120.57 65.46-187.08 83.41-42.86 11.4-87 19.22-132.18 21.75A108 108 0 0 0 355.32 658h17.53q92.8-.32 185.61-.42c32.94 0 66.09.42 99 .21 21.12-.21 38.85.21 57.86-10.35 17.95-9.92 32.73-24.92 44.34-41.6a99.66 99.66 0 0 0-49.83-150.34zm-322.22 94.81c64.4-11.4 128-31.67 185.18-64.19 28.51-16.26 55.53-35.9 77.28-60.39a157.7 157.7 0 0 0 23.44-35.26 145 145 0 0 0-250.64-4.86 75.32 75.32 0 0 0-35.47-8.65 76.35 76.35 0 0 0-76.23 73.48c-38.22 17.31-64.19 56-64.19 99 0 3.38.21 6.76.42 10.14 46.46 2.55 93.76-1.04 140.21-9.27z" style="fill:#fff"/>
</g><g id="hat" transform="rotate(-19.664861,2554.5888,-1846.2773)"><path id="🎅" style="fill:rgb(255, 26, 15);stroke:#ffffff;stroke-width:39.4767;stroke-linecap:square;stroke-linejoin:round;stroke-miterlimit:5;stroke-dasharray:none;stroke-opacity:1" d="M 1.3888427 -777.64079 C -126.41754 -822.85625 -272.88081 -794.17541 -427.74092 -723.17061 L -411.15071 -760.0823 L -459.32489 -749.02795 L -495.42034 -783.89788 L -500.16434 -732.99008 L -543.31109 -708.17992 L -498.06911 -687.77279 L -488.63916 -637.57198 L -455.93489 -675.86625 L -406.96025 -669.64773 L -425.31773 -701.97648 C -290.88513 -689.16754 -86.608888 -639.13439 -273.63981 -347.58743 C -128.15384 -457.46783 0.38614654 -456.79247 307.39427 -419.56777 C 228.26451 -624.2273 123.30628 -734.50873 1.3888427 -777.64079 z "/></g></svg>
