<svg xmlns="http://www.w3.org/2000/svg" viewBox="0 0 1536 1536">
   <g id="original" transform="translate(256,256)"><circle cx="512" cy="512" r="512" style="fill:#fcaf17"/>
   <path d="m677.52 597.2-17.33-108.86-63.7 108h-12.1c-7.26-12.5-10.08-30.64-10.08-41.93 0-18.54 1.21-36.69 1.21-60.47 0-31.45-9.27-48-33.87-54v-.81c52-7.26 75.79-41.93 75.79-90.31 0-68.94-46-83.86-106-83.86H349.76l-68.53 324.17h85.87l25-118.12h57.25c30.64 0 43.14 14.92 43.14 43.54 0 21.77-2.42 39.11-2.42 55.63 0 6 1.21 20.56 5.64 26.2l62.08 65.71L504.17 777l114.5-68.13 85.47 65.71-15.73-108.45 98.37-68.94zM475.14 410.54H406.6l16.53-78.21h63.7c22.58 0 46.36 6 46.36 33.46 0 35.07-27.01 44.75-58.05 44.75z" style="fill:#fff"/>
</g><g id="hat" transform="rotate(-19.664861,2554.5888,-1846.2773)"><path id="🎅" style="fill:rgb(255, 115, 117);stroke:#ffffff;stroke-width:39.4767;stroke-linecap:square;stroke-linejoin:round;stroke-miterlimit:5;stroke-dasharray:none;stroke-opacity:1" d="M 1.3888427 -777.64079 C -126.41754 -822.85625 -272.88081 -794.17541 -427.74092 -723.17061 L -411.15071 -760.0823 L -459.32489 -749.02795 L -495.42034 -783.89788 L -500.16434 -732.99008 L -543.31109 -708.17992 L -498.06911 -687.77279 L -488.63916 -637.57198 L -455.93489 -675.86625 L -406.96025 -669.64773 L -425.31773 -701.97648 C -290.88513 -689.16754 -86.608888 -639.13439 -273.63981 -347.58743 C -128.15384 -457.46783 0.38614654 -456.79247 307.39427 -419.56777 C 228.26451 -624.2273 123.30628 -734.50873 1.3888427 -777.64079 z "/></g></svg>
