<svg xmlns="http://www.w3.org/2000/svg" viewBox="0 0 1536 1536">
   <g id="original" transform="translate(256,256)"><circle cx="512" cy="512" r="512" style="fill:#786076"/>
   <path d="M582.12 250.3c-144.53-38.73-293.1 47-331.82 191.58s47 293.1 191.58 331.82 293.1-47 331.82-191.58S726.66 289 582.12 250.3Zm-114.6 478.38.36.94a16.9 16.9 0 0 0 21.72 10l63.91-23.49a16.9 16.9 0 0 1 21.72 10l.25.74a16.91 16.91 0 0 1-7.55 20.42A243.84 243.84 0 0 1 415.8 285.84a17.77 17.77 0 0 1 15 11.58A17.83 17.83 0 0 0 453.63 308l20.79-7.67a16.9 16.9 0 0 1 21.72 10l.25.74a16.91 16.91 0 0 1-10 21.72L341.7 386.14a16.91 16.91 0 0 0-10 21.72l.25.74a16.91 16.91 0 0 0 21.72 10l105.81-39a16.9 16.9 0 0 1 21.72 10l.25.74a16.91 16.91 0 0 1-10 21.71l-168.99 62.32a16.9 16.9 0 0 0-10 21.72l.25.74a16.9 16.9 0 0 0 21.71 10l207.8-76.26a16.9 16.9 0 0 1 21.72 10l.62 1.68a16.91 16.91 0 0 1-10 21.72l-149.34 54.9a16.9 16.9 0 0 0-10 21.72l.25.74a16.9 16.9 0 0 0 21.71 10l68.46-25.19a16.91 16.91 0 0 1 21.72 10l.25.74a16.91 16.91 0 0 1-10 21.72L359.77 602a16.91 16.91 0 0 0-10 21.72l.25.74a16.91 16.91 0 0 0 21.72 10l159.54-58.62a16.91 16.91 0 0 1 21.72 10l.25.74a16.91 16.91 0 0 1-10 21.72l-99.06 36.4a16.9 16.9 0 0 0-10 21.72l.25.74a16.9 16.9 0 0 0 21.72 10l124.43-45.64a16.92 16.92 0 0 1 11.87 31.68l-114.94 43.87a16.9 16.9 0 0 0-10 21.73v-.12Z" style="fill:#fff"/>
</g><g id="hat" transform="rotate(-19.664861,2554.5888,-1846.2773)"><path id="🎅" style="fill:rgb(255, 3, 49);stroke:#ffffff;stroke-width:39.4767;stroke-linecap:square;stroke-linejoin:round;stroke-miterlimit:5;stroke-dasharray:none;stroke-opacity:1" d="M 1.3888427 -777.64079 C -126.41754 -822.85625 -272.88081 -794.17541 -427.74092 -723.17061 L -411.15071 -760.0823 L -459.32489 -749.02795 L -495.42034 -783.89788 L -500.16434 -732.99008 L -543.31109 -708.17992 L -498.06911 -687.77279 L -488.63916 -637.57198 L -455.93489 -675.86625 L -406.96025 -669.64773 L -425.31773 -701.97648 C -290.88513 -689.16754 -86.608888 -639.13439 -273.63981 -347.58743 C -128.15384 -457.46783 0.38614654 -456.79247 307.39427 -419.56777 C 228.26451 -624.2273 123.30628 -734.50873 1.3888427 -777.64079 z "/></g></svg>
