<svg xmlns="http://www.w3.org/2000/svg" viewBox="0 0 1536 1536">
   <g id="original" transform="translate(256,256)"><circle cx="512" cy="512" r="512" style="fill:#ffa10f"/>
   <path d="M221.2 466c0-9.6 7.7-17.2 17.2-17.2 4.8 0 8.6 1.9 11.5 4.8v-4.8c0-32.6 25.9-58.5 58.5-58.5 8.6 0 16.3 1.9 24 4.8v-4.8c0-48.9 39.3-88.2 88.2-88.2 47.9 0 87.2 39.3 88.2 87.2-16.3 14.4-28.7 31.6-36.4 51.7-15.3-9.6-34.5-15.3-53.7-15.3-41.2 0-76.7 23-93 58.5h-87.2c-9.7-.9-17.3-8.6-17.3-18.2zM684 413.3c-22-22-51.7-35.5-85.3-35.5-60.4 0-111.2 45-118.8 103.5-15.3-20.1-39.3-32.6-66.1-32.6-45 0-82.4 36.4-82.4 82.4 0 13.4 2.9 25.9 8.6 36.4-28.7 5.7-49.8 27.8-49.8 54.6 0 30.7 28.7 55.6 64.2 55.6 15.3 0 29.7-4.8 41.2-13.4L527.8 535c14.4-13.4 33.5-21.1 55.6-21.1 45 0 80.5 35.5 82.4 79.5 1 13.4-5.7 25.9-19.2 33.5-17.2 10.5-39.3 4.8-48.9-11.5-9.6-17.2-2.9-38.3 14.4-48.9 3.8-1.9 8.6-3.8 12.5-4.8-3.8-1-7.7-1-11.5-1-32.6 0-58.5 25.9-58.5 58.5s25.9 58.5 58.5 58.5h120.7c35.5-1.9 69-33.5 69-73.8 0-40.2-34.5-73.8-74.7-73.8-6.7 11.5-14.4 18.2-24 25.9 9.6-17.2 15.3-36.4 15.3-57.5.1-33.4-13.3-63.1-35.4-85.2z" style="fill:#fff"/>
</g><g id="hat" transform="rotate(-19.664861,2554.5888,-1846.2773)"><path id="🎅" style="fill:rgb(255, 96, 108);stroke:#ffffff;stroke-width:39.4767;stroke-linecap:square;stroke-linejoin:round;stroke-miterlimit:5;stroke-dasharray:none;stroke-opacity:1" d="M 1.3888427 -777.64079 C -126.41754 -822.85625 -272.88081 -794.17541 -427.74092 -723.17061 L -411.15071 -760.0823 L -459.32489 -749.02795 L -495.42034 -783.89788 L -500.16434 -732.99008 L -543.31109 -708.17992 L -498.06911 -687.77279 L -488.63916 -637.57198 L -455.93489 -675.86625 L -406.96025 -669.64773 L -425.31773 -701.97648 C -290.88513 -689.16754 -86.608888 -639.13439 -273.63981 -347.58743 C -128.15384 -457.46783 0.38614654 -456.79247 307.39427 -419.56777 C 228.26451 -624.2273 123.30628 -734.50873 1.3888427 -777.64079 z "/></g></svg>
