<svg xmlns="http://www.w3.org/2000/svg" viewBox="0 0 1536 1536">
   <g id="original" transform="translate(256,256)"><circle cx="512" cy="512" r="512" style="fill:#58b1e4"/>
   <path d="M729 403.5A108.5 108.5 0 0 0 620.5 295h-217a108.16 108.16 0 0 0-76.72 31.77 108.52 108.52 0 0 0 0 153.45l38.64 38.64A108.52 108.52 0 0 0 403.5 729h217a108.15 108.15 0 0 0 76.72-31.78 108.51 108.51 0 0 0 0-153.45l-38.64-38.64A108.54 108.54 0 0 0 729 403.5Zm-372.44 264a66.4 66.4 0 0 1 44.17-113.29l132.73 132.71h-130a66 66 0 0 1-46.94-19.46Zm310.9-93.91a66.4 66.4 0 1 1-93.9 93.91l-217-217a66.41 66.41 0 0 1 93.91-93.91Zm0-123.1a65.93 65.93 0 0 1-44.17 19.38L490.55 337.09h130a66.41 66.41 0 0 1 46.94 113.36Z" style="fill:#fff"/>
</g><g id="hat" transform="rotate(-19.664861,2554.5888,-1846.2773)"><path id="🎅" style="fill:rgb(255, 51, 33);stroke:#ffffff;stroke-width:39.4767;stroke-linecap:square;stroke-linejoin:round;stroke-miterlimit:5;stroke-dasharray:none;stroke-opacity:1" d="M 1.3888427 -777.64079 C -126.41754 -822.85625 -272.88081 -794.17541 -427.74092 -723.17061 L -411.15071 -760.0823 L -459.32489 -749.02795 L -495.42034 -783.89788 L -500.16434 -732.99008 L -543.31109 -708.17992 L -498.06911 -687.77279 L -488.63916 -637.57198 L -455.93489 -675.86625 L -406.96025 -669.64773 L -425.31773 -701.97648 C -290.88513 -689.16754 -86.608888 -639.13439 -273.63981 -347.58743 C -128.15384 -457.46783 0.38614654 -456.79247 307.39427 -419.56777 C 228.26451 -624.2273 123.30628 -734.50873 1.3888427 -777.64079 z "/></g></svg>
