<svg xmlns="http://www.w3.org/2000/svg" viewBox="0 0 1536 1536">
   <g id="original" transform="translate(256,256)"><circle cx="512" cy="512" r="512" style="fill:#6b235e"/>
   <path d="m701 424 53-10 .216 205.24-53.286-.239zm78 0v195l53 .126v-205.13zM625 619h53V469h-53zM273.06 490.57c-6.773-.463-22.058-1.555-22.058-15.575 0-16.959 20.357-16.843 31-16.5 33.836 1.092 62 14.5 62 14.5v-47s-25.442-10.928-71-11c-60.06-.095-81 34.039-81 64 0 17.298 7.243 59.312 76 64 5.867.4 21.5.415 21.5 15 0 11.985-12.163 19-33.5 19-33.445 0-60-11-60-11l-.162 47s28.398 9 71.162 9c58.705 0 84.86-34.099 84.86-67 0-37.31-29.353-61.044-78.8-64.425zM521 534.995l-.025 84H575v-69c0-26.343 2.728-36.982 34-38v-44c-38.315-4.42-88 6.682-88 67zm-70-66c-12.254 32.19-31 52-31 52v-107l-55 11v194h55v-60s15.25 21.625 24 60h66s-7.169-27.739-35-77c27.37-35.631 39-73 39-73zm201-14c14.451 0 26-11.528 26-26s-11.437-26-26-26c-14.451 0-26 11.415-26 26 0 14.472 11.549 26 26 26z" style="fill:#fff"/>
</g><g id="hat" transform="rotate(-19.664861,2554.5888,-1846.2773)"><path id="🎅" style="fill:rgb(255, 117, 101);stroke:#ffffff;stroke-width:39.4767;stroke-linecap:square;stroke-linejoin:round;stroke-miterlimit:5;stroke-dasharray:none;stroke-opacity:1" d="M 1.3888427 -777.64079 C -126.41754 -822.85625 -272.88081 -794.17541 -427.74092 -723.17061 L -411.15071 -760.0823 L -459.32489 -749.02795 L -495.42034 -783.89788 L -500.16434 -732.99008 L -543.31109 -708.17992 L -498.06911 -687.77279 L -488.63916 -637.57198 L -455.93489 -675.86625 L -406.96025 -669.64773 L -425.31773 -701.97648 C -290.88513 -689.16754 -86.608888 -639.13439 -273.63981 -347.58743 C -128.15384 -457.46783 0.38614654 -456.79247 307.39427 -419.56777 C 228.26451 -624.2273 123.30628 -734.50873 1.3888427 -777.64079 z "/></g></svg>