<svg xmlns="http://www.w3.org/2000/svg" viewBox="0 0 1536 1536">
   <g id="original" transform="translate(256,256)"><circle cx="512" cy="512" r="512" style="fill:#f10a00"/>
   <path d="M343 300.83c-24.23 0-42.2 18-42.2 42.2v337.6c0 24.23 18 42.2 42.2 42.2h337.6c24.23 0 42.2-18 42.2-42.2V343c0-24.23-18-42.2-42.2-42.2H343Zm186.06 52.75c33.64 0 58.06 7.17 74.19 15.24l-13.36 44.37a138.43 138.43 0 0 0-62.21-14.34c-35.94 0-51.15 18.38-51.15 36.3 0 23.3 18 34.06 59.44 49.74 53.91 19.72 79.72 46.16 79.72 89.63 0 48.85-37.78 91-117.5 91-33.18 0-67.28-9-84.33-19.27l12.9-45.71c18 10.31 46.08 19.27 75.11 19.27 35.94 0 56.22-16.58 56.22-41.23 0-22.86-15.67-36.3-54.84-50.19-51.61-17.93-84.32-44.37-84.32-87.84 0-49.78 42.39-86.97 110.13-86.97Z" style="fill:#fff"/>
</g><g id="hat" transform="rotate(-19.664861,2554.5888,-1846.2773)"><path id="🎅" style="fill:rgb(255, 24, 79);stroke:#ffffff;stroke-width:39.4767;stroke-linecap:square;stroke-linejoin:round;stroke-miterlimit:5;stroke-dasharray:none;stroke-opacity:1" d="M 1.3888427 -777.64079 C -126.41754 -822.85625 -272.88081 -794.17541 -427.74092 -723.17061 L -411.15071 -760.0823 L -459.32489 -749.02795 L -495.42034 -783.89788 L -500.16434 -732.99008 L -543.31109 -708.17992 L -498.06911 -687.77279 L -488.63916 -637.57198 L -455.93489 -675.86625 L -406.96025 -669.64773 L -425.31773 -701.97648 C -290.88513 -689.16754 -86.608888 -639.13439 -273.63981 -347.58743 C -128.15384 -457.46783 0.38614654 -456.79247 307.39427 -419.56777 C 228.26451 -624.2273 123.30628 -734.50873 1.3888427 -777.64079 z "/></g></svg>
