<svg xmlns="http://www.w3.org/2000/svg" viewBox="0 0 1536 1536">
   <g id="original" transform="translate(256,256)"><circle cx="512" cy="512" r="512" style="fill:#1b71f8"/>
   <path d="M695.85 507.03c0 97.79-73.77 179.79-171.56 189.73 0 2.33-276.34 39.24-276.34 39.24l30.44-109.54 224.26-33.96v-.57c44.47-2.9 77.29-40.38 74.91-83.76-.57-7.61-1.76-14.6-4.66-22.21h121.76c1.19 6.99 1.19 14.03 1.19 21.07Zm-367.14 9.94c0-97.79 74.39-179.79 171.56-189.73 0-2.9 275.77-39.24 275.77-39.24l-31.01 109.54-224.26 34.53v.57c-43.33 2.33-76.67 39.81-73.77 83.19.57 7.61 1.76 14.6 4.71 21.64H329.9c-.57-7.04-1.19-13.46-1.19-20.5Z" style="fill:#fff"/>
</g><g id="hat" transform="rotate(-19.664861,2554.5888,-1846.2773)"><path id="🎅" style="fill:rgb(255, 34, 118);stroke:#ffffff;stroke-width:39.4767;stroke-linecap:square;stroke-linejoin:round;stroke-miterlimit:5;stroke-dasharray:none;stroke-opacity:1" d="M 1.3888427 -777.64079 C -126.41754 -822.85625 -272.88081 -794.17541 -427.74092 -723.17061 L -411.15071 -760.0823 L -459.32489 -749.02795 L -495.42034 -783.89788 L -500.16434 -732.99008 L -543.31109 -708.17992 L -498.06911 -687.77279 L -488.63916 -637.57198 L -455.93489 -675.86625 L -406.96025 -669.64773 L -425.31773 -701.97648 C -290.88513 -689.16754 -86.608888 -639.13439 -273.63981 -347.58743 C -128.15384 -457.46783 0.38614654 -456.79247 307.39427 -419.56777 C 228.26451 -624.2273 123.30628 -734.50873 1.3888427 -777.64079 z "/></g></svg>
