<svg xmlns="http://www.w3.org/2000/svg" viewBox="0 0 1536 1536">
   <g id="original" transform="translate(256,256)"><circle cx="512" cy="512" r="512" style="fill:#ed2761"/>
   <path d="M609.64 417.66c-19.89 0-36.06 15.87-36.06 35.39a109.16 109.16 0 0 0 27.77 72.66 113.26 113.26 0 0 0 24.71 20.86 131.63 131.63 0 0 0 13.75-26.66 129.47 129.47 0 0 0 5.27-73.43c-.15-.75-.34-1.5-.52-2.25a36 36 0 0 0-34.89-26.58zM387.16 519.91a130.24 130.24 0 0 0 13.78 26.66 113.8 113.8 0 0 0 24.68-20.86A109.05 109.05 0 0 0 453.41 453c0-19.51-16.17-35.39-36.09-35.39a36 36 0 0 0-34.89 26.57c-.15.75-.36 1.5-.52 2.25a131.05 131.05 0 0 0-3 27.8 129.22 129.22 0 0 0 8.28 45.65zm400.46-17.31L822 519.5c-24.86 48.67-76.15 82.13-135.44 82.13a153.92 153.92 0 0 1-49.75-8.24 175.34 175.34 0 0 1-246.67 0 153.54 153.54 0 0 1-49.76 8.24c-61.7 0-114.79-36.24-138.38-88.21L237.19 498a113.17 113.17 0 0 0 103.18 65.83 115.18 115.18 0 0 0 24.44-2.64A167.47 167.47 0 0 1 344.15 439c.36-1.65.75-3.23 1.15-4.85 8.49-31.21 37.5-54.18 72-54.18h2c2.1.06 4.19.19 6.26.42 37.29 4 66.25 35 66.25 72.68 0 50.59-25.79 95.25-65.14 122.05a136.15 136.15 0 0 0 173.56 0c-39.36-26.81-65.14-71.48-65.14-122.05 0-37.65 29-68.65 66.22-72.69 2.07-.21 4.15-.34 6.26-.4h2.05c34.5 0 63.5 23 72 54.21.4 1.6.79 3.2 1.15 4.84a167.47 167.47 0 0 1-20.67 122.28 115 115 0 0 0 24.41 2.64 113.33 113.33 0 0 0 101-61.28z" style="fill:#fff"/>
</g><g id="hat" transform="rotate(-19.664861,2554.5888,-1846.2773)"><path id="🎅" style="fill:rgb(255, 36, 27);stroke:#ffffff;stroke-width:39.4767;stroke-linecap:square;stroke-linejoin:round;stroke-miterlimit:5;stroke-dasharray:none;stroke-opacity:1" d="M 1.3888427 -777.64079 C -126.41754 -822.85625 -272.88081 -794.17541 -427.74092 -723.17061 L -411.15071 -760.0823 L -459.32489 -749.02795 L -495.42034 -783.89788 L -500.16434 -732.99008 L -543.31109 -708.17992 L -498.06911 -687.77279 L -488.63916 -637.57198 L -455.93489 -675.86625 L -406.96025 -669.64773 L -425.31773 -701.97648 C -290.88513 -689.16754 -86.608888 -639.13439 -273.63981 -347.58743 C -128.15384 -457.46783 0.38614654 -456.79247 307.39427 -419.56777 C 228.26451 -624.2273 123.30628 -734.50873 1.3888427 -777.64079 z "/></g></svg>
