<svg xmlns="http://www.w3.org/2000/svg" viewBox="0 0 1536 1536">
   <g id="original" transform="translate(256,256)"><circle cx="512" cy="512" r="512" style="fill:#0e5cc9"/>
   <path d="M562.08 611.1v-111c0-27.86-23.17-50.45-51.74-50.45s-51.74 22.59-51.74 50.45v111h-41.4v-111c0-50.15 41.7-90.81 93.14-90.81s93.14 40.66 93.14 90.81v111ZM654.2 275H369.8a94.8 94.8 0 0 0-94.8 94.8v284.4a94.8 94.8 0 0 0 94.8 94.8h284.4a94.8 94.8 0 0 0 94.8-94.8V369.8a94.8 94.8 0 0 0-94.8-94.8Zm53.33 379.2a53.33 53.33 0 0 1-53.33 53.32H369.8a53.32 53.32 0 0 1-53.33-53.32V369.8a53.32 53.32 0 0 1 53.33-53.32h284.4a53.33 53.33 0 0 1 53.33 53.32Z" style="fill:#fff"/>
</g><g id="hat" transform="rotate(-19.664861,2554.5888,-1846.2773)"><path id="🎅" style="fill:rgb(255, 104, 121);stroke:#ffffff;stroke-width:39.4767;stroke-linecap:square;stroke-linejoin:round;stroke-miterlimit:5;stroke-dasharray:none;stroke-opacity:1" d="M 1.3888427 -777.64079 C -126.41754 -822.85625 -272.88081 -794.17541 -427.74092 -723.17061 L -411.15071 -760.0823 L -459.32489 -749.02795 L -495.42034 -783.89788 L -500.16434 -732.99008 L -543.31109 -708.17992 L -498.06911 -687.77279 L -488.63916 -637.57198 L -455.93489 -675.86625 L -406.96025 -669.64773 L -425.31773 -701.97648 C -290.88513 -689.16754 -86.608888 -639.13439 -273.63981 -347.58743 C -128.15384 -457.46783 0.38614654 -456.79247 307.39427 -419.56777 C 228.26451 -624.2273 123.30628 -734.50873 1.3888427 -777.64079 z "/></g></svg>
