<svg xmlns="http://www.w3.org/2000/svg" viewBox="0 0 1536 1536">
   <g id="original" transform="translate(256,256)"><circle cx="512" cy="512" r="512" style="fill:#009"/>
   <path d="M352.9 361.4c-12.7-2.7-21.8-5.1-26.9-6.3-6.3-1.8-11.2-4.2-13.6-7.6v-13.9c4.2-6.6 14.5-10.9 28.7-10.9 19.6 0 33.2 4.5 54.7 21.5l25.1-30.2c-25.4-21.2-47.1-28.7-78.6-28.7-36.3 0-61.3 14.8-71.3 36v45.9c7.9 15.4 26 24.2 62.2 32 13 3 21.8 5.1 26.9 6 6.6 2.1 12.7 4.8 16 9.7v16c-4.5 7.3-15.4 11.2-29.6 11.2-10.3.3-20.2-1.8-29.6-5.7-9.1-3.6-19.6-10.6-32.9-21.5l-26.9 29.9c29 25.7 53.5 34.4 88.2 34.4 37.2 0 63.5-14.2 73.4-36.9v-46.2c-8.4-17.2-28.7-26.2-65.8-34.7zm401.5-70.1v182.5h-42.6v-19.3c-9.7 15.7-27.5 24.8-53.5 24.8-43.2 0-64.7-22.4-64.7-58v-130h46.5v117.5c0 19 10.3 30.2 30.2 30.2 23.3 0 37.5-13.3 37.5-37.8v-110h46.6zM531.8 606.9v127.5h-46.5V620.8c0-21.8-8.8-35.1-29-35.1s-32 15.1-32 36.3v112.4h-46.5V620.8c0-23.3-9.7-35.1-29-35.1-20.5 0-32 15.1-32 36.3v112.4h-46.5V551.9h43.2v20.2c10.6-17.5 28.1-26.3 52-26.3 23.3 0 40.8 9.7 50.8 26.9 12.4-17.8 30.8-26.9 54.7-26.9 38.8.1 60.8 23.4 60.8 61.1zm139.8-62.8c-42 0-74.9 22.7-88.5 58.9v76.8c13.3 36.3 46.5 58.9 88.5 58.9s74.6-22.7 87.9-58.6v-77.4c-13.5-35.9-46.5-58.6-87.9-58.6zm43 124.2c-7.3 19.3-22.7 30.8-43.2 30.8-20.2 0-36.3-11.5-43.5-30.8v-53.8c7.3-19.3 22.7-31.1 43.5-31.1 20.5 0 35.7 11.8 42.9 31.1l.3 53.8z" style="fill:#fff"/>
</g><g id="hat" transform="rotate(-19.664861,2554.5888,-1846.2773)"><path id="🎅" style="fill:rgb(255, 5, 53);stroke:#ffffff;stroke-width:39.4767;stroke-linecap:square;stroke-linejoin:round;stroke-miterlimit:5;stroke-dasharray:none;stroke-opacity:1" d="M 1.3888427 -777.64079 C -126.41754 -822.85625 -272.88081 -794.17541 -427.74092 -723.17061 L -411.15071 -760.0823 L -459.32489 -749.02795 L -495.42034 -783.89788 L -500.16434 -732.99008 L -543.31109 -708.17992 L -498.06911 -687.77279 L -488.63916 -637.57198 L -455.93489 -675.86625 L -406.96025 -669.64773 L -425.31773 -701.97648 C -290.88513 -689.16754 -86.608888 -639.13439 -273.63981 -347.58743 C -128.15384 -457.46783 0.38614654 -456.79247 307.39427 -419.56777 C 228.26451 -624.2273 123.30628 -734.50873 1.3888427 -777.64079 z "/></g></svg>
