<svg xmlns="http://www.w3.org/2000/svg" viewBox="0 0 1536 1536">
   <g id="original" transform="translate(256,256)"><circle cx="512" cy="512" r="512" style="fill:#42abee"/>
   <path d="M429.85 563.59H450v-41.53h20.77v-41.53H450v-20.77h-20.8V439h-61.64v41.53h-20.77v20.77H326v41.53h20.77v20.77h20.77v20.77h62.3m-41.52-102.55h41.53v41.53h-41.53ZM552.5 645.35h-20.12v-20.11h20.12Zm-225.83 40.89h20.12V707h-40.88v-20.76h-20.77v-40.89h20.77v20.77h20.77Zm-41.53-81.76H265v-40.89h20.12Zm103.18 122.64h20.12v20.77h-20.12Zm411.42-267.36V439h-10.38v-41.53h-20.77V439h-10.38v20.77h-20.77V379.3h-20.76v-20.77h-20.77v-20.77h-20.76V317h-20.77v-19.47h-20.77v-20.76h-40.23V256H429.2v21.41h-41.53v20.77h-20.11v20.12h-20.77v20.77h-41.53v20.77h-10.38V318.3h-31.15v20.77h-19.47v20.77H223.5v50.62h31.15V379.3h31.15v20.77H265v20.77h-20.74v41.53h31.15v-20.78h20.77v-20.76h20.77v-20.77h10.38v-10.38h20.77V379.3h40.23v-20.77h20.77v-20.77h62.3v41.54h40.23v20.77h41.53v20.77h20.77v41.53h-20.78v20.77h-20.77v62.3h20.77v20.77h20.77v18.17h81.76v-20.79h20.77v-62.3H718v20.77h20.77v62.3h19.47v-20.77H779v-62.3h41.5v-41.53m-185.59 62.95H594v-41.53h40.88Zm82.41 61.65h20.12v61h-20.11v20.77h-20.77v20.12h-20.77V707h-20.11v20.12h-41.53V707h20.77v-20.76h20.77v-20.12h20.12v-20.77h20.77v-20.11h20.77ZM429.2 747.88h144.06V768H429.2ZM388.32 707v20.12h-20.76V707Zm82.41-61.65h61.65v20.77h-61.65Z" style="fill:#fff"/>
</g><g id="hat" transform="rotate(-19.664861,2554.5888,-1846.2773)"><path id="🎅" style="fill:rgb(255, 37, 62);stroke:#ffffff;stroke-width:39.4767;stroke-linecap:square;stroke-linejoin:round;stroke-miterlimit:5;stroke-dasharray:none;stroke-opacity:1" d="M 1.3888427 -777.64079 C -126.41754 -822.85625 -272.88081 -794.17541 -427.74092 -723.17061 L -411.15071 -760.0823 L -459.32489 -749.02795 L -495.42034 -783.89788 L -500.16434 -732.99008 L -543.31109 -708.17992 L -498.06911 -687.77279 L -488.63916 -637.57198 L -455.93489 -675.86625 L -406.96025 -669.64773 L -425.31773 -701.97648 C -290.88513 -689.16754 -86.608888 -639.13439 -273.63981 -347.58743 C -128.15384 -457.46783 0.38614654 -456.79247 307.39427 -419.56777 C 228.26451 -624.2273 123.30628 -734.50873 1.3888427 -777.64079 z "/></g></svg>
