<svg xmlns="http://www.w3.org/2000/svg" viewBox="0 0 1536 1536">
   <g id="original" transform="translate(256,256)"><circle cx="512" cy="512" r="512" style="fill:#574f4a"/>
   <path d="M774.43 401.24a286.54 286.54 0 0 0-99.44-122.75s.03.03.03.03l.09.06-.81 2.44c-5.45 10.13-66.88 121.22-90.01 163.03l-1.12 2.02c-4.6 8.31-7.68 13.89-7.81 14.12-17.88 30.87-26.08 65.61-21.95 92.95a89.512 89.512 0 0 0 15.57 38.51 92.79 92.79 0 0 0 60.46 37.77 97.115 97.115 0 0 0 16.16 1.36c20.55.07 40.56-6.56 57-18.9a89.866 89.866 0 0 0 35.1-57.17c4.06-24.15-1.83-48.5-16.6-68.56a95.153 95.153 0 0 0-61.24-37.47c-1.37-.23-2.78-.44-4.19-.61-8.6-1.08-14.98-8.53-14.71-17.19.09-4.62 2.11-8.99 5.57-12.05 3.6-3.17 8.38-4.67 13.15-4.12 1.89.23 3.82.52 5.75.84 33.63 5.66 63.12 23.78 83.02 51.02 20 27.37 27.95 60.66 22.39 93.73-5.56 33.07-23.97 61.92-51.83 81.24a128.152 128.152 0 0 1-73.39 22.87c-3.81 0-7.65-.17-11.42-.5-3.43-.3-6.91-.75-10.34-1.33a126.01 126.01 0 0 1-82.51-51.69c-3.78-5.34-7.16-10.94-10.12-16.78-17.04-33.65-17.87-72.96-2.41-113.7 5.29-13.94 11.77-27.39 18-39.85l96.81-176.87 2.38-2.88.1.05.03-.06c-7.55-4.03-15.3-7.73-23.24-11.09-144.81-61.29-311.89 6.42-373.18 151.24-45.22 106.86-21.08 230.46 61.03 312.45.94.94 1.88 1.87 2.83 2.79l154.94-287.25h-165.4l28.99 48.82c2.18 3.5 2.84 7.73 1.83 11.73a16.2 16.2 0 0 1-15.58 12.14c-5.29.05-10.23-2.65-13.03-7.14l-43.27-72.83a15.148 15.148 0 0 1-2.29-8.2v-.63c.28-8.33 7.06-14.96 15.39-15.04h219.73c3.99 0 8.83 1.44 11.25 3.35l.23.17c7.16 5.13 9.41 14.78 5.25 22.55L343.85 735.02c-.87 1.61-1.99 3.08-3.31 4.35 99.36 75.11 236.02 76.85 337.26 4.3H544.39c-9.76 0-17.67-7.91-17.67-17.67v-.36c0-9.76 7.91-17.67 17.67-17.67H718.7c77.79-82.12 99.66-202.47 55.74-306.71Z" style="fill:#fff"/>
</g><g id="hat" transform="rotate(-19.664861,2554.5888,-1846.2773)"><path id="🎅" style="fill:rgb(255, 17, 62);stroke:#ffffff;stroke-width:39.4767;stroke-linecap:square;stroke-linejoin:round;stroke-miterlimit:5;stroke-dasharray:none;stroke-opacity:1" d="M 1.3888427 -777.64079 C -126.41754 -822.85625 -272.88081 -794.17541 -427.74092 -723.17061 L -411.15071 -760.0823 L -459.32489 -749.02795 L -495.42034 -783.89788 L -500.16434 -732.99008 L -543.31109 -708.17992 L -498.06911 -687.77279 L -488.63916 -637.57198 L -455.93489 -675.86625 L -406.96025 -669.64773 L -425.31773 -701.97648 C -290.88513 -689.16754 -86.608888 -639.13439 -273.63981 -347.58743 C -128.15384 -457.46783 0.38614654 -456.79247 307.39427 -419.56777 C 228.26451 -624.2273 123.30628 -734.50873 1.3888427 -777.64079 z "/></g></svg>
