<svg xmlns="http://www.w3.org/2000/svg" viewBox="0 0 1536 1536">
   <g id="original" transform="translate(256,256)"><circle cx="512" cy="512" r="512" style="fill:#25215e"/>
   <path d="M299.89 476.95h-30.13v101.31h-42.09V476.95H196.5v-31.7h103.39Zm87.29 47.26v54.05h-35.72l-1.4-13-4.46 4.27c-4.93 4.93-12.92 9.23-24.81 9.23-8.49 0-35.38-1-35.38-29.39 0-25.08 28.76-28.19 37.51-28.55l26.85-1.13v-3.91c0-4.74-2.76-12.7-19.93-12.7-10.47 0-22.4 3.7-30.69 7.81l-8.84-22.67A119.12 119.12 0 0 1 335.7 479c19.27 0 30.6 3.38 39.52 11.3 8.78 7.77 11.96 18.23 11.96 33.91Zm-37.41 28.28v-20.43l-14.07.94c-9.16.37-14.68 4.82-14.68 12.2 0 7.55 5.4 12.23 14.42 12.23 6.76-.02 12.25-3.43 14.33-4.95Zm129.95-23.67c-54.91 12.83-81.38 43.76-85.19 48.51a2.9 2.9 0 0 0-.47.94h43.46l18.19-29.94 18.39 29.94h43.46l-.42-.87Zm10.46-17.93.65-.84 43-53.88h-41.69l-36.46 54.27-14.33-28.81H398l34.37 45.94a217.87 217.87 0 0 1 57.8-16.69Zm79.66-65.63-22.77 65.14c11.75 1.31 22.58 3 32 5.63l13.72-49.79 16 58.07c12 7.91 16.52 12.29 17 12.59-31.27-9.28-58.9-13.36-83.17-13.94l-18.77 54.43-.18.87h40.66l5.24-20.78h44.25l5.44 20.78H662l-46.17-133Zm148.4 103c-14.24 0-22.74-7.55-22.74-20.19 0-12 8.94-20.4 21.74-20.4a42.22 42.22 0 0 1 20 5.07l5.7-27.21c-4.25-2-15.7-6.52-32.78-6.52-25.66 0-53.28 15.53-53.28 49.64s27.62 49.65 53.28 49.65c18.71 0 29.88-5.38 33.77-7.66l-6.59-27.52a40.5 40.5 0 0 1-19.1 5.09Zm98.88.28c-3.31 0-10.65 0-10.65-10v-27.8h20.79v-29.1h-20.78v-25.48H768v25.46h-16.1v29.1H768v32.78c0 13.51 1.77 22.19 7.25 27.26 6 5.3 13.95 8 25.34 8 10.65 0 21.41-2.53 26.48-3.64l.42-27.32a90.48 90.48 0 0 1-10.37.69Z" style="fill:#fff"/>
</g><g id="hat" transform="rotate(-19.664861,2554.5888,-1846.2773)"><path id="🎅" style="fill:rgb(255, 69, 58);stroke:#ffffff;stroke-width:39.4767;stroke-linecap:square;stroke-linejoin:round;stroke-miterlimit:5;stroke-dasharray:none;stroke-opacity:1" d="M 1.3888427 -777.64079 C -126.41754 -822.85625 -272.88081 -794.17541 -427.74092 -723.17061 L -411.15071 -760.0823 L -459.32489 -749.02795 L -495.42034 -783.89788 L -500.16434 -732.99008 L -543.31109 -708.17992 L -498.06911 -687.77279 L -488.63916 -637.57198 L -455.93489 -675.86625 L -406.96025 -669.64773 L -425.31773 -701.97648 C -290.88513 -689.16754 -86.608888 -639.13439 -273.63981 -347.58743 C -128.15384 -457.46783 0.38614654 -456.79247 307.39427 -419.56777 C 228.26451 -624.2273 123.30628 -734.50873 1.3888427 -777.64079 z "/></g></svg>
