<svg xmlns="http://www.w3.org/2000/svg" viewBox="0 0 1536 1536">
   <g id="original" transform="translate(256,256)"><circle cx="512" cy="512" r="512" style="fill:#71c700"/>
   <path d="M512 456.56A54.45 54.45 0 1 1 457.54 511 54.45 54.45 0 0 1 512 456.56Zm0 163.35a54.45 54.45 0 1 1-54.45 54.45A54.45 54.45 0 0 1 512 619.91ZM348.64 456.56A54.45 54.45 0 1 1 294.19 511a54.45 54.45 0 0 1 54.45-54.44Zm0 163.35a54.45 54.45 0 1 1-54.45 54.45 54.45 54.45 0 0 1 54.45-54.45Zm326.71-163.35A54.45 54.45 0 1 1 620.89 511a54.45 54.45 0 0 1 54.46-54.44Zm3.34-161.37H345.31a51.14 51.14 0 0 0-51.15 51.15v4a51.15 51.15 0 0 0 51.15 51.15h333.38a51.15 51.15 0 0 0 51.15-51.15v-4a51.15 51.15 0 0 0-51.16-51.15Zm-3.34 324.72a54.45 54.45 0 1 1-54.45 54.45 54.45 54.45 0 0 1 54.45-54.45Z" style="fill:#fff"/>
</g><g id="hat" transform="rotate(-19.664861,2554.5888,-1846.2773)"><path id="🎅" style="fill:rgb(255, 53, 40);stroke:#ffffff;stroke-width:39.4767;stroke-linecap:square;stroke-linejoin:round;stroke-miterlimit:5;stroke-dasharray:none;stroke-opacity:1" d="M 1.3888427 -777.64079 C -126.41754 -822.85625 -272.88081 -794.17541 -427.74092 -723.17061 L -411.15071 -760.0823 L -459.32489 -749.02795 L -495.42034 -783.89788 L -500.16434 -732.99008 L -543.31109 -708.17992 L -498.06911 -687.77279 L -488.63916 -637.57198 L -455.93489 -675.86625 L -406.96025 -669.64773 L -425.31773 -701.97648 C -290.88513 -689.16754 -86.608888 -639.13439 -273.63981 -347.58743 C -128.15384 -457.46783 0.38614654 -456.79247 307.39427 -419.56777 C 228.26451 -624.2273 123.30628 -734.50873 1.3888427 -777.64079 z "/></g></svg>
