<svg xmlns="http://www.w3.org/2000/svg" viewBox="0 0 1536 1536">
   <g id="original" transform="translate(256,256)"><circle cx="512" cy="512" r="512" style="fill:#c90000"/>
   <path d="m512 781 72-404.57c68.57 0 90.19 7.52 93.32 38.21 0 0 46-17.15 69.2-52C655.95 320.71 565 318.82 565 318.82l-53.08 64.65h.08l-53-64.66s-91 1.89-181.48 43.84c23.18 34.83 69.19 52 69.19 52 3.14-30.69 24.74-38.21 92.85-38.26L512 781m0-480.85c73.18-.56 156.94 11.32 242.69 48.69 11.46-20.63 14.41-29.74 14.41-29.74C675.36 282 587.58 269.32 512 269c-75.59.32-163.36 13-257.09 50.09 0 0 4.18 11.23 14.4 29.74C355 311.47 438.81 299.59 512 300.15" style="fill:#fff"/>
</g><g id="hat" transform="rotate(-19.664861,2554.5888,-1846.2773)"><path id="🎅" style="fill:rgb(255, 15, 68);stroke:#ffffff;stroke-width:39.4767;stroke-linecap:square;stroke-linejoin:round;stroke-miterlimit:5;stroke-dasharray:none;stroke-opacity:1" d="M 1.3888427 -777.64079 C -126.41754 -822.85625 -272.88081 -794.17541 -427.74092 -723.17061 L -411.15071 -760.0823 L -459.32489 -749.02795 L -495.42034 -783.89788 L -500.16434 -732.99008 L -543.31109 -708.17992 L -498.06911 -687.77279 L -488.63916 -637.57198 L -455.93489 -675.86625 L -406.96025 -669.64773 L -425.31773 -701.97648 C -290.88513 -689.16754 -86.608888 -639.13439 -273.63981 -347.58743 C -128.15384 -457.46783 0.38614654 -456.79247 307.39427 -419.56777 C 228.26451 -624.2273 123.30628 -734.50873 1.3888427 -777.64079 z "/></g></svg>
