<svg xmlns="http://www.w3.org/2000/svg" viewBox="0 0 1536 1536">
   <g id="original" transform="translate(256,256)"><circle cx="512" cy="512" r="512" style="fill:#0052cc"/>
   <path d="M680.9 290.4H343.1c-29.1 0-52.7 23.6-52.7 52.7v337.8c0 29.1 23.6 52.7 52.7 52.7h337.8c29.1 0 52.7-23.6 52.7-52.7V343.1c0-29.1-23.6-52.7-52.7-52.7zM481.3 609.6c0 9.7-7.8 17.5-17.5 17.5h-74c-9.7 0-17.5-7.8-17.5-17.5V389.7c0-9.7 7.8-17.5 17.5-17.5h74c9.7 0 17.5 7.8 17.5 17.5v219.9zm170.5-100.9c.2 9.7-7.5 17.7-17.2 17.9h-74.4c-9.7 0-17.5-7.8-17.5-17.5V389.7c0-9.7 7.8-17.5 17.5-17.5h74c9.7 0 17.5 7.8 17.5 17.5v119z" style="fill:#fff"/>
</g><g id="hat" transform="rotate(-19.664861,2554.5888,-1846.2773)"><path id="🎅" style="fill:rgb(255, 38, 41);stroke:#ffffff;stroke-width:39.4767;stroke-linecap:square;stroke-linejoin:round;stroke-miterlimit:5;stroke-dasharray:none;stroke-opacity:1" d="M 1.3888427 -777.64079 C -126.41754 -822.85625 -272.88081 -794.17541 -427.74092 -723.17061 L -411.15071 -760.0823 L -459.32489 -749.02795 L -495.42034 -783.89788 L -500.16434 -732.99008 L -543.31109 -708.17992 L -498.06911 -687.77279 L -488.63916 -637.57198 L -455.93489 -675.86625 L -406.96025 -669.64773 L -425.31773 -701.97648 C -290.88513 -689.16754 -86.608888 -639.13439 -273.63981 -347.58743 C -128.15384 -457.46783 0.38614654 -456.79247 307.39427 -419.56777 C 228.26451 -624.2273 123.30628 -734.50873 1.3888427 -777.64079 z "/></g></svg>
