<svg xmlns="http://www.w3.org/2000/svg" viewBox="0 0 1536 1536">
   <g id="original" transform="translate(256,256)"><circle cx="512" cy="512" r="512" style="fill:#840010"/>
   <path d="M301.6 276.4c-25.2 0-45.6 20.4-45.6 45.6v420.9c0 1.6.1 3.2.2 4.8 16.9-6.3 34.9-13.2 53.9-20.8 132.2-52.8 240.2-97.6 240.3-148.3 0-1.6-.1-3.3-.3-4.9-6.8-50-126.3-65.5-126.2-88.4 0-1.2.4-2.5 1.1-3.8 14.4-25.1 71.2-23.9 92.2-25.7 21-1.8 70.1-1.4 72.5-16.4.1-.5.1-.9.1-1.4.1-13.9-33.8-19.4-33.8-19.4s41.1 6.1 41 22.1c0 .8-.1 1.6-.3 2.4-4.4 17.2-40.6 20.4-64.5 21.6-22.6 1.1-57.1 3.7-57.2 14.8 0 .6.1 1.3.3 2 5.4 16.2 131.7 23.9 212.5 65.9 46.5 24.1 69.6 64.6 80.2 106.4V322c0-25.2-20.4-45.6-45.6-45.6H301.6z" style="fill:#fff"/>
</g><g id="hat" transform="rotate(-19.664861,2554.5888,-1846.2773)"><path id="🎅" style="fill:rgb(255, 84, 46);stroke:#ffffff;stroke-width:39.4767;stroke-linecap:square;stroke-linejoin:round;stroke-miterlimit:5;stroke-dasharray:none;stroke-opacity:1" d="M 1.3888427 -777.64079 C -126.41754 -822.85625 -272.88081 -794.17541 -427.74092 -723.17061 L -411.15071 -760.0823 L -459.32489 -749.02795 L -495.42034 -783.89788 L -500.16434 -732.99008 L -543.31109 -708.17992 L -498.06911 -687.77279 L -488.63916 -637.57198 L -455.93489 -675.86625 L -406.96025 -669.64773 L -425.31773 -701.97648 C -290.88513 -689.16754 -86.608888 -639.13439 -273.63981 -347.58743 C -128.15384 -457.46783 0.38614654 -456.79247 307.39427 -419.56777 C 228.26451 -624.2273 123.30628 -734.50873 1.3888427 -777.64079 z "/></g></svg>
