<svg xmlns="http://www.w3.org/2000/svg" viewBox="0 0 1536 1536">
   <g id="original" transform="translate(256,256)"><circle cx="512" cy="512" r="512"/>
   <path d="M303.95 584.78c26.94 0 47.77-20.84 47.77-51.67v-120h29.16v194.45H352V589.5c-13.05 13.61-31.11 21.39-51.39 21.39-41.67 0-73.61-30.28-73.61-76.09V413.14h29.16v120c0 31.39 20.55 51.67 47.78 51.67m98.58 22.77h27.79v-17.8a70.68 70.68 0 0 0 50.57 21.11c41.67 0 74.44-33.05 74.44-73.88a73.86 73.86 0 0 0-74.44-74.17 70 70 0 0 0-50.27 21.11v-70.83h-28.06Zm76.43-21.38a49.17 49.17 0 1 1 48.6-49.2c0 27.22-21.94 49.17-48.61 49.17m160.28-123.06c-41.39 0-72.78 33.61-72.78 73.61 0 42.22 32.78 73.88 75.27 73.88 25.83 0 46.94-11.39 61.11-30.28l-20.28-15c-10.55 14.17-24.43 20.84-40.83 20.84-23.87 0-43-17.22-46.93-40.28H710v-9.17c0-42.22-30-73.61-70.83-73.61m-43.89 60.56c5-21.67 22.5-36.11 43.33-36.11S677 502 681.72 523.67h-86.39M797 490.91v-26.12h-9.72c-15.56 0-26.95 7.22-33.89 18.61v-17.51H725.6v141.67h28.06V527c0-21.94 13.33-36.11 31.67-36.11Z" style="fill:#fff"/>
</g><g id="hat" transform="rotate(-19.664861,2554.5888,-1846.2773)"><path id="🎅" style="fill:rgb(255, 98, 77);stroke:#ffffff;stroke-width:39.4767;stroke-linecap:square;stroke-linejoin:round;stroke-miterlimit:5;stroke-dasharray:none;stroke-opacity:1" d="M 1.3888427 -777.64079 C -126.41754 -822.85625 -272.88081 -794.17541 -427.74092 -723.17061 L -411.15071 -760.0823 L -459.32489 -749.02795 L -495.42034 -783.89788 L -500.16434 -732.99008 L -543.31109 -708.17992 L -498.06911 -687.77279 L -488.63916 -637.57198 L -455.93489 -675.86625 L -406.96025 -669.64773 L -425.31773 -701.97648 C -290.88513 -689.16754 -86.608888 -639.13439 -273.63981 -347.58743 C -128.15384 -457.46783 0.38614654 -456.79247 307.39427 -419.56777 C 228.26451 -624.2273 123.30628 -734.50873 1.3888427 -777.64079 z "/></g></svg>
