<svg xmlns="http://www.w3.org/2000/svg" viewBox="0 0 1536 1536">
   <g id="original" transform="translate(256,256)"><circle cx="512" cy="512" r="512" style="fill:#e9500e"/>
   <path d="M325.16 423.51A74.16 74.16 0 1 1 251 497.67a74.16 74.16 0 0 1 74.16-74.16ZM634 260.89a74.16 74.16 0 1 1-74.16 74.16A74.16 74.16 0 0 1 634 260.89ZM492.42 688.53a180.61 180.61 0 0 1-123.17-93.93 106.76 106.76 0 0 1-63.41 7.79 241.43 241.43 0 0 0 173.83 145.68 244.34 244.34 0 0 0 52.66 5.42 106.12 106.12 0 0 1-21.71-62c-6.12-.68-12.22-1.67-18.2-2.96Zm124.89-73.75a74.16 74.16 0 1 1-74.16 74.16 74.16 74.16 0 0 1 74.16-74.16Zm103.2 46.92A242.63 242.63 0 0 0 732.67 377 106.89 106.89 0 0 1 691 425.86a181.82 181.82 0 0 1-6 180.59 106.35 106.35 0 0 1 35.51 55.25ZM319.44 391.32q2.82-.15 5.65-.15a107 107 0 0 1 56.24 16A180.87 180.87 0 0 1 527 329.29a107.53 107.53 0 0 1 22.5-60.14c-93.29-7.39-183.91 40.73-230.06 122.17Z" style="fill:#fff"/>
</g><g id="hat" transform="rotate(-19.664861,2554.5888,-1846.2773)"><path id="🎅" style="fill:rgb(255, 26, 38);stroke:#ffffff;stroke-width:39.4767;stroke-linecap:square;stroke-linejoin:round;stroke-miterlimit:5;stroke-dasharray:none;stroke-opacity:1" d="M 1.3888427 -777.64079 C -126.41754 -822.85625 -272.88081 -794.17541 -427.74092 -723.17061 L -411.15071 -760.0823 L -459.32489 -749.02795 L -495.42034 -783.89788 L -500.16434 -732.99008 L -543.31109 -708.17992 L -498.06911 -687.77279 L -488.63916 -637.57198 L -455.93489 -675.86625 L -406.96025 -669.64773 L -425.31773 -701.97648 C -290.88513 -689.16754 -86.608888 -639.13439 -273.63981 -347.58743 C -128.15384 -457.46783 0.38614654 -456.79247 307.39427 -419.56777 C 228.26451 -624.2273 123.30628 -734.50873 1.3888427 -777.64079 z "/></g></svg>
