<svg xmlns="http://www.w3.org/2000/svg" viewBox="0 0 1536 1536">
   <g id="original" transform="translate(256,256)"><circle cx="512" cy="512" r="512" style="fill:#ed1c24"/>
   <path d="M640 442.62c.77 8.48-.77 16.19-4.63 22.35-31.62 54.74-63.23 110.23-94.85 164.97-6.17 10.02-14.66 16.19-26.22 16.96-13.11.77-23.14-4.63-30.07-16.19-20.05-34.69-40.1-69.38-59.37-103.3-12.34-20.82-23.9-41.63-36.25-63.21-12.34-21.58 1.55-47.03 26.22-48.56 13.11-.77 23.14 5.4 29.3 16.19 9.26 15.42 17.74 30.84 26.22 46.25 6.17 10.79 12.34 22.35 19.27 33.14 9.25 16.19 23.14 24.67 41.64 26.21 26.22 1.55 50.89-17.73 53.97-45.48 0-2.31.77-3.85.77-5.4 0-9.25-1.55-16.96-5.4-23.9-10.03-19.27.77-41.63 21.59-46.25 16.96-3.85 35.47 9.25 37.78 26.21h.01ZM768 512c0 111.78 0 174.21-40.86 215.08-40.86 40.85-103.33 40.85-215.14 40.85s-174.26 0-215.14-40.85C256 686.23 256 623.78 256 512s0-174.21 40.86-215.08c40.86-40.85 103.33-40.85 215.14-40.85s174.26 0 215.14 40.85C768 337.77 768 400.22 768 512ZM646.94 377.09c-74.79-74.77-195.85-74.77-270.65 0-74.79 74.77-74.79 196.57 0 271.35 74.79 74.77 195.85 74.77 270.65 0 74.79-75.54 74.79-196.57 0-271.35Z" style="fill:#fff"/>
</g><g id="hat" transform="rotate(-19.664861,2554.5888,-1846.2773)"><path id="🎅" style="fill:rgb(255, 100, 61);stroke:#ffffff;stroke-width:39.4767;stroke-linecap:square;stroke-linejoin:round;stroke-miterlimit:5;stroke-dasharray:none;stroke-opacity:1" d="M 1.3888427 -777.64079 C -126.41754 -822.85625 -272.88081 -794.17541 -427.74092 -723.17061 L -411.15071 -760.0823 L -459.32489 -749.02795 L -495.42034 -783.89788 L -500.16434 -732.99008 L -543.31109 -708.17992 L -498.06911 -687.77279 L -488.63916 -637.57198 L -455.93489 -675.86625 L -406.96025 -669.64773 L -425.31773 -701.97648 C -290.88513 -689.16754 -86.608888 -639.13439 -273.63981 -347.58743 C -128.15384 -457.46783 0.38614654 -456.79247 307.39427 -419.56777 C 228.26451 -624.2273 123.30628 -734.50873 1.3888427 -777.64079 z "/></g></svg>
