<svg xmlns="http://www.w3.org/2000/svg" viewBox="0 0 1536 1536">
   <g id="original" transform="translate(256,256)"><circle cx="512" cy="512" r="512" style="fill:#f78e1e"/>
   <path d="M577.21 391.86c24.15 0 48.31-.05 72.45 0 12.66 10.43 25.13 21.11 37.72 31.64l183.35 154.26c3 2.62 6.22 5 9 7.79h-72.35Q781.72 564 756 542.43q-25.71 21.57-51.4 43.13h-60.8c-3.41-3.65-6.53-7.65-9.76-11.5v.09c-6.54-7.85-13.13-15.65-19.68-23.48-33.65 0-67.31.05-101 0 8.45-10.18 17-20.27 25.49-30.44h49.82c-12.64-15.2-25.4-30.29-38.09-45.45q-66.3 78.71-132.54 157.45h-60.88c12.89-15.63 26.08-31 39.07-46.58h-64.66q-17.1-47.11-34.27-94.2c-6.46 17.21-12.61 34.54-18.93 51.8q-7.73 21.21-15.44 42.41h-65.55q-24.26-67-48.68-133.84c-1.57-4.43-3.3-8.81-4.75-13.27h49.54c12.31 33.53 24.38 67.16 36.73 100.68q18.23-50.36 36.62-100.66h60.86q18.3 50.04 36.55 100.23c6.3-16.86 12.33-33.81 18.53-50.71l18-49.64h49.67q-26.45 72.89-53 145.73 61.35-72.83 122.65-145.72h61q46.81 55.65 93.5 111.4c15-12.64 30.1-25.2 45.09-37.88q-71.28-60.04-142.48-120.12Zm207.46 65.5c-4.14 3.56-8.49 6.88-12.48 10.59 5.32 4.78 10.95 9.23 16.39 13.89q9.88 8.27 19.75 16.56 21.07-17.6 42.1-35.25c9.87-8.2 19.61-16.57 29.57-24.66v-.17c-6-.27-12 .21-18 .11h-53.7a2.26 2.26 0 0 0-1.76.64 7038.92 7038.92 0 0 1-21.87 18.29Z" style="fill:#fff"/>
</g><g id="hat" transform="rotate(-19.664861,2554.5888,-1846.2773)"><path id="🎅" style="fill:rgb(255, 15, 25);stroke:#ffffff;stroke-width:39.4767;stroke-linecap:square;stroke-linejoin:round;stroke-miterlimit:5;stroke-dasharray:none;stroke-opacity:1" d="M 1.3888427 -777.64079 C -126.41754 -822.85625 -272.88081 -794.17541 -427.74092 -723.17061 L -411.15071 -760.0823 L -459.32489 -749.02795 L -495.42034 -783.89788 L -500.16434 -732.99008 L -543.31109 -708.17992 L -498.06911 -687.77279 L -488.63916 -637.57198 L -455.93489 -675.86625 L -406.96025 -669.64773 L -425.31773 -701.97648 C -290.88513 -689.16754 -86.608888 -639.13439 -273.63981 -347.58743 C -128.15384 -457.46783 0.38614654 -456.79247 307.39427 -419.56777 C 228.26451 -624.2273 123.30628 -734.50873 1.3888427 -777.64079 z "/></g></svg>
