<svg xmlns="http://www.w3.org/2000/svg" viewBox="0 0 1536 1536">
   <g id="original" transform="translate(256,256)"><circle cx="512" cy="512" r="512" style="fill:#3067f0"/>
   <path d="M506.7 258.91a28.05 28.05 0 0 1 1.82-2.91q56.07 83.79 112.32 167.47Q493.92 520.9 367 618.32c-23.25-.06-46.5 0-69.76 0q38.7-66.78 77.56-133.48C395.52 449.18 416.13 413.5 437 378zM277.2 590.23Q324 510 370.72 429.62l.54-1.25Q313.55 387.79 256 347q10.65 121.62 21.2 243.23zm467.6 29.93Q756.42 486.74 768 353.3 594.29 486.69 420.66 620.17zm-468.2 86.06h467.76v-56.08H276.63q-.04 28.04-.04 56.09z" style="fill:#fff"/>
</g><g id="hat" transform="rotate(-19.664861,2554.5888,-1846.2773)"><path id="🎅" style="fill:rgb(255, 39, 43);stroke:#ffffff;stroke-width:39.4767;stroke-linecap:square;stroke-linejoin:round;stroke-miterlimit:5;stroke-dasharray:none;stroke-opacity:1" d="M 1.3888427 -777.64079 C -126.41754 -822.85625 -272.88081 -794.17541 -427.74092 -723.17061 L -411.15071 -760.0823 L -459.32489 -749.02795 L -495.42034 -783.89788 L -500.16434 -732.99008 L -543.31109 -708.17992 L -498.06911 -687.77279 L -488.63916 -637.57198 L -455.93489 -675.86625 L -406.96025 -669.64773 L -425.31773 -701.97648 C -290.88513 -689.16754 -86.608888 -639.13439 -273.63981 -347.58743 C -128.15384 -457.46783 0.38614654 -456.79247 307.39427 -419.56777 C 228.26451 -624.2273 123.30628 -734.50873 1.3888427 -777.64079 z "/></g></svg>
