<svg xmlns="http://www.w3.org/2000/svg" viewBox="0 0 1536 1536">
   <g id="original" transform="translate(256,256)"><circle cx="512" cy="512" r="512" style="fill:#0ecad4"/>
   <path d="M443.4 723.7h135.9v-103l-32.9-32.9h-70.1l-32.9 32.9v103zm175.9-278.9-32.9 32.9v71.5l32.9 32.9h103V446.2h-103v-1.4zm-40.1-144.5H443.4v103l32.9 32.9h70.1l32.9-32.9v-103zm144.5 423.4v-103l-32.9-32.9h-103v135.9h135.9zM333.2 300.3l-32.9 32.9v103h135.9V300.3h-103zm254.6 0v103l32.9 32.9h103V300.3H587.8zM512 532c-10 0-18.6-8.6-18.6-18.6s8.6-18.6 18.6-18.6c10 0 18.6 8.6 18.6 18.6S522 532 512 532zm-75.8-87.2H300.3v135.9h103l32.9-32.9v-103zm0 175.9-32.9-32.9h-103v135.9h103l32.9-32.9v-70.1z" style="fill:#fff"/>
</g><g id="hat" transform="rotate(-19.664861,2554.5888,-1846.2773)"><path id="🎅" style="fill:rgb(255, 75, 12);stroke:#ffffff;stroke-width:39.4767;stroke-linecap:square;stroke-linejoin:round;stroke-miterlimit:5;stroke-dasharray:none;stroke-opacity:1" d="M 1.3888427 -777.64079 C -126.41754 -822.85625 -272.88081 -794.17541 -427.74092 -723.17061 L -411.15071 -760.0823 L -459.32489 -749.02795 L -495.42034 -783.89788 L -500.16434 -732.99008 L -543.31109 -708.17992 L -498.06911 -687.77279 L -488.63916 -637.57198 L -455.93489 -675.86625 L -406.96025 -669.64773 L -425.31773 -701.97648 C -290.88513 -689.16754 -86.608888 -639.13439 -273.63981 -347.58743 C -128.15384 -457.46783 0.38614654 -456.79247 307.39427 -419.56777 C 228.26451 -624.2273 123.30628 -734.50873 1.3888427 -777.64079 z "/></g></svg>
