<svg xmlns="http://www.w3.org/2000/svg" viewBox="0 0 1536 1536">
   <g id="original" transform="translate(256,256)"><circle cx="512" cy="512" r="512" style="fill:#1cf1bb"/>
   <path d="m389.09 431.6-61.91 133.07-23.1-50.83-9.24-20.33-28.65-61.91h-19.41l37.89 82.25-23.1 50.83-61-133.07h-19.4L252.32 585l3.7 7.39H269l3.7-7.39 23.1-50.83L318.86 585l3.7 7.39h12.94l3.7-7.39 69.3-153.4zm141.39 0-47.13 83.17-47.13-83.17h-20.33l58.22 103.5v57.3h17.56v-57.3l59.14-103.5zm174.66 86.87h137.69v-16.64H705.14zm0 0h137.69v-16.64H705.14zM561 431.6v17.56h100.71L554.51 592.4h135.84v-17.56H589.63L696.82 431.6zm144.16 16.63h137.67V431.6H705.14zm0 144.16h137.67v-16.63H705.14z" style="fill:#fff"/>
</g><g id="hat" transform="rotate(-19.664861,2554.5888,-1846.2773)"><path id="🎅" style="fill:rgb(255, 89, 12);stroke:#ffffff;stroke-width:39.4767;stroke-linecap:square;stroke-linejoin:round;stroke-miterlimit:5;stroke-dasharray:none;stroke-opacity:1" d="M 1.3888427 -777.64079 C -126.41754 -822.85625 -272.88081 -794.17541 -427.74092 -723.17061 L -411.15071 -760.0823 L -459.32489 -749.02795 L -495.42034 -783.89788 L -500.16434 -732.99008 L -543.31109 -708.17992 L -498.06911 -687.77279 L -488.63916 -637.57198 L -455.93489 -675.86625 L -406.96025 -669.64773 L -425.31773 -701.97648 C -290.88513 -689.16754 -86.608888 -639.13439 -273.63981 -347.58743 C -128.15384 -457.46783 0.38614654 -456.79247 307.39427 -419.56777 C 228.26451 -624.2273 123.30628 -734.50873 1.3888427 -777.64079 z "/></g></svg>
