<svg xmlns="http://www.w3.org/2000/svg" viewBox="0 0 1536 1536">
   <g id="original" transform="translate(256,256)"><circle cx="512" cy="512" r="512" style="fill:#ff6900"/>
   <path d="M512 256c-85 0-154.54 5.44-202.82 53.67S256 427.37 256 512.26s4.91 154.35 53.21 202.6S427 768 512 768s154.52-4.91 202.79-53.14S768 597.12 768 512.26s-5-154.52-53.38-202.75S596.86 256 512 256zM360.66 414h120c31.36 0 64.15 1.45 80.3 17.64 15.91 15.91 17.64 47.64 17.71 78.42v96.85a3.2 3.2 0 0 1-3.27 3.09h-41.53a3.2 3.2 0 0 1-3.24-3.16v-98.5c0-17.19-1-34.86-9.9-43.75-7.64-7.68-21.89-9.41-36.69-9.77H408.7a3.2 3.2 0 0 0-3.22 3.14v148.93a3.2 3.2 0 0 1-3.24 3.16h-41.58a3.2 3.2 0 0 1-3.2-3.16V417.15a3.2 3.2 0 0 1 3.2-3.15zm258.79 0H661a3.2 3.2 0 0 1 3.2 3.2v189.7a3.2 3.2 0 0 1-3.2 3.1h-41.54a3.2 3.2 0 0 1-3.22-3.16V417.15a3.2 3.2 0 0 1 3.22-3.18zm-173.16 75.56h43.65a3.17 3.17 0 0 1 3.2 3.14v114.17a3.2 3.2 0 0 1-3.2 3.16h-43.65a3.2 3.2 0 0 1-3.24-3.16V492.69a3.2 3.2 0 0 1 3.24-3.13z" style="fill:#fff"/>
</g><g id="hat" transform="rotate(-19.664861,2554.5888,-1846.2773)"><path id="🎅" style="fill:rgb(255, 124, 119);stroke:#ffffff;stroke-width:39.4767;stroke-linecap:square;stroke-linejoin:round;stroke-miterlimit:5;stroke-dasharray:none;stroke-opacity:1" d="M 1.3888427 -777.64079 C -126.41754 -822.85625 -272.88081 -794.17541 -427.74092 -723.17061 L -411.15071 -760.0823 L -459.32489 -749.02795 L -495.42034 -783.89788 L -500.16434 -732.99008 L -543.31109 -708.17992 L -498.06911 -687.77279 L -488.63916 -637.57198 L -455.93489 -675.86625 L -406.96025 -669.64773 L -425.31773 -701.97648 C -290.88513 -689.16754 -86.608888 -639.13439 -273.63981 -347.58743 C -128.15384 -457.46783 0.38614654 -456.79247 307.39427 -419.56777 C 228.26451 -624.2273 123.30628 -734.50873 1.3888427 -777.64079 z "/></g></svg>
