<svg xmlns="http://www.w3.org/2000/svg" viewBox="0 0 1536 1536">
   <g id="original" transform="translate(256,256)"><circle cx="512" cy="512" r="512" style="fill:#006567"/>
   <path d="M644 256c-11 0-15.81 6.93-19.78 14.08 0 0-159 282.11-164.31 291.35.32.51 104.94 192.49 104.94 192.49 3.63 6.57 9.3 14.08 20.63 14.08h73.69c4.5 0 8-1.66 9.88-4.69 1.9-3.22 1.9-7.38-.19-11.43L564.78 561.66a.46.46 0 0 1 0-.47L728.3 272.13c2-4.07 2.07-8.26.13-11.41s-5.35-4.71-9.79-4.71ZM333.83 357.12c-4.5 0-8.21 1.58-10.09 4.61s-1.66 7.23.43 11.33l49.92 86.4c.09.21.09.34 0 .45l-78.4 138.52c-2.11 4-2 8.13 0 11.29 1.81 3 5.1 5 9.6 5h73.83c11.05 0 16.34-7.42 20.16-14.23l79.66-141-50.73-88.64c-3.67-6.72-9.26-14.06-20.52-14.06h-73.86Z" style="fill:#fff"/>
</g><g id="hat" transform="rotate(-19.664861,2554.5888,-1846.2773)"><path id="🎅" style="fill:rgb(255, 98, 64);stroke:#ffffff;stroke-width:39.4767;stroke-linecap:square;stroke-linejoin:round;stroke-miterlimit:5;stroke-dasharray:none;stroke-opacity:1" d="M 1.3888427 -777.64079 C -126.41754 -822.85625 -272.88081 -794.17541 -427.74092 -723.17061 L -411.15071 -760.0823 L -459.32489 -749.02795 L -495.42034 -783.89788 L -500.16434 -732.99008 L -543.31109 -708.17992 L -498.06911 -687.77279 L -488.63916 -637.57198 L -455.93489 -675.86625 L -406.96025 -669.64773 L -425.31773 -701.97648 C -290.88513 -689.16754 -86.608888 -639.13439 -273.63981 -347.58743 C -128.15384 -457.46783 0.38614654 -456.79247 307.39427 -419.56777 C 228.26451 -624.2273 123.30628 -734.50873 1.3888427 -777.64079 z "/></g></svg>
