<svg xmlns="http://www.w3.org/2000/svg" viewBox="0 0 1536 1536">
   <g id="original" transform="translate(256,256)"><circle cx="512" cy="512" r="512" style="fill:#8cd248"/>
   <path d="M312.68 343.34c-2.63-4.66-6.09-7.76-10.27-9.19a17.5 17.5 0 0 0-6.68-1.19H203l92.5 160.3L347.3 403c-19-32.58-30.43-52.4-34.61-59.68zm415.94 187.52L676.83 621c18.86 32.58 30.31 52.4 34.49 59.68 3.94 6.92 9.55 10.38 16.95 10.38H821l-92.38-160.2zM461 600.32l-51-88.21L513.43 333H409.24l-103 179.16q78.59 136.07 84.86 147.17c6.8 12.06 14.92 20.65 24.35 25.54 8.12 4.18 18.5 6.33 31 6.21 9.19 0 23.39 0 42.49-.12l52.4-90.59zm171.9-235.49c-6.8-12.17-14.92-20.65-24.35-25.54a50.1 50.1 0 0 0-16.11-5.13 84 84 0 0 0-14.92-1.16c-9.19 0-23.39.12-42.49.24l-52.39 90.59H563l51 88.05L510.57 691h104.19q51.38-89.52 103-179.16Q639 375.81 632.9 364.83z" style="fill:#fff"/>
</g><g id="hat" transform="rotate(-19.664861,2554.5888,-1846.2773)"><path id="🎅" style="fill:rgb(255, 52, 51);stroke:#ffffff;stroke-width:39.4767;stroke-linecap:square;stroke-linejoin:round;stroke-miterlimit:5;stroke-dasharray:none;stroke-opacity:1" d="M 1.3888427 -777.64079 C -126.41754 -822.85625 -272.88081 -794.17541 -427.74092 -723.17061 L -411.15071 -760.0823 L -459.32489 -749.02795 L -495.42034 -783.89788 L -500.16434 -732.99008 L -543.31109 -708.17992 L -498.06911 -687.77279 L -488.63916 -637.57198 L -455.93489 -675.86625 L -406.96025 -669.64773 L -425.31773 -701.97648 C -290.88513 -689.16754 -86.608888 -639.13439 -273.63981 -347.58743 C -128.15384 -457.46783 0.38614654 -456.79247 307.39427 -419.56777 C 228.26451 -624.2273 123.30628 -734.50873 1.3888427 -777.64079 z "/></g></svg>
