<svg xmlns="http://www.w3.org/2000/svg" viewBox="0 0 1536 1536">
   <g id="original" transform="translate(256,256)"><circle cx="512" cy="512" r="512"/>
   <path d="M623.6 474.4c21.1 4 36 12.9 44.7 26.7 8.7 13.8 13 35.6 13 65.4 0 59.1-17.8 107.4-53.3 145.1-35.5 37.6-80.9 56.4-136.3 56.4-21.8 0-43-3.9-63.5-11.8s-38.2-18.8-52.9-32.9c-16.9-15.5-29.5-31.8-38-49.1-8.4-17.2-12.7-34.9-12.7-52.9 0-20.2 4.3-35.7 13-46.8 8.7-11 22.4-18.5 41.1-22.5-3.5-8.2-6.1-15.1-7.7-20.7-1.6-5.6-2.5-10-2.5-13 0-10.6 5.6-21.3 16.7-32.4 11.1-11 21.6-16.5 31.5-16.5 4.2 0 8.7.8 13.4 2.3 4.7 1.5 10.1 4 16.2 7.6-18.1-51.1-31.2-90.6-39.4-118.3-8.2-27.8-12.3-46.9-12.3-57.5 0-14.5 3.7-26.1 11.3-34.6 7.5-8.6 17.7-12.8 30.6-12.8 22 0 49.9 49.2 83.7 147.7 5.9 16.9 10.3 29.9 13.4 39 2.6-7.3 6.2-17.6 10.9-30.9 33.8-97.5 62.8-146.3 87.2-146.3 12 0 21.5 4 28.7 12.1 7.2 8.1 10.7 18.9 10.7 32.5 0 10.3-3.9 29.2-11.8 56.6-7.8 27.4-19.7 63.3-35.7 107.6zM371.8 617.9c3.3 4 7.9 9.8 13.7 17.6 15.5 21.3 29.8 32 42.9 32 4.4 0 8.4-1.4 12-4.2 3.5-2.8 5.3-5.7 5.3-8.8 0-3.5-2.3-9.4-7-17.6-4.7-8.2-11.1-17.5-19.3-27.8-9.4-12-17.2-20.7-23.4-26.2-6.2-5.5-11.2-8.3-14.9-8.3-8.2 0-15.8 4.4-22.7 13.2-6.9 8.8-10.4 19.2-10.4 31.1 0 9.6 2.4 20.3 7.2 32.2 4.8 11.8 11.8 23.7 20.9 35.7 13.8 18.5 31 32.8 51.5 42.7 20.5 10 43.2 14.9 68 14.9 45.7 0 84-17.1 114.8-51.2 30.8-34.1 46.2-76.8 46.2-128.2 0-15.7-1.2-28.2-3.5-37.5s-6.2-16-11.6-20.2c-9.6-8-28.3-15.1-56.1-21.5-27.8-6.3-56.8-9.5-87-9.5-8.4 0-14.4 1.4-17.9 4.2-3.5 2.8-5.3 7.6-5.3 14.4 0 15.9 8.9 27.5 26.7 34.6 17.8 7.2 46.6 10.7 86.5 10.7h14.4c3.3 0 5.9 1.2 7.9 3.7s3.3 6.2 4 11.1c-4 3.8-12.2 8-24.6 12.8-12.4 4.8-21.9 9.6-28.5 14.2-14.1 10.3-25.4 22.6-33.9 36.7-8.6 14.2-12.8 27.6-12.8 40.3 0 7.7 1.8 17.1 5.5 28 3.6 10.9 5.5 17.6 5.5 20.2v2.5l-.7 3.2c-10.3-.7-18.5-6.7-24.4-18.1-6-11.4-9-26.6-9-45.5v-3.2c-1.9 1.6-3.7 2.8-5.5 3.5-1.8.7-3.7 1.1-5.8 1.1-2.1 0-4.1-.2-6-.5-1.9-.4-4-.9-6.3-1.6.7 2.6 1.2 5.1 1.6 7.6.4 2.5.5 4.4.5 5.8 0 8.7-3.4 16.1-10.2 22.3-6.8 6.2-14.9 9.3-24.3 9.3-14.8 0-29.8-7.2-45-21.6-15.2-14.4-22.9-28.5-22.9-42.4 0-2.6.3-4.9.9-6.9.6-1.7 1.6-3.4 3-4.8zm105.5 8.4c4 0 7.6-1.8 10.9-5.5 3.3-3.6 4.9-7.6 4.9-11.8 0-4.5-3.2-14.8-9.7-31.1-6.5-16.3-14.5-32.3-24.1-48-7-11.7-13.9-20.6-20.7-26.6-6.8-6-13.2-9-19.3-9-4.9 0-10.4 3.1-16.4 9.3-6 6.2-9 12-9 17.4 0 5.6 2.9 14.1 8.8 25.3 5.9 11.3 13.7 23.2 23.6 35.9 10.3 13.8 20 24.6 29.2 32.4 9.2 7.8 16.4 11.7 21.8 11.7zm34.5-169.9-38-109.7c-9.8-27.9-17.5-46.1-22.9-54.7-5.4-8.6-11.3-12.8-17.6-12.8-4.9 0-8.9 1.9-12 5.6-3 3.8-4.6 8.8-4.6 15.1 0 10.8 4.1 29.5 12.3 56.3 8.2 26.7 20.5 61.8 36.9 105.1 1.4-2.6 3.4-4.4 6-5.5 2.6-1.1 6.1-1.6 10.6-1.6 1.4 0 4.2.1 8.4.4 4.4.3 11.3.9 20.9 1.8zM551.5 563c-10.1-.5-19.6-1.5-28.7-3.2-9-1.6-17.6-4-25.8-7 3.7 7.5 7.1 15 10 22.5 2.9 7.5 5.3 14.9 7.2 22.2 5.6-7 11.5-13.4 17.8-19.2 6.2-5.8 12.7-10.9 19.5-15.3zm46.8-94.6c15.7-42.7 28-77.9 36.7-105.7 8.8-27.8 13.2-44.8 13.2-51.2 0-6.8-1.5-12.1-4.4-15.8-2.9-3.7-7-5.6-12.1-5.6-6.6 0-13.2 5.5-20 16.4-6.8 10.9-14.3 28.4-22.5 52.6L554 460.7l44.3 7.7z" style="fill:#fff"/>
</g><g id="hat" transform="rotate(-19.664861,2554.5888,-1846.2773)"><path id="🎅" style="fill:rgb(255, 106, 3);stroke:#ffffff;stroke-width:39.4767;stroke-linecap:square;stroke-linejoin:round;stroke-miterlimit:5;stroke-dasharray:none;stroke-opacity:1" d="M 1.3888427 -777.64079 C -126.41754 -822.85625 -272.88081 -794.17541 -427.74092 -723.17061 L -411.15071 -760.0823 L -459.32489 -749.02795 L -495.42034 -783.89788 L -500.16434 -732.99008 L -543.31109 -708.17992 L -498.06911 -687.77279 L -488.63916 -637.57198 L -455.93489 -675.86625 L -406.96025 -669.64773 L -425.31773 -701.97648 C -290.88513 -689.16754 -86.608888 -639.13439 -273.63981 -347.58743 C -128.15384 -457.46783 0.38614654 -456.79247 307.39427 -419.56777 C 228.26451 -624.2273 123.30628 -734.50873 1.3888427 -777.64079 z "/></g></svg>
