<svg xmlns="http://www.w3.org/2000/svg" viewBox="0 0 1536 1536">
   <g id="original" transform="translate(256,256)"><circle cx="512" cy="512" r="512" style="fill:#356eb9"/>
   <path d="M414.17 252.34c47.78.2 95.59-.17 143.37.06 10.51-.29 21.26 5.55 24.11 16.18Q682.51 506.9 783 745.34c-46.74.12-93.44.32-140.15-.09-17.2-42.09-35.26-83.83-52.83-125.71-46.65 29.51-93.85 58.12-140.47 87.69-23.82 14.55-47.66 30.44-75.14 37.12-13.62 3.11-31.25 1.37-38.66-12.23-22.48-41-44.85-82.12-66.75-123.41 7.58 6.48 17 10.57 27.16 10.37 97.89-.09 195.74.17 293.63-.15q-70.45-167.13-141-334.23c-3.57-8.39-6.85-17.6-14.35-23.38-5.74-5-13.21-6.85-20.27-8.98ZM275.59 559.59c-4.3 10.51-6.91 24 .81 33.64 6.39 8.86 18 11.15 28.29 11.33 30.32.06 60.62-.06 90.91 0q43.4-102.32 86.57-204.69c-16.88-38.66-32.44-77.9-49.38-116.53-3.83-9.5-12.49-18.59-23.67-16.76C396.6 268 392 281.42 388 291.53q-56.22 134.02-112.41 268.06Z" style="fill:#fff"/>
</g><g id="hat" transform="rotate(-19.664861,2554.5888,-1846.2773)"><path id="🎅" style="fill:rgb(255, 77, 87);stroke:#ffffff;stroke-width:39.4767;stroke-linecap:square;stroke-linejoin:round;stroke-miterlimit:5;stroke-dasharray:none;stroke-opacity:1" d="M 1.3888427 -777.64079 C -126.41754 -822.85625 -272.88081 -794.17541 -427.74092 -723.17061 L -411.15071 -760.0823 L -459.32489 -749.02795 L -495.42034 -783.89788 L -500.16434 -732.99008 L -543.31109 -708.17992 L -498.06911 -687.77279 L -488.63916 -637.57198 L -455.93489 -675.86625 L -406.96025 -669.64773 L -425.31773 -701.97648 C -290.88513 -689.16754 -86.608888 -639.13439 -273.63981 -347.58743 C -128.15384 -457.46783 0.38614654 -456.79247 307.39427 -419.56777 C 228.26451 -624.2273 123.30628 -734.50873 1.3888427 -777.64079 z "/></g></svg>
