<svg xmlns="http://www.w3.org/2000/svg" viewBox="0 0 1536 1536">
   <g id="original" transform="translate(256,256)"><circle cx="512" cy="512" r="512" style="fill:#1aa"/>
   <path d="M657.17 374.43a31.91 31.91 0 0 0-44.49 7.57c-12.5 17.67-26.34 30.77-42.09 39.82q-2.18 1.25-4.41 2.4c-1.37.71-2.76 1.39-4.16 2-14.7 6.81-31.08 10.39-50 11-18.93-.57-35.32-4.15-50-11-19.37-9-35.94-23.45-50.67-44.26a31.91 31.91 0 0 0-52.1 36.87c21 29.73 46.59 51.7 75.94 65.3a173.74 173.74 0 0 0 17.67 7.05c-24.93 18-51.88 43.23-64.79 77.82-13.4 35.9-13.23 74.76.47 109.44 13.11 33.35 37.46 60.41 68.46 76.27 34.58 17.68 78.6 17.72 117.75.09 41.08-18.49 67.88-52.35 71.69-90.59 4-40.25-15.3-76.08-49.17-91.3-35.08-15.76-74.66-4.51-100.82 28.64a31.91 31.91 0 1 0 50.1 39.54c7.77-9.85 16.73-13.48 24.58-10 6.69 3 13.29 11.62 11.79 26.76-1.5 15-14.67 29.83-34.37 38.7-21.32 9.59-45.28 10.08-62.51 1.27s-30.77-24-38.2-42.82c-5.58-14.12-10.12-36.64 0-63.66 7.57-20.26 26.64-39.38 60-60.15 14.17-8.82 29.37-17 44.06-25 16.95-9.17 33-17.86 47.11-27.18 25.1-13.73 47.18-33.92 65.75-60.16a31.91 31.91 0 0 0-7.61-44.48Zm-162.24-60.08a21.64 21.64 0 1 1-6.34 15.3 21.49 21.49 0 0 1 6.34-15.3Zm15.3 89a73.66 73.66 0 1 0-52.08-21.58 73.17 73.17 0 0 0 52.08 21.54Z" style="fill:#fff"/>
</g><g id="hat" transform="rotate(-19.664861,2554.5888,-1846.2773)"><path id="🎅" style="fill:rgb(255, 0, 115);stroke:#ffffff;stroke-width:39.4767;stroke-linecap:square;stroke-linejoin:round;stroke-miterlimit:5;stroke-dasharray:none;stroke-opacity:1" d="M 1.3888427 -777.64079 C -126.41754 -822.85625 -272.88081 -794.17541 -427.74092 -723.17061 L -411.15071 -760.0823 L -459.32489 -749.02795 L -495.42034 -783.89788 L -500.16434 -732.99008 L -543.31109 -708.17992 L -498.06911 -687.77279 L -488.63916 -637.57198 L -455.93489 -675.86625 L -406.96025 -669.64773 L -425.31773 -701.97648 C -290.88513 -689.16754 -86.608888 -639.13439 -273.63981 -347.58743 C -128.15384 -457.46783 0.38614654 -456.79247 307.39427 -419.56777 C 228.26451 -624.2273 123.30628 -734.50873 1.3888427 -777.64079 z "/></g></svg>
