<svg xmlns="http://www.w3.org/2000/svg" viewBox="0 0 1536 1536">
   <g id="original" transform="translate(256,256)"><circle cx="512" cy="512" r="512" style="fill:#de5959"/>
   <path d="m456.56 507.93-4.48-4.48a5.34 5.34 0 0 0-9.14 3.75v63.71a5.33 5.33 0 0 0 5.39 5.3H512a5.34 5.34 0 0 0 3.75-9.14 5.24 5.24 0 0 1 0-7.5l67.82-68a5.24 5.24 0 0 0 0-7.5L577.4 478a5.34 5.34 0 0 1 3.75-9.14h63.71a5.38 5.38 0 0 1 5.39 5.3v63.71a5.34 5.34 0 0 1-9.14 3.75l-4.3-4.3a5.24 5.24 0 0 0-7.5 0L515 651.53a5.35 5.35 0 0 1-7.59 0L367.54 511.68a5.35 5.35 0 0 1 0-7.59l193.77-193.41a5.35 5.35 0 0 0 0-7.59l-45.52-45.52a5.35 5.35 0 0 0-7.59 0L257.58 508.21a5.35 5.35 0 0 0 0 7.59l250.63 250.62a5.35 5.35 0 0 0 7.59 0l250.62-250.63a5.35 5.35 0 0 0 0-7.59L618.9 360.86a5.35 5.35 0 0 0-7.59 0L464.15 508a5.44 5.44 0 0 1-7.59-.09Z" style="fill:#fff"/>
</g><g id="hat" transform="rotate(-19.664861,2554.5888,-1846.2773)"><path id="🎅" style="fill:rgb(255, 23, 37);stroke:#ffffff;stroke-width:39.4767;stroke-linecap:square;stroke-linejoin:round;stroke-miterlimit:5;stroke-dasharray:none;stroke-opacity:1" d="M 1.3888427 -777.64079 C -126.41754 -822.85625 -272.88081 -794.17541 -427.74092 -723.17061 L -411.15071 -760.0823 L -459.32489 -749.02795 L -495.42034 -783.89788 L -500.16434 -732.99008 L -543.31109 -708.17992 L -498.06911 -687.77279 L -488.63916 -637.57198 L -455.93489 -675.86625 L -406.96025 -669.64773 L -425.31773 -701.97648 C -290.88513 -689.16754 -86.608888 -639.13439 -273.63981 -347.58743 C -128.15384 -457.46783 0.38614654 -456.79247 307.39427 -419.56777 C 228.26451 -624.2273 123.30628 -734.50873 1.3888427 -777.64079 z "/></g></svg>
