<svg xmlns="http://www.w3.org/2000/svg" viewBox="0 0 1536 1536">
   <g id="original" transform="translate(256,256)"><circle cx="512" cy="512" r="512" style="fill:#0098d0"/>
   <path d="M450.2 435c7.5-40.2 19.6-82.4 19.6-82.4 18.1-64.8 69.9-78.4 69.9-78.4 50.3-17.1 79.9 17.1 79.9 17.1v.5c2.5 3 3.5 6 3.5 6 1.5 1.5 2 4 2 6.5 0 7-4 12.6-9.6 15.6h-.5c-39.7 18.1-67.9 49.8-67.9 49.8-70.4 77.9-104.6 216.7-104.6 216.7s-34 143.6-125 119c0 0-57.3-14.1-72.4-97.5-3.5-22.1 2.5-27.1 2.5-27.1 9.6-7.5 20.6 6 20.6 6C296.4 621 333 618 333 618c4.5 0 55.3-.5 96-106.6.1.5 13.7-32.7 21.2-76.4zm257.4 97c-73.4-12.1-173.9 192.5-173.9 192.5-6.5 12.1-13.6 9.6-13.6 9.6-8-1.5-4.5-13.6-4.5-13.6s54.8-232.7 167.9-251.8c0 0 64.3-10.1 69.4 61.3 0 0 0 21.6-20.6 12.6-.1.5-13.2-8.6-24.7-10.6zm60.8-137.2c-51.8-69.4-126.7-44.2-126.7-44.2C489.9 398.3 445.2 729 445.2 729s-2.5 17.1 8.5 17.6c0 0 10.1 1.5 16.6-15.6 0 0 63.3-294.1 210.6-303.6 0 0 37.7-3 72.4 13.1 0 0 11.1 6.5 20.1-2 0 0 12.1-11.1 3.5-28.7 0 0-3-5.5-8-14.6l-.5-.4z" style="fill:#fff"/>
</g><g id="hat" transform="rotate(-19.664861,2554.5888,-1846.2773)"><path id="🎅" style="fill:rgb(255, 65, 46);stroke:#ffffff;stroke-width:39.4767;stroke-linecap:square;stroke-linejoin:round;stroke-miterlimit:5;stroke-dasharray:none;stroke-opacity:1" d="M 1.3888427 -777.64079 C -126.41754 -822.85625 -272.88081 -794.17541 -427.74092 -723.17061 L -411.15071 -760.0823 L -459.32489 -749.02795 L -495.42034 -783.89788 L -500.16434 -732.99008 L -543.31109 -708.17992 L -498.06911 -687.77279 L -488.63916 -637.57198 L -455.93489 -675.86625 L -406.96025 -669.64773 L -425.31773 -701.97648 C -290.88513 -689.16754 -86.608888 -639.13439 -273.63981 -347.58743 C -128.15384 -457.46783 0.38614654 -456.79247 307.39427 -419.56777 C 228.26451 -624.2273 123.30628 -734.50873 1.3888427 -777.64079 z "/></g></svg>
