<svg xmlns="http://www.w3.org/2000/svg" viewBox="0 0 1536 1536">
   <g id="original" transform="translate(256,256)"><circle cx="512" cy="512" r="512" style="fill:#00b050"/>
   <path d="m737.51 482.63-71.12-39.05-59.74 36.49-.74 37.27-29.11-19.18-39.6 24.26c2.64 62.35 2.29 59.9 2.52 59.9l-97.24 65.49-15.53-104.54 108.31-61.76-40.68-27.17-75.08 38.81-21-143.36 129.12-49.53-91.9-44.26-125.23 39.05 27.87 134.75 42 32.57-31.83 15.1 21 102 29.31 27.48-21 12.73 16.23 78.88L459.83 768c-12-81.21-11.65-78.65-11.45-78.65v-.23L526 633.76c17.16-12.23 15.18-10.83 15.53-10.83l1 24.53 33.77 28.3-.85-77.64 46.58-33.39c14.4-10.25 26.63-18.94 26.75-18.94l-2.17 36 25.16 17.47 6.6-74.69z" style="fill:#fff"/>
</g><g id="hat" transform="rotate(-19.664861,2554.5888,-1846.2773)"><path id="🎅" style="fill:rgb(255, 21, 63);stroke:#ffffff;stroke-width:39.4767;stroke-linecap:square;stroke-linejoin:round;stroke-miterlimit:5;stroke-dasharray:none;stroke-opacity:1" d="M 1.3888427 -777.64079 C -126.41754 -822.85625 -272.88081 -794.17541 -427.74092 -723.17061 L -411.15071 -760.0823 L -459.32489 -749.02795 L -495.42034 -783.89788 L -500.16434 -732.99008 L -543.31109 -708.17992 L -498.06911 -687.77279 L -488.63916 -637.57198 L -455.93489 -675.86625 L -406.96025 -669.64773 L -425.31773 -701.97648 C -290.88513 -689.16754 -86.608888 -639.13439 -273.63981 -347.58743 C -128.15384 -457.46783 0.38614654 -456.79247 307.39427 -419.56777 C 228.26451 -624.2273 123.30628 -734.50873 1.3888427 -777.64079 z "/></g></svg>
