<svg xmlns="http://www.w3.org/2000/svg" viewBox="0 0 1536 1536">
   <g id="original" transform="translate(256,256)"><circle cx="512" cy="512" r="512" style="fill:#21409a"/>
   <path d="M423.4 343.9c7.4-.9 17.7-2.1 29.1-3.2v477.1h-29.1V343.9zm82.3-6.6c-13.8.3-29.2 1.3-43.5 2.6v478H522V337.3c-1 0-2.1-.1-3.1-.1h-13.2zm27.5 480.5h42V341c-13-1.3-27.8-2.6-42-3.3v480.1zm51.6-475.7v475.7H601V343.9c-4.5-.5-10-1.2-16.2-1.8zM512 192.2c-60.5 60.6-98 136.9-98 136.9s58.2-8.1 98-8.1 98 8.1 98 8.1-33.2-72-98-136.9z" style="fill:#fff"/>
</g><g id="hat" transform="rotate(-19.664861,2554.5888,-1846.2773)"><path id="🎅" style="fill:rgb(255, 58, 121);stroke:#ffffff;stroke-width:39.4767;stroke-linecap:square;stroke-linejoin:round;stroke-miterlimit:5;stroke-dasharray:none;stroke-opacity:1" d="M 1.3888427 -777.64079 C -126.41754 -822.85625 -272.88081 -794.17541 -427.74092 -723.17061 L -411.15071 -760.0823 L -459.32489 -749.02795 L -495.42034 -783.89788 L -500.16434 -732.99008 L -543.31109 -708.17992 L -498.06911 -687.77279 L -488.63916 -637.57198 L -455.93489 -675.86625 L -406.96025 -669.64773 L -425.31773 -701.97648 C -290.88513 -689.16754 -86.608888 -639.13439 -273.63981 -347.58743 C -128.15384 -457.46783 0.38614654 -456.79247 307.39427 -419.56777 C 228.26451 -624.2273 123.30628 -734.50873 1.3888427 -777.64079 z "/></g></svg>
