<svg xmlns="http://www.w3.org/2000/svg" viewBox="0 0 1536 1536">
   <g id="original" transform="translate(256,256)"><circle cx="512" cy="512" r="512" style="fill:#27346a"/>
   <path d="M725.8 499.2C707.6 593.7 644.9 626 564.6 626H552c-9.9 0-18.3 6.8-19.8 16.7l-1 5.2-15.7 99.2-1.1 4.2c-1.5 9.4-9.9 16.7-19.8 16.7h-83c-7.3 0-13-6.3-12-13.6l2.4-15h28.2L457 568.3h42.8c115.6 0 188.4-56.2 210.9-162.5 18.9 22.9 22.7 54.9 15.1 93.4zm-39.6-113.3c6.3-39.7 0-66.8-21.4-91.3-24-27.1-66.8-38.6-121.6-38.6H384c-11 0-20.9 8.3-22.4 19.3L294.7 696c-1.6 8.3 5.2 15.7 13.6 15.7h98.1L430.9 555l-.5 4.7c1.6-11 11-19.3 22.5-19.3h47c91.9 0 163.9-37.1 184.8-145.1.4-3.1 1-6.2 1.5-9.4" style="fill:#fff"/>
</g><g id="hat" transform="rotate(-19.664861,2554.5888,-1846.2773)"><path id="🎅" style="fill:rgb(255, 91, 63);stroke:#ffffff;stroke-width:39.4767;stroke-linecap:square;stroke-linejoin:round;stroke-miterlimit:5;stroke-dasharray:none;stroke-opacity:1" d="M 1.3888427 -777.64079 C -126.41754 -822.85625 -272.88081 -794.17541 -427.74092 -723.17061 L -411.15071 -760.0823 L -459.32489 -749.02795 L -495.42034 -783.89788 L -500.16434 -732.99008 L -543.31109 -708.17992 L -498.06911 -687.77279 L -488.63916 -637.57198 L -455.93489 -675.86625 L -406.96025 -669.64773 L -425.31773 -701.97648 C -290.88513 -689.16754 -86.608888 -639.13439 -273.63981 -347.58743 C -128.15384 -457.46783 0.38614654 -456.79247 307.39427 -419.56777 C 228.26451 -624.2273 123.30628 -734.50873 1.3888427 -777.64079 z "/></g></svg>
