<svg xmlns="http://www.w3.org/2000/svg" viewBox="0 0 1536 1536">
   <g id="original" transform="translate(256,256)"><circle cx="512" cy="512" r="512" style="fill:#8b89cc"/>
   <path d="M512 676.2s-23.4-2.3-41.7-15c-18.3-12.7-140.4-100-140.4-100V734s1 20.1 23.1 20.1h317.9C693 754.1 694 734 694 734V561.1s-122.1 87.3-140.4 100.1c-18.2 12.6-41.6 15-41.6 15zm0-434.2s-150.9-4.9-182.1 162.6v114.1s1.3 12.2 35.6 37c34.3 24.8 123.2 94.6 146.5 94.6 23.2 0 112.1-69.8 146.5-94.7 34.3-24.8 35.6-37.1 35.6-37.1V404.6C662.9 237.1 512 242.1 512 242zm103.4 224.8H408.7v-62.2c21-83.2 103.3-84.4 103.3-84.4s82.4 1.2 103.4 84.4v62.2z" style="fill:#fff"/>
</g><g id="hat" transform="rotate(-19.664861,2554.5888,-1846.2773)"><path id="🎅" style="fill:rgb(255, 80, 35);stroke:#ffffff;stroke-width:39.4767;stroke-linecap:square;stroke-linejoin:round;stroke-miterlimit:5;stroke-dasharray:none;stroke-opacity:1" d="M 1.3888427 -777.64079 C -126.41754 -822.85625 -272.88081 -794.17541 -427.74092 -723.17061 L -411.15071 -760.0823 L -459.32489 -749.02795 L -495.42034 -783.89788 L -500.16434 -732.99008 L -543.31109 -708.17992 L -498.06911 -687.77279 L -488.63916 -637.57198 L -455.93489 -675.86625 L -406.96025 -669.64773 L -425.31773 -701.97648 C -290.88513 -689.16754 -86.608888 -639.13439 -273.63981 -347.58743 C -128.15384 -457.46783 0.38614654 -456.79247 307.39427 -419.56777 C 228.26451 -624.2273 123.30628 -734.50873 1.3888427 -777.64079 z "/></g></svg>
