<svg xmlns="http://www.w3.org/2000/svg" viewBox="0 0 1536 1536">
   <g id="original" transform="translate(256,256)"><circle cx="512" cy="512" r="512" style="fill:#0559c9"/>
   <path d="M588.6 385q0-31.49 20.72-58.54t107.68-27V518l-9.91 31.93a212.89 212.89 0 0 1-18.92 43.69 144.75 144.75 0 0 1-26.58 33.49 136.56 136.56 0 0 1-34.46 23.29A175.8 175.8 0 0 1 585 663.93a217.46 217.46 0 0 0 3.61-38.58zM384 324.2h25.69V349H384v-24.8zm25.69 37.69h25.71v24.85h-25.67zM384 393.38h25.7v24.85H384zm-25.67 37.27H384v25.27h-25.64zM307 298.92h25.67v25.28H307zm128.4 326.43q0 32.37 11.94 56.33t26.37 39.91q14.4 16 26.35 23.74l11.94 7.75q-48.19 0-86.27-13.52t-64.44-37.7a163.16 163.16 0 0 1-40.32-57q-14-32.84-14-71V368.11h25.67V505.6h25.7v-24.83H384v55.43h25.69v-93.13h25.71zm94.6 51.89q35.6 1.32 65.34-5.33a163.23 163.23 0 0 0 53.38-22 148.87 148.87 0 0 0 40.78-39.48q17.12-24.15 27.48-57.87v21.34q0 36.37-12.39 67.64a159.64 159.64 0 0 1-36.28 55q-23.87 23.74-58.12 38.37t-77.92 17.29l-15.33-8q-1.79-1.32-29.73-23.29t-38.3-66.3a151.75 151.75 0 0 0 35.38 15.3q20.05 6 45.71 7.33zM358.36 349.47h25.24v24.85h-25.24z" style="fill:#fff"/>
</g><g id="hat" transform="rotate(-19.664861,2554.5888,-1846.2773)"><path id="🎅" style="fill:rgb(255, 125, 112);stroke:#ffffff;stroke-width:39.4767;stroke-linecap:square;stroke-linejoin:round;stroke-miterlimit:5;stroke-dasharray:none;stroke-opacity:1" d="M 1.3888427 -777.64079 C -126.41754 -822.85625 -272.88081 -794.17541 -427.74092 -723.17061 L -411.15071 -760.0823 L -459.32489 -749.02795 L -495.42034 -783.89788 L -500.16434 -732.99008 L -543.31109 -708.17992 L -498.06911 -687.77279 L -488.63916 -637.57198 L -455.93489 -675.86625 L -406.96025 -669.64773 L -425.31773 -701.97648 C -290.88513 -689.16754 -86.608888 -639.13439 -273.63981 -347.58743 C -128.15384 -457.46783 0.38614654 -456.79247 307.39427 -419.56777 C 228.26451 -624.2273 123.30628 -734.50873 1.3888427 -777.64079 z "/></g></svg>
