<svg xmlns="http://www.w3.org/2000/svg" viewBox="0 0 1536 1536">
   <g id="original" transform="translate(256,256)"><circle cx="512" cy="512" r="512" style="fill:#357ac0"/>
   <path d="m765.1 498.1-64.7-155.4c-3.6-9-10.8-15.7-19.3-19.3l-155.4-64.7c-4.5-1.8-9.2-2.7-13.9-2.7-4.5 0-9.4.9-13.5 2.7l-155.4 64.2c-9 3.6-15.7 10.8-19.3 19.3l-64.7 155.4c-1.8 4.5-2.7 9.2-2.7 13.9 0 4.7.9 9.4 2.7 13.9l64.7 156.3c3.6 8.5 10.8 15.7 19.3 19.3l155 64.2c4.5 1.8 9 2.7 13.5 2.7 3.8 0 7.9-.7 11.5-2 .8-.2 1.6-.5 2.4-.7L681.2 701c8.5-3.6 15.7-10.3 19.3-19.3l64.7-156.3c3.5-8.9 3.5-18.8-.1-27.3zm-168.4 80.4V400.2h42.7v221h-39.9c-11.2 0-22.5-4.5-30.1-12.6l-58.8-66-58.4 66c-8.1 8.1-18.9 12.6-30.1 12.6h-39.5v-221h42.7v178.3l85.8-92.5" style="fill:#fff"/>
</g><g id="hat" transform="rotate(-19.664861,2554.5888,-1846.2773)"><path id="🎅" style="fill:rgb(255, 21, 17);stroke:#ffffff;stroke-width:39.4767;stroke-linecap:square;stroke-linejoin:round;stroke-miterlimit:5;stroke-dasharray:none;stroke-opacity:1" d="M 1.3888427 -777.64079 C -126.41754 -822.85625 -272.88081 -794.17541 -427.74092 -723.17061 L -411.15071 -760.0823 L -459.32489 -749.02795 L -495.42034 -783.89788 L -500.16434 -732.99008 L -543.31109 -708.17992 L -498.06911 -687.77279 L -488.63916 -637.57198 L -455.93489 -675.86625 L -406.96025 -669.64773 L -425.31773 -701.97648 C -290.88513 -689.16754 -86.608888 -639.13439 -273.63981 -347.58743 C -128.15384 -457.46783 0.38614654 -456.79247 307.39427 -419.56777 C 228.26451 -624.2273 123.30628 -734.50873 1.3888427 -777.64079 z "/></g></svg>
