<svg xmlns="http://www.w3.org/2000/svg" viewBox="0 0 1536 1536">
   <g id="original" transform="translate(256,256)"><circle cx="512" cy="512" r="512" style="fill:#00aed3"/>
   <path d="M628.17 483.88h1.61V549c0 94.52-87.11 119.21-129 119.21-48.16 0-104.49-25.93-104.49-74.76 0-55.57 56.42-68.3 124.63-78.75 19.38-3.32 51.2-8.55 73-12.82a59.08 59.08 0 0 0 34.25-18zM512.19 256c141.33.05 255.86 114.67 255.81 256S653.67 767.74 512.47 768c-141.38.26-256.21-114.14-256.47-255.52S370.14 256.26 511.53 256zm159.68 183c0-113.13-95.28-126.43-136.41-126.43-148.28 0-162 96-164.43 120.83a22.13 22.13 0 0 0 23.08 19.57 19.66 19.66 0 0 0 21.75-17.1c8.74-41.51 31.44-81.31 113.23-81.31 38.28 0 71.05 7.12 89.58 30A79.22 79.22 0 0 1 634.06 437a46.83 46.83 0 0 1-15.39 36.67c-13.49 11.21-32.3 11.11-126.72 22.23-130.61 15.29-140.11 78.75-140.11 111.8 0 66.21 82.83 103.63 141.73 105.15a190.84 190.84 0 0 0 78.27-11.11 153.88 153.88 0 0 0 92.43-92.62c12.25-32.91 7.41-118.49 7.6-170.12z" style="fill:#fff"/>
</g><g id="hat" transform="rotate(-19.664861,2554.5888,-1846.2773)"><path id="🎅" style="fill:rgb(255, 86, 95);stroke:#ffffff;stroke-width:39.4767;stroke-linecap:square;stroke-linejoin:round;stroke-miterlimit:5;stroke-dasharray:none;stroke-opacity:1" d="M 1.3888427 -777.64079 C -126.41754 -822.85625 -272.88081 -794.17541 -427.74092 -723.17061 L -411.15071 -760.0823 L -459.32489 -749.02795 L -495.42034 -783.89788 L -500.16434 -732.99008 L -543.31109 -708.17992 L -498.06911 -687.77279 L -488.63916 -637.57198 L -455.93489 -675.86625 L -406.96025 -669.64773 L -425.31773 -701.97648 C -290.88513 -689.16754 -86.608888 -639.13439 -273.63981 -347.58743 C -128.15384 -457.46783 0.38614654 -456.79247 307.39427 -419.56777 C 228.26451 -624.2273 123.30628 -734.50873 1.3888427 -777.64079 z "/></g></svg>
