<svg xmlns="http://www.w3.org/2000/svg" viewBox="0 0 1536 1536">
   <g id="original" transform="translate(256,256)"><circle cx="512" cy="512" r="512" style="fill:#3c8dbc"/>
   <path d="M661.22 559.32V346.14H512v378.72a469.79 469.79 0 0 0 71-45.63q78.22-61.29 78.22-119.91Zm64-255.81v255.81A153 153 0 0 1 714 616.11a211.83 211.83 0 0 1-27.65 50 308.57 308.57 0 0 1-39.31 42.47 457.88 457.88 0 0 1-42.14 34.31q-19.32 13.65-40.3 25.81t-29.81 16.49q-8.83 4.33-14.16 6.66a19.76 19.76 0 0 1-17.32 0q-5.33-2.33-14.16-6.66t-29.81-16.49q-21-12.16-40.3-25.81a457.59 457.59 0 0 1-42.14-34.31 308.9 308.9 0 0 1-39.31-42.47 211.78 211.78 0 0 1-27.65-50 153 153 0 0 1-11.16-56.79V303.51a21.62 21.62 0 0 1 21.32-21.32h383.76a21.61 21.61 0 0 1 21.31 21.32Z" style="fill:#fff"/>
</g><g id="hat" transform="rotate(-19.664861,2554.5888,-1846.2773)"><path id="🎅" style="fill:rgb(255, 86, 65);stroke:#ffffff;stroke-width:39.4767;stroke-linecap:square;stroke-linejoin:round;stroke-miterlimit:5;stroke-dasharray:none;stroke-opacity:1" d="M 1.3888427 -777.64079 C -126.41754 -822.85625 -272.88081 -794.17541 -427.74092 -723.17061 L -411.15071 -760.0823 L -459.32489 -749.02795 L -495.42034 -783.89788 L -500.16434 -732.99008 L -543.31109 -708.17992 L -498.06911 -687.77279 L -488.63916 -637.57198 L -455.93489 -675.86625 L -406.96025 -669.64773 L -425.31773 -701.97648 C -290.88513 -689.16754 -86.608888 -639.13439 -273.63981 -347.58743 C -128.15384 -457.46783 0.38614654 -456.79247 307.39427 -419.56777 C 228.26451 -624.2273 123.30628 -734.50873 1.3888427 -777.64079 z "/></g></svg>
