<svg xmlns="http://www.w3.org/2000/svg" viewBox="0 0 1536 1536">
   <g id="original" transform="translate(256,256)"><circle cx="512" cy="512" r="512" style="fill:#089eda"/>
   <path d="M767.94 283.17q-43.41 7.2-82.47 15h-.17q-338.46 56.09-410 156.63-19.81 27.82-19.16 59.06v6.68q-.71 27.72 19.16 53.61 63.7 83.09 339.26 147.26l.29.08.31.08q36.53 8.76 77.05 19.27l-.71-.73q-310.82-245.35 76.44-456.94ZM494 511.37c-5.77 58.7 17.42 119.06 69 179.95C416.42 653 324.23 610.25 288.65 563.91 277.73 549.67 272.6 535.64 273 521v-7.46c-.36-17.26 4.89-33.26 16-48.92C310.79 434 354.71 406 419.56 381.19c51.27-19.59 116.24-37.26 193.78-52.74C540.3 386.78 500.24 448.11 494 511.37Z" style="fill:#fff"/>
</g><g id="hat" transform="rotate(-19.664861,2554.5888,-1846.2773)"><path id="🎅" style="fill:rgb(255, 45, 87);stroke:#ffffff;stroke-width:39.4767;stroke-linecap:square;stroke-linejoin:round;stroke-miterlimit:5;stroke-dasharray:none;stroke-opacity:1" d="M 1.3888427 -777.64079 C -126.41754 -822.85625 -272.88081 -794.17541 -427.74092 -723.17061 L -411.15071 -760.0823 L -459.32489 -749.02795 L -495.42034 -783.89788 L -500.16434 -732.99008 L -543.31109 -708.17992 L -498.06911 -687.77279 L -488.63916 -637.57198 L -455.93489 -675.86625 L -406.96025 -669.64773 L -425.31773 -701.97648 C -290.88513 -689.16754 -86.608888 -639.13439 -273.63981 -347.58743 C -128.15384 -457.46783 0.38614654 -456.79247 307.39427 -419.56777 C 228.26451 -624.2273 123.30628 -734.50873 1.3888427 -777.64079 z "/></g></svg>
