<svg xmlns="http://www.w3.org/2000/svg" viewBox="0 0 1536 1536">
   <g id="original" transform="translate(256,256)"><circle cx="512" cy="512" r="512"/>
   <path d="M714.53 390.14a158.21 158.21 0 0 0-62.25-30.47 202.55 202.55 0 0 0-39.66-5c-10-.26-20-.26-29.91-.26H441.53c-10 0-20 0-29.94.26a202.89 202.89 0 0 0-39.81 5 158.29 158.29 0 0 0-62.21 30.47 156 156 0 0 0 0 243.71 158.29 158.29 0 0 0 62.21 30.47 202.83 202.83 0 0 0 39.67 5c10 .27 20 .27 29.94.27h141.2c10 0 20 0 29.94-.27a202.52 202.52 0 0 0 39.65-5 158.19 158.19 0 0 0 62.25-30.47 156 156 0 0 0 0-243.71zm-68.86 164.13a56.45 56.45 0 0 1-23.1 8.93c-8.4 1.33-16.55 1.05-25 1.05H426.44c-8.4 0-16.55.27-25-1.05a56.6 56.6 0 0 1-23.12-8.93A51.7 51.7 0 0 1 356 512a51 51 0 0 1 22.32-42.29 56.83 56.83 0 0 1 23.12-8.93c8.4-1.31 16.55-1 25-1h171.22c8.4 0 16.55-.27 25 1a56.68 56.68 0 0 1 23.05 8.93A51.73 51.73 0 0 1 668 512a51 51 0 0 1-22.34 42.27z" style="fill:#fff"/>
</g><g id="hat" transform="rotate(-19.664861,2554.5888,-1846.2773)"><path id="🎅" style="fill:rgb(255, 38, 85);stroke:#ffffff;stroke-width:39.4767;stroke-linecap:square;stroke-linejoin:round;stroke-miterlimit:5;stroke-dasharray:none;stroke-opacity:1" d="M 1.3888427 -777.64079 C -126.41754 -822.85625 -272.88081 -794.17541 -427.74092 -723.17061 L -411.15071 -760.0823 L -459.32489 -749.02795 L -495.42034 -783.89788 L -500.16434 -732.99008 L -543.31109 -708.17992 L -498.06911 -687.77279 L -488.63916 -637.57198 L -455.93489 -675.86625 L -406.96025 -669.64773 L -425.31773 -701.97648 C -290.88513 -689.16754 -86.608888 -639.13439 -273.63981 -347.58743 C -128.15384 -457.46783 0.38614654 -456.79247 307.39427 -419.56777 C 228.26451 -624.2273 123.30628 -734.50873 1.3888427 -777.64079 z "/></g></svg>
