<svg xmlns="http://www.w3.org/2000/svg" viewBox="0 0 1536 1536">
   <g id="original" transform="translate(256,256)"><circle cx="512" cy="512" r="512" style="fill:#00aff0"/>
   <path d="M512 229.78c-153.27 0-277.5 126.35-277.5 282.22S358.74 794.22 512 794.22 789.5 667.86 789.5 512 665.26 229.78 512 229.78zm0 535C374.73 764.77 263.45 651.6 263.45 512S374.73 259.23 512 259.23 760.53 372.4 760.53 512 649.27 764.77 512 764.77zm115.09-271v-23.06a103.81 103.81 0 0 0-103.43-103.51h-18.54a103.8 103.8 0 0 0-103.4 103.51v23.08l-12.79 23.55v34A115.38 115.38 0 0 0 504.07 666.6h20.66a115.53 115.53 0 0 0 115.15-115.28v-34zM526.49 598v27.2a12 12 0 0 1-5.36 10l-.08.08-.08.08h-.08l-.08.08h-.08l-.09.08-.08.08h-.08l-.16.08-.08.08-.08.08H520l-.08.08h-.08l-.08.08-.08.08h-.08l-.16.08h-.1l-.08.08-.08.08h-.16l-.08.08h-.14l-.08.08h-.08l-.08.08h-.16l-.09.08h-.06l-.08.08H518l-.08.08h-.16l-.08.08h-.24l-.08.08H517v.08h-.24l-.24.08h-.32a6.88 6.88 0 0 1-1.82.16h-.08a5.85 5.85 0 0 1-1.18-.08 4.82 4.82 0 0 1-1.5-.24h-.08l-.16-.08h-.1l-.24-.08-.32-.08h-.16l-.09-.08h-.08l-.16-.08h-.08a4.87 4.87 0 0 0-.54-.24l-.24-.08v-.08h-.16l-.08-.08h-.08l-.08-.08-.16-.08h-.08l-.16-.08-.08-.08-.16-.08-.08-.08-.16-.08h-.08v-.08H508l-.16-.08a12.13 12.13 0 0 1-5.53-10.18V598a32.46 32.46 0 0 1 11.76-62.58h.63A32.48 32.48 0 0 1 526.51 598zm54.46-103.51H447.88v-23.77a57.43 57.43 0 0 1 57.22-57.29h18.56A57.43 57.43 0 0 1 581 470.72z" style="fill:#fff"/>
</g><g id="hat" transform="rotate(-19.664861,2554.5888,-1846.2773)"><path id="🎅" style="fill:rgb(255, 15, 75);stroke:#ffffff;stroke-width:39.4767;stroke-linecap:square;stroke-linejoin:round;stroke-miterlimit:5;stroke-dasharray:none;stroke-opacity:1" d="M 1.3888427 -777.64079 C -126.41754 -822.85625 -272.88081 -794.17541 -427.74092 -723.17061 L -411.15071 -760.0823 L -459.32489 -749.02795 L -495.42034 -783.89788 L -500.16434 -732.99008 L -543.31109 -708.17992 L -498.06911 -687.77279 L -488.63916 -637.57198 L -455.93489 -675.86625 L -406.96025 -669.64773 L -425.31773 -701.97648 C -290.88513 -689.16754 -86.608888 -639.13439 -273.63981 -347.58743 C -128.15384 -457.46783 0.38614654 -456.79247 307.39427 -419.56777 C 228.26451 -624.2273 123.30628 -734.50873 1.3888427 -777.64079 z "/></g></svg>
