<svg xmlns="http://www.w3.org/2000/svg" viewBox="0 0 1536 1536">
   <g id="original" transform="translate(256,256)"><circle cx="512" cy="512" r="512" style="fill:#68cef5"/>
   <path d="M495.1 496.8c9.3 5.4 24.4 5.4 33.7 0l169.4-98.3c9.3-5.4 9.3-14.2 0-19.5l-169.4-97.8c-9.3-5.4-24.5-5.4-33.8 0L325.6 379c-9.3 5.4-9.3 14.1 0 19.5l169.5 98.3zm9.6 41.9c0-10.7-7.6-23.9-16.9-29.3l-170-98.6c-9.3-5.4-16.9-1-16.9 9.7v196.8c0 10.7 7.6 23.9 16.9 29.2l169.9 98.1c9.3 5.4 16.9 1 16.9-9.7l.1-196.2zm31.5-29.3c-9.3 5.4-16.9 18.6-16.9 29.3v196.2c0 10.7 7.6 15.1 16.9 9.7l169.9-98.1c9.3-5.4 16.9-18.5 16.9-29.2V420.5c0-10.7-7.6-15.1-16.9-9.7l-169.9 98.6z" style="fill:#fff"/>
</g><g id="hat" transform="rotate(-19.664861,2554.5888,-1846.2773)"><path id="🎅" style="fill:rgb(255, 42, 73);stroke:#ffffff;stroke-width:39.4767;stroke-linecap:square;stroke-linejoin:round;stroke-miterlimit:5;stroke-dasharray:none;stroke-opacity:1" d="M 1.3888427 -777.64079 C -126.41754 -822.85625 -272.88081 -794.17541 -427.74092 -723.17061 L -411.15071 -760.0823 L -459.32489 -749.02795 L -495.42034 -783.89788 L -500.16434 -732.99008 L -543.31109 -708.17992 L -498.06911 -687.77279 L -488.63916 -637.57198 L -455.93489 -675.86625 L -406.96025 -669.64773 L -425.31773 -701.97648 C -290.88513 -689.16754 -86.608888 -639.13439 -273.63981 -347.58743 C -128.15384 -457.46783 0.38614654 -456.79247 307.39427 -419.56777 C 228.26451 -624.2273 123.30628 -734.50873 1.3888427 -777.64079 z "/></g></svg>
