<svg xmlns="http://www.w3.org/2000/svg" viewBox="0 0 1536 1536">
   <g id="original" transform="translate(256,256)"><circle cx="512" cy="512" r="512" style="fill:#282a2d"/>
   <path d="m746.2 516.4 51.1 88.1h-53.6l-25.6-44.2 28.1-43.9zm51.1-96.9h-53.6l-25.6 44.2 28.1 44 51.1-88.2zm-112.7 0H631l59.2 92.5-59.2 92.5h53.6l59.2-92.5-59.2-92.5zm-178.9 185h106.7v-32.4H545v-47.7h62.7v-32.1H545v-40.6h67.4v-32.1H505.7v184.9zm-93.5-185H373v184.9h114.2V572h-75V419.5zm-57.8 57.7c0 19.9-6.2 35.1-18.7 45.7-12.4 10.5-30.1 15.8-53.1 15.8h-16.8v65.8h-39.2v-185h59.1c22.4 0 39.5 4.8 51.2 14.5 11.7 9.7 17.5 24.1 17.5 43.2zm-39.6 1.4c0-9.2-2.5-16-7.5-20.4-5-4.4-12.9-6.6-23.6-6.6h-17.8v54.9h12.9c12.1 0 21.1-2.4 27.1-7.1 6-4.7 8.9-11.7 8.9-20.8z" style="fill:#fff"/>
</g><g id="hat" transform="rotate(-19.664861,2554.5888,-1846.2773)"><path id="🎅" style="fill:rgb(255, 29, 63);stroke:#ffffff;stroke-width:39.4767;stroke-linecap:square;stroke-linejoin:round;stroke-miterlimit:5;stroke-dasharray:none;stroke-opacity:1" d="M 1.3888427 -777.64079 C -126.41754 -822.85625 -272.88081 -794.17541 -427.74092 -723.17061 L -411.15071 -760.0823 L -459.32489 -749.02795 L -495.42034 -783.89788 L -500.16434 -732.99008 L -543.31109 -708.17992 L -498.06911 -687.77279 L -488.63916 -637.57198 L -455.93489 -675.86625 L -406.96025 -669.64773 L -425.31773 -701.97648 C -290.88513 -689.16754 -86.608888 -639.13439 -273.63981 -347.58743 C -128.15384 -457.46783 0.38614654 -456.79247 307.39427 -419.56777 C 228.26451 -624.2273 123.30628 -734.50873 1.3888427 -777.64079 z "/></g></svg>
