<svg xmlns="http://www.w3.org/2000/svg" viewBox="0 0 1536 1536">
   <g id="original" transform="translate(256,256)"><circle cx="512" cy="512" r="512" style="fill:#56b366"/>
   <path d="M734.3 323.9c0-31.6-25.6-57.3-57.3-57.3-31.6 0-57.3 25.6-57.3 57.3v1.8l-249.5 80.6c-17.8-26.2-53.4-33-79.5-15.2-26.2 17.8-33 53.4-15.2 79.5 10.7 15.7 28.4 25.1 47.3 25.1 6-.1 11.9-1.1 17.5-3l163.9 207c-12.4 29.1 1.1 62.7 30.2 75.1 29.1 12.4 62.7-1.1 75.1-30.2 9.8-23 3.6-49.7-15.4-65.9L681.2 381c30.1-2.2 53.2-27.1 53.1-57.1zM557.2 663.6c-8.8.1-17.5 2.3-25.3 6.3L371.8 467.3c4.4-7.2 7.2-15.4 8.1-23.8l254.9-81.3c2.7 3 5.6 5.7 8.9 8.1l-86.1 293.4h-.4z" style="fill:#fff"/>
</g><g id="hat" transform="rotate(-19.664861,2554.5888,-1846.2773)"><path id="🎅" style="fill:rgb(255, 87, 14);stroke:#ffffff;stroke-width:39.4767;stroke-linecap:square;stroke-linejoin:round;stroke-miterlimit:5;stroke-dasharray:none;stroke-opacity:1" d="M 1.3888427 -777.64079 C -126.41754 -822.85625 -272.88081 -794.17541 -427.74092 -723.17061 L -411.15071 -760.0823 L -459.32489 -749.02795 L -495.42034 -783.89788 L -500.16434 -732.99008 L -543.31109 -708.17992 L -498.06911 -687.77279 L -488.63916 -637.57198 L -455.93489 -675.86625 L -406.96025 -669.64773 L -425.31773 -701.97648 C -290.88513 -689.16754 -86.608888 -639.13439 -273.63981 -347.58743 C -128.15384 -457.46783 0.38614654 -456.79247 307.39427 -419.56777 C 228.26451 -624.2273 123.30628 -734.50873 1.3888427 -777.64079 z "/></g></svg>
