<svg xmlns="http://www.w3.org/2000/svg" viewBox="0 0 1536 1536">
   <g id="original" transform="translate(256,256)"><circle cx="512" cy="512" r="512" style="fill:#c7a247"/>
   <path d="M391.69 519.78 354 648.44h-37.78l-16.54-60.9-18.63 60.9h-38.6l-38-128.66h47.39l12 42.89L275 519.78h49.75l12.87 42.89 12.87-42.89zm341.12 0h86.69v38.6h-55.56c-7.72 0-16.12.9-6.93 9.47l16 19c10.54 11.86 10.37 16.82 10.37 25.79 0 22.3-22.06 35.78-36.64 35.78l-101.34.68c-14 0-14.82-.86-25.12-10.29s-30-32.59-30-32.59v42.88H544V520.49h91.16c16.3 0 36.64 17.74 36.64 38.57s-12.38 41.17-26.35 41.17a24.5 24.5 0 0 0 16.43 6.18h49.92c2.54 0 27.81 4.22 10.91-11.15-18.54-16.85-20.58-30.88-21.2-42s9.01-33.48 31.31-33.48zm-113.1 33.28h-29.4v23.16h29.4c15.81-.01 13.48-23.16 0-23.16zM363.15 467.7c0-9 3.43-14.82-7.11-26.69l-16-19c-9.19-8.58 1.1-8.58 8.82-8.58h53v90.06h42v-90.07h56.61v-38.57h-183.4c-22.3 0-33.21 21.42-32.59 32.57s2.67 25.18 21.2 42c16.9 15.37-8.37 11.15-10.91 11.15H204.5v42.89h125.44c14.58.02 33.21-13.46 33.21-35.76zm456.35-7.1v42.89h-72.72c-14 0-14.82-.86-25.12-10.29s-30-32.59-30-32.59v42.89h-46.33V374.85h91.16c16.3 0 36.64 17.74 36.64 38.57s-12.38 41.17-26.35 41.17c0 0 0 6 16.3 6zm-98.45-53.18h-29.4v23.16h29.4c15.81 0 13.48-23.16 0-23.16zm-232.1 113.1 36 128.63h-41.39l-6.62-18h-44.6l-6.86 18h-42.27l38-128.63zm-18.87 79.74-13.72-47.17-14.58 47.17zm111.17-114.79h-44.6l-6.86 18h-42.27l38-128.63h67.76l36 128.63h-41.41zm-6.86-30.88-13.72-47.17-14.58 47.17z" style="fill:#fff"/>
</g><g id="hat" transform="rotate(-19.664861,2554.5888,-1846.2773)"><path id="🎅" style="fill:rgb(255, 101, 101);stroke:#ffffff;stroke-width:39.4767;stroke-linecap:square;stroke-linejoin:round;stroke-miterlimit:5;stroke-dasharray:none;stroke-opacity:1" d="M 1.3888427 -777.64079 C -126.41754 -822.85625 -272.88081 -794.17541 -427.74092 -723.17061 L -411.15071 -760.0823 L -459.32489 -749.02795 L -495.42034 -783.89788 L -500.16434 -732.99008 L -543.31109 -708.17992 L -498.06911 -687.77279 L -488.63916 -637.57198 L -455.93489 -675.86625 L -406.96025 -669.64773 L -425.31773 -701.97648 C -290.88513 -689.16754 -86.608888 -639.13439 -273.63981 -347.58743 C -128.15384 -457.46783 0.38614654 -456.79247 307.39427 -419.56777 C 228.26451 -624.2273 123.30628 -734.50873 1.3888427 -777.64079 z "/></g></svg>
