<svg xmlns="http://www.w3.org/2000/svg" viewBox="0 0 1536 1536">
   <g id="original" transform="translate(256,256)"><circle cx="512" cy="512" r="512" style="fill:#2962ff"/>
   <path d="M734 465.54a96.89 96.89 0 0 1 17.05 50.86 79.72 79.72 0 0 1-26.47 154.88H326.13a105.89 105.89 0 0 1-74.77-30.76l169-133.81a44.38 44.38 0 0 0 39.7 1l80.58 70.5a44.27 44.27 0 1 0 83.42-2.78zm-25-25L599.09 550.37a44.44 44.44 0 0 0-35.09 1.17L483.46 481a44.27 44.27 0 1 0-85-2.09L230.64 611.75a106.25 106.25 0 0 1 96.57-153 141.69 141.69 0 0 1 276.7-21.73 97.51 97.51 0 0 1 105 3.45zm0 0" style="fill:#fff"/>
</g><g id="hat" transform="rotate(-19.664861,2554.5888,-1846.2773)"><path id="🎅" style="fill:rgb(255, 110, 38);stroke:#ffffff;stroke-width:39.4767;stroke-linecap:square;stroke-linejoin:round;stroke-miterlimit:5;stroke-dasharray:none;stroke-opacity:1" d="M 1.3888427 -777.64079 C -126.41754 -822.85625 -272.88081 -794.17541 -427.74092 -723.17061 L -411.15071 -760.0823 L -459.32489 -749.02795 L -495.42034 -783.89788 L -500.16434 -732.99008 L -543.31109 -708.17992 L -498.06911 -687.77279 L -488.63916 -637.57198 L -455.93489 -675.86625 L -406.96025 -669.64773 L -425.31773 -701.97648 C -290.88513 -689.16754 -86.608888 -639.13439 -273.63981 -347.58743 C -128.15384 -457.46783 0.38614654 -456.79247 307.39427 -419.56777 C 228.26451 -624.2273 123.30628 -734.50873 1.3888427 -777.64079 z "/></g></svg>
