<svg xmlns="http://www.w3.org/2000/svg" viewBox="0 0 1536 1536">
   <g id="original" transform="translate(256,256)"><circle cx="512" cy="512" r="512" style="fill:#e95420"/>
   <path d="M512 243.2c-148.45 0-268.8 120.34-268.8 268.8S363.55 780.8 512 780.8 780.8 660.45 780.8 512 660.46 243.2 512 243.2ZM569.12 344a34.55 34.55 0 1 1 12.65 47.2 34.56 34.56 0 0 1-12.65-47.2Zm-231.2 202.56A34.56 34.56 0 1 1 372.5 512a34.56 34.56 0 0 1-34.58 34.56Zm30.5 3.33a48.61 48.61 0 0 0 0-75.77 148.71 148.71 0 0 1 61.25-85.69l25.68 42.93a98.56 98.56 0 0 0 0 161.31l-25.68 42.93a148.77 148.77 0 0 1-61.25-85.72Zm247.9 142.8A34.55 34.55 0 1 1 629 645.47a34.57 34.57 0 0 1-12.68 47.22Zm.25-75.29A48.62 48.62 0 0 0 551 655.3a149 149 0 0 1-104.86-10.2l24.34-43.7a98.58 98.58 0 0 0 139.69-80.66l50 .78a148.07 148.07 0 0 1-43.59 95.88Zm-6.4-114.13a98.6 98.6 0 0 0-139.69-80.68l-24.34-43.7A149 149 0 0 1 551 368.71a48.62 48.62 0 0 0 65.58 37.9 148 148 0 0 1 43.61 95.87Z" style="fill:#fff"/>
</g><g id="hat" transform="rotate(-19.664861,2554.5888,-1846.2773)"><path id="🎅" style="fill:rgb(255, 49, 122);stroke:#ffffff;stroke-width:39.4767;stroke-linecap:square;stroke-linejoin:round;stroke-miterlimit:5;stroke-dasharray:none;stroke-opacity:1" d="M 1.3888427 -777.64079 C -126.41754 -822.85625 -272.88081 -794.17541 -427.74092 -723.17061 L -411.15071 -760.0823 L -459.32489 -749.02795 L -495.42034 -783.89788 L -500.16434 -732.99008 L -543.31109 -708.17992 L -498.06911 -687.77279 L -488.63916 -637.57198 L -455.93489 -675.86625 L -406.96025 -669.64773 L -425.31773 -701.97648 C -290.88513 -689.16754 -86.608888 -639.13439 -273.63981 -347.58743 C -128.15384 -457.46783 0.38614654 -456.79247 307.39427 -419.56777 C 228.26451 -624.2273 123.30628 -734.50873 1.3888427 -777.64079 z "/></g></svg>