<svg xmlns="http://www.w3.org/2000/svg" viewBox="0 0 1536 1536">
   <g id="original" transform="translate(256,256)"><circle cx="512" cy="512" r="512" style="fill:#ff4a00"/>
   <path d="M576 512.11a153.09 153.09 0 0 1-9.83 54 153.19 153.19 0 0 1-54.06 9.89h-.22a153.18 153.18 0 0 1-54-9.83 153.16 153.16 0 0 1-9.89-54.06v-.22a153.33 153.33 0 0 1 9.83-54 153.14 153.14 0 0 1 54.06-9.89h.22a153.08 153.08 0 0 1 54.06 9.84 153.07 153.07 0 0 1 9.83 54v.22zm188.44-42.78H615l105.67-105.66A257.2 257.2 0 0 0 693 331a257.4 257.4 0 0 0-32.67-27.63L554.67 409V259.56a257.63 257.63 0 0 0-42.53-3.56h-.27a257.63 257.63 0 0 0-42.53 3.56V409L363.67 303.33A257.34 257.34 0 0 0 331 331a257.23 257.23 0 0 0-27.62 32.65L409 469.33H259.56S256 497.4 256 511.91v.18a257.69 257.69 0 0 0 3.56 42.58H409L303.33 660.33a257.46 257.46 0 0 0 60.34 60.34L469.33 615v149.44a257.73 257.73 0 0 0 42.49 3.56h.37a257.85 257.85 0 0 0 42.48-3.56V615l105.66 105.67A257.34 257.34 0 0 0 693 693a257.52 257.52 0 0 0 27.64-32.67L615 554.67h149.44a257.73 257.73 0 0 0 3.56-42.49v-.37a257.84 257.84 0 0 0-3.56-42.48z" style="fill:#fff"/>
</g><g id="hat" transform="rotate(-19.664861,2554.5888,-1846.2773)"><path id="🎅" style="fill:rgb(255, 42, 89);stroke:#ffffff;stroke-width:39.4767;stroke-linecap:square;stroke-linejoin:round;stroke-miterlimit:5;stroke-dasharray:none;stroke-opacity:1" d="M 1.3888427 -777.64079 C -126.41754 -822.85625 -272.88081 -794.17541 -427.74092 -723.17061 L -411.15071 -760.0823 L -459.32489 -749.02795 L -495.42034 -783.89788 L -500.16434 -732.99008 L -543.31109 -708.17992 L -498.06911 -687.77279 L -488.63916 -637.57198 L -455.93489 -675.86625 L -406.96025 -669.64773 L -425.31773 -701.97648 C -290.88513 -689.16754 -86.608888 -639.13439 -273.63981 -347.58743 C -128.15384 -457.46783 0.38614654 -456.79247 307.39427 -419.56777 C 228.26451 -624.2273 123.30628 -734.50873 1.3888427 -777.64079 z "/></g></svg>
