<svg xmlns="http://www.w3.org/2000/svg" viewBox="0 0 1536 1536">
   <g id="original" transform="translate(256,256)"><circle cx="512" cy="512" r="512" style="fill:#00a59a"/>
   <path d="M288.52 287.36v449.78h448V287.36Zm87.67 170.24H438a.66.66 0 0 1 .58.35l2.15 4a.66.66 0 0 1 .05.5L426 513.36l-17.05 51.29a.66.66 0 0 1-.63.45h-50.4a.66.66 0 0 1-.65-.78l9.41-51 8.86-55.2a.66.66 0 0 1 .65-.56Zm110.06 0h62.25a.66.66 0 0 1 .58.35l2.16 4a.66.66 0 0 1 .05.5l-14.88 50.87-17.17 51.29a.66.66 0 0 1-.63.45h-50.19a.66.66 0 0 1-.65-.77l8.91-51 8.92-55.21a.66.66 0 0 1 .65-.56Zm113.93 0H662a.66.66 0 0 1 .59.35l2.15 4a.66.66 0 0 1 0 .5L650 513.36l-17.05 51.29a.66.66 0 0 1-.63.45h-50.4a.66.66 0 0 1-.65-.78l9.4-51 8.86-55.2a.66.66 0 0 1 .65-.56Z" style="fill:#fff"/>
</g><g id="hat" transform="rotate(-19.664861,2554.5888,-1846.2773)"><path id="🎅" style="fill:rgb(255, 107, 36);stroke:#ffffff;stroke-width:39.4767;stroke-linecap:square;stroke-linejoin:round;stroke-miterlimit:5;stroke-dasharray:none;stroke-opacity:1" d="M 1.3888427 -777.64079 C -126.41754 -822.85625 -272.88081 -794.17541 -427.74092 -723.17061 L -411.15071 -760.0823 L -459.32489 -749.02795 L -495.42034 -783.89788 L -500.16434 -732.99008 L -543.31109 -708.17992 L -498.06911 -687.77279 L -488.63916 -637.57198 L -455.93489 -675.86625 L -406.96025 -669.64773 L -425.31773 -701.97648 C -290.88513 -689.16754 -86.608888 -639.13439 -273.63981 -347.58743 C -128.15384 -457.46783 0.38614654 -456.79247 307.39427 -419.56777 C 228.26451 -624.2273 123.30628 -734.50873 1.3888427 -777.64079 z "/></g></svg>
