<svg xmlns="http://www.w3.org/2000/svg" viewBox="0 0 1536 1536">
   <g id="original" transform="translate(256,256)"><circle cx="512" cy="512" r="512" style="fill:#e2003d"/>
   <path d="M369.93 319h366l.87.9q-28.35 165.26-56.64 330.56 50.31 29.62 100.37 59.76-237.08.27-474.17.11c-8.73.09-17.65-2.2-24.58-7.66-7.43-5.68-11.7-14.59-13.25-23.66v-14.9c17.47-99.91 34.54-199.92 51.88-299.87 3.88-24 26.15-41.89 49.52-45.24zm70.25 140.51q-8.66 50.69-17.49 101.36c-1.23 5.34.41 11.83 5.39 14.71 4.08 2.47 9 1.6 13.54 1.77q59.4-.08 118.78 0c7.68-44.79 15.51-89.56 23.17-134.37-41.28.05-82.55 0-123.83 0-9.3-.14-18.28 7.24-19.56 16.53z" style="fill:#fff"/>
</g><g id="hat" transform="rotate(-19.664861,2554.5888,-1846.2773)"><path id="🎅" style="fill:rgb(255, 20, 59);stroke:#ffffff;stroke-width:39.4767;stroke-linecap:square;stroke-linejoin:round;stroke-miterlimit:5;stroke-dasharray:none;stroke-opacity:1" d="M 1.3888427 -777.64079 C -126.41754 -822.85625 -272.88081 -794.17541 -427.74092 -723.17061 L -411.15071 -760.0823 L -459.32489 -749.02795 L -495.42034 -783.89788 L -500.16434 -732.99008 L -543.31109 -708.17992 L -498.06911 -687.77279 L -488.63916 -637.57198 L -455.93489 -675.86625 L -406.96025 -669.64773 L -425.31773 -701.97648 C -290.88513 -689.16754 -86.608888 -639.13439 -273.63981 -347.58743 C -128.15384 -457.46783 0.38614654 -456.79247 307.39427 -419.56777 C 228.26451 -624.2273 123.30628 -734.50873 1.3888427 -777.64079 z "/></g></svg>
