<svg xmlns="http://www.w3.org/2000/svg" viewBox="0 0 1536 1536">
   <g id="original" transform="translate(256,256)"><circle cx="512" cy="512" r="512" style="fill:#2b87d3"/>
   <path d="M296 512V296h432v432H296zm377.73 0V350.27H350.27v323.46h323.46zM376.87 646.95c-.08-.19-.11-24.6-.08-54.22l.08-53.87h54.27l.08 26.92.05 26.95 26.95.05 26.92.08v54.27l-54.08.08c-43.12.06-54.11.01-54.19-.26zm162 0c-.08-.19-.11-12.45-.08-27.22l.08-26.87 26.92-.08 26.95-.05.05-26.95.08-26.92h54.27v108.28l-54.08.08c-43.13.05-54.11 0-54.19-.27zm-81-81c-.08-.19-.11-24.6-.08-54.22l.08-53.87h108.27v108.28l-54.08.08c-43.12.05-54.11 0-54.19-.27zm-81-81c-.08-.19-.11-24.6-.08-54.22l.08-53.87h108.27v54.27l-26.92.08-26.95.05-.05 26.95-.08 26.92-27.08.08c-21.52.06-27.11.01-27.19-.26zm216.05.13c-.11-.08-.19-12.23-.19-27v-26.81l-26.92-.05-26.95-.08v-54.27h108.28v108.27l-27 .08c-14.88.02-27.14-.03-27.22-.14z" style="fill:#fff"/>
</g><g id="hat" transform="rotate(-19.664861,2554.5888,-1846.2773)"><path id="🎅" style="fill:rgb(255, 76, 90);stroke:#ffffff;stroke-width:39.4767;stroke-linecap:square;stroke-linejoin:round;stroke-miterlimit:5;stroke-dasharray:none;stroke-opacity:1" d="M 1.3888427 -777.64079 C -126.41754 -822.85625 -272.88081 -794.17541 -427.74092 -723.17061 L -411.15071 -760.0823 L -459.32489 -749.02795 L -495.42034 -783.89788 L -500.16434 -732.99008 L -543.31109 -708.17992 L -498.06911 -687.77279 L -488.63916 -637.57198 L -455.93489 -675.86625 L -406.96025 -669.64773 L -425.31773 -701.97648 C -290.88513 -689.16754 -86.608888 -639.13439 -273.63981 -347.58743 C -128.15384 -457.46783 0.38614654 -456.79247 307.39427 -419.56777 C 228.26451 -624.2273 123.30628 -734.50873 1.3888427 -777.64079 z "/></g></svg>
