<svg xmlns="http://www.w3.org/2000/svg" viewBox="0 0 1536 1536">
   <g id="original" transform="translate(256,256)"><circle cx="512" cy="512" r="512" style="fill:#0078d4"/>
   <path d="M729.08 730.5a33.88 33.88 0 0 0 32.13-44.76L623.89 279.07A33.88 33.88 0 0 0 591.81 256H432.17a33.88 33.88 0 0 0-32.09 23.07L262.8 685.76a33.88 33.88 0 0 0 32.13 44.74h99.16a33.88 33.88 0 0 0 32.11-23.07l20.44-60.49 103.46 76.87a33.85 33.85 0 0 0 20.21 6.69M505.8 468.4 581.6 693a11.29 11.29 0 0 1-10.67 14.91h-.63a11.29 11.29 0 0 1-6.74-2.22L369.32 561.38h101.51m132 146.54a33.54 33.54 0 0 0 .15-22.13L465.77 279.07l-.15-.42h126.21a11.29 11.29 0 0 1 10.71 7.66L739.79 693a11.29 11.29 0 0 1-7.07 14.31" style="fill:#fff"/>
</g><g id="hat" transform="rotate(-19.664861,2554.5888,-1846.2773)"><path id="🎅" style="fill:rgb(255, 127, 57);stroke:#ffffff;stroke-width:39.4767;stroke-linecap:square;stroke-linejoin:round;stroke-miterlimit:5;stroke-dasharray:none;stroke-opacity:1" d="M 1.3888427 -777.64079 C -126.41754 -822.85625 -272.88081 -794.17541 -427.74092 -723.17061 L -411.15071 -760.0823 L -459.32489 -749.02795 L -495.42034 -783.89788 L -500.16434 -732.99008 L -543.31109 -708.17992 L -498.06911 -687.77279 L -488.63916 -637.57198 L -455.93489 -675.86625 L -406.96025 -669.64773 L -425.31773 -701.97648 C -290.88513 -689.16754 -86.608888 -639.13439 -273.63981 -347.58743 C -128.15384 -457.46783 0.38614654 -456.79247 307.39427 -419.56777 C 228.26451 -624.2273 123.30628 -734.50873 1.3888427 -777.64079 z "/></g></svg>
