<svg xmlns="http://www.w3.org/2000/svg" viewBox="0 0 1536 1536">
   <g id="original" transform="translate(256,256)"><circle cx="512" cy="512" r="512" style="fill:#ffe000"/>
   <path d="M767.7 621c-8.3-129.1-81.9-331.9-241.6-331.9-122.2 0-212.4 80.5-268 238.8-5.6 11.1 1.4 25 13.9 29.2 12.5 5.6 26.4-1.4 30.5-13.9 47.3-133.9 119.8-203 215.9-206.6 2 .6 4.1 1.1 6.3 1.1 118 0 183.3 161.1 194.4 280.5-40.3 59.7-138.9 69.4-194.4 69.4-63.9 1.4-126.4-23.6-172.2-69.4 18.1-45.8 44.4-88.9 56.9-90.3 5.6 0 19.4 15.3 26.4 22.2 15.3 16.7 30.5 33.3 52.8 33.3 11.1 0 40.3 0 95.8-120.8 5.6-12.5 1.4-26.4-11.1-31.9-12.5-5.6-26.4-1.4-31.9 11.1-18 40.3-41.7 79.1-54.2 91.6-5.6-4.2-12.5-11.1-16.7-16.7-15.3-16.7-34.7-37.5-61.1-37.5-51.4 1.4-91.6 94.4-106.9 134.7-2.8 8.3-1.4 18.1 5.6 23.6 54.2 61.1 131.9 95.8 212.4 95.8 1.4 0 4.2 0 5.6 1.4 116.6 0 201.3-36.1 238.8-100l.3-1.2c2-3.7 3-8.1 2.5-12.5z" style="fill:#fff"/>
</g><g id="hat" transform="rotate(-19.664861,2554.5888,-1846.2773)"><path id="🎅" style="fill:rgb(255, 121, 37);stroke:#ffffff;stroke-width:39.4767;stroke-linecap:square;stroke-linejoin:round;stroke-miterlimit:5;stroke-dasharray:none;stroke-opacity:1" d="M 1.3888427 -777.64079 C -126.41754 -822.85625 -272.88081 -794.17541 -427.74092 -723.17061 L -411.15071 -760.0823 L -459.32489 -749.02795 L -495.42034 -783.89788 L -500.16434 -732.99008 L -543.31109 -708.17992 L -498.06911 -687.77279 L -488.63916 -637.57198 L -455.93489 -675.86625 L -406.96025 -669.64773 L -425.31773 -701.97648 C -290.88513 -689.16754 -86.608888 -639.13439 -273.63981 -347.58743 C -128.15384 -457.46783 0.38614654 -456.79247 307.39427 -419.56777 C 228.26451 -624.2273 123.30628 -734.50873 1.3888427 -777.64079 z "/></g></svg>
