<svg xmlns="http://www.w3.org/2000/svg" viewBox="0 0 1536 1536">
   <g id="original" transform="translate(256,256)"><circle cx="512" cy="512" r="512" style="fill:#0568ec"/>
   <path d="M634.53 274.61H389.49c-63.34 0-114.87 51.53-114.87 114.87v245.04c0 63.34 51.53 114.86 114.87 114.86h245.04c63.34 0 114.86-51.53 114.86-114.86V389.48c0-63.34-51.53-114.87-114.86-114.87Zm-86.31 358.28h-95.28c-19.07 0-34.54-15.46-34.54-34.54V425.66c0-19.08 15.46-34.54 34.54-34.54h95.28c38.15 0 69.07 30.93 69.07 69.07 0 20.63-9.05 39.15-23.39 51.81 14.34 12.66 23.39 31.18 23.39 51.81 0 38.15-30.93 69.08-69.07 69.08Zm-17.16-166.66c0 18.23-14.78 33.01-33.01 33.01h-19.51c-7.25 0-13.13-5.88-13.13-13.13v-39.75c0-7.25 5.88-13.13 13.13-13.13h19.51c18.23 0 33.01 14.78 33.01 33.01Z" style="fill:#fff"/>
</g><g id="hat" transform="rotate(-19.664861,2554.5888,-1846.2773)"><path id="🎅" style="fill:rgb(255, 64, 37);stroke:#ffffff;stroke-width:39.4767;stroke-linecap:square;stroke-linejoin:round;stroke-miterlimit:5;stroke-dasharray:none;stroke-opacity:1" d="M 1.3888427 -777.64079 C -126.41754 -822.85625 -272.88081 -794.17541 -427.74092 -723.17061 L -411.15071 -760.0823 L -459.32489 -749.02795 L -495.42034 -783.89788 L -500.16434 -732.99008 L -543.31109 -708.17992 L -498.06911 -687.77279 L -488.63916 -637.57198 L -455.93489 -675.86625 L -406.96025 -669.64773 L -425.31773 -701.97648 C -290.88513 -689.16754 -86.608888 -639.13439 -273.63981 -347.58743 C -128.15384 -457.46783 0.38614654 -456.79247 307.39427 -419.56777 C 228.26451 -624.2273 123.30628 -734.50873 1.3888427 -777.64079 z "/></g></svg>
