<svg xmlns="http://www.w3.org/2000/svg" viewBox="0 0 1536 1536">
   <g id="original" transform="translate(256,256)"><circle cx="512" cy="512" r="512" style="fill:#e06543"/>
   <path d="M634.47 512c-27.91 39.92-73.07 63.71-121.77 63.92-35.21-.06-63.86-28.74-63.86-63.94s28.54-63.74 63.63-63.92c48.81.17 94.05 23.96 122.01 63.93ZM511.94 404.97c-58.56.45-106.21 48.46-106.21 107.02s47.64 106.59 107.09 107.04c54.9-.23 106.08-23.38 142.45-64.01 4.07 13.71 6.14 27.95 6.14 42.47 0 82.38-67.02 149.4-149.4 149.4-32.71 0-63.76-10.37-89.79-29.96-25.2-18.99-44.11-45.98-53.22-75.98-4.25-14.05-6.4-28.67-6.4-43.46V426.52c0-82.39 67.02-149.41 149.41-149.41s149.4 67.02 149.4 149.41c0 14.52-2.06 28.76-6.14 42.47-36.39-40.62-87.64-63.79-143.33-64.01Zm192.58 21.54c0-106.16-86.37-192.51-192.51-192.51s-192.53 86.36-192.53 192.51v170.97c0 19.03 2.79 37.87 8.27 55.97 11.74 38.66 36.07 73.42 68.53 97.89 33.58 25.28 73.59 38.65 115.73 38.65 106.15 0 192.51-86.37 192.51-192.51 0-29.61-6.92-59.09-20.05-85.48 13.13-26.41 20.05-55.88 20.05-85.49Z" style="fill:#fff"/>
</g><g id="hat" transform="rotate(-19.664861,2554.5888,-1846.2773)"><path id="🎅" style="fill:rgb(255, 95, 77);stroke:#ffffff;stroke-width:39.4767;stroke-linecap:square;stroke-linejoin:round;stroke-miterlimit:5;stroke-dasharray:none;stroke-opacity:1" d="M 1.3888427 -777.64079 C -126.41754 -822.85625 -272.88081 -794.17541 -427.74092 -723.17061 L -411.15071 -760.0823 L -459.32489 -749.02795 L -495.42034 -783.89788 L -500.16434 -732.99008 L -543.31109 -708.17992 L -498.06911 -687.77279 L -488.63916 -637.57198 L -455.93489 -675.86625 L -406.96025 -669.64773 L -425.31773 -701.97648 C -290.88513 -689.16754 -86.608888 -639.13439 -273.63981 -347.58743 C -128.15384 -457.46783 0.38614654 -456.79247 307.39427 -419.56777 C 228.26451 -624.2273 123.30628 -734.50873 1.3888427 -777.64079 z "/></g></svg>
