<svg xmlns="http://www.w3.org/2000/svg" viewBox="0 0 1536 1536">
   <g id="original" transform="translate(256,256)"><circle cx="512" cy="512" r="512" style="fill:#0ac18e"/>
   <path d="M437.36 437.36H300.5V311.29a10.78 10.78 0 0 1 10.5-10.77h126.36Zm141 0V300.52H445.65v136.84Zm145.15 0V311.29A10.78 10.78 0 0 0 713 300.52H586.64v136.84Zm-286.14 8.29H300.5v132.7h136.86Zm8.29 132.69h132.69V445.65h-132.7Zm141-132.69v132.7H723.5v-132.7Zm-286.14 141v126.07a10.77 10.77 0 0 0 10.41 10.76h126.43V586.64Zm145.15 0v136.83h132.68V586.64Zm141 136.84h126.42a10.77 10.77 0 0 0 10.41-10.76V586.64H586.64Z" style="fill:#fff"/>
</g><g id="hat" transform="rotate(-19.664861,2554.5888,-1846.2773)"><path id="🎅" style="fill:rgb(255, 62, 17);stroke:#ffffff;stroke-width:39.4767;stroke-linecap:square;stroke-linejoin:round;stroke-miterlimit:5;stroke-dasharray:none;stroke-opacity:1" d="M 1.3888427 -777.64079 C -126.41754 -822.85625 -272.88081 -794.17541 -427.74092 -723.17061 L -411.15071 -760.0823 L -459.32489 -749.02795 L -495.42034 -783.89788 L -500.16434 -732.99008 L -543.31109 -708.17992 L -498.06911 -687.77279 L -488.63916 -637.57198 L -455.93489 -675.86625 L -406.96025 -669.64773 L -425.31773 -701.97648 C -290.88513 -689.16754 -86.608888 -639.13439 -273.63981 -347.58743 C -128.15384 -457.46783 0.38614654 -456.79247 307.39427 -419.56777 C 228.26451 -624.2273 123.30628 -734.50873 1.3888427 -777.64079 z "/></g></svg>
