<svg xmlns="http://www.w3.org/2000/svg" viewBox="0 0 1536 1536">
   <g id="original" transform="translate(256,256)"><circle cx="512" cy="512" r="512" style="fill:red"/>
   <path d="M608.3 499.9v-1.3c46.5-14 78.2-47.7 78.2-98.6 0-82.1-70-113.3-138-113.3H318.4v6.7l23.1 19.6c27.7 22.6 31.4 27 31.4 47.4v376.8h162.4c85.2 0 170.5-30.6 170.5-128.6-.1-57.7-40.9-102.3-97.5-108.7zM453 355.5h66.1c44.7 0 58.6 6.2 72.2 19 10.3 9.8 15 23.2 15.1 38.9 0 14.5-5 27.6-15.6 37.7-13.2 12.7-31.4 18.9-64.6 18.9H453V355.5zm73.8 313.1H453V538.7h77c64.9 0 95.5 16.5 95.5 63.6 0 59.3-57.4 66.3-98.7 66.3z" style="fill:#fff"/>
</g><g id="hat" transform="rotate(-19.664861,2554.5888,-1846.2773)"><path id="🎅" style="fill:rgb(255, 127, 92);stroke:#ffffff;stroke-width:39.4767;stroke-linecap:square;stroke-linejoin:round;stroke-miterlimit:5;stroke-dasharray:none;stroke-opacity:1" d="M 1.3888427 -777.64079 C -126.41754 -822.85625 -272.88081 -794.17541 -427.74092 -723.17061 L -411.15071 -760.0823 L -459.32489 -749.02795 L -495.42034 -783.89788 L -500.16434 -732.99008 L -543.31109 -708.17992 L -498.06911 -687.77279 L -488.63916 -637.57198 L -455.93489 -675.86625 L -406.96025 -669.64773 L -425.31773 -701.97648 C -290.88513 -689.16754 -86.608888 -639.13439 -273.63981 -347.58743 C -128.15384 -457.46783 0.38614654 -456.79247 307.39427 -419.56777 C 228.26451 -624.2273 123.30628 -734.50873 1.3888427 -777.64079 z "/></g></svg>
