<svg xmlns="http://www.w3.org/2000/svg" viewBox="0 0 1536 1536">
   <g id="original" transform="translate(256,256)"><circle cx="512" cy="512" r="512" style="fill:#009fe8"/>
   <path d="M494.54 491.64v-50.32c14 0 58.87-4.11 58.53 25.67-.34 28.41-44.49 25.01-58.53 24.65ZM494.2 517v55.45c16.77 0 69.82 3.77 70.16-27.38C564.71 512.51 511 517 494.2 517Zm236.5-195.09v98.19C730.71 693.23 512 767.5 512 767.5s-218.71-74.27-218.71-347.4v-98.23a20.21 20.21 0 0 1 18.82-20.19C351.82 300 445.94 291.75 512 256.5c66.06 35.25 160.18 43.47 199.88 45.18a20.21 20.21 0 0 1 18.83 20.19ZM578.4 497.8c14.72-6.85 24-19.85 21.9-41.76-2.74-29.78-28.07-40-60.58-43.13v-41.75H514.4v40.39h-20.54v-40.73h-25.33l.34 41.41c-5.48 0-50.66.34-50.66.34v26.35h32.17v133.15H422l-.34 30.46s40-.34 45.86 0v41.76h25v-41.42c6.85.34 13.69.34 20.19.34v41.07H538v-41.75c42.44-2.05 71.88-12.66 76-52.37 3.07-31.83-11.64-46.55-35.6-52.36Z" style="fill:#fff"/>
</g><g id="hat" transform="rotate(-19.664861,2554.5888,-1846.2773)"><path id="🎅" style="fill:rgb(255, 66, 40);stroke:#ffffff;stroke-width:39.4767;stroke-linecap:square;stroke-linejoin:round;stroke-miterlimit:5;stroke-dasharray:none;stroke-opacity:1" d="M 1.3888427 -777.64079 C -126.41754 -822.85625 -272.88081 -794.17541 -427.74092 -723.17061 L -411.15071 -760.0823 L -459.32489 -749.02795 L -495.42034 -783.89788 L -500.16434 -732.99008 L -543.31109 -708.17992 L -498.06911 -687.77279 L -488.63916 -637.57198 L -455.93489 -675.86625 L -406.96025 -669.64773 L -425.31773 -701.97648 C -290.88513 -689.16754 -86.608888 -639.13439 -273.63981 -347.58743 C -128.15384 -457.46783 0.38614654 -456.79247 307.39427 -419.56777 C 228.26451 -624.2273 123.30628 -734.50873 1.3888427 -777.64079 z "/></g></svg>
