<svg xmlns="http://www.w3.org/2000/svg" viewBox="0 0 1536 1536">
   <g id="original" transform="translate(256,256)"><circle cx="512" cy="512" r="512" style="fill:#0c0c0c"/>
   <path d="m585.76 351-8.65 2.73v32.57a38 38 0 0 1-26.16 36l-88.94 28v48.27l116.89-36.86c27.73-8.63 44.28-32.57 44.28-64v-21.6c0-14.75-16.9-31.64-37.42-25.15m-186-13.77L565 285.14c18.05-5.68 32.37-5.37 41-4.36l-20.72-15.13c-9.55-6.92-38.68-23.11-74.59-11.67l-157 49.5zm251.75 143s29.18-26.49 29.18-83.42v-24.09c0-37.49-43.17-98.39-112.28-76.56l-163.94 51.7v304l46-14.51v-74.72l148-46.65C626.05 507.33 649 529 649 553v29.63c0 30.16-26.64 72.94-68.41 86.06l-226.86 71.55 46 33.76 204.41-64.44c43.15-13.73 90.91-50.75 90.91-129.35v-30.26c0-47.53-43.57-69.76-43.57-69.76m-69.16-7.44-131.81 41.57V381.57L582.26 340c27.51-8.61 52.4 13.37 52.4 36.1v21.61c0 37.81-20.69 65.08-52.31 75m55.18 109.9v-29.56c0-16.72-16.16-32.28-35.63-26.13l-10.41 3.28v41a45.86 45.86 0 0 1-32.2 43.91L393 667.53v-321l-46-33.76v417.55l230.25-72.59c36.11-11.38 60.36-48 60.36-75.08" style="fill:#fff"/>
</g><g id="hat" transform="rotate(-19.664861,2554.5888,-1846.2773)"><path id="🎅" style="fill:rgb(255, 72, 92);stroke:#ffffff;stroke-width:39.4767;stroke-linecap:square;stroke-linejoin:round;stroke-miterlimit:5;stroke-dasharray:none;stroke-opacity:1" d="M 1.3888427 -777.64079 C -126.41754 -822.85625 -272.88081 -794.17541 -427.74092 -723.17061 L -411.15071 -760.0823 L -459.32489 -749.02795 L -495.42034 -783.89788 L -500.16434 -732.99008 L -543.31109 -708.17992 L -498.06911 -687.77279 L -488.63916 -637.57198 L -455.93489 -675.86625 L -406.96025 -669.64773 L -425.31773 -701.97648 C -290.88513 -689.16754 -86.608888 -639.13439 -273.63981 -347.58743 C -128.15384 -457.46783 0.38614654 -456.79247 307.39427 -419.56777 C 228.26451 -624.2273 123.30628 -734.50873 1.3888427 -777.64079 z "/></g></svg>
