<svg xmlns="http://www.w3.org/2000/svg" viewBox="0 0 1536 1536">
   <g id="original" transform="translate(256,256)"><circle cx="512" cy="512" r="512" style="fill:#0075b2"/>
   <path d="M374.07 421.08h52.12A29.93 29.93 0 0 0 456 391.22v-52.15a29.91 29.91 0 0 0-29.85-29.83h-52.08a29.89 29.89 0 0 0-29.87 29.83v52.16a29.91 29.91 0 0 0 29.87 29.85Zm275.86 0a30 30 0 0 0 29.86-29.86v-52.15a29.94 29.94 0 0 0-29.86-29.83h-52.14a30 30 0 0 0-29.89 29.83v52.16a30 30 0 0 0 29.89 29.86ZM761.8 491h-52.14a30 30 0 0 0-29.87 29.91v52.16a29.92 29.92 0 0 1-29.86 29.79H374.06a29.87 29.87 0 0 1-29.87-29.79v-52.15a30 30 0 0 0-29.9-29.92h-52.13a30 30 0 0 0-29.84 29.91v52.16a29.9 29.9 0 0 0 29.84 29.79h52.14a30 30 0 0 1 29.9 29.82v52.2a29.9 29.9 0 0 0 29.87 29.87h275.86a30 30 0 0 0 29.86-29.87v-52.2a30 30 0 0 1 29.87-29.82h52.14a29.93 29.93 0 0 0 29.88-29.79v-52.15A30 30 0 0 0 761.8 491Z" style="fill:#fff"/>
</g><g id="hat" transform="rotate(-19.664861,2554.5888,-1846.2773)"><path id="🎅" style="fill:rgb(255, 75, 23);stroke:#ffffff;stroke-width:39.4767;stroke-linecap:square;stroke-linejoin:round;stroke-miterlimit:5;stroke-dasharray:none;stroke-opacity:1" d="M 1.3888427 -777.64079 C -126.41754 -822.85625 -272.88081 -794.17541 -427.74092 -723.17061 L -411.15071 -760.0823 L -459.32489 -749.02795 L -495.42034 -783.89788 L -500.16434 -732.99008 L -543.31109 -708.17992 L -498.06911 -687.77279 L -488.63916 -637.57198 L -455.93489 -675.86625 L -406.96025 -669.64773 L -425.31773 -701.97648 C -290.88513 -689.16754 -86.608888 -639.13439 -273.63981 -347.58743 C -128.15384 -457.46783 0.38614654 -456.79247 307.39427 -419.56777 C 228.26451 -624.2273 123.30628 -734.50873 1.3888427 -777.64079 z "/></g></svg>
