<svg xmlns="http://www.w3.org/2000/svg" viewBox="0 0 1536 1536">
   <g id="original" transform="translate(256,256)"><circle cx="512" cy="512" r="512" style="fill:#033d58"/>
   <path d="M808.62 415.72a14.13 14.13 0 1 1-14.13 14.13 14.13 14.13 0 0 1 14.13-14.13Zm-413.35 47a57.07 57.07 0 0 1 3 114.09h-3a57.07 57.07 0 0 1-3-114.09Zm0 92.79a34.88 34.88 0 0 0 35.64-34.16v-1.69a35.54 35.54 0 1 0-71.07-.21 34.85 34.85 0 0 0 33.74 35.85 4.11 4.11 0 0 0 1.69.24Zm129.49-92.79a57.06 57.06 0 1 1-58 57.15A56.35 56.35 0 0 1 522.65 463a7.91 7.91 0 0 1 2.11-.25Zm0 92.79a34.88 34.88 0 0 0 35.64-34.16v-1.69a35.54 35.54 0 1 0-71.07-.21 34.85 34.85 0 0 0 33.74 35.85 5.24 5.24 0 0 0 1.69.24ZM797.23 572V465.28a2.44 2.44 0 0 1 2.53-2.53h17.5a2.56 2.56 0 0 1 2.53 2.53V572a2.56 2.56 0 0 1-2.53 2.53h-17.5a2.56 2.56 0 0 1-2.53-2.53Zm-65.8-109.24a45.45 45.45 0 0 0-39 20.46c-7-12.65-20.25-20.46-39-20.46s-29.74 10.54-33.11 16v-17.28A2.53 2.53 0 0 0 618 459a3.91 3.91 0 0 0-1.48.42l-18.35 10.54a1.16 1.16 0 0 0-.63 1.05v100.77a2.44 2.44 0 0 0 2.53 2.53h17.71a2.44 2.44 0 0 0 2.53-2.53v-58.84c0-18.14 13.29-28.68 29.52-28.68s25.73 10.54 25.73 28.68v59.26a2.56 2.56 0 0 0 2.53 2.53h17.71a2.56 2.56 0 0 0 2.53-2.53v-60.74c.63-17.29 13.71-27.21 29.74-27.21s25.73 10.54 25.73 28.68v59.27a2.56 2.56 0 0 0 2.53 2.53H774a2.56 2.56 0 0 0 2.53-2.53v-64.11c-.18-26.57-15.99-45.34-45.1-45.34Zm-467.34 0a58 58 0 0 0-40.28 15.4v-75.5a2.44 2.44 0 0 0-2.53-2.53 3 3 0 0 0-1.27.42l-18.14 10.54a1.16 1.16 0 0 0-.63 1.05V572a2.56 2.56 0 0 0 2.53 2.53h17.73A2.56 2.56 0 0 0 224 572v-10.56a58.37 58.37 0 0 0 40.28 15.4A57.06 57.06 0 1 0 267 462.75Zm0 92.79a34.88 34.88 0 0 1-35.64-34.16v-1.69a35.64 35.64 0 1 1 71.28 0A34.85 34.85 0 0 1 266 555.54Z" style="fill:#fff"/>
</g><g id="hat" transform="rotate(-19.664861,2554.5888,-1846.2773)"><path id="🎅" style="fill:rgb(255, 94, 88);stroke:#ffffff;stroke-width:39.4767;stroke-linecap:square;stroke-linejoin:round;stroke-miterlimit:5;stroke-dasharray:none;stroke-opacity:1" d="M 1.3888427 -777.64079 C -126.41754 -822.85625 -272.88081 -794.17541 -427.74092 -723.17061 L -411.15071 -760.0823 L -459.32489 -749.02795 L -495.42034 -783.89788 L -500.16434 -732.99008 L -543.31109 -708.17992 L -498.06911 -687.77279 L -488.63916 -637.57198 L -455.93489 -675.86625 L -406.96025 -669.64773 L -425.31773 -701.97648 C -290.88513 -689.16754 -86.608888 -639.13439 -273.63981 -347.58743 C -128.15384 -457.46783 0.38614654 -456.79247 307.39427 -419.56777 C 228.26451 -624.2273 123.30628 -734.50873 1.3888427 -777.64079 z "/></g></svg>
