<svg xmlns="http://www.w3.org/2000/svg" viewBox="0 0 1536 1536">
   <g id="original" transform="translate(256,256)"><circle cx="512" cy="512" r="512" style="fill:#0061d5"/>
   <path d="M520.29 416.51a95.48 95.48 0 0 0-84.38 50.75 95.56 95.56 0 0 0-141.73-31.64v-80.48a19.09 19.09 0 0 0-38.18 0v158.47a95.52 95.52 0 0 0 179.88 43.21 95.53 95.53 0 1 0 84.38-140.31m-168.75 152.8A57.28 57.28 0 1 1 408.79 512a57.31 57.31 0 0 1-57.28 57.3m168.78 0a57.28 57.28 0 1 1 57.29-57.3 57.3 57.3 0 0 1-57.29 57.3M764 575.58c6.58 8.44 4.69 20.16-4.38 26.43s-21.83 4.67-28.86-3.51l-44.66-54.74-44.66 54.74c-7 8.18-19.78 9.78-28.84 3.51s-10.95-18-4.34-26.43l51.89-63.69-51.89-63.81c-6.61-8.42-4.71-20.17 4.34-26.42s21.88-4.68 28.84 3.48l44.68 54.81 44.72-54.81a22 22 0 0 1 28.86-3.48c9.07 6.24 11 18 4.39 26.42l-52 63.81L764 575.58" style="fill:#fff"/>
</g><g id="hat" transform="rotate(-19.664861,2554.5888,-1846.2773)"><path id="🎅" style="fill:rgb(255, 89, 55);stroke:#ffffff;stroke-width:39.4767;stroke-linecap:square;stroke-linejoin:round;stroke-miterlimit:5;stroke-dasharray:none;stroke-opacity:1" d="M 1.3888427 -777.64079 C -126.41754 -822.85625 -272.88081 -794.17541 -427.74092 -723.17061 L -411.15071 -760.0823 L -459.32489 -749.02795 L -495.42034 -783.89788 L -500.16434 -732.99008 L -543.31109 -708.17992 L -498.06911 -687.77279 L -488.63916 -637.57198 L -455.93489 -675.86625 L -406.96025 -669.64773 L -425.31773 -701.97648 C -290.88513 -689.16754 -86.608888 -639.13439 -273.63981 -347.58743 C -128.15384 -457.46783 0.38614654 -456.79247 307.39427 -419.56777 C 228.26451 -624.2273 123.30628 -734.50873 1.3888427 -777.64079 z "/></g></svg>
