<svg xmlns="http://www.w3.org/2000/svg" viewBox="0 0 1536 1536">
   <g id="original" transform="translate(256,256)"><circle cx="512" cy="512" r="512" style="fill:#c09c7c"/>
   <path d="M422.13 274.88c61.69-25.51 133.52-25.15 195 1 57 23.63 104.31 69 131.24 124.41-42.79 19.1-85.42 38.61-128.34 57.4a114.94 114.94 0 0 0-61.79-50.22 116.81 116.81 0 0 0-89.52 6.31 113.78 113.78 0 0 0-51.27 52.1 111.15 111.15 0 0 0-8.76 69.7 112.27 112.27 0 0 0 41.45 66.53 115.91 115.91 0 0 0 75.52 24.05c39.53-1.1 77.22-24.51 96.16-59.12 42.17 18.87 84.24 38 126.47 56.66-31.77 66.4-93.57 117.7-165 136a256 256 0 0 1-161.16-484.82Zm253.94 238.4c2.41 21.94 24.12 39.59 46.15 36.89 23.23-1.77 41.84-25.3 37.91-48.33-2.87-24.45-29.68-42.46-53.38-35.05-19.67 5.39-33.82 26.15-30.68 46.49Z" style="fill:#fff"/>
</g><g id="hat" transform="rotate(-19.664861,2554.5888,-1846.2773)"><path id="🎅" style="fill:rgb(255, 122, 35);stroke:#ffffff;stroke-width:39.4767;stroke-linecap:square;stroke-linejoin:round;stroke-miterlimit:5;stroke-dasharray:none;stroke-opacity:1" d="M 1.3888427 -777.64079 C -126.41754 -822.85625 -272.88081 -794.17541 -427.74092 -723.17061 L -411.15071 -760.0823 L -459.32489 -749.02795 L -495.42034 -783.89788 L -500.16434 -732.99008 L -543.31109 -708.17992 L -498.06911 -687.77279 L -488.63916 -637.57198 L -455.93489 -675.86625 L -406.96025 -669.64773 L -425.31773 -701.97648 C -290.88513 -689.16754 -86.608888 -639.13439 -273.63981 -347.58743 C -128.15384 -457.46783 0.38614654 -456.79247 307.39427 -419.56777 C 228.26451 -624.2273 123.30628 -734.50873 1.3888427 -777.64079 z "/></g></svg>
