<svg xmlns="http://www.w3.org/2000/svg" viewBox="0 0 1536 1536">
   <g id="original" transform="translate(256,256)"><circle cx="512" cy="512" r="512"/>
   <path d="M192 372.47v279.06h640V372.47Zm623 262H209v-245h606ZM284.57 519c0-31.57 26.51-50.1 50.29-50.1 17 0 32.9 6.42 41.41 21.21l-15.9 9.27a29.87 29.87 0 0 0-25.19-13.41c-14 0-30.63 11-30.63 32.71 0 21.21 15.9 32.9 31.95 32.9 11.16 0 20.43-6.25 25.91-15.9l16.26 7.55c-9.2 16.64-25.66 25.51-44.74 25.51-24.02-.05-49.36-18.61-49.36-49.74Zm150.9 49.72c13.22 0 25.7-5.87 32.14-14.37V566h19.64v-94.68h-19.64V483c-6.12-8.59-18.9-14.18-32.14-14.18-28.93 0-49.17 21.17-49.17 49.91 0 28.22 20.43 49.96 49.17 49.96Zm1.89-81.86c18.15 0 30.61 13.6 30.61 31.95s-12.48 31.95-30.61 31.95c-18.54 0-31-13.8-31-32.33-.01-18.16 12.85-31.6 31-31.6Zm149.13 2.78h-15.11V470.7h15.3v-28h20.24v28h21v18.92h-21V566h-20.43Zm97.4 79.07c13.24 0 25.72-5.87 32.16-14.37V566h19.66v-94.68H716V483c-6.12-8.59-18.9-14.18-32.16-14.18-28.91 0-49.14 21.17-49.14 49.91.04 28.22 20.45 49.96 49.19 49.96Zm1.91-81.86c18.13 0 30.63 13.6 30.63 31.95s-12.5 31.95-30.63 31.95c-18.54 0-31-13.8-31-32.33-.01-18.15 12.85-31.59 31-31.59Zm-157.87 79.06H507.5v-94.72h18.71v16.45c3.87-10.69 12.05-18 22.89-18a28.77 28.77 0 0 1 7 .74v18.32c-15.26-1.79-28.16 8.89-28.16 33.29Z" style="fill:#fff"/>
</g><g id="hat" transform="rotate(-19.664861,2554.5888,-1846.2773)"><path id="🎅" style="fill:rgb(255, 19, 104);stroke:#ffffff;stroke-width:39.4767;stroke-linecap:square;stroke-linejoin:round;stroke-miterlimit:5;stroke-dasharray:none;stroke-opacity:1" d="M 1.3888427 -777.64079 C -126.41754 -822.85625 -272.88081 -794.17541 -427.74092 -723.17061 L -411.15071 -760.0823 L -459.32489 -749.02795 L -495.42034 -783.89788 L -500.16434 -732.99008 L -543.31109 -708.17992 L -498.06911 -687.77279 L -488.63916 -637.57198 L -455.93489 -675.86625 L -406.96025 -669.64773 L -425.31773 -701.97648 C -290.88513 -689.16754 -86.608888 -639.13439 -273.63981 -347.58743 C -128.15384 -457.46783 0.38614654 -456.79247 307.39427 -419.56777 C 228.26451 -624.2273 123.30628 -734.50873 1.3888427 -777.64079 z "/></g></svg>
