<svg xmlns="http://www.w3.org/2000/svg" viewBox="0 0 1536 1536">
   <g id="original" transform="translate(256,256)"><circle cx="512" cy="512" r="512" style="fill:#7f3f98"/>
   <path d="M753.5 405.72v231.03L572.16 757.5c-28.85 19.23-52.22 6.68-52.22-27.95V592.6c0-17.31 11.69-39.15 26.13-48.74L753.5 405.71Zm-483 0 207.43 138.15c14.42 9.58 26.13 31.43 26.13 48.74v136.95c0 34.63-23.39 47.18-52.22 27.95L270.5 636.76V405.73Zm276.37-148.24c7.49 0 16.11 2.89 25.28 8.99l181.34 120.75-173.48 115.54-33.96-22.61c-14.44-9.62-26.12-31.44-26.12-48.78V294.42c0-23.61 10.87-36.94 26.93-36.94Zm-69.74 0c16.06 0 26.93 13.34 26.93 36.94v136.95c0 17.35-11.7 39.16-26.13 48.78l-33.95 22.61-173.49-115.54 181.34-120.75c9.17-6.1 17.79-8.99 25.29-8.99Z" style="fill:#fff"/>
</g><g id="hat" transform="rotate(-19.664861,2554.5888,-1846.2773)"><path id="🎅" style="fill:rgb(255, 116, 90);stroke:#ffffff;stroke-width:39.4767;stroke-linecap:square;stroke-linejoin:round;stroke-miterlimit:5;stroke-dasharray:none;stroke-opacity:1" d="M 1.3888427 -777.64079 C -126.41754 -822.85625 -272.88081 -794.17541 -427.74092 -723.17061 L -411.15071 -760.0823 L -459.32489 -749.02795 L -495.42034 -783.89788 L -500.16434 -732.99008 L -543.31109 -708.17992 L -498.06911 -687.77279 L -488.63916 -637.57198 L -455.93489 -675.86625 L -406.96025 -669.64773 L -425.31773 -701.97648 C -290.88513 -689.16754 -86.608888 -639.13439 -273.63981 -347.58743 C -128.15384 -457.46783 0.38614654 -456.79247 307.39427 -419.56777 C 228.26451 -624.2273 123.30628 -734.50873 1.3888427 -777.64079 z "/></g></svg>
