<svg xmlns="http://www.w3.org/2000/svg" viewBox="0 0 1536 1536">
   <g id="original" transform="translate(256,256)"><circle cx="512" cy="512" r="512" style="fill:#0182ff"/>
   <path d="M623.89 232a28.11 28.11 0 0 0-10.3 1.81l-226.27 98.86-.89.38a61.06 61.06 0 0 0-35 42.38 61 61 0 0 0 31.38 40.65L413.7 430l240.92-105.11v-62.84A30.7 30.7 0 0 0 623.89 232Zm30.79 119.24-209.54 91.49 93.36 40.72h.18v.18l31.09 13.58 68.46-29.94.62-.33a30.59 30.59 0 0 0 15.83-26.78Zm-305.36 38.33v149.28L654 671.87v-89.66a30.26 30.26 0 0 0-17.52-26.92l-98.5-43v-.18h-.18L413.12 457.7l-30.91-13.92-.81-.43a61 61 0 0 1-32.08-53.79Zm0 176.7V638a60.7 60.7 0 0 0 37.41 53.49l224.65 98.14a32.62 32.62 0 0 0 11.93 2.37A30.7 30.7 0 0 0 654 761.27v-62Z" style="fill:#fff"/>
</g><g id="hat" transform="rotate(-19.664861,2554.5888,-1846.2773)"><path id="🎅" style="fill:rgb(255, 72, 35);stroke:#ffffff;stroke-width:39.4767;stroke-linecap:square;stroke-linejoin:round;stroke-miterlimit:5;stroke-dasharray:none;stroke-opacity:1" d="M 1.3888427 -777.64079 C -126.41754 -822.85625 -272.88081 -794.17541 -427.74092 -723.17061 L -411.15071 -760.0823 L -459.32489 -749.02795 L -495.42034 -783.89788 L -500.16434 -732.99008 L -543.31109 -708.17992 L -498.06911 -687.77279 L -488.63916 -637.57198 L -455.93489 -675.86625 L -406.96025 -669.64773 L -425.31773 -701.97648 C -290.88513 -689.16754 -86.608888 -639.13439 -273.63981 -347.58743 C -128.15384 -457.46783 0.38614654 -456.79247 307.39427 -419.56777 C 228.26451 -624.2273 123.30628 -734.50873 1.3888427 -777.64079 z "/></g></svg>
