<svg xmlns="http://www.w3.org/2000/svg" viewBox="0 0 1536 1536">
   <g id="original" transform="translate(256,256)"><circle cx="512" cy="512" r="512" style="fill:#002967"/>
   <path d="M732.4 639.26 512 766.5 291.64 639.26V384.79L512 257.5l220.4 127.29ZM512 233 270.39 372.51v279L512 791l241.61-139.51v-279Zm94.68 120.46H416.85l-22 96.8h234.74Zm-156.18 230v-64.31l-56.21-35.75-63.65 47.31 86.76 150.87h34.66l41-38.16v-19.18Zm123.18-118.6H450.75l20.71 54.07-6.31 60.61H512l47.31-.22-5.89-60.39ZM629.93 483l-55.58 36.19v64.32l-42.51 40.77v19.17l41 37.72H607l86.32-150.43Z" style="fill:#fff"/>
</g><g id="hat" transform="rotate(-19.664861,2554.5888,-1846.2773)"><path id="🎅" style="fill:rgb(255, 62, 75);stroke:#ffffff;stroke-width:39.4767;stroke-linecap:square;stroke-linejoin:round;stroke-miterlimit:5;stroke-dasharray:none;stroke-opacity:1" d="M 1.3888427 -777.64079 C -126.41754 -822.85625 -272.88081 -794.17541 -427.74092 -723.17061 L -411.15071 -760.0823 L -459.32489 -749.02795 L -495.42034 -783.89788 L -500.16434 -732.99008 L -543.31109 -708.17992 L -498.06911 -687.77279 L -488.63916 -637.57198 L -455.93489 -675.86625 L -406.96025 -669.64773 L -425.31773 -701.97648 C -290.88513 -689.16754 -86.608888 -639.13439 -273.63981 -347.58743 C -128.15384 -457.46783 0.38614654 -456.79247 307.39427 -419.56777 C 228.26451 -624.2273 123.30628 -734.50873 1.3888427 -777.64079 z "/></g></svg>
