<svg xmlns="http://www.w3.org/2000/svg" viewBox="0 0 1536 1536">
   <g id="original" transform="translate(256,256)"><circle cx="512" cy="512" r="512" style="fill:#19288a"/>
   <path d="M512.76 258.27a253.57 253.57 0 0 0-149.27 48.26l147.87 147.53L662 305.15a262.41 262.41 0 0 0-149.24-46.88zm0 507.46a253.56 253.56 0 0 1-149.27-48.26l147.87-147.53L662 718.85a262.42 262.42 0 0 1-149.24 46.88zM304.83 364.45A246.73 246.73 0 0 0 256 512c0 55.15 18.14 106.17 47.43 147.53L452.7 512zM768 512a246.73 246.73 0 0 0-48.83-147.53L571.3 512l149.27 147.52C749.86 618.15 768 567.14 768 512z" style="fill:#fff"/>
</g><g id="hat" transform="rotate(-19.664861,2554.5888,-1846.2773)"><path id="🎅" style="fill:rgb(255, 67, 45);stroke:#ffffff;stroke-width:39.4767;stroke-linecap:square;stroke-linejoin:round;stroke-miterlimit:5;stroke-dasharray:none;stroke-opacity:1" d="M 1.3888427 -777.64079 C -126.41754 -822.85625 -272.88081 -794.17541 -427.74092 -723.17061 L -411.15071 -760.0823 L -459.32489 -749.02795 L -495.42034 -783.89788 L -500.16434 -732.99008 L -543.31109 -708.17992 L -498.06911 -687.77279 L -488.63916 -637.57198 L -455.93489 -675.86625 L -406.96025 -669.64773 L -425.31773 -701.97648 C -290.88513 -689.16754 -86.608888 -639.13439 -273.63981 -347.58743 C -128.15384 -457.46783 0.38614654 -456.79247 307.39427 -419.56777 C 228.26451 -624.2273 123.30628 -734.50873 1.3888427 -777.64079 z "/></g></svg>
