<svg xmlns="http://www.w3.org/2000/svg" viewBox="0 0 1536 1536">
   <g id="original" transform="translate(256,256)"><circle cx="512" cy="512" r="512" style="fill:#6436ff"/>
   <path d="M761.3 495.9 580.1 314.7c-8.9-8.9-23.3-8.9-32.2 0L441.7 420.9 411 390.2c-8.9-8.9-23.3-8.9-32.2 0L262.7 506.3c-8.9 8.9-8.9 23.3 0 32.2l116.2 116.2c8.9 8.9 23.3 8.9 32.2 0l20.3-20.3-85.5-85.4c-8.9-8.9-8.9-23.3 0-32.2l4.7-4.7 197.3 197.3c8.9 8.9 23.3 8.9 32.2 0l181.2-181.2c8.9-9 8.9-23.4 0-32.3z" style="fill:#fff"/>
</g><g id="hat" transform="rotate(-19.664861,2554.5888,-1846.2773)"><path id="🎅" style="fill:rgb(255, 41, 87);stroke:#ffffff;stroke-width:39.4767;stroke-linecap:square;stroke-linejoin:round;stroke-miterlimit:5;stroke-dasharray:none;stroke-opacity:1" d="M 1.3888427 -777.64079 C -126.41754 -822.85625 -272.88081 -794.17541 -427.74092 -723.17061 L -411.15071 -760.0823 L -459.32489 -749.02795 L -495.42034 -783.89788 L -500.16434 -732.99008 L -543.31109 -708.17992 L -498.06911 -687.77279 L -488.63916 -637.57198 L -455.93489 -675.86625 L -406.96025 -669.64773 L -425.31773 -701.97648 C -290.88513 -689.16754 -86.608888 -639.13439 -273.63981 -347.58743 C -128.15384 -457.46783 0.38614654 -456.79247 307.39427 -419.56777 C 228.26451 -624.2273 123.30628 -734.50873 1.3888427 -777.64079 z "/></g></svg>
