<svg xmlns="http://www.w3.org/2000/svg" viewBox="0 0 1536 1536">
   <g id="original" transform="translate(256,256)"><circle cx="512" cy="512" r="512" style="fill:#86c78d"/>
   <path d="M367.85 257a44.62 44.62 0 0 0-37.59 21.66L282.65 358c-7.52 9.62-7.52 24 0 36.08l52.62 96.22c7.5 13 11.06 31 2.5 43.31l-55.12 96.22c-7.5 9.62-7.5 24 0 36.06l47.63 79.41c6.92 13.3 22.59 21.64 37.59 21.64h250.61c15 0 30.05-7.21 37.59-21.66l125.31-211.7q11.26-21.64 0-43.29L656 278.64c-7.49-14.45-22.53-21.64-37.56-21.64ZM443 379.69h102.78c15 0 30.05 7.21 37.59 21.64l52.64 89q11.26 21.67 0 43.31l-52.64 86.59c-7.52 14.44-22.57 21.67-37.59 21.67H443s-14.35.47-14.35-2.55l63.89-105.71q11.53-21.67 0-43.31l-63.93-108.11c0-3 14.41-2.55 14.41-2.55Z" style="fill:#fff"/>
</g><g id="hat" transform="rotate(-19.664861,2554.5888,-1846.2773)"><path id="🎅" style="fill:rgb(255, 54, 12);stroke:#ffffff;stroke-width:39.4767;stroke-linecap:square;stroke-linejoin:round;stroke-miterlimit:5;stroke-dasharray:none;stroke-opacity:1" d="M 1.3888427 -777.64079 C -126.41754 -822.85625 -272.88081 -794.17541 -427.74092 -723.17061 L -411.15071 -760.0823 L -459.32489 -749.02795 L -495.42034 -783.89788 L -500.16434 -732.99008 L -543.31109 -708.17992 L -498.06911 -687.77279 L -488.63916 -637.57198 L -455.93489 -675.86625 L -406.96025 -669.64773 L -425.31773 -701.97648 C -290.88513 -689.16754 -86.608888 -639.13439 -273.63981 -347.58743 C -128.15384 -457.46783 0.38614654 -456.79247 307.39427 -419.56777 C 228.26451 -624.2273 123.30628 -734.50873 1.3888427 -777.64079 z "/></g></svg>
