<svg xmlns="http://www.w3.org/2000/svg" viewBox="0 0 1536 1536">
   <g id="original" transform="translate(256,256)"><circle cx="512" cy="512" r="512" style="fill:#2e2ea3"/>
   <path d="M528.86 533.8a175.86 175.86 0 0 1-80.76-19.69 138.92 138.92 0 0 1 73.43-26A25.65 25.65 0 0 1 517 470.6a63 63 0 0 1 11.91-33.13 61.83 61.83 0 0 1 11.91 33.13 24.27 24.27 0 0 1-4.58 17.56 139.07 139.07 0 0 1 73.58 26 176.47 176.47 0 0 1-80.96 19.64ZM707 479.3a69.15 69.15 0 0 0 1.07-11.3A64 64 0 0 0 644 404.2a72.21 72.21 0 0 0-14.2 1.53 154 154 0 0 0-296.62 57.4v2.75C377.12 477.78 417 521 440 537.16a156.48 156.48 0 0 0 179.53 0c34.2-23.2 58-29.92 80-29a60.15 60.15 0 0 1 57.4 58.93 56.94 56.94 0 0 1-56.17 57.7 74 74 0 0 1-50.84-18.93 1.38 1.38 0 0 1 1.53-2.29 70.07 70.07 0 0 0 63.35 7.94 41.68 41.68 0 0 0 23.66-36.79 36.94 36.94 0 0 0-34.33-39.38 38.32 38.32 0 0 0-30.53 9.77 140.6 140.6 0 0 0-32.21 45.8c-13.59 27.78-36.33 58.32-64 69.92h122.14a91.6 91.6 0 0 0 7-181.51ZM433 625.25c-15.27-18.78-27.78-35.72-61.06-85.95s-82.28-53.13-99.84-37.86A101.67 101.67 0 0 0 342 676.08h143.8c-20.8-8.85-37.7-31.9-52.8-50.68M289.8 379.16a25.19 25.19 0 0 0 24.58-25.78 25.19 25.19 0 0 0-24.56-25.8 25.19 25.19 0 0 0-24.58 25.78 25.19 25.19 0 0 0 24.56 25.8m-28.7 48.09a20 20 0 0 0 19.54-20.45 20 20 0 0 0-19.22-20.8h-.32a20 20 0 0 0-19.55 20.44v.32a20 20 0 0 0 19.53 20.46m11 19.85a15.27 15.27 0 1 0 15.27-15.27 15.27 15.27 0 0 0-15.27 15.27" style="fill:#fff"/>
</g><g id="hat" transform="rotate(-19.664861,2554.5888,-1846.2773)"><path id="🎅" style="fill:rgb(255, 70, 12);stroke:#ffffff;stroke-width:39.4767;stroke-linecap:square;stroke-linejoin:round;stroke-miterlimit:5;stroke-dasharray:none;stroke-opacity:1" d="M 1.3888427 -777.64079 C -126.41754 -822.85625 -272.88081 -794.17541 -427.74092 -723.17061 L -411.15071 -760.0823 L -459.32489 -749.02795 L -495.42034 -783.89788 L -500.16434 -732.99008 L -543.31109 -708.17992 L -498.06911 -687.77279 L -488.63916 -637.57198 L -455.93489 -675.86625 L -406.96025 -669.64773 L -425.31773 -701.97648 C -290.88513 -689.16754 -86.608888 -639.13439 -273.63981 -347.58743 C -128.15384 -457.46783 0.38614654 -456.79247 307.39427 -419.56777 C 228.26451 -624.2273 123.30628 -734.50873 1.3888427 -777.64079 z "/></g></svg>
