<svg xmlns="http://www.w3.org/2000/svg" viewBox="0 0 1536 1536">
   <g id="original" transform="translate(256,256)"><circle cx="512" cy="512" r="512" style="fill:#009cde"/>
   <path d="M594.19 354.17C557.46 317.46 522.42 282.47 512 243c-10.43 39.47-45.48 74.46-82.2 111.17-55.08 55-117.53 117.43-117.53 211-.05 110.31 89.33 199.78 199.64 199.83s199.78-89.33 199.83-199.64v-.18c0-93.56-62.45-156-117.54-211m-197 257.54c-12.25-.42-57.45-78.32 26.4-161.27l55.49 60.61a4.74 4.74 0 0 1-.37 7.08C465.44 531.71 409 588.3 402 607.87c-1.45 4-3.56 3.89-4.83 3.84M512 714.39a68.69 68.69 0 0 1-68.69-68.69 71.58 71.58 0 0 1 17.12-45.37c12.38-15.15 51.57-57.75 51.57-57.75s38.58 43.23 51.47 57.6a67.18 67.18 0 0 1 17.23 45.52 68.69 68.69 0 0 1-68.7 68.69M643.48 603c-1.48 3.24-4.84 8.64-9.37 8.81-8.08.29-8.94-3.85-14.92-12.68-13.11-19.4-127.54-139-148.94-162.12-18.83-20.34-2.65-34.68 4.85-42.2 9.41-9.43 36.89-36.89 36.89-36.89S593.92 435.64 628 488.76s22.42 99.07 15.48 114.24" style="fill:#fff"/>
</g><g id="hat" transform="rotate(-19.664861,2554.5888,-1846.2773)"><path id="🎅" style="fill:rgb(255, 2, 87);stroke:#ffffff;stroke-width:39.4767;stroke-linecap:square;stroke-linejoin:round;stroke-miterlimit:5;stroke-dasharray:none;stroke-opacity:1" d="M 1.3888427 -777.64079 C -126.41754 -822.85625 -272.88081 -794.17541 -427.74092 -723.17061 L -411.15071 -760.0823 L -459.32489 -749.02795 L -495.42034 -783.89788 L -500.16434 -732.99008 L -543.31109 -708.17992 L -498.06911 -687.77279 L -488.63916 -637.57198 L -455.93489 -675.86625 L -406.96025 -669.64773 L -425.31773 -701.97648 C -290.88513 -689.16754 -86.608888 -639.13439 -273.63981 -347.58743 C -128.15384 -457.46783 0.38614654 -456.79247 307.39427 -419.56777 C 228.26451 -624.2273 123.30628 -734.50873 1.3888427 -777.64079 z "/></g></svg>
