<svg xmlns="http://www.w3.org/2000/svg" viewBox="0 0 1536 1536">
   <g id="original" transform="translate(256,256)"><circle cx="512" cy="512" r="512" style="fill:#009ddc"/>
   <path d="m635.61 350.62 36.88-72-89.57 50.93c4.39-28.1 9.66-66.74 17.56-118.55-195.82 104.5-264.32 212.51-288 281.88-.88 2.63-1.76 4.39-2.63 7-12.32 40.42-8.85 66.76-8.85 66.76C303.68 680.8 396.76 773 511.79 773c116.79 0 211.63-94.84 211.63-210.75V350.62ZM618 561.37c0 58-47.42 105.38-105.37 105.38S407.3 619.33 407.3 561.37 454.72 456 512.67 456H618Zm-156.31 0c0 27.22 22.83 50.05 50.05 50.05a50 50 0 0 0 50.05-50.05 50 50 0 0 0-50.05-50.05c-27.17 0-50 22.83-50 50.05Z" style="fill:#fff"/>
</g><g id="hat" transform="rotate(-19.664861,2554.5888,-1846.2773)"><path id="🎅" style="fill:rgb(255, 116, 118);stroke:#ffffff;stroke-width:39.4767;stroke-linecap:square;stroke-linejoin:round;stroke-miterlimit:5;stroke-dasharray:none;stroke-opacity:1" d="M 1.3888427 -777.64079 C -126.41754 -822.85625 -272.88081 -794.17541 -427.74092 -723.17061 L -411.15071 -760.0823 L -459.32489 -749.02795 L -495.42034 -783.89788 L -500.16434 -732.99008 L -543.31109 -708.17992 L -498.06911 -687.77279 L -488.63916 -637.57198 L -455.93489 -675.86625 L -406.96025 -669.64773 L -425.31773 -701.97648 C -290.88513 -689.16754 -86.608888 -639.13439 -273.63981 -347.58743 C -128.15384 -457.46783 0.38614654 -456.79247 307.39427 -419.56777 C 228.26451 -624.2273 123.30628 -734.50873 1.3888427 -777.64079 z "/></g></svg>
