<svg xmlns="http://www.w3.org/2000/svg" viewBox="0 0 1536 1536">
   <g id="original" transform="translate(256,256)"><circle cx="512" cy="512" r="512" style="fill:#ff4008"/>
   <path d="M752.29 452.46A46.12 46.12 0 0 0 712 473.53a39.82 39.82 0 0 0-36-21.07 46.62 46.62 0 0 0-32.78 12.62l-.66-8a1.56 1.56 0 0 0-1.56-1.43h-24.14a1.56 1.56 0 0 0-1.56 1.56v109.62a1.56 1.56 0 0 0 1.56 1.56h24.92a1.56 1.56 0 0 0 1.56-1.56v-51.74c.68-22.81 11.33-35.22 25.69-35.22 16.17 0 23.38 13.16 23.38 30.56v56.4a1.56 1.56 0 0 0 1.56 1.56h24.92a1.56 1.56 0 0 0 1.56-1.56v-49.36c0-22.65 10.53-37.6 24.92-37.6C761 479.87 768 493 768 510.43v56.4a1.56 1.56 0 0 0 1.56 1.56h24.06a1.56 1.56 0 0 0 1.56-1.56v-56.4c.12-36.18-17-57.97-42.89-57.97zm-211.83 0c-31.85 0-57.67 26.66-57.67 59.53s25.82 59.53 57.67 59.53 57.67-26.66 57.67-59.53-25.83-59.53-57.67-59.53zm0 92c-16.15 0-29.61-14.54-29.61-32.5s13.48-32.5 29.61-32.5 29.6 14.54 29.6 32.54-13.45 32.49-29.6 32.49zm-120-92a48.43 48.43 0 0 0-34.25 13.59l-.68-8.9a1.56 1.56 0 0 0-1.56-1.45h-24.29a1.56 1.56 0 0 0-1.56 1.56v109.57a1.56 1.56 0 0 0 1.56 1.56h24.92a1.56 1.56 0 0 0 1.56-1.56v-51.62c.75-22.88 12.75-35.34 27.18-35.34 16.17 0 24.17 13.16 24.17 30.56v56.4a1.56 1.56 0 0 0 1.56 1.56H464a1.56 1.56 0 0 0 1.56-1.56v-56.4c.08-36.18-18.38-57.97-45.13-57.97zm-102.82 80.87a1.54 1.54 0 0 0-2.11.11 38.26 38.26 0 0 1-27.18 11.44 29.9 29.9 0 0 1-17.87-5.28L340 488.8a1.56 1.56 0 0 0 .41-1.86c-4.76-10.46-20.68-34.43-52.1-34.43a59.53 59.53 0 0 0 0 119.05c18.48 0 37.17-8.2 48-20.68a1.56 1.56 0 0 0-.13-2.21l-.07-.06zm-29.45-54.23a27.18 27.18 0 0 1 17.58 5.57l-49.2 35.95c-5.59-20.36 11.21-41.52 31.69-41.52z" style="fill:#fff"/>
</g><g id="hat" transform="rotate(-19.664861,2554.5888,-1846.2773)"><path id="🎅" style="fill:rgb(255, 94, 29);stroke:#ffffff;stroke-width:39.4767;stroke-linecap:square;stroke-linejoin:round;stroke-miterlimit:5;stroke-dasharray:none;stroke-opacity:1" d="M 1.3888427 -777.64079 C -126.41754 -822.85625 -272.88081 -794.17541 -427.74092 -723.17061 L -411.15071 -760.0823 L -459.32489 -749.02795 L -495.42034 -783.89788 L -500.16434 -732.99008 L -543.31109 -708.17992 L -498.06911 -687.77279 L -488.63916 -637.57198 L -455.93489 -675.86625 L -406.96025 -669.64773 L -425.31773 -701.97648 C -290.88513 -689.16754 -86.608888 -639.13439 -273.63981 -347.58743 C -128.15384 -457.46783 0.38614654 -456.79247 307.39427 -419.56777 C 228.26451 -624.2273 123.30628 -734.50873 1.3888427 -777.64079 z "/></g></svg>
