<svg xmlns="http://www.w3.org/2000/svg" viewBox="0 0 1536 1536">
   <g id="original" transform="translate(256,256)"><circle cx="512" cy="512" r="512" style="fill:#222133"/>
   <path d="M261.41 563.51a251.31 251.31 0 0 1 0-103.77h279.27c2.71 0 4.51.45 6.32 2.71 15.79 15.34 31.13 30.68 46.92 46 3.16 3.16 3.16 3.61 0 6.77-15.79 15.34-31.58 31.13-47.37 46.47a6.78 6.78 0 0 1-5 1.81H261.41Zm260.78 188.14a238.73 238.73 0 0 1-69-9.93c-8.12-2.26-12.63-9-10.38-16.24s9.47-10.83 17.14-8.57a230.59 230.59 0 0 0 74.44 8.57c59.1-3.61 109.63-27.07 150.24-70.38 29.33-31.58 47.82-69 54.14-111.89 9-62.26-6.77-118.2-47.37-166.48-36.54-43.76-83.46-69-139.86-76.7-31.58-4.51-62.26-1.8-92.94 7.22-4.51 1.35-8.57 1.35-12.63-1.35-4.51-3.16-6.32-7.22-5.86-12.63.9-5.41 3.61-9 9-10.38 10.38-2.71 20.75-5.41 30.68-7.22 57.3-9.47 111.89-1.35 162.42 27.07 64.06 35.64 105.57 89.33 120.46 161.06 15.78 77.2-3.67 145.73-55.51 204.84-37.45 42.86-85.27 68.58-141.21 78.5-14.44 2.71-29.33 3.16-43.76 5 .45-.04.45-.49 0-.49ZM270.44 595.09h241.37c-.9 1.35-1.8 1.81-2.26 2.71-33.84 32.93-67.67 65.87-101.06 98.8a6.79 6.79 0 0 1-5 1.81h-64.03a6.46 6.46 0 0 1-4.46-1.81 257.31 257.31 0 0 1-63.61-97.9c-.5-.9-.5-2.26-.95-3.61Zm241.37-166.91H270.44l1.35-4.06A254.6 254.6 0 0 1 335 326.67a6.78 6.78 0 0 1 5-1.8h64a6.46 6.46 0 0 1 4.51 1.8l102.41 99.71c-.47.44-.01.89.89 1.8Z" style="fill:#fff"/>
</g><g id="hat" transform="rotate(-19.664861,2554.5888,-1846.2773)"><path id="🎅" style="fill:rgb(255, 40, 127);stroke:#ffffff;stroke-width:39.4767;stroke-linecap:square;stroke-linejoin:round;stroke-miterlimit:5;stroke-dasharray:none;stroke-opacity:1" d="M 1.3888427 -777.64079 C -126.41754 -822.85625 -272.88081 -794.17541 -427.74092 -723.17061 L -411.15071 -760.0823 L -459.32489 -749.02795 L -495.42034 -783.89788 L -500.16434 -732.99008 L -543.31109 -708.17992 L -498.06911 -687.77279 L -488.63916 -637.57198 L -455.93489 -675.86625 L -406.96025 -669.64773 L -425.31773 -701.97648 C -290.88513 -689.16754 -86.608888 -639.13439 -273.63981 -347.58743 C -128.15384 -457.46783 0.38614654 -456.79247 307.39427 -419.56777 C 228.26451 -624.2273 123.30628 -734.50873 1.3888427 -777.64079 z "/></g></svg>
