<svg xmlns="http://www.w3.org/2000/svg" viewBox="0 0 1536 1536">
   <g id="original" transform="translate(256,256)"><circle cx="512" cy="512" r="512" style="fill:#1a1919"/>
   <path d="M512.01 258c-144.44 0-261.56 92.91-261.56 207.53v92.93C250.45 673.08 367.57 766 512.01 766s261.53-92.93 261.53-207.54v-92.93C773.54 350.91 656.46 258 512.01 258Zm-84.9 307.46h-25.9v100.55h-24.1c-19.21 0-36.18-14.7-36.18-35.65V471.54c0-49.02 22.78-110.41 91.2-125.61 69.26-15.39 88.63 18.48 88.63 18.48s-43.34-.59-77.29 25.9c-19.33 15.08-41.59 48.33-42.27 86.14v46.71c42.76 8.19 76.98-6.02 87.08-10.51l1.73-.22s-3.07 53.03-62.91 53.03Zm267.48 18.56c0 50.8-37.5 85.99-91.08 85.99h-12.06c-57.15 0-96.44-32.08-96.44-76.19s31.25-75.3 119.67-75.3h20.98v-3.13c0-33.86-16.07-57.93-51.8-57.93-43.31 0-67.41 16.49-76.35 27.63h-2.23v-19.16c0-26.74 24.12-58.81 87.51-58.81 53.58 0 101.8 38.76 101.8 121.63V584Zm-79.92-22.72h21.43v23.16c0 24.51-12.5 36.99-38.4 36.99s-41.51-11.14-41.51-29.85 12.94-30.3 58.49-30.3Z" style="fill:#fff"/>
</g><g id="hat" transform="rotate(-19.664861,2554.5888,-1846.2773)"><path id="🎅" style="fill:rgb(255, 126, 4);stroke:#ffffff;stroke-width:39.4767;stroke-linecap:square;stroke-linejoin:round;stroke-miterlimit:5;stroke-dasharray:none;stroke-opacity:1" d="M 1.3888427 -777.64079 C -126.41754 -822.85625 -272.88081 -794.17541 -427.74092 -723.17061 L -411.15071 -760.0823 L -459.32489 -749.02795 L -495.42034 -783.89788 L -500.16434 -732.99008 L -543.31109 -708.17992 L -498.06911 -687.77279 L -488.63916 -637.57198 L -455.93489 -675.86625 L -406.96025 -669.64773 L -425.31773 -701.97648 C -290.88513 -689.16754 -86.608888 -639.13439 -273.63981 -347.58743 C -128.15384 -457.46783 0.38614654 -456.79247 307.39427 -419.56777 C 228.26451 -624.2273 123.30628 -734.50873 1.3888427 -777.64079 z "/></g></svg>
