<svg xmlns="http://www.w3.org/2000/svg" viewBox="0 0 1536 1536">
   <g id="original" transform="translate(256,256)"><circle cx="512" cy="512" r="512" style="fill:#0067b9"/>
   <path d="M743.55 359.1C693.88 284 608.74 234.5 512 234.5c-153.26 0-277.5 124.24-277.5 277.5A277.44 277.44 0 0 0 512 789.5c153.26 0 277.5-124.24 277.5-277.5a276.13 276.13 0 0 0-45.95-152.9zM512 731.17A219.12 219.12 0 0 1 292.83 512c0-121 98.17-219.17 219.17-219.17A219.22 219.22 0 0 1 731.17 512c0 121-98.17 219.17-219.17 219.17zM512 512l-131.92-87.95v175.9h254.56a9.27 9.27 0 0 0 9.28-9.28V424.05zm-130.54 87-.74.49z" style="fill:#fff"/>
</g><g id="hat" transform="rotate(-19.664861,2554.5888,-1846.2773)"><path id="🎅" style="fill:rgb(255, 34, 16);stroke:#ffffff;stroke-width:39.4767;stroke-linecap:square;stroke-linejoin:round;stroke-miterlimit:5;stroke-dasharray:none;stroke-opacity:1" d="M 1.3888427 -777.64079 C -126.41754 -822.85625 -272.88081 -794.17541 -427.74092 -723.17061 L -411.15071 -760.0823 L -459.32489 -749.02795 L -495.42034 -783.89788 L -500.16434 -732.99008 L -543.31109 -708.17992 L -498.06911 -687.77279 L -488.63916 -637.57198 L -455.93489 -675.86625 L -406.96025 -669.64773 L -425.31773 -701.97648 C -290.88513 -689.16754 -86.608888 -639.13439 -273.63981 -347.58743 C -128.15384 -457.46783 0.38614654 -456.79247 307.39427 -419.56777 C 228.26451 -624.2273 123.30628 -734.50873 1.3888427 -777.64079 z "/></g></svg>
