<svg xmlns="http://www.w3.org/2000/svg" viewBox="0 0 1536 1536">
   <g id="original" transform="translate(256,256)"><circle cx="512" cy="512" r="512" style="fill:#3f00a5"/>
   <path d="M673.68 373c-33.9 11.32-50.22 31.61-61.35 63.22-2.87 8.44-10 17.78-18.12 24.07L622 490.06l-88.25-61.79L290.18 258s17.58 114.23 23.68 156.26c4.3 29.64 11.66 42.93 35 56.4l9.33 5 40.18 21.19-23.86-12.39 110.14 60.17-.72 1.62-118.57-55c6.28 21.55 18.48 63 23.68 81.36 5.56 19.76 11.84 26.94 31 33.95l35.34 12.93 21.88-8.62-27.8 18.5L310.45 806c92.38-85.85 170.55-116.39 227.8-141.36 73-31.61 117-51.91 145.65-124.83 20.45-51.19 36.41-116.75 56.68-142.07l43.23-55.32s-89.5 23.71-110.13 30.58Z" style="fill:#fff"/>
</g><g id="hat" transform="rotate(-19.664861,2554.5888,-1846.2773)"><path id="🎅" style="fill:rgb(255, 43, 61);stroke:#ffffff;stroke-width:39.4767;stroke-linecap:square;stroke-linejoin:round;stroke-miterlimit:5;stroke-dasharray:none;stroke-opacity:1" d="M 1.3888427 -777.64079 C -126.41754 -822.85625 -272.88081 -794.17541 -427.74092 -723.17061 L -411.15071 -760.0823 L -459.32489 -749.02795 L -495.42034 -783.89788 L -500.16434 -732.99008 L -543.31109 -708.17992 L -498.06911 -687.77279 L -488.63916 -637.57198 L -455.93489 -675.86625 L -406.96025 -669.64773 L -425.31773 -701.97648 C -290.88513 -689.16754 -86.608888 -639.13439 -273.63981 -347.58743 C -128.15384 -457.46783 0.38614654 -456.79247 307.39427 -419.56777 C 228.26451 -624.2273 123.30628 -734.50873 1.3888427 -777.64079 z "/></g></svg>
