<svg xmlns="http://www.w3.org/2000/svg" viewBox="0 0 1536 1536">
   <g id="original" transform="translate(256,256)"><circle cx="512" cy="512" r="512" style="fill:#51a2da"/>
   <path d="m523.91 242.26.24-.24c-148 0-267.83 117.63-268.09 262.86v203.48c.07 32.94 27.31 59.61 60.9 59.61h207.21C672.2 767.88 792 650.26 792 505.12S672 242.26 523.91 242.26Zm141.49 202a22.29 22.29 0 0 1-25.4 19.56 22 22 0 0 1-18.8-25.75 55.88 55.88 0 0 0 .29-7.38c0-26.44-22.06-36.65-42.91-36.65s-39.58 17.19-39.65 36.65c.36 22.5 0 44.82 0 67.28l38.7-.28c30.21-.61 30.55 44 .35 43.8l-39 .28c-.1 18.1.14 14.82 0 23.94 0 0 .33 22.13-.35 38.91-4.67 49.27-47.44 88.65-98.83 88.65-54.48 0-99.36-43.67-99.36-97.24 1.64-55.08 46.42-98.41 102.84-97.92l31.47-.23v43.72l-31.47.28h-.17c-31 .9-57.57 21.55-58.07 54.12 0 29.66 24.44 53.44 54.77 53.44s54.54-21.62 54.54-53.38V430.47a86.43 86.43 0 0 1 .46-8.91c5.11-40.5 42-71.37 83.86-71.37v.08c45 0 87.5 33.8 87.5 80.43a88.78 88.78 0 0 1-.77 13.55Z" style="fill:#fff"/>
</g><g id="hat" transform="rotate(-19.664861,2554.5888,-1846.2773)"><path id="🎅" style="fill:rgb(255, 59, 109);stroke:#ffffff;stroke-width:39.4767;stroke-linecap:square;stroke-linejoin:round;stroke-miterlimit:5;stroke-dasharray:none;stroke-opacity:1" d="M 1.3888427 -777.64079 C -126.41754 -822.85625 -272.88081 -794.17541 -427.74092 -723.17061 L -411.15071 -760.0823 L -459.32489 -749.02795 L -495.42034 -783.89788 L -500.16434 -732.99008 L -543.31109 -708.17992 L -498.06911 -687.77279 L -488.63916 -637.57198 L -455.93489 -675.86625 L -406.96025 -669.64773 L -425.31773 -701.97648 C -290.88513 -689.16754 -86.608888 -639.13439 -273.63981 -347.58743 C -128.15384 -457.46783 0.38614654 -456.79247 307.39427 -419.56777 C 228.26451 -624.2273 123.30628 -734.50873 1.3888427 -777.64079 z "/></g></svg>
