<svg xmlns="http://www.w3.org/2000/svg" viewBox="0 0 1536 1536">
   <g id="original" transform="translate(256,256)"><circle cx="512" cy="512" r="512" style="fill:#900"/>
   <path d="M747.9 505.65C747.9 618.87 612.88 679 512 780 411.12 679 276.1 618.87 276.1 505.65a117.6 117.6 0 0 1 18.82-64 219.17 219.17 0 0 1-2.5-75.66 250.28 250.28 0 0 1 19.27-66.46 281.33 281.33 0 0 1 15-29.16q4.08-6.92 8.57-13.58c3-4.4 6.06-8.72 9.37-12.8-.6 5.2-.87 10.37-1 15.52s-.13 10.24 0 15.36a254.7 254.7 0 0 0 2.73 29.91c3 19.47 8.25 37.88 15.81 53.88a137.94 137.94 0 0 0 12.9 22q2.83 3.92 6 7.61a119 119 0 0 1 13-.71c65.15 0 118 54.87 118 54.87s52.81-54.87 118-54.87a118.9 118.9 0 0 1 13.07.72q3.15-3.69 6-7.62a137.66 137.66 0 0 0 12.9-22c7.57-16 12.86-34.42 15.82-53.88a254.71 254.71 0 0 0 2.72-29.91q.25-7.62 0-15.35c-.16-5.15-.43-10.33-1-15.53 3.3 4.08 6.38 8.39 9.36 12.8s5.85 9 8.58 13.58a280.74 280.74 0 0 1 15 29.15A250.39 250.39 0 0 1 731.68 366a220.59 220.59 0 0 1 2.06 37.31 213.56 213.56 0 0 1-4.66 38.35 117.64 117.64 0 0 1 18.82 63.99Z" style="fill:#fff"/>
</g><g id="hat" transform="rotate(-19.664861,2554.5888,-1846.2773)"><path id="🎅" style="fill:rgb(255, 106, 81);stroke:#ffffff;stroke-width:39.4767;stroke-linecap:square;stroke-linejoin:round;stroke-miterlimit:5;stroke-dasharray:none;stroke-opacity:1" d="M 1.3888427 -777.64079 C -126.41754 -822.85625 -272.88081 -794.17541 -427.74092 -723.17061 L -411.15071 -760.0823 L -459.32489 -749.02795 L -495.42034 -783.89788 L -500.16434 -732.99008 L -543.31109 -708.17992 L -498.06911 -687.77279 L -488.63916 -637.57198 L -455.93489 -675.86625 L -406.96025 -669.64773 L -425.31773 -701.97648 C -290.88513 -689.16754 -86.608888 -639.13439 -273.63981 -347.58743 C -128.15384 -457.46783 0.38614654 -456.79247 307.39427 -419.56777 C 228.26451 -624.2273 123.30628 -734.50873 1.3888427 -777.64079 z "/></g></svg>
