<svg xmlns="http://www.w3.org/2000/svg" viewBox="0 0 1536 1536">
   <g id="original" transform="translate(256,256)"><circle cx="512" cy="512" r="512" style="fill:#f24e1e"/>
   <path d="M512 512c0-47.1 38.2-85.3 85.3-85.3s85.3 38.2 85.3 85.3-38.2 85.3-85.3 85.3S512 559.1 512 512zM341.3 682.7c0-47.1 38.2-85.3 85.3-85.3H512v85.3c0 47.1-38.2 85.3-85.3 85.3s-85.4-38.2-85.4-85.3zM512 256v170.7h85.3c47.1 0 85.3-38.2 85.3-85.3S644.5 256 597.3 256H512zm-170.7 85.3c0 47.1 38.2 85.3 85.3 85.3H512V256h-85.3c-47.2 0-85.4 38.2-85.4 85.3zm0 170.7c0 47.1 38.2 85.3 85.3 85.3H512V426.7h-85.3c-47.2 0-85.4 38.2-85.4 85.3z" style="fill:#fff"/>
</g><g id="hat" transform="rotate(-19.664861,2554.5888,-1846.2773)"><path id="🎅" style="fill:rgb(255, 48, 5);stroke:#ffffff;stroke-width:39.4767;stroke-linecap:square;stroke-linejoin:round;stroke-miterlimit:5;stroke-dasharray:none;stroke-opacity:1" d="M 1.3888427 -777.64079 C -126.41754 -822.85625 -272.88081 -794.17541 -427.74092 -723.17061 L -411.15071 -760.0823 L -459.32489 -749.02795 L -495.42034 -783.89788 L -500.16434 -732.99008 L -543.31109 -708.17992 L -498.06911 -687.77279 L -488.63916 -637.57198 L -455.93489 -675.86625 L -406.96025 -669.64773 L -425.31773 -701.97648 C -290.88513 -689.16754 -86.608888 -639.13439 -273.63981 -347.58743 C -128.15384 -457.46783 0.38614654 -456.79247 307.39427 -419.56777 C 228.26451 -624.2273 123.30628 -734.50873 1.3888427 -777.64079 z "/></g></svg>
