<svg xmlns="http://www.w3.org/2000/svg" viewBox="0 0 1536 1536">
   <g id="original" transform="translate(256,256)"><circle cx="512" cy="512" r="512" style="fill:#725794"/>
   <path d="m270.01 255 .102.03c.093-.003.17-.03.265-.03zm.102.03c-5.33.158-8.119 4.81-4.145 8.423 181.92 86.368 155.09 167.96 178.62 261.68 6.248 25.358 48.514 222.72 270.87 241.83 8.453.735 11.026-9.188 2.206-11.393-181.56-48.514-225.29-365.69-98.497-377.45 17.64-1.47 23.154 5.88 36.753 10.29 4.891 1.63 10.808 2.728 16.677 3.573 4.64 3.692 7.558 11.857 7.212 17.743-17.641-2.205-24.624-8.086-40.795-16.539 0 0 11.026 13.231 22.052 20.95 19.846 15.067 37.855 33.076 48.88 50.35 5.513 8.453 6.983 9.557 7.35 5.882a121.28 121.28 0 0 0-19.112-68.728c-1.906-2.86-2.427-5.95-2.774-8.409.238-.03.73-.009.937-.045 11.761-22.051-9.188-47.043-26.829-65.419 19.111-12.496 80.855-26.094 88.206-29.402 4.778-1.838 2.573-9.188-1.47-9.923-28.298 1.837-95.556 7.35-126.06 19.112-53.29-32.342-122.75-7.35-158.03 47.778-36.005-52.54-86.71-67.984-202.04-100.31zm298.69 49.218c27.197 0 26.462 11.393-8.82 23.521a138.19 138.19 0 0 0-87.471 80.856c-4.043-6.248 15.804-94.087 96.292-104.38zm-261.88 58.813a51.929 51.929 0 0 0-51.929 51.93 51.929 51.929 0 0 0 51.93 51.93 51.929 51.929 0 0 0 51.93-51.93 51.929 51.929 0 0 0-51.93-51.93zm59.191 141.24a40.127 40.127 0 0 0-40.128 40.128 40.127 40.127 0 0 0 40.128 40.126 40.127 40.127 0 0 0 40.126-40.126 40.127 40.127 0 0 0-40.126-40.128zm357.2 105.67a24.548 24.548 0 0 0-24.548 24.548 24.548 24.548 0 0 0 24.548 24.548 24.548 24.548 0 0 0 24.548-24.548 24.548 24.548 0 0 0-24.548-24.548zm-307.89 15.494a29.269 29.269 0 0 0-29.269 29.27 29.269 29.269 0 0 0 29.27 29.27 29.269 29.269 0 0 0 29.27-29.27 29.269 29.269 0 0 0-29.27-29.27zm292.59 56.688a19.828 19.828 0 0 0-19.828 19.828 19.828 19.828 0 0 0 19.828 19.827 19.828 19.828 0 0 0 19.827-19.827 19.828 19.828 0 0 0-19.827-19.828z" style="fill:#fff"/>
</g><g id="hat" transform="rotate(-19.664861,2554.5888,-1846.2773)"><path id="🎅" style="fill:rgb(255, 46, 66);stroke:#ffffff;stroke-width:39.4767;stroke-linecap:square;stroke-linejoin:round;stroke-miterlimit:5;stroke-dasharray:none;stroke-opacity:1" d="M 1.3888427 -777.64079 C -126.41754 -822.85625 -272.88081 -794.17541 -427.74092 -723.17061 L -411.15071 -760.0823 L -459.32489 -749.02795 L -495.42034 -783.89788 L -500.16434 -732.99008 L -543.31109 -708.17992 L -498.06911 -687.77279 L -488.63916 -637.57198 L -455.93489 -675.86625 L -406.96025 -669.64773 L -425.31773 -701.97648 C -290.88513 -689.16754 -86.608888 -639.13439 -273.63981 -347.58743 C -128.15384 -457.46783 0.38614654 -456.79247 307.39427 -419.56777 C 228.26451 -624.2273 123.30628 -734.50873 1.3888427 -777.64079 z "/></g></svg>
