<svg xmlns="http://www.w3.org/2000/svg" viewBox="0 0 1536 1536">
   <g id="original" transform="translate(256,256)"><circle cx="512" cy="512" r="512" style="fill:#febf19"/>
   <path d="M281.2 363.1v297.8c0 46.2 37.2 83.7 83.1 83.7h295.4c45.9 0 83.1-37.6 83.1-83.7V363.1c0-46.2-37.2-83.7-83.1-83.7H364.3c-45.9-.1-83.1 37.5-83.1 83.7zm378.5-65.2c35.9 0 64.6 28.9 64.6 65.2v297.8c0 36.3-28.7 65.2-64.6 65.2H438.2V614.4h147.7l-.4-111.4-147.3.8v-94.2h147.7V297.9h73.8z" style="fill:#fff"/>
</g><g id="hat" transform="rotate(-19.664861,2554.5888,-1846.2773)"><path id="🎅" style="fill:rgb(255, 14, 27);stroke:#ffffff;stroke-width:39.4767;stroke-linecap:square;stroke-linejoin:round;stroke-miterlimit:5;stroke-dasharray:none;stroke-opacity:1" d="M 1.3888427 -777.64079 C -126.41754 -822.85625 -272.88081 -794.17541 -427.74092 -723.17061 L -411.15071 -760.0823 L -459.32489 -749.02795 L -495.42034 -783.89788 L -500.16434 -732.99008 L -543.31109 -708.17992 L -498.06911 -687.77279 L -488.63916 -637.57198 L -455.93489 -675.86625 L -406.96025 -669.64773 L -425.31773 -701.97648 C -290.88513 -689.16754 -86.608888 -639.13439 -273.63981 -347.58743 C -128.15384 -457.46783 0.38614654 -456.79247 307.39427 -419.56777 C 228.26451 -624.2273 123.30628 -734.50873 1.3888427 -777.64079 z "/></g></svg>
