<svg xmlns="http://www.w3.org/2000/svg" viewBox="0 0 1536 1536">
   <g id="original" transform="translate(256,256)"><circle cx="512" cy="512" r="512" style="fill:#f9b80b"/>
   <path d="M559.14 227h98.93v65.95h33c.06 11-.1 22 .07 33h32.91c.05 11-.1 22 .07 33h32.91v233.2c-11 .06-22-.1-33 .07v65.88c-11 .05-22-.1-33 .07v32.91c-11 .05-22-.1-33 .07v32.91h-62.81c-1.06 0-2.1 0-3.15.08v32.91H358.91c-.06-11 .1-22-.07-33h-65.88c-.06-11 .1-22-.07-33h-32.91c-.06-11 .1-22-.07-33H227v-98.93h172c9.43-.05 18.85.1 28.28-.07v-32.91h96.52c.78 0 1.58 0 2.37-.07v-32.91c11-.06 22 .1 33-.07v-98.86c11-.06 22 .1 33-.07V292.94h-33q-.04-32.94-.03-65.94Zm33 33v32.91c11 .17 22 0 33 .07v-33Zm33 66v68.31h-33v98.93h-33v33h-33v33h-98.92v33H260v65.95h33v33h66v33h233.11v-33h65.95v-33h33v-65.95h33v-233.2H691v-33h-66Z" style="fill:#fff"/>
</g><g id="hat" transform="rotate(-19.664861,2554.5888,-1846.2773)"><path id="🎅" style="fill:rgb(255, 81, 86);stroke:#ffffff;stroke-width:39.4767;stroke-linecap:square;stroke-linejoin:round;stroke-miterlimit:5;stroke-dasharray:none;stroke-opacity:1" d="M 1.3888427 -777.64079 C -126.41754 -822.85625 -272.88081 -794.17541 -427.74092 -723.17061 L -411.15071 -760.0823 L -459.32489 -749.02795 L -495.42034 -783.89788 L -500.16434 -732.99008 L -543.31109 -708.17992 L -498.06911 -687.77279 L -488.63916 -637.57198 L -455.93489 -675.86625 L -406.96025 -669.64773 L -425.31773 -701.97648 C -290.88513 -689.16754 -86.608888 -639.13439 -273.63981 -347.58743 C -128.15384 -457.46783 0.38614654 -456.79247 307.39427 -419.56777 C 228.26451 -624.2273 123.30628 -734.50873 1.3888427 -777.64079 z "/></g></svg>
