<svg xmlns="http://www.w3.org/2000/svg" viewBox="0 0 1536 1536">
   <g id="original" transform="translate(256,256)"><circle cx="512" cy="512" r="512" style="fill:#2d535a"/>
   <path d="m678.34 309.51-260.52 129.6v-171.7a262.08 262.08 0 0 1 260.52 42.1Zm-276 258.06 15.51-7.72 329.24-163.79a262.87 262.87 0 0 0-56.15-75.5L417.82 456.44v68.08l-159.18-79.19a260.45 260.45 0 0 0-6.45 100.22l150.12 74.68Zm15.51 189A262.09 262.09 0 0 0 774 520.75L417.82 697.92ZM402.31 274a262.75 262.75 0 0 0-139.22 156.23l139.22 69.26Zm15.51 406.6 22.08-11 13.39-6.6L774 503.42q-.33-10.19-1.42-20.18-.78-7.08-1.93-14T768 455.4a261 261 0 0 0-14.44-45.22l-335.73 167v68.09l-63.52-31.6-99-49.24a262.48 262.48 0 0 0 147 185.63v-61.75Z" style="fill:#fff"/>
</g><g id="hat" transform="rotate(-19.664861,2554.5888,-1846.2773)"><path id="🎅" style="fill:rgb(255, 48, 2);stroke:#ffffff;stroke-width:39.4767;stroke-linecap:square;stroke-linejoin:round;stroke-miterlimit:5;stroke-dasharray:none;stroke-opacity:1" d="M 1.3888427 -777.64079 C -126.41754 -822.85625 -272.88081 -794.17541 -427.74092 -723.17061 L -411.15071 -760.0823 L -459.32489 -749.02795 L -495.42034 -783.89788 L -500.16434 -732.99008 L -543.31109 -708.17992 L -498.06911 -687.77279 L -488.63916 -637.57198 L -455.93489 -675.86625 L -406.96025 -669.64773 L -425.31773 -701.97648 C -290.88513 -689.16754 -86.608888 -639.13439 -273.63981 -347.58743 C -128.15384 -457.46783 0.38614654 -456.79247 307.39427 -419.56777 C 228.26451 -624.2273 123.30628 -734.50873 1.3888427 -777.64079 z "/></g></svg>
