<svg xmlns="http://www.w3.org/2000/svg" viewBox="0 0 1536 1536">
   <g id="original" transform="translate(256,256)"><circle cx="512" cy="512" r="512" style="fill:#9fef00"/>
   <path d="M506.5 256.6c2.9-.8 5.9-.7 8.9-.4 3.8.4 7 2.8 10.3 4.6 66.5 38.4 133 76.9 199.6 115.3 6.4 3.2 11.1 10 10.7 17.4v237.7c.2 6.7-4 12.9-9.7 16-67.9 39.2-135.8 78.5-203.7 117.7-6.1 4-14.5 4.1-20.7.3-66.7-38.5-133.3-77-200-115.6-3.3-2-6.9-3.6-9.4-6.6-3.1-3.4-4.7-8-4.5-12.6V392.6c-.2-6.6 4-12.8 9.6-15.9 67.1-38.7 134.1-77.5 201.1-116.2 2.6-1.4 5-3.1 7.8-3.9zm3.9 47.5c-1.5.2-2.8 1-4.1 1.7-46.2 26.7-92.4 53.3-138.5 80.1-5.5 3.1-5.5 12.1.2 15.1 46.3 26.9 92.7 53.6 139.1 80.4 2.9 1.9 6.9 1.9 9.8 0 46.4-26.8 92.8-53.5 139.1-80.4 5.6-3 5.7-12 .1-15.1-46.3-26.8-92.7-53.6-139.1-80.4-1.9-1.3-4.3-1.8-6.6-1.4zM336.5 442.4c-3.5 1.3-5.8 5.1-5.6 8.8v159.9c-.1 3.6 2.1 6.9 5.2 8.5 46.2 26.7 92.3 53.4 138.5 80 5.7 3.5 13.6-1.4 13.2-8v-160c.1-3.3-1.6-6.5-4.4-8.2l-138.6-80.1c-2.4-1.5-5.6-2.2-8.3-.9zm344.8-.1c-4.1 1.9-7.8 4.4-11.8 6.6-42.8 24.7-85.6 49.5-128.4 74.2-3.2 1.6-5.1 5-5 8.6v159.9c-.4 6.6 7.5 11.5 13.2 8.1 46.2-26.7 92.4-53.4 138.5-80 3.1-1.5 5.4-4.9 5.2-8.4V450.5c.1-5.8-6.4-10.4-11.7-8.2z" style="fill:#fff"/>
</g><g id="hat" transform="rotate(-19.664861,2554.5888,-1846.2773)"><path id="🎅" style="fill:rgb(255, 67, 53);stroke:#ffffff;stroke-width:39.4767;stroke-linecap:square;stroke-linejoin:round;stroke-miterlimit:5;stroke-dasharray:none;stroke-opacity:1" d="M 1.3888427 -777.64079 C -126.41754 -822.85625 -272.88081 -794.17541 -427.74092 -723.17061 L -411.15071 -760.0823 L -459.32489 -749.02795 L -495.42034 -783.89788 L -500.16434 -732.99008 L -543.31109 -708.17992 L -498.06911 -687.77279 L -488.63916 -637.57198 L -455.93489 -675.86625 L -406.96025 -669.64773 L -425.31773 -701.97648 C -290.88513 -689.16754 -86.608888 -639.13439 -273.63981 -347.58743 C -128.15384 -457.46783 0.38614654 -456.79247 307.39427 -419.56777 C 228.26451 -624.2273 123.30628 -734.50873 1.3888427 -777.64079 z "/></g></svg>
