<svg xmlns="http://www.w3.org/2000/svg" viewBox="0 0 1536 1536">
   <g id="original" transform="translate(256,256)"><circle cx="512" cy="512" r="512" style="fill:#d50c2d"/>
   <path d="M822.2 523.2c6.1-1.1 11.9-3.6 16.9-7.4 4.5-4.8 6.8-11.2 6.3-17.8 0-5.3-1.5-10.6-4.2-15.1-4.1-7-11.5-11.5-19.7-11.9h-4.1l-9.5-.3h-43c-2.6 0-3.7 1.1-3.7 3.7v75.3c0 2.6 1.1 3.7 3.7 3.7h11.2c2.6 0 3.7-1.1 3.7-3.7v-24.9h13.7c3 .2 5.9 1.4 8.1 3.4l21.7 21.8c2 2 4.6 3.2 7.4 3.4h16.6c2.6 0 3.2-1.5 1.4-3.4l-26.5-26.8zm-2.8-16.1h-39.6v-19h39.6c4 .5 7 3.9 7 8v2.9c0 4.2-3 7.6-7 8.1zm-75.6 28.7h-61.5v-15.5h49.1c2.6 0 3.7-1.1 3.7-3.7v-9c0-2.6-1.1-3.7-3.7-3.7h-49.1v-15.5h61.6c2.6 0 3.7-1.1 3.7-3.7v-10.3c0-2.6-1.1-3.7-3.7-3.7h-76.8c-2.6 0-3.7 1.1-3.7 3.7v75.4c0 2.6 1.1 3.7 3.7 3.7h76.8c2.6 0 3.7-1.1 3.7-3.7v-10.2c0-2.7-1.3-3.8-3.8-3.8zm-94-38c.1-5.3-1.4-10.4-4.2-14.9-4.1-7.2-11.7-11.8-20-12.3h-56.4c-2.6 0-3.7 1.1-3.7 3.7v75.3c0 2.6 1.1 3.7 3.7 3.7h12.1c2.6 0 3.7-1 3.7-3.7v-61.4h32.7c7 0 13.7 4.6 13.7 11.6v49.9c0 2.6 1.1 3.7 3.7 3.7h11c2.6 0 3.7-1.1 3.7-3.7v-51.9zm-101.5 37.5h-53.1l53.2-46.7c2.2-1.7 3.5-4.1 3.7-6.9v-7.4c0-2.6-1.1-3.7-3.7-3.7h-77c-2.6 0-3.7 1.1-3.7 3.7v10.3c0 2.6 1.1 3.7 3.7 3.7h49.3l-49.5 46.4c-2.1 1.7-3.5 4.1-3.7 6.9v8.1c0 2.6 1.1 3.7 3.7 3.7h76.9c2.6 0 3.7-1.1 3.7-3.7V539c.2-2.6-.9-3.7-3.5-3.7zm-97.9-64.7h-76.8c-2.6 0-3.7 1-3.7 3.7v10.3c0 2.6 1 3.7 3.7 3.7h29v61.4c0 2.6 1.1 3.7 3.7 3.7h12.3c2.6 0 3.7-1.1 3.7-3.7v-61.4h28.2c2.6 0 3.7-1.1 3.7-3.7v-10.2c-.1-2.6-1.2-3.8-3.8-3.8zm-97.8 65.2h-61.4v-15.5h49.1c2.6 0 3.7-1.1 3.7-3.7v-9c0-2.6-1-3.7-3.7-3.7h-49.1v-15.5h61.4c2.6 0 3.7-1.1 3.7-3.7v-10.3c0-2.6-1.1-3.7-3.7-3.7H276c-2.6 0-3.7 1.1-3.7 3.7v75.4c0 2.6 1.1 3.7 3.7 3.7h76.6c2.6 0 3.7-1.1 3.7-3.7v-10.2c0-2.7-1.1-3.8-3.7-3.8zm-97.8-65.2h-11.6c-2.6 0-3.7 1.1-3.7 3.7v29.3h-46.1v-29.3c0-2.6-1.1-3.7-3.7-3.7H178c-2.6 0-3.7 1.1-3.7 3.7v75.4c0 2.6 1.1 3.7 3.7 3.7h11.7c2.6 0 3.7-1 3.7-3.7v-29.8h46.2v29.8c0 2.6 1.1 3.7 3.7 3.7h11.6c2.6 0 3.7-1.1 3.7-3.7v-75.4c-.1-2.5-1.2-3.7-3.8-3.7z" style="fill:#fff"/>
</g><g id="hat" transform="rotate(-19.664861,2554.5888,-1846.2773)"><path id="🎅" style="fill:rgb(255, 17, 34);stroke:#ffffff;stroke-width:39.4767;stroke-linecap:square;stroke-linejoin:round;stroke-miterlimit:5;stroke-dasharray:none;stroke-opacity:1" d="M 1.3888427 -777.64079 C -126.41754 -822.85625 -272.88081 -794.17541 -427.74092 -723.17061 L -411.15071 -760.0823 L -459.32489 -749.02795 L -495.42034 -783.89788 L -500.16434 -732.99008 L -543.31109 -708.17992 L -498.06911 -687.77279 L -488.63916 -637.57198 L -455.93489 -675.86625 L -406.96025 -669.64773 L -425.31773 -701.97648 C -290.88513 -689.16754 -86.608888 -639.13439 -273.63981 -347.58743 C -128.15384 -457.46783 0.38614654 -456.79247 307.39427 -419.56777 C 228.26451 -624.2273 123.30628 -734.50873 1.3888427 -777.64079 z "/></g></svg>
