<svg xmlns="http://www.w3.org/2000/svg" viewBox="0 0 1536 1536">
   <g id="original" transform="translate(256,256)"><circle cx="512" cy="512" r="512" style="fill:#ff5400"/>
   <path d="m364.76 318-52.86 31c-22.11 12.52-39.9 44.08-39.9 69.66v187.22c0 25.58 17.8 56.6 39.91 69.66l52.86 31Zm347.34 30.45-52.86-31v387.5l52.86-31c22.11-12.55 39.9-44.12 39.9-69.7V418.12c0-25.58-17.79-56.6-39.9-69.67Zm-247 415.8 7 4.35c22.11 12.52 57.71 12.52 79.28 0l7-4.35V562.89s-13.48-23.4-46.92-23.4-46.92 23.4-46.92 23.4v201.37Zm86.84-508.87c-22.11-12.52-57.71-12.52-79.28 0l-7 4.35v198.12s13.48 23.4 46.92 23.4 46.92-23.4 46.92-23.4V259.2Z" style="fill:#fff"/>
</g><g id="hat" transform="rotate(-19.664861,2554.5888,-1846.2773)"><path id="🎅" style="fill:rgb(255, 3, 49);stroke:#ffffff;stroke-width:39.4767;stroke-linecap:square;stroke-linejoin:round;stroke-miterlimit:5;stroke-dasharray:none;stroke-opacity:1" d="M 1.3888427 -777.64079 C -126.41754 -822.85625 -272.88081 -794.17541 -427.74092 -723.17061 L -411.15071 -760.0823 L -459.32489 -749.02795 L -495.42034 -783.89788 L -500.16434 -732.99008 L -543.31109 -708.17992 L -498.06911 -687.77279 L -488.63916 -637.57198 L -455.93489 -675.86625 L -406.96025 -669.64773 L -425.31773 -701.97648 C -290.88513 -689.16754 -86.608888 -639.13439 -273.63981 -347.58743 C -128.15384 -457.46783 0.38614654 -456.79247 307.39427 -419.56777 C 228.26451 -624.2273 123.30628 -734.50873 1.3888427 -777.64079 z "/></g></svg>
