<svg xmlns="http://www.w3.org/2000/svg" viewBox="0 0 1536 1536">
   <g id="original" transform="translate(256,256)"><circle cx="512" cy="512" r="512" style="fill:#0084b5"/>
   <path d="m790 648.67-88.58 88.24L539 574.66h-54.57L322.31 736.91 234 648.61 370.44 512 234 375.39l88.31-88.31L433 397.83a24.21 24.21 0 1 1-26.77 24.43l-84-84.48-37.62 37.61L403.27 494h36L284.69 648.61l37.62 37.68L470 538.59h83.18l148.3 147.7 37.68-37.68L660 570.1a24.24 24.24 0 0 1-23.92-24.16v-.07a24.2 24.2 0 0 1 48.27-2.63ZM422.14 449.41H539l162.42-162.32 88.24 88.31-168.52 168.52 79.32 79.32a24.25 24.25 0 1 1-24.52 26.14L570.71 543.24l168.53-167.85h-.13l-37.68-37.61-148.3 147.7H406.44l-87-87a24.21 24.21 0 1 1 27.12-24v.45Zm279.25-48.9L572.67 529.76h-107l-119.23 120a24.21 24.21 0 1 1-24-26.72h.05L451.33 494h105.36l118.93-118.37a24.23 24.23 0 1 1 25.78 24.88Z" style="fill:#fff"/>
</g><g id="hat" transform="rotate(-19.664861,2554.5888,-1846.2773)"><path id="🎅" style="fill:rgb(255, 108, 70);stroke:#ffffff;stroke-width:39.4767;stroke-linecap:square;stroke-linejoin:round;stroke-miterlimit:5;stroke-dasharray:none;stroke-opacity:1" d="M 1.3888427 -777.64079 C -126.41754 -822.85625 -272.88081 -794.17541 -427.74092 -723.17061 L -411.15071 -760.0823 L -459.32489 -749.02795 L -495.42034 -783.89788 L -500.16434 -732.99008 L -543.31109 -708.17992 L -498.06911 -687.77279 L -488.63916 -637.57198 L -455.93489 -675.86625 L -406.96025 -669.64773 L -425.31773 -701.97648 C -290.88513 -689.16754 -86.608888 -639.13439 -273.63981 -347.58743 C -128.15384 -457.46783 0.38614654 -456.79247 307.39427 -419.56777 C 228.26451 -624.2273 123.30628 -734.50873 1.3888427 -777.64079 z "/></g></svg>
