<svg xmlns="http://www.w3.org/2000/svg" viewBox="0 0 1536 1536">
   <g id="original" transform="translate(256,256)"><circle cx="512" cy="512" r="512" style="fill:#0c77bd"/>
   <path transform="translate(-2431.548 -1789.646) scale(3.64446)" d="M781.9 618.3s13.8-8.1 36-16.1c11.9-4.2 23.7-6.3 32.2-7.4-4.7-1.4-9.2-2.6-12.5-3.5-10.6-2.9-25.8-6.5-38.7-8.5-.6 3.1-2.1 8-5.8 15.2-5 9.8-11.2 20.3-11.2 20.3zm-6.1 11.4c-2.5.7-10.9 22.3-15.2 34.3 7.9 5.4 16 10.3 23.6 13.6 15.2 6.7 19.9 3.9 29.3-.3 6.7-3 17.3-10.2 26.6-16.9-11.3-7.4-25.4-16.3-33.6-20.1-15.2-7.4-27.1-11.8-30.7-10.6zm13-48c-11.6-.8-13.4 1.9-15.7 3.4-5.9 3.3-30.7 18-42.7 28.4-11.4 9.9-9.4 16.1-4.1 22.3 4.3 5 11.8 11 23.5 20.2.6.4 1.1.8 1.6 1.2 4.7-10.4 14.9-33 19.9-43.5 5.8-12.4 13.9-26 17.5-32zm101.5 26c-4.1-2.1-7.6-3.3-10.8-4.3-1.6-.5-5.8-1.7-11-3.3-9.3 1.2-24.6 3.5-39.5 7.1-15.4 3.7-41.3 16.3-41.3 16.3s32.7 10.6 63.4 28.4c1.1-.8 2-1.5 2.8-2.3 9.5-7.8 33.6-27.9 38.8-36.6 1.3-2.2.2-4-2.4-5.3z" style="fill:#fff"/>
</g><g id="hat" transform="rotate(-19.664861,2554.5888,-1846.2773)"><path id="🎅" style="fill:rgb(255, 116, 44);stroke:#ffffff;stroke-width:39.4767;stroke-linecap:square;stroke-linejoin:round;stroke-miterlimit:5;stroke-dasharray:none;stroke-opacity:1" d="M 1.3888427 -777.64079 C -126.41754 -822.85625 -272.88081 -794.17541 -427.74092 -723.17061 L -411.15071 -760.0823 L -459.32489 -749.02795 L -495.42034 -783.89788 L -500.16434 -732.99008 L -543.31109 -708.17992 L -498.06911 -687.77279 L -488.63916 -637.57198 L -455.93489 -675.86625 L -406.96025 -669.64773 L -425.31773 -701.97648 C -290.88513 -689.16754 -86.608888 -639.13439 -273.63981 -347.58743 C -128.15384 -457.46783 0.38614654 -456.79247 307.39427 -419.56777 C 228.26451 -624.2273 123.30628 -734.50873 1.3888427 -777.64079 z "/></g></svg>
