<svg xmlns="http://www.w3.org/2000/svg" viewBox="0 0 1536 1536">
   <g id="original" transform="translate(256,256)"><circle cx="512" cy="512" r="512" style="fill:#ffc708"/>
   <path d="m739.1 548.2-44-36.2 43.9-36.2-25.2-30.5L633 512l80.9 66.8 25.2-30.6zm-31.3 74.3-109-87h-135v199.8h39.5V575H585l98.2 78.4 24.6-30.9zm-50.1 59.4-84.2-69.3-32.3.2v122.4l39.5-10.1v-55.4l44.2 36.4 32.8-24.2zM425.2 354.5l-39.5-34.4v387.3l39.5-34.4V354.5zm-77.5 50.8-39.5 36.3V592l39.5 33.7V405.3zm116.1 83.2h135l109-87-24.7-30.9L585 449h-81.6V288.7h-39.5v199.8h-.1zm77.3-71.9 32.3.2 84.2-69.3-32.8-24.2-44.2 36.4v-55.4l-39.5-10.1v122.4zM768 512c0 141.4-114.6 256-256 256S256 653.4 256 512s114.6-256 256-256 256 114.6 256 256z" style="fill:#fff"/>
</g><g id="hat" transform="rotate(-19.664861,2554.5888,-1846.2773)"><path id="🎅" style="fill:rgb(255, 12, 123);stroke:#ffffff;stroke-width:39.4767;stroke-linecap:square;stroke-linejoin:round;stroke-miterlimit:5;stroke-dasharray:none;stroke-opacity:1" d="M 1.3888427 -777.64079 C -126.41754 -822.85625 -272.88081 -794.17541 -427.74092 -723.17061 L -411.15071 -760.0823 L -459.32489 -749.02795 L -495.42034 -783.89788 L -500.16434 -732.99008 L -543.31109 -708.17992 L -498.06911 -687.77279 L -488.63916 -637.57198 L -455.93489 -675.86625 L -406.96025 -669.64773 L -425.31773 -701.97648 C -290.88513 -689.16754 -86.608888 -639.13439 -273.63981 -347.58743 C -128.15384 -457.46783 0.38614654 -456.79247 307.39427 -419.56777 C 228.26451 -624.2273 123.30628 -734.50873 1.3888427 -777.64079 z "/></g></svg>
