<svg xmlns="http://www.w3.org/2000/svg" viewBox="0 0 1536 1536">
   <g id="original" transform="translate(256,256)"><circle cx="512" cy="512" r="512" style="fill:#008aaa"/>
   <path d="M786.2 395.5h-80.6c-1.5 0-3-.8-3.7-2.1l-64.7-112.2c-.8-1.3-2.2-2.1-3.8-2.1h-264c-1.5 0-3 .8-3.7 2.1l-67.3 116.4-64.8 112.2c-.7 1.3-.7 2.9 0 4.3l64.8 112.2 67.2 116.5c.7 1.3 2.2 2.2 3.7 2.1h264.1c1.5 0 3-.8 3.8-2.1L702 630.6c.7-1.3 2.2-2.2 3.7-2.1h80.6c2.7 0 4.8-2.2 4.8-4.8V400.4c-.1-2.7-2.3-4.9-4.9-4.9zM477.5 630.6l-20.3 35c-.3.5-.8 1-1.3 1.3-.6.3-1.2.5-1.9.5h-40.3c-1.4 0-2.7-.7-3.3-2l-60.1-104.3-5.9-10.3-21.6-36.9c-.3-.5-.5-1.1-.4-1.8 0-.6.2-1.3.5-1.8l21.7-37.6 65.9-114c.7-1.2 2-2 3.3-2H454c.7 0 1.4.2 2.1.5.5.3 1 .7 1.3 1.3l20.3 35.2c.6 1.2.5 2.7-.2 3.8l-65.1 112.8c-.3.5-.4 1.1-.4 1.6 0 .6.2 1.1.4 1.6l65.1 112.7c.9 1.5.8 3.1 0 4.4zm202.1-116.7L658 550.8l-5.9 10.3L592 665.4c-.7 1.2-1.9 2-3.3 2h-40.3c-.7 0-1.3-.2-1.9-.5-.5-.3-1-.7-1.3-1.3l-20.3-35c-.9-1.3-.9-2.9-.1-4.2l65.1-112.7c.3-.5.4-1.1.4-1.6 0-.6-.2-1.1-.4-1.6l-65.1-112.8c-.7-1.2-.8-2.6-.2-3.8l20.3-35.2c.3-.5.8-1 1.3-1.3.6-.4 1.3-.5 2.1-.5h40.4c1.4 0 2.7.7 3.3 2l65.9 114 21.7 37.6c.3.6.5 1.2.5 1.8 0 .4-.2 1-.5 1.6z" style="fill:#fff"/>
</g><g id="hat" transform="rotate(-19.664861,2554.5888,-1846.2773)"><path id="🎅" style="fill:rgb(255, 79, 7);stroke:#ffffff;stroke-width:39.4767;stroke-linecap:square;stroke-linejoin:round;stroke-miterlimit:5;stroke-dasharray:none;stroke-opacity:1" d="M 1.3888427 -777.64079 C -126.41754 -822.85625 -272.88081 -794.17541 -427.74092 -723.17061 L -411.15071 -760.0823 L -459.32489 -749.02795 L -495.42034 -783.89788 L -500.16434 -732.99008 L -543.31109 -708.17992 L -498.06911 -687.77279 L -488.63916 -637.57198 L -455.93489 -675.86625 L -406.96025 -669.64773 L -425.31773 -701.97648 C -290.88513 -689.16754 -86.608888 -639.13439 -273.63981 -347.58743 C -128.15384 -457.46783 0.38614654 -456.79247 307.39427 -419.56777 C 228.26451 -624.2273 123.30628 -734.50873 1.3888427 -777.64079 z "/></g></svg>
