<svg viewBox="0 0 1536 1536" xmlns="http://www.w3.org/2000/svg">
   <g id="original" transform="translate(256,256)"><circle cx="512" cy="512" r="512" style="fill:#52a3ff"/>
   <path d="M470 224c0 68.828-48.866 151.54-144.5 163.5-6.993-.35-13.961-.5-21-.5v50.5c6.297 0 12.781.042 19-.5 36.051 1.833 71.035 9.04 104.5 21-31.882 16.71-67.172 26.752-103.5 29.5-6.724-.429-13.217-1-20-1v51c6.783 0 13.276-.571 20-1 36.33 2.748 71.62 12.791 103.5 29.5-33.465 11.96-68.449 19.168-104.5 21-6.219-.54-12.704-.5-19-.5V637c6.997 0 14.048-.154 21-.5C421.198 648.392 470 731.123 470 800h49c0-64.395-30.806-136.27-98-179.5 19.286-5.601 37.748-12.677 56-21 58.188 49.776 93 123.06 93 200.5h49.5c0-44.191-10.757-142.86-96-225 14.47-8.958 28.131-18.738 41.5-29.5 36.575 37.076 105 123.46 105 254.5h49.5c0-147.74-76.155-245.73-117.5-288 41.362-42.289 117.5-140.29 117.5-288H670c0 130.99-68.378 217.37-105 254.5-13.369-10.762-27.03-20.542-41.5-29.5 85.21-82.109 96-180.74 96-225H570c0 75.857-34.129 150.17-93 200.5-18.252-8.324-36.715-15.399-56-21 65.123-41.903 98-112.74 98-179.5zm12.5 258.5c15.615 8.687 30.709 18.522 45 29.5-14.291 10.978-29.385 20.814-45 29.5-17.042-11.653-35.14-21.448-54-29.5 18.859-8.053 36.959-17.848 54-29.5z" style="fill:#fff"/>
</g><g id="hat" transform="rotate(-19.664861,2554.5888,-1846.2773)"><path id="🎅" style="fill:rgb(255, 108, 21);stroke:#ffffff;stroke-width:39.4767;stroke-linecap:square;stroke-linejoin:round;stroke-miterlimit:5;stroke-dasharray:none;stroke-opacity:1" d="M 1.3888427 -777.64079 C -126.41754 -822.85625 -272.88081 -794.17541 -427.74092 -723.17061 L -411.15071 -760.0823 L -459.32489 -749.02795 L -495.42034 -783.89788 L -500.16434 -732.99008 L -543.31109 -708.17992 L -498.06911 -687.77279 L -488.63916 -637.57198 L -455.93489 -675.86625 L -406.96025 -669.64773 L -425.31773 -701.97648 C -290.88513 -689.16754 -86.608888 -639.13439 -273.63981 -347.58743 C -128.15384 -457.46783 0.38614654 -456.79247 307.39427 -419.56777 C 228.26451 -624.2273 123.30628 -734.50873 1.3888427 -777.64079 z "/></g></svg>