<svg xmlns="http://www.w3.org/2000/svg" viewBox="0 0 1536 1536">
   <g id="original" transform="translate(256,256)"><circle cx="512" cy="512" r="512" style="fill:#f16823"/>
   <path d="m512 256c-141.35 0-256 114.65-256 256 0 141.35 114.65 256 256 256 141.35 0 256-114.65 256-256 0-141.16-114.65-256-256-256m131.36 395.81-26.119-29.383c30.344-27.079 48.588-64.528 50.893-105.24 2.3046-40.714-11.139-79.892-38.41-110.43-27.079-30.536-64.528-48.588-105.24-51.085-40.714-2.3046-79.892 11.331-110.43 38.41-26.119 23.238-42.827 53.773-48.78 87.766l39.178 1.3443-62.992 84.885-50.317-88.918 34.761 1.1523c6.5296-44.555 28.231-85.077 62.224-115.42 38.41-34.185 87.766-51.277 138.85-48.396 51.277 3.0727 98.137 25.734 132.32 63.952 34.185 38.41 51.277 87.766 48.204 139.04-3.0728 51.277-25.734 98.329-64.144 132.32" style="fill:#fff"/>
</g><g id="hat" transform="rotate(-19.664861,2554.5888,-1846.2773)"><path id="🎅" style="fill:rgb(255, 58, 12);stroke:#ffffff;stroke-width:39.4767;stroke-linecap:square;stroke-linejoin:round;stroke-miterlimit:5;stroke-dasharray:none;stroke-opacity:1" d="M 1.3888427 -777.64079 C -126.41754 -822.85625 -272.88081 -794.17541 -427.74092 -723.17061 L -411.15071 -760.0823 L -459.32489 -749.02795 L -495.42034 -783.89788 L -500.16434 -732.99008 L -543.31109 -708.17992 L -498.06911 -687.77279 L -488.63916 -637.57198 L -455.93489 -675.86625 L -406.96025 -669.64773 L -425.31773 -701.97648 C -290.88513 -689.16754 -86.608888 -639.13439 -273.63981 -347.58743 C -128.15384 -457.46783 0.38614654 -456.79247 307.39427 -419.56777 C 228.26451 -624.2273 123.30628 -734.50873 1.3888427 -777.64079 z "/></g></svg>
