<svg xmlns="http://www.w3.org/2000/svg" viewBox="0 0 1536 1536">
   <g id="original" transform="translate(256,256)"><circle cx="512" cy="512" r="512" style="fill:#71ba05"/>
   <path d="M669.9 362.4h-36v-14.5c0-35.5-28.9-64.4-64.4-64.4h-115c-35.5 0-64.4 28.9-64.4 64.4v14.5h-36c-35.5 0-64.4 28.9-64.4 64.4v215.4c0 35.5 28.9 64.4 64.4 64.4h315.8c35.5 0 64.4-28.9 64.4-64.4V426.8c0-35.5-28.9-64.4-64.4-64.4zM407.5 478.1l-32 164c-4.1 12.5-9.6 21.4-21.4 21.5-11.8 0-21.5-9.6-21.5-21.5V426.8c0-11.8 9.6-21.5 21.5-21.5H433v-57.5c0-11.8 9.6-21.5 21.5-21.5h114.9c11.8 0 21.5 9.6 21.5 21.5v57.5h79c11.8 0 21.5 9.6 21.5 21.5v22.3H444.9s-32 .3-37.4 29zm265.2 181.4-45.4-23.9-45.3 23.9 8.7-50.5-36.7-35.8 50.7-7.4 22.7-46 22.7 46 50.7 7.4L664 609l8.7 50.5z" style="fill:#fff"/>
</g><g id="hat" transform="rotate(-19.664861,2554.5888,-1846.2773)"><path id="🎅" style="fill:rgb(255, 1, 48);stroke:#ffffff;stroke-width:39.4767;stroke-linecap:square;stroke-linejoin:round;stroke-miterlimit:5;stroke-dasharray:none;stroke-opacity:1" d="M 1.3888427 -777.64079 C -126.41754 -822.85625 -272.88081 -794.17541 -427.74092 -723.17061 L -411.15071 -760.0823 L -459.32489 -749.02795 L -495.42034 -783.89788 L -500.16434 -732.99008 L -543.31109 -708.17992 L -498.06911 -687.77279 L -488.63916 -637.57198 L -455.93489 -675.86625 L -406.96025 -669.64773 L -425.31773 -701.97648 C -290.88513 -689.16754 -86.608888 -639.13439 -273.63981 -347.58743 C -128.15384 -457.46783 0.38614654 -456.79247 307.39427 -419.56777 C 228.26451 -624.2273 123.30628 -734.50873 1.3888427 -777.64079 z "/></g></svg>
