<svg xmlns="http://www.w3.org/2000/svg" viewBox="0 0 1536 1536">
   <g id="original" transform="translate(256,256)"><circle cx="512" cy="512" r="512" style="fill:#2c0049"/>
   <path d="M394.17 256a36.32 36.32 0 0 0-20.52 7c-12.84 10.27-16.7 28.25-9 43.66 11.56 42.38 25.68 84.76 38.53 127.14l25.69 30.82c25.68 36 66.78 59.08 111.73 60.36 75.77 0 143.84-70.64 151.54-82.19 0 1.28 0 0 2.57-2.57-91.18-57.82-183.65-115.61-274.83-174.69a37.06 37.06 0 0 0-25.71-9.53Zm312.1 202.16c6.42 3.85-158 190.07-291.53 27 5.14 18 5.14 37.24 0 56.51-9 36-20.55 70.64-32.11 106.59-7.7 24.4-16.7 50.09-23.12 74.49-5.14 14.13 0 29.54 11.56 38.53a32.76 32.76 0 0 0 39.81 0 86.33 86.33 0 0 1 14.13-9c93.75-59.08 187.5-119.44 281.25-178.51 19.26-11.56 32.1-32.11 32.1-55.22 1.28-25.68-10.27-48.8-32.1-60.36Z" style="fill:#fff"/>
</g><g id="hat" transform="rotate(-19.664861,2554.5888,-1846.2773)"><path id="🎅" style="fill:rgb(255, 46, 26);stroke:#ffffff;stroke-width:39.4767;stroke-linecap:square;stroke-linejoin:round;stroke-miterlimit:5;stroke-dasharray:none;stroke-opacity:1" d="M 1.3888427 -777.64079 C -126.41754 -822.85625 -272.88081 -794.17541 -427.74092 -723.17061 L -411.15071 -760.0823 L -459.32489 -749.02795 L -495.42034 -783.89788 L -500.16434 -732.99008 L -543.31109 -708.17992 L -498.06911 -687.77279 L -488.63916 -637.57198 L -455.93489 -675.86625 L -406.96025 -669.64773 L -425.31773 -701.97648 C -290.88513 -689.16754 -86.608888 -639.13439 -273.63981 -347.58743 C -128.15384 -457.46783 0.38614654 -456.79247 307.39427 -419.56777 C 228.26451 -624.2273 123.30628 -734.50873 1.3888427 -777.64079 z "/></g></svg>
