<svg xmlns="http://www.w3.org/2000/svg" viewBox="0 0 1536 1536">
   <g id="original" transform="translate(256,256)"><circle cx="512" cy="512" r="512" style="fill:#0a66c2"/>
   <path d="M693.05 693.16h-76v-119c0-28.39-.58-64.92-39.59-64.92-39.61 0-45.66 30.89-45.66 62.82v121.1h-76V448.38h73v33.37h1c10.2-19.24 35-39.54 72-39.54 77 0 91.21 50.66 91.21 116.6v134.35Zm-323-278.28a44.12 44.12 0 1 1 44.12-44.14 44.07 44.07 0 0 1-44.09 44.14Zm38.09 278.28H332V448.38h76.18ZM731.06 256h-437.2c-20.93 0-37.86 16.54-37.86 37v439c0 20.43 16.93 37 37.86 37H731c20.9 0 38-16.52 38-37V293c0-20.41-17.1-37-38-37Z" style="fill:#fff"/>
</g><g id="hat" transform="rotate(-19.664861,2554.5888,-1846.2773)"><path id="🎅" style="fill:rgb(255, 106, 110);stroke:#ffffff;stroke-width:39.4767;stroke-linecap:square;stroke-linejoin:round;stroke-miterlimit:5;stroke-dasharray:none;stroke-opacity:1" d="M 1.3888427 -777.64079 C -126.41754 -822.85625 -272.88081 -794.17541 -427.74092 -723.17061 L -411.15071 -760.0823 L -459.32489 -749.02795 L -495.42034 -783.89788 L -500.16434 -732.99008 L -543.31109 -708.17992 L -498.06911 -687.77279 L -488.63916 -637.57198 L -455.93489 -675.86625 L -406.96025 -669.64773 L -425.31773 -701.97648 C -290.88513 -689.16754 -86.608888 -639.13439 -273.63981 -347.58743 C -128.15384 -457.46783 0.38614654 -456.79247 307.39427 -419.56777 C 228.26451 -624.2273 123.30628 -734.50873 1.3888427 -777.64079 z "/></g></svg>
