<svg xmlns="http://www.w3.org/2000/svg" viewBox="0 0 1536 1536">
   <g id="original" transform="translate(256,256)"><circle cx="512" cy="512" r="512" style="fill:#112e51"/>
   <path d="m458.15 617.7 18.8-107.3a56.94 56.94 0 0 1 35.2-101.9V289.4h-145.2a56.33 56.33 0 0 0-56.3 56.3v275.8a33.94 33.94 0 0 0 3.4 15c12.2 24.6 60.2 103.7 197.9 164.5V622.1a313.29 313.29 0 0 1-53.8-4.4zM656.85 289h-144.9v119.1a56.86 56.86 0 0 1 35.7 101.4l18.8 107.8A320.58 320.58 0 0 1 512 622v178.6c137.5-60.5 185.7-139.9 197.9-164.5a33.94 33.94 0 0 0 3.4-15V345.5a56 56 0 0 0-16.4-40 56.76 56.76 0 0 0-40.05-16.5z" style="fill:#fff"/>
</g><g id="hat" transform="rotate(-19.664861,2554.5888,-1846.2773)"><path id="🎅" style="fill:rgb(255, 115, 120);stroke:#ffffff;stroke-width:39.4767;stroke-linecap:square;stroke-linejoin:round;stroke-miterlimit:5;stroke-dasharray:none;stroke-opacity:1" d="M 1.3888427 -777.64079 C -126.41754 -822.85625 -272.88081 -794.17541 -427.74092 -723.17061 L -411.15071 -760.0823 L -459.32489 -749.02795 L -495.42034 -783.89788 L -500.16434 -732.99008 L -543.31109 -708.17992 L -498.06911 -687.77279 L -488.63916 -637.57198 L -455.93489 -675.86625 L -406.96025 -669.64773 L -425.31773 -701.97648 C -290.88513 -689.16754 -86.608888 -639.13439 -273.63981 -347.58743 C -128.15384 -457.46783 0.38614654 -456.79247 307.39427 -419.56777 C 228.26451 -624.2273 123.30628 -734.50873 1.3888427 -777.64079 z "/></g></svg>
