<svg xmlns="http://www.w3.org/2000/svg" viewBox="0 0 1536 1536">
   <g id="original" transform="translate(256,256)"><circle cx="512" cy="512" r="512" style="fill:#12326b"/>
   <path d="M460.7 446.2c-5.3 0-9.2 4.4-9.2 9.7v67.7c0 23.7-16.9 40.2-41.1 40.2-24.2 0-40.6-16.5-41.1-40.2v-67.7c0-5.3-4.4-9.7-9.2-9.7s-9.2 4.4-9.2 9.7v68.7c0 17.9 5.8 32.9 17.4 43.1 10.2 9.2 24.7 14.5 40.6 15h3.9c15.5-.5 29.5-5.8 39.7-15 11.1-10.2 16.9-25.2 16.9-43.1v-68.7c.5-5.4-3.9-9.7-8.7-9.7zM310.2 562.3h-29c-23.7 0-40.6-16.5-41.1-40.2v-67.7c0-5.3-4.4-9.7-9.2-9.7-4.8 0-9.2 4.4-9.2 9.7v68.7c0 17.9 5.8 32.9 17.4 43.1 10.2 9.2 24.7 14.5 40.6 15h30.5c5.3 0 9.2-4.4 9.2-9.7 0-5.3-4.3-9.2-9.2-9.2zm308.7 15c-5.3 0-9.2-4.4-9.2-9.7v-67.7c0-23.7-16.9-40.2-41.1-40.2S528 476.2 527.5 498v67.7c0 7.3-4.4 11.6-9.2 11.6s-9.2-4.4-9.2-9.7v-68.2c0-17.9 5.8-32.9 17.4-43.1 9.7-9.7 24.2-14.5 40.2-15h4.4c15.5.5 29.5 5.8 39.7 15 11.6 10.6 17.4 25.6 17.4 43.1v68.7c-.1 4.9-4.4 9.2-9.3 9.2zm115.2 4.4c-19.4 0-36.8-7.3-49.4-20.3-12.1-12.6-18.9-29.5-18.9-47.9v-.5c0-18.4 6.8-35.3 18.9-47.9 12.6-13.5 30.5-20.8 49.4-20.8 19.4 0 36.8 7.3 49.4 20.3 12.1 12.6 18.9 29.5 18.9 47.9v.5c0 18.4-6.8 35.3-18.9 47.9-12.6 13.5-30.5 20.8-49.4 20.8zm0-120c-27.6 0-48.9 21.8-48.9 50.8v.5c0 14 4.8 26.6 14 36.3 9.2 9.7 21.8 15 35.3 15 27.6 0 48.9-21.8 48.9-50.8v-.5c0-14-4.8-26.6-14-36.3-9.2-9.7-21.7-15-35.3-15z" style="fill:#fff"/>
</g><g id="hat" transform="rotate(-19.664861,2554.5888,-1846.2773)"><path id="🎅" style="fill:rgb(255, 94, 10);stroke:#ffffff;stroke-width:39.4767;stroke-linecap:square;stroke-linejoin:round;stroke-miterlimit:5;stroke-dasharray:none;stroke-opacity:1" d="M 1.3888427 -777.64079 C -126.41754 -822.85625 -272.88081 -794.17541 -427.74092 -723.17061 L -411.15071 -760.0823 L -459.32489 -749.02795 L -495.42034 -783.89788 L -500.16434 -732.99008 L -543.31109 -708.17992 L -498.06911 -687.77279 L -488.63916 -637.57198 L -455.93489 -675.86625 L -406.96025 -669.64773 L -425.31773 -701.97648 C -290.88513 -689.16754 -86.608888 -639.13439 -273.63981 -347.58743 C -128.15384 -457.46783 0.38614654 -456.79247 307.39427 -419.56777 C 228.26451 -624.2273 123.30628 -734.50873 1.3888427 -777.64079 z "/></g></svg>
