<svg xmlns="http://www.w3.org/2000/svg" viewBox="0 0 1536 1536">
   <g id="original" transform="translate(256,256)"><circle cx="512" cy="512" r="512" style="fill:#6364ff"/>
   <path d="M748.81 388.46c-7.36-54.18-55-96.89-111.47-105.17-9.54-1.41-45.65-6.49-129.28-6.49h-.63c-83.65 0-101.62 5.09-111.14 6.49-54.92 8-105.06 46.43-117.23 101.26-5.82 27-6.45 57-5.38 84.4 1.56 39.39 1.85 78.71 5.46 117.93a544.18 544.18 0 0 0 13 77.34c11.56 47 58.36 86.13 104.24 102.08a281.93 281.93 0 0 0 152.5 8q8.35-1.92 16.52-4.48c12.3-3.87 26.69-8.2 37.28-15.83a1.2 1.2 0 0 0 .48-.9v-38a1.09 1.09 0 0 0-.42-.86 1.11 1.11 0 0 0-1-.21 426.27 426.27 0 0 1-99 11.45c-57.38 0-72.78-27-77.22-38.21a117.55 117.55 0 0 1-6.7-30.12 1.11 1.11 0 0 1 1.39-1.13 418.36 418.36 0 0 0 97.35 11.48c7.9 0 15.76 0 23.64-.21 33-.92 67.76-2.61 100.21-8.87.8-.17 1.62-.32 2.31-.5 51.18-9.75 99.89-40.35 104.85-117.78.17-3 .63-31.95.63-35.1.16-10.79 3.63-76.32-.39-116.57ZM670 581.71h-53.78V451c0-27.51-11.56-41.53-35.1-41.53-25.85 0-38.8 16.6-38.8 49.39v71.52h-53.51v-71.51c0-32.79-13-49.39-38.84-49.39-23.37 0-35.06 14-35.1 41.55v130.68h-53.74V447.08q0-41.3 21.25-65.57C397 365.32 416.18 357 440 357c27.55 0 48.38 10.51 62.25 31.48l13.41 22.28L529 388.52c13.87-21 34.68-31.48 62.21-31.48 23.75 0 42.94 8.3 57.59 24.46q21.28 24.27 21.27 65.57Z" style="fill:#fff"/>
</g><g id="hat" transform="rotate(-19.664861,2554.5888,-1846.2773)"><path id="🎅" style="fill:rgb(255, 122, 101);stroke:#ffffff;stroke-width:39.4767;stroke-linecap:square;stroke-linejoin:round;stroke-miterlimit:5;stroke-dasharray:none;stroke-opacity:1" d="M 1.3888427 -777.64079 C -126.41754 -822.85625 -272.88081 -794.17541 -427.74092 -723.17061 L -411.15071 -760.0823 L -459.32489 -749.02795 L -495.42034 -783.89788 L -500.16434 -732.99008 L -543.31109 -708.17992 L -498.06911 -687.77279 L -488.63916 -637.57198 L -455.93489 -675.86625 L -406.96025 -669.64773 L -425.31773 -701.97648 C -290.88513 -689.16754 -86.608888 -639.13439 -273.63981 -347.58743 C -128.15384 -457.46783 0.38614654 -456.79247 307.39427 -419.56777 C 228.26451 -624.2273 123.30628 -734.50873 1.3888427 -777.64079 z "/></g></svg>
