<svg xmlns="http://www.w3.org/2000/svg" viewBox="0 0 1536 1536">
   <g id="original" transform="translate(256,256)"><circle cx="512" cy="512" r="512" style="fill:#d9272e"/>
   <path d="M512 256.13c-141.33 0-255.87 114.55-255.87 255.88S370.67 767.88 512 767.88 767.88 653.33 767.88 512 653.33 256.13 512 256.13Zm132.84 346.36a7.91 7.91 0 0 1-7.89 7.93h-33.47a7.91 7.91 0 0 1-7.93-7.89V499.55a1 1 0 0 0-1.71-.7L523 569.64a15.82 15.82 0 0 1-22.24 0L430 498.84a1 1 0 0 0-1.71.7v102.95a7.91 7.91 0 0 1-7.89 7.93H387a7.91 7.91 0 0 1-7.93-7.89v-181a7.92 7.92 0 0 1 7.93-7.93h22.94a16 16 0 0 1 11.19 4.69l88.06 88.06a3.84 3.84 0 0 0 5.43.12l.12-.12 88.06-88.06a15.73 15.73 0 0 1 11.2-4.7h22.92a7.92 7.92 0 0 1 7.93 7.93Z" style="fill:#fff"/>
</g><g id="hat" transform="rotate(-19.664861,2554.5888,-1846.2773)"><path id="🎅" style="fill:rgb(255, 4, 71);stroke:#ffffff;stroke-width:39.4767;stroke-linecap:square;stroke-linejoin:round;stroke-miterlimit:5;stroke-dasharray:none;stroke-opacity:1" d="M 1.3888427 -777.64079 C -126.41754 -822.85625 -272.88081 -794.17541 -427.74092 -723.17061 L -411.15071 -760.0823 L -459.32489 -749.02795 L -495.42034 -783.89788 L -500.16434 -732.99008 L -543.31109 -708.17992 L -498.06911 -687.77279 L -488.63916 -637.57198 L -455.93489 -675.86625 L -406.96025 -669.64773 L -425.31773 -701.97648 C -290.88513 -689.16754 -86.608888 -639.13439 -273.63981 -347.58743 C -128.15384 -457.46783 0.38614654 -456.79247 307.39427 -419.56777 C 228.26451 -624.2273 123.30628 -734.50873 1.3888427 -777.64079 z "/></g></svg>
