<svg xmlns="http://www.w3.org/2000/svg" viewBox="0 0 1536 1536">
   <g id="original" transform="translate(256,256)"><circle cx="512" cy="512" r="512" style="fill:#5767ff"/>
   <path d="M668.45 310.69a45 45 0 0 1 44.86 44.86v312.9a45 45 0 0 1-44.86 44.86h-312.9a45.08 45.08 0 0 1-44.86-44.86v-312.9a45.08 45.08 0 0 1 44.86-44.86h312.9m0-22.37h-312.9a67.35 67.35 0 0 0-67.23 67.23v312.9a67.35 67.35 0 0 0 67.23 67.23h312.9a67.35 67.35 0 0 0 67.23-67.23v-312.9a67.35 67.35 0 0 0-67.23-67.23zM567.92 415.07A78 78 0 0 0 512 438.68a78.21 78.21 0 0 0-134.21 54.68v93.2a22.37 22.37 0 0 0 44.74 0v-93.2a33.55 33.55 0 0 1 67.1 0v93.2a22.37 22.37 0 0 0 44.74 0v-93.2a33.55 33.55 0 0 1 67.1 0v93.2a22.37 22.37 0 0 0 44.74 0v-93.2a78.44 78.44 0 0 0-78.29-78.29z" style="fill:#fff"/>
</g><g id="hat" transform="rotate(-19.664861,2554.5888,-1846.2773)"><path id="🎅" style="fill:rgb(255, 28, 16);stroke:#ffffff;stroke-width:39.4767;stroke-linecap:square;stroke-linejoin:round;stroke-miterlimit:5;stroke-dasharray:none;stroke-opacity:1" d="M 1.3888427 -777.64079 C -126.41754 -822.85625 -272.88081 -794.17541 -427.74092 -723.17061 L -411.15071 -760.0823 L -459.32489 -749.02795 L -495.42034 -783.89788 L -500.16434 -732.99008 L -543.31109 -708.17992 L -498.06911 -687.77279 L -488.63916 -637.57198 L -455.93489 -675.86625 L -406.96025 -669.64773 L -425.31773 -701.97648 C -290.88513 -689.16754 -86.608888 -639.13439 -273.63981 -347.58743 C -128.15384 -457.46783 0.38614654 -456.79247 307.39427 -419.56777 C 228.26451 -624.2273 123.30628 -734.50873 1.3888427 -777.64079 z "/></g></svg>
