<svg xmlns="http://www.w3.org/2000/svg" viewBox="0 0 1536 1536">
   <g id="original" transform="translate(256,256)"><circle cx="512" cy="512" r="512" style="fill:#e3211c"/>
   <path d="M310 686.73c.09 24.87 20.23 45.02 45.1 45.1h123.51v83.42l27.48-28.78c38.96-40.42 69.84-54.64 118.34-54.64h44.3c24.94 0 45.18-20.17 45.27-45.1V292.75H310v393.98Zm29.58-364.55h344.67v364.23c0 8.57-6.95 15.36-15.52 15.36l.16.16h-44.46c-42.68 0-79.54 7.11-120.76 52.06v-52.06H354.94c-8.41 0-15.36-6.79-15.36-15.36V322.18Z" style="fill:#fff"/>
</g><g id="hat" transform="rotate(-19.664861,2554.5888,-1846.2773)"><path id="🎅" style="fill:rgb(255, 11, 54);stroke:#ffffff;stroke-width:39.4767;stroke-linecap:square;stroke-linejoin:round;stroke-miterlimit:5;stroke-dasharray:none;stroke-opacity:1" d="M 1.3888427 -777.64079 C -126.41754 -822.85625 -272.88081 -794.17541 -427.74092 -723.17061 L -411.15071 -760.0823 L -459.32489 -749.02795 L -495.42034 -783.89788 L -500.16434 -732.99008 L -543.31109 -708.17992 L -498.06911 -687.77279 L -488.63916 -637.57198 L -455.93489 -675.86625 L -406.96025 -669.64773 L -425.31773 -701.97648 C -290.88513 -689.16754 -86.608888 -639.13439 -273.63981 -347.58743 C -128.15384 -457.46783 0.38614654 -456.79247 307.39427 -419.56777 C 228.26451 -624.2273 123.30628 -734.50873 1.3888427 -777.64079 z "/></g></svg>
