<svg xmlns="http://www.w3.org/2000/svg" viewBox="0 0 1536 1536">
   <g id="original" transform="translate(256,256)"><circle cx="512" cy="512" r="512" style="fill:#415aff"/>
   <path d="M565.475 265.749c-.303 54.05-16.309 104.464-43.591 146.796 50.336 2.525 90.504 44.251 90.504 95.372v189.329h151.006V508.017c0-119.72-85.269-219.638-197.919-242.268ZM266.087 545.295v151.947h151.006V545.295H266.087Zm111.264-245.14c38.111-24.867 83.329-39.357 131.957-39.357h7.752l18.222.708v2.727c0 134.437-108.91 243.869-242.83 244.087l-.392.001h-7.752c-6.141 0-12.181-.202-18.221-.708v-2.728c0-57.485 19.933-110.425 53.255-152.15v-.101h.1l.19-.238a244.302 244.302 0 0 1 17.089-19.19l-.363.231a285.684 285.684 0 0 1 9.752-9.357 214.384 214.384 0 0 1 10.281-8.828l-.27.342a243.908 243.908 0 0 1 20.805-15.192v-.101h.201l.224-.146Z" style="fill:#fff"/>
</g><g id="hat" transform="rotate(-19.664861,2554.5888,-1846.2773)"><path id="🎅" style="fill:rgb(255, 125, 58);stroke:#ffffff;stroke-width:39.4767;stroke-linecap:square;stroke-linejoin:round;stroke-miterlimit:5;stroke-dasharray:none;stroke-opacity:1" d="M 1.3888427 -777.64079 C -126.41754 -822.85625 -272.88081 -794.17541 -427.74092 -723.17061 L -411.15071 -760.0823 L -459.32489 -749.02795 L -495.42034 -783.89788 L -500.16434 -732.99008 L -543.31109 -708.17992 L -498.06911 -687.77279 L -488.63916 -637.57198 L -455.93489 -675.86625 L -406.96025 -669.64773 L -425.31773 -701.97648 C -290.88513 -689.16754 -86.608888 -639.13439 -273.63981 -347.58743 C -128.15384 -457.46783 0.38614654 -456.79247 307.39427 -419.56777 C 228.26451 -624.2273 123.30628 -734.50873 1.3888427 -777.64079 z "/></g></svg>
