<svg xmlns="http://www.w3.org/2000/svg" viewBox="0 0 1536 1536">
   <g id="original" transform="translate(256,256)"><circle cx="512" cy="512" r="512" style="fill:#fe8427"/>
   <path d="M775.66 510.82c-23.64-26.46-64.66-28.96-91.58-5.79l-15.65 13.46c18.63 10.33 31 30.68 29.74 53.85-1.57 29.9-26.14 53.85-56.04 54.79-32.88.94-59.8-25.36-59.8-57.92 1.57-40.7 32.88-57.92 58.71-57.92l-64.03-151.7c-13.78-32.56-51.66-47.9-84.69-34.44-6.89 2.97-25.67 10.8-36.16 34.6l-50.1 116.47-49.16-116.16c-13.62-32.56-51.66-47.9-84.69-34.44-33.19 13.46-48.84 50.72-35.07 83.13L345.16 664.4c13.78 32.56 51.66 47.9 84.69 34.44 10.18-4.54 25.83-12.37 36.16-34.6l50.1-116.47 49.16 116.32c7.36 17.38 21.6 29.9 38.35 35.69 21.6 7.83 46.96 4.07 65.44-11.9l100.97-87.2c26.77-23.33 29.27-63.56 5.64-89.86Z" style="fill:#fff"/>
</g><g id="hat" transform="rotate(-19.664861,2554.5888,-1846.2773)"><path id="🎅" style="fill:rgb(255, 28, 33);stroke:#ffffff;stroke-width:39.4767;stroke-linecap:square;stroke-linejoin:round;stroke-miterlimit:5;stroke-dasharray:none;stroke-opacity:1" d="M 1.3888427 -777.64079 C -126.41754 -822.85625 -272.88081 -794.17541 -427.74092 -723.17061 L -411.15071 -760.0823 L -459.32489 -749.02795 L -495.42034 -783.89788 L -500.16434 -732.99008 L -543.31109 -708.17992 L -498.06911 -687.77279 L -488.63916 -637.57198 L -455.93489 -675.86625 L -406.96025 -669.64773 L -425.31773 -701.97648 C -290.88513 -689.16754 -86.608888 -639.13439 -273.63981 -347.58743 C -128.15384 -457.46783 0.38614654 -456.79247 307.39427 -419.56777 C 228.26451 -624.2273 123.30628 -734.50873 1.3888427 -777.64079 z "/></g></svg>
