<svg xmlns="http://www.w3.org/2000/svg" viewBox="0 0 1536 1536">
   <g id="original" transform="translate(256,256)"><circle cx="512" cy="512" r="512" style="fill:#0082c9"/>
   <path d="M512.46 370.87c-64.58 0-118.83 44.23-135.39 103.72-14.47-31.83-46.32-54.38-83.31-54.38a91.79 91.79 0 0 0 0 183.57c37 0 68.82-22.58 83.29-54.4 16.56 59.52 70.83 103.75 135.42 103.75 64.25 0 118.21-43.74 135.13-102.74 14.7 31.26 46.06 53.4 82.61 53.4a91.79 91.79 0 0 0 0-183.57c-36.58 0-67.94 22.16-82.64 53.4-16.89-59.01-70.86-102.77-135.11-102.75Zm0 53.86a87.27 87.27 0 1 1-87.24 88.07v-.8a86.85 86.85 0 0 1 87.24-87.26Zm-218.7 49.34a37.92 37.92 0 1 1-37.9 38.73v-.81a37.48 37.48 0 0 1 37.9-37.9Zm436.45 0a37.92 37.92 0 1 1-37.9 38.73v-.81a37.48 37.48 0 0 1 37.9-37.9Z" style="fill:#fff"/>
</g><g id="hat" transform="rotate(-19.664861,2554.5888,-1846.2773)"><path id="🎅" style="fill:rgb(255, 89, 78);stroke:#ffffff;stroke-width:39.4767;stroke-linecap:square;stroke-linejoin:round;stroke-miterlimit:5;stroke-dasharray:none;stroke-opacity:1" d="M 1.3888427 -777.64079 C -126.41754 -822.85625 -272.88081 -794.17541 -427.74092 -723.17061 L -411.15071 -760.0823 L -459.32489 -749.02795 L -495.42034 -783.89788 L -500.16434 -732.99008 L -543.31109 -708.17992 L -498.06911 -687.77279 L -488.63916 -637.57198 L -455.93489 -675.86625 L -406.96025 -669.64773 L -425.31773 -701.97648 C -290.88513 -689.16754 -86.608888 -639.13439 -273.63981 -347.58743 C -128.15384 -457.46783 0.38614654 -456.79247 307.39427 -419.56777 C 228.26451 -624.2273 123.30628 -734.50873 1.3888427 -777.64079 z "/></g></svg>
