<svg xmlns="http://www.w3.org/2000/svg" viewBox="0 0 1536 1536">
   <g id="original" transform="translate(256,256)"><circle cx="512" cy="512" r="512" style="fill:#e23030"/>
   <path d="M697.49 290.18c7.93-.07 15.85.09 23.78-.09.32 32.56 0 65.15.13 97.72q-.07 173.05-.07 346.11c-7.95-.15-15.9 0-23.85-.08q.01-221.84.01-443.66Zm-235.28 73.74c-20.65 15.21-37.19 35.31-50.81 56.89v-75.88H302.91q-.22 171.39-.31 342.76h108.78c.07-64.47-.1-128.94.08-193.41a245.82 245.82 0 0 1 17.11-23.85c10.12-12.52 21.52-24.2 34.86-33.33 10.85-7.45 23.17-13 36.25-15 10.8-1.56 22.48-1.33 32.22 4.13 9.37 5.12 15.54 14.56 18.89 24.48 5.76 16.63 5.5 34.46 5.4 51.82V687.7h108.56V489.83c-.13-16.27.55-32.58-1.25-48.78-2-17.68-6.7-35.25-15.42-50.85-10.29-18.53-26.16-34.09-45.39-43.16-14.35-6.87-30.2-10.18-46-10.94a149 149 0 0 0-54.06 6.86 142.59 142.59 0 0 0-40.42 20.96Z" style="fill:#fff"/>
</g><g id="hat" transform="rotate(-19.664861,2554.5888,-1846.2773)"><path id="🎅" style="fill:rgb(255, 57, 60);stroke:#ffffff;stroke-width:39.4767;stroke-linecap:square;stroke-linejoin:round;stroke-miterlimit:5;stroke-dasharray:none;stroke-opacity:1" d="M 1.3888427 -777.64079 C -126.41754 -822.85625 -272.88081 -794.17541 -427.74092 -723.17061 L -411.15071 -760.0823 L -459.32489 -749.02795 L -495.42034 -783.89788 L -500.16434 -732.99008 L -543.31109 -708.17992 L -498.06911 -687.77279 L -488.63916 -637.57198 L -455.93489 -675.86625 L -406.96025 -669.64773 L -425.31773 -701.97648 C -290.88513 -689.16754 -86.608888 -639.13439 -273.63981 -347.58743 C -128.15384 -457.46783 0.38614654 -456.79247 307.39427 -419.56777 C 228.26451 -624.2273 123.30628 -734.50873 1.3888427 -777.64079 z "/></g></svg>
