<svg xmlns="http://www.w3.org/2000/svg" viewBox="0 0 1536 1536">
   <g id="original" transform="translate(256,256)"><circle cx="512" cy="512" r="512" style="fill:#235feb"/>
   <path d="M539.57 539.55a115.89 115.89 0 0 0-55.13 0 116.08 116.08 0 0 1-85 85 116.05 116.05 0 0 1 85-85 115.89 115.89 0 0 0 0-55.1 115.89 115.89 0 0 0 55.12 0 116.08 116.08 0 0 1 85-85 115.89 115.89 0 1 0-225.15 0 115.89 115.89 0 1 0 0 225.15 115.89 115.89 0 1 0 225.15 0 116 116 0 0 1-84.99-85.05Zm-55.13-55.13a116 116 0 0 1-85-85 116 116 0 0 1 85 85Zm280.23 55.05a115.89 115.89 0 0 1-140.08 85.08 116 116 0 0 0-85-85 115.89 115.89 0 0 1 0-55.13 116 116 0 0 0 85-85 115.76 115.76 0 0 1 27.55-3.32 115.89 115.89 0 0 1 112.52 143.37Z" style="fill:#fff"/>
</g><g id="hat" transform="rotate(-19.664861,2554.5888,-1846.2773)"><path id="🎅" style="fill:rgb(255, 83, 122);stroke:#ffffff;stroke-width:39.4767;stroke-linecap:square;stroke-linejoin:round;stroke-miterlimit:5;stroke-dasharray:none;stroke-opacity:1" d="M 1.3888427 -777.64079 C -126.41754 -822.85625 -272.88081 -794.17541 -427.74092 -723.17061 L -411.15071 -760.0823 L -459.32489 -749.02795 L -495.42034 -783.89788 L -500.16434 -732.99008 L -543.31109 -708.17992 L -498.06911 -687.77279 L -488.63916 -637.57198 L -455.93489 -675.86625 L -406.96025 -669.64773 L -425.31773 -701.97648 C -290.88513 -689.16754 -86.608888 -639.13439 -273.63981 -347.58743 C -128.15384 -457.46783 0.38614654 -456.79247 307.39427 -419.56777 C 228.26451 -624.2273 123.30628 -734.50873 1.3888427 -777.64079 z "/></g></svg>
