<svg xmlns="http://www.w3.org/2000/svg" viewBox="0 0 1536 1536">
   <g id="original" transform="translate(256,256)"><circle cx="512" cy="512" r="512" style="fill:#76b82a"/>
   <path d="M854.32 464.37a41.58 41.58 0 0 0-31.26 14.11A41.67 41.67 0 0 0 750.14 506v53.58H771v-54.3a20.84 20.84 0 0 1 41.66.71v53.58h20.84v-54.28a20.84 20.84 0 0 1 41.66.71v53.58H896V506a41.68 41.68 0 0 0-41.68-41.68m-172.65 74.47a26.79 26.79 0 1 1 26.8-26.79 26.79 26.79 0 0 1-26.79 26.79m0-74.42A47.63 47.63 0 1 0 729.3 512a47.62 47.62 0 0 0-47.62-47.63M580.5 485.21a26.7 26.7 0 0 1 19.42 8.36l14.73-14.73a47.63 47.63 0 1 0 0 66.32l-14.73-14.73a26.78 26.78 0 1 1-19.42-45.22m-86.36 38.7a17.86 17.86 0 1 1-17.86 17.86 17.86 17.86 0 0 1 17.86-17.86m-111.59-20.84a26.8 26.8 0 0 1 50.53 0Zm72.89 8.93a47.59 47.59 0 1 0-4.09 19.35h-25a26.8 26.8 0 0 1-44.27-11.9h72.79a48.07 48.07 0 0 0 .58-7.45Zm-163.72-47.63A47.63 47.63 0 0 0 244.09 512v47.63h20.84v-48.42a26.79 26.79 0 0 1 53.57.79v47.63h20.84v-48.57a47.63 47.63 0 0 0-47.62-46.69m-116.09 74.42A26.79 26.79 0 1 1 202.42 512a26.79 26.79 0 0 1-26.79 26.79m0-74.42A47.63 47.63 0 1 0 223.25 512a47.63 47.63 0 0 0-47.63-47.63" style="fill:#fff"/>
</g><g id="hat" transform="rotate(-19.664861,2554.5888,-1846.2773)"><path id="🎅" style="fill:rgb(255, 84, 39);stroke:#ffffff;stroke-width:39.4767;stroke-linecap:square;stroke-linejoin:round;stroke-miterlimit:5;stroke-dasharray:none;stroke-opacity:1" d="M 1.3888427 -777.64079 C -126.41754 -822.85625 -272.88081 -794.17541 -427.74092 -723.17061 L -411.15071 -760.0823 L -459.32489 -749.02795 L -495.42034 -783.89788 L -500.16434 -732.99008 L -543.31109 -708.17992 L -498.06911 -687.77279 L -488.63916 -637.57198 L -455.93489 -675.86625 L -406.96025 -669.64773 L -425.31773 -701.97648 C -290.88513 -689.16754 -86.608888 -639.13439 -273.63981 -347.58743 C -128.15384 -457.46783 0.38614654 -456.79247 307.39427 -419.56777 C 228.26451 -624.2273 123.30628 -734.50873 1.3888427 -777.64079 z "/></g></svg>
