<svg xmlns="http://www.w3.org/2000/svg" viewBox="0 0 1536 1536">
   <g id="original" transform="translate(256,256)"><circle cx="512" cy="512" r="512" style="fill:#ff6f3d"/>
   <path d="m480 742.51-210.55-97.34c-17.94-8.5-17.94-21.63 0-29.36l73.31-34 136.48 63.35c17.94 8.5 46.79 8.5 64 0l136.48-63.35 73.31 34c17.94 8.5 17.94 21.63 0 29.36l-210.61 97.34c-16.42 7.73-45.24 7.73-62.42 0Zm0-119.76-210.55-97.34c-17.94-8.5-17.94-21.63 0-29.36l71.75-33.22L480 527c17.94 8.5 46.79 8.5 64 0l138.8-64.16 71.75 33.22c17.94 8.5 17.94 21.63 0 29.36L544 622.75c-18 8.5-46.82 8.5-64 0Zm0 0-210.55-97.34c-17.94-8.5-17.94-21.63 0-29.36l71.75-33.22L480 527c17.94 8.5 46.79 8.5 64 0l138.8-64.16 71.75 33.22c17.94 8.5 17.94 21.63 0 29.36L544 622.75c-18 8.5-46.82 8.5-64 0Zm0-116.65-210.55-97.34c-17.94-8.5-17.94-21.63 0-29.36L480 282.07c17.94-8.5 46.79-8.5 64 0l210.57 97.34c17.94 8.5 17.94 21.63 0 29.36L544 506.11c-18 7.72-46.82 7.72-64 0Z" style="fill:#fff"/>
</g><g id="hat" transform="rotate(-19.664861,2554.5888,-1846.2773)"><path id="🎅" style="fill:rgb(255, 82, 13);stroke:#ffffff;stroke-width:39.4767;stroke-linecap:square;stroke-linejoin:round;stroke-miterlimit:5;stroke-dasharray:none;stroke-opacity:1" d="M 1.3888427 -777.64079 C -126.41754 -822.85625 -272.88081 -794.17541 -427.74092 -723.17061 L -411.15071 -760.0823 L -459.32489 -749.02795 L -495.42034 -783.89788 L -500.16434 -732.99008 L -543.31109 -708.17992 L -498.06911 -687.77279 L -488.63916 -637.57198 L -455.93489 -675.86625 L -406.96025 -669.64773 L -425.31773 -701.97648 C -290.88513 -689.16754 -86.608888 -639.13439 -273.63981 -347.58743 C -128.15384 -457.46783 0.38614654 -456.79247 307.39427 -419.56777 C 228.26451 -624.2273 123.30628 -734.50873 1.3888427 -777.64079 z "/></g></svg>
