<svg xmlns="http://www.w3.org/2000/svg" viewBox="0 0 1536 1536">
   <g id="original" transform="translate(256,256)"><circle cx="512" cy="512" r="512" style="fill:#64bc4f"/>
   <path d="m395.31 504 42.24 24.26v-54.73l115-67.23L511 380.65l-115.69 67.93V504ZM511 224l95.57 55.45-251.39 149v128.26l-91.41-53.37V368.18L511 224Zm66.48 196.85-42.28 24.26 48.48 28.42-.68 129.62 42.24-24.26V448.58l-47.79-27.73Zm182.79 233.59-95.57 56.84V426.4L549 358.47l97-56.14 114.27 66.54v285.57Zm-201.53-36v-47.17l-48.48 28.42-115-67.23v47.13l115.65 67.23Zm-295 38.12v-105.4L511 692.56l113.58-67.93.69 109.52L513.72 800l-250-143.48Z" style="fill:#fff"/>
</g><g id="hat" transform="rotate(-19.664861,2554.5888,-1846.2773)"><path id="🎅" style="fill:rgb(255, 97, 21);stroke:#ffffff;stroke-width:39.4767;stroke-linecap:square;stroke-linejoin:round;stroke-miterlimit:5;stroke-dasharray:none;stroke-opacity:1" d="M 1.3888427 -777.64079 C -126.41754 -822.85625 -272.88081 -794.17541 -427.74092 -723.17061 L -411.15071 -760.0823 L -459.32489 -749.02795 L -495.42034 -783.89788 L -500.16434 -732.99008 L -543.31109 -708.17992 L -498.06911 -687.77279 L -488.63916 -637.57198 L -455.93489 -675.86625 L -406.96025 -669.64773 L -425.31773 -701.97648 C -290.88513 -689.16754 -86.608888 -639.13439 -273.63981 -347.58743 C -128.15384 -457.46783 0.38614654 -456.79247 307.39427 -419.56777 C 228.26451 -624.2273 123.30628 -734.50873 1.3888427 -777.64079 z "/></g></svg>
