<svg xmlns="http://www.w3.org/2000/svg" viewBox="0 0 1536 1536">
   <g id="original" transform="translate(256,256)"><circle cx="512" cy="512" r="512" style="fill:#297eff"/>
   <path d="M722.5 366.2C751.2 407.6 768 457.8 768 512s-16.8 104.4-45.5 145.8l-66.3-66.3c13-23.6 20.4-50.7 20.4-79.5 0-28.8-7.4-55.9-20.4-79.5l66.3-66.3zm-64.7-64.7-66.3 66.3c-23.6-13-50.7-20.4-79.5-20.4-90.9 0-164.6 73.7-164.6 164.6S421.1 676.6 512 676.6c28.8 0 55.9-7.4 79.5-20.4l66.3 66.3C616.4 751.2 566.2 768 512 768c-141.4 0-256-114.6-256-256s114.6-256 256-256c54.2 0 104.4 16.8 145.8 45.5z" style="fill:#fff"/>
</g><g id="hat" transform="rotate(-19.664861,2554.5888,-1846.2773)"><path id="🎅" style="fill:rgb(255, 44, 0);stroke:#ffffff;stroke-width:39.4767;stroke-linecap:square;stroke-linejoin:round;stroke-miterlimit:5;stroke-dasharray:none;stroke-opacity:1" d="M 1.3888427 -777.64079 C -126.41754 -822.85625 -272.88081 -794.17541 -427.74092 -723.17061 L -411.15071 -760.0823 L -459.32489 -749.02795 L -495.42034 -783.89788 L -500.16434 -732.99008 L -543.31109 -708.17992 L -498.06911 -687.77279 L -488.63916 -637.57198 L -455.93489 -675.86625 L -406.96025 -669.64773 L -425.31773 -701.97648 C -290.88513 -689.16754 -86.608888 -639.13439 -273.63981 -347.58743 C -128.15384 -457.46783 0.38614654 -456.79247 307.39427 -419.56777 C 228.26451 -624.2273 123.30628 -734.50873 1.3888427 -777.64079 z "/></g></svg>
