<svg xmlns="http://www.w3.org/2000/svg" viewBox="0 0 1536 1536">
   <g id="original" transform="translate(256,256)"><circle cx="512" cy="512" r="512" style="fill:#c74634"/>
   <path d="M466.88 525.07h44.19l-23.34-37.69-42.91 68.08H425.3l52.19-81.68a12.44 12.44 0 0 1 20.3-.14l52.34 81.82h-19.52l-9.19-15.22h-44.71L467 525.07m202.76 15.16v-71h-16.62v77.94a8 8 0 0 0 2.46 5.8 8.38 8.38 0 0 0 6 2.52H737l9.83-15.22h-77.19m-274.12-12.71a29.14 29.14 0 1 0 0-58.28H323v86.17h16.56v-70.92h54.92a13.95 13.95 0 0 1 0 27.89H347.8l49.47 43h24l-33.23-27.89h7.45M221.2 555.46h50.07a43.09 43.09 0 0 0 0-86.14H221.2a43.09 43.09 0 0 0-2.2 86.14h2.24m48.94-15.16h-47.87a27.89 27.89 0 0 1 0-55.76h47.84a27.89 27.89 0 0 1 1.8 55.76h-1.8m314.57 15.16h51.12l9.68-15.16h-59.68a27.89 27.89 0 1 1-1.8-55.76h50.37l9.8-15.22h-59.5a43.09 43.09 0 0 0-2.24 86.14h2.24m202.59-15.17A27.89 27.89 0 0 1 760.45 520h70.81l9.74-15.2h-80.55a27.86 27.86 0 0 1 26.85-20.3h48.6l9.71-15.22h-59.44a43.09 43.09 0 0 0 0 86.14h51.12l9.71-15.16h-59.73" style="fill:#fff"/>
</g><g id="hat" transform="rotate(-19.664861,2554.5888,-1846.2773)"><path id="🎅" style="fill:rgb(255, 59, 58);stroke:#ffffff;stroke-width:39.4767;stroke-linecap:square;stroke-linejoin:round;stroke-miterlimit:5;stroke-dasharray:none;stroke-opacity:1" d="M 1.3888427 -777.64079 C -126.41754 -822.85625 -272.88081 -794.17541 -427.74092 -723.17061 L -411.15071 -760.0823 L -459.32489 -749.02795 L -495.42034 -783.89788 L -500.16434 -732.99008 L -543.31109 -708.17992 L -498.06911 -687.77279 L -488.63916 -637.57198 L -455.93489 -675.86625 L -406.96025 -669.64773 L -425.31773 -701.97648 C -290.88513 -689.16754 -86.608888 -639.13439 -273.63981 -347.58743 C -128.15384 -457.46783 0.38614654 -456.79247 307.39427 -419.56777 C 228.26451 -624.2273 123.30628 -734.50873 1.3888427 -777.64079 z "/></g></svg>
