<svg xmlns="http://www.w3.org/2000/svg" viewBox="0 0 1536 1536">
   <g id="original" transform="translate(256,256)"><circle cx="512" cy="512" r="512" style="fill:#ffde00"/>
   <path d="M678.77 682.63a3.84 3.84 0 0 0 2.72-1.13 3.84 3.84 0 0 1-2.72 1.13H345.22a3.82 3.82 0 0 1-2.47-.92 3.82 3.82 0 0 0 2.47.92ZM516.42 510.51c28.89 0 45.62-12.43 45.62-35.11 0-23.3-16.72-35.11-45.62-35.11h-25.55v70.53h25.55ZM739.5 700.4v21.33a17.77 17.77 0 0 0-17.77 17.77H700.4a17.77 17.77 0 0 0-35.55 0h-21.33a17.77 17.77 0 0 0-35.55 0h-21.32a17.77 17.77 0 0 0-17.77-17.77 17.77 17.77 0 0 0-17.78 17.77h-21.33a17.77 17.77 0 0 0-35.55 0H472.9a17.77 17.77 0 1 0-35.55 0H416a17.77 17.77 0 0 0-35.55 0h-21.3a17.77 17.77 0 1 0-35.55 0h-21.33a17.77 17.77 0 0 0-17.77-17.77V700.4a17.77 17.77 0 0 0 0-35.55v-21.33a17.77 17.77 0 0 0 0-35.55v-21.32a17.77 17.77 0 0 0 17.77-17.77 17.77 17.77 0 0 0-17.77-17.78v-21.33a17.77 17.77 0 0 0 0-35.55V472.9a17.77 17.77 0 1 0 0-35.55V416a17.77 17.77 0 0 0 0-35.55v-21.3a17.77 17.77 0 1 0 0-35.55v-21.33a17.77 17.77 0 0 0 17.77-17.77h21.33a17.77 17.77 0 0 0 35.55 0h21.33a17.77 17.77 0 1 0 35.55 0h21.33a17.77 17.77 0 1 0 35.55 0h21.33a17.77 17.77 0 1 0 35.55 0h21.31a17.77 17.77 0 0 0 35.55 0H608a17.77 17.77 0 0 0 35.55 0h21.33a17.77 17.77 0 0 0 35.55 0h21.33a17.77 17.77 0 0 0 17.77 17.77v21.33a17.77 17.77 0 0 0 0 35.55v21.33a17.77 17.77 0 1 0 0 35.55v21.33a17.77 17.77 0 0 0 0 35.55v21.33a17.77 17.77 0 0 0 0 35.55v21.31a17.77 17.77 0 0 0-17.77 17.77 17.77 17.77 0 0 0 17.77 17.77V608a17.77 17.77 0 0 0 0 35.55v21.33a17.77 17.77 0 0 0 0 35.55Zm-56.88-355.17a3.85 3.85 0 0 0-3.85-3.85H345.22a3.85 3.85 0 0 0-3.85 3.85v333.54a3.89 3.89 0 0 0 3.85 3.85h333.55a3.85 3.85 0 0 0 3.85-3.85Zm-328.81 8.59h316.37v316.36H353.81Zm83.54 235.31v29.52h86.06v-29.53H500.6c-6.08 0-9.73-3.73-9.73-9.63V541h28c43.79 0 78.46-22.68 78.46-66.18 0-43.19-34.67-65.87-78.46-65.87h-81.5v29.21h11.23c5.78 0 9.43 3.73 9.43 9.63v131.7c0 5.9-3.65 9.63-9.43 9.63h-11.25Z" style="fill:#fff"/>
</g><g id="hat" transform="rotate(-19.664861,2554.5888,-1846.2773)"><path id="🎅" style="fill:rgb(255, 8, 113);stroke:#ffffff;stroke-width:39.4767;stroke-linecap:square;stroke-linejoin:round;stroke-miterlimit:5;stroke-dasharray:none;stroke-opacity:1" d="M 1.3888427 -777.64079 C -126.41754 -822.85625 -272.88081 -794.17541 -427.74092 -723.17061 L -411.15071 -760.0823 L -459.32489 -749.02795 L -495.42034 -783.89788 L -500.16434 -732.99008 L -543.31109 -708.17992 L -498.06911 -687.77279 L -488.63916 -637.57198 L -455.93489 -675.86625 L -406.96025 -669.64773 L -425.31773 -701.97648 C -290.88513 -689.16754 -86.608888 -639.13439 -273.63981 -347.58743 C -128.15384 -457.46783 0.38614654 -456.79247 307.39427 -419.56777 C 228.26451 -624.2273 123.30628 -734.50873 1.3888427 -777.64079 z "/></g></svg>
