<svg xmlns="http://www.w3.org/2000/svg" viewBox="0 0 1536 1536">
   <g id="original" transform="translate(256,256)"><circle cx="512" cy="512" r="512" style="fill:#2d8eff"/>
   <path d="M444.83 567.05h44.59a86.09 86.09 0 0 0 36.88-8.26 92.88 92.88 0 0 0 28.62-22 102.29 102.29 0 0 0 18.14-31.94 104 104 0 0 0 6.62-36.85 90.07 90.07 0 0 0-7.16-35.77 109.39 109.39 0 0 0-19.3-31.39A96.87 96.87 0 0 0 524 378.23a79.05 79.05 0 0 0-36.88-8.81H370V654h74.81Zm0-128.82h38a20.47 20.47 0 0 1 13.74 6.61c4.41 4.4 7.16 12.11 7.16 24.21s-2.75 19.28-6.61 23.13c-3.3 3.85-7.63 6.61-12.66 6.61h-39.63ZM283 309.3v405.4a26.29 26.29 0 0 0 26.27 26.3H714.7a26.29 26.29 0 0 0 26.3-26.27V309.3a26.29 26.29 0 0 0-26.27-26.3H309.3a26.29 26.29 0 0 0-26.3 26.27s0 .02 0 .03ZM660.74 687h-298a26.29 26.29 0 0 1-26.27-26.3v-298a26.29 26.29 0 0 1 26.27-26.27h298A26.29 26.29 0 0 1 687 362.71v298A26.29 26.29 0 0 1 660.77 687Zm-182.33-86.38H654v54H478.41Z" style="fill:#fff"/>
</g><g id="hat" transform="rotate(-19.664861,2554.5888,-1846.2773)"><path id="🎅" style="fill:rgb(255, 111, 54);stroke:#ffffff;stroke-width:39.4767;stroke-linecap:square;stroke-linejoin:round;stroke-miterlimit:5;stroke-dasharray:none;stroke-opacity:1" d="M 1.3888427 -777.64079 C -126.41754 -822.85625 -272.88081 -794.17541 -427.74092 -723.17061 L -411.15071 -760.0823 L -459.32489 -749.02795 L -495.42034 -783.89788 L -500.16434 -732.99008 L -543.31109 -708.17992 L -498.06911 -687.77279 L -488.63916 -637.57198 L -455.93489 -675.86625 L -406.96025 -669.64773 L -425.31773 -701.97648 C -290.88513 -689.16754 -86.608888 -639.13439 -273.63981 -347.58743 C -128.15384 -457.46783 0.38614654 -456.79247 307.39427 -419.56777 C 228.26451 -624.2273 123.30628 -734.50873 1.3888427 -777.64079 z "/></g></svg>
