<svg xmlns="http://www.w3.org/2000/svg" viewBox="0 0 1536 1536">
   <g id="original" transform="translate(256,256)"><circle cx="512" cy="512" r="512" style="fill:#e57000"/>
   <path d="M512 497.8 342.7 311.6c6.6-6.6 14.2-11.7 22.9-15.5 8.7-3.8 18.1-5.7 28.1-5.7 10.7.1 20.4 2.2 29.3 6.3 8.9 4.1 16.6 9.8 23.1 17l65.8 71.9 65.4-71.9c6.8-7.2 14.7-12.9 23.6-17 9-4.1 18.7-6.2 29.2-6.3 10 .1 19.4 2 28.1 5.7 8.7 3.8 16.4 8.9 22.9 15.5L512 497.8m0 28.4L342.7 712.4c6.6 6.6 14.2 11.7 22.9 15.5 8.7 3.8 18.1 5.7 28.1 5.7 10.5-.1 20.2-2.2 29.2-6.3s16.9-9.8 23.6-17l65.4-71.9 65.8 71.9c6.5 7.2 14.2 12.9 23.1 17 8.9 4.1 18.6 6.2 29.3 6.3 10-.1 19.4-2 28.1-5.7 8.7-3.8 16.4-8.9 22.9-15.5L512 526.2M497.8 512 370.3 372.2c-7.4-7.9-16-14.1-25.9-18.7-9.8-4.5-20.5-6.8-31.9-6.9-11 .1-21.3 2.2-30.8 6.3-9.6 4.1-17.9 9.8-25.1 16.9L385.9 512 256.5 654.2c7.2 7.4 15.6 13.2 25.1 17.4 9.6 4.2 19.8 6.3 30.8 6.3 11.5-.1 22.2-2.4 32.1-6.9 9.9-4.5 18.5-10.8 25.7-18.7L497.8 512m28.4 0 127.5 140.3c7.2 7.9 15.8 14.1 25.7 18.7 9.9 4.5 20.6 6.8 32.1 6.9 11-.1 21.3-2.2 30.8-6.3 9.6-4.2 17.9-9.9 25.1-17.4L638.1 512l129.4-142.2c-7.2-7.2-15.6-12.8-25.1-16.9-9.6-4.1-19.8-6.2-30.8-6.3-11.4.1-22.1 2.4-31.9 6.9-9.8 4.5-18.5 10.8-25.9 18.7L526.2 512" style="fill:#fff"/>
</g><g id="hat" transform="rotate(-19.664861,2554.5888,-1846.2773)"><path id="🎅" style="fill:rgb(255, 33, 93);stroke:#ffffff;stroke-width:39.4767;stroke-linecap:square;stroke-linejoin:round;stroke-miterlimit:5;stroke-dasharray:none;stroke-opacity:1" d="M 1.3888427 -777.64079 C -126.41754 -822.85625 -272.88081 -794.17541 -427.74092 -723.17061 L -411.15071 -760.0823 L -459.32489 -749.02795 L -495.42034 -783.89788 L -500.16434 -732.99008 L -543.31109 -708.17992 L -498.06911 -687.77279 L -488.63916 -637.57198 L -455.93489 -675.86625 L -406.96025 -669.64773 L -425.31773 -701.97648 C -290.88513 -689.16754 -86.608888 -639.13439 -273.63981 -347.58743 C -128.15384 -457.46783 0.38614654 -456.79247 307.39427 -419.56777 C 228.26451 -624.2273 123.30628 -734.50873 1.3888427 -777.64079 z "/></g></svg>
