<svg xmlns="http://www.w3.org/2000/svg" viewBox="0 0 1536 1536">
   <g id="original" transform="translate(256,256)"><circle cx="512" cy="512" r="512" style="fill:#d92b26"/>
   <path d="M815 440.95a27.53 27.53 0 0 1-16.55 25.22L602.11 550.9a22.7 22.7 0 0 1-18-41.68l158.16-68.28-158.15-68.27a22.7 22.7 0 0 1 18-41.68l196.33 84.73A27.53 27.53 0 0 1 815 440.95Zm-423.37 2.68c14.87 15.1 23.06 36 23.06 58.81 0 46.27-37.13 82.51-84.52 82.51H292.4v47.11a22.7 22.7 0 1 1-45.4 0V442a22.81 22.81 0 0 1 22.69-22.7h59.47c25.18-.04 46.78 8.38 62.47 24.33Zm-22.33 58.81c0-20.21-11.16-41.82-42.49-41.82H292.4v83h35.76c23.84-.04 41.15-17.34 41.15-41.18Zm202.15-39.8a21.7 21.7 0 0 0 0-43.38H439.82a21.69 21.69 0 0 0 0 43.38h43.11v169.41a22.7 22.7 0 1 0 45.4 0V462.64Z" style="fill:#fff"/>
</g><g id="hat" transform="rotate(-19.664861,2554.5888,-1846.2773)"><path id="🎅" style="fill:rgb(255, 49, 87);stroke:#ffffff;stroke-width:39.4767;stroke-linecap:square;stroke-linejoin:round;stroke-miterlimit:5;stroke-dasharray:none;stroke-opacity:1" d="M 1.3888427 -777.64079 C -126.41754 -822.85625 -272.88081 -794.17541 -427.74092 -723.17061 L -411.15071 -760.0823 L -459.32489 -749.02795 L -495.42034 -783.89788 L -500.16434 -732.99008 L -543.31109 -708.17992 L -498.06911 -687.77279 L -488.63916 -637.57198 L -455.93489 -675.86625 L -406.96025 -669.64773 L -425.31773 -701.97648 C -290.88513 -689.16754 -86.608888 -639.13439 -273.63981 -347.58743 C -128.15384 -457.46783 0.38614654 -456.79247 307.39427 -419.56777 C 228.26451 -624.2273 123.30628 -734.50873 1.3888427 -777.64079 z "/></g></svg>
