<svg xmlns="http://www.w3.org/2000/svg" viewBox="0 0 1536 1536">
   <g id="original" transform="translate(256,256)"><circle cx="512" cy="512" r="512" style="fill:#249df1"/>
   <path d="m495.6 319.4 104-13.7-101.3 228.6c17.8-1.4 35.2-7.4 52.3-18.1 17.1-10.7 32.9-24.2 47.2-40.4 14.4-16.2 26.8-34.2 37.3-54.1 10.5-19.8 18-39.4 22.6-58.5 2.7-11.9 4-23.3 3.8-34.2-.2-10.9-3.1-20.5-8.6-28.7s-13.8-14.8-25-19.8-26.3-7.5-45.5-7.5c-22.4 0-44.4 3.6-66 10.9-21.7 7.3-41.7 17.9-60.2 31.8-18.5 13.9-34.5 31.2-48.2 52-13.7 20.8-23.5 44.4-29.4 70.8-2.3 8.7-3.6 15.6-4.1 20.9-.5 5.3-.6 9.6-.3 13 .2 3.4.7 6.1 1.4 7.9.7 1.8 1.3 3.6 1.7 5.5-23.3 0-40.3-4.7-51-14-10.7-9.3-13.3-25.7-7.9-48.9 5.5-24.2 17.9-47.2 37.3-69.1 19.4-21.9 42.4-41.2 69.1-57.8 26.7-16.6 55.9-29.9 87.6-39.7 31.7-9.8 62.6-14.7 92.7-14.7 26.5 0 48.7 3.8 66.7 11.3 18 7.5 32.1 17.5 42.1 29.8s16.3 26.7 18.8 43.1c2.5 16.4 1.7 33.5-2.4 51.3-5 21.4-14.5 43-28.4 64.7-13.9 21.7-31.4 41.3-52.3 58.8-21 17.6-45 31.8-72.2 42.8-27.1 10.9-56 16.4-86.6 16.4h-3.4l-86.9 195H302l193.6-435.4z" style="fill:#fff"/>
</g><g id="hat" transform="rotate(-19.664861,2554.5888,-1846.2773)"><path id="🎅" style="fill:rgb(255, 117, 5);stroke:#ffffff;stroke-width:39.4767;stroke-linecap:square;stroke-linejoin:round;stroke-miterlimit:5;stroke-dasharray:none;stroke-opacity:1" d="M 1.3888427 -777.64079 C -126.41754 -822.85625 -272.88081 -794.17541 -427.74092 -723.17061 L -411.15071 -760.0823 L -459.32489 -749.02795 L -495.42034 -783.89788 L -500.16434 -732.99008 L -543.31109 -708.17992 L -498.06911 -687.77279 L -488.63916 -637.57198 L -455.93489 -675.86625 L -406.96025 -669.64773 L -425.31773 -701.97648 C -290.88513 -689.16754 -86.608888 -639.13439 -273.63981 -347.58743 C -128.15384 -457.46783 0.38614654 -456.79247 307.39427 -419.56777 C 228.26451 -624.2273 123.30628 -734.50873 1.3888427 -777.64079 z "/></g></svg>
