<svg xmlns="http://www.w3.org/2000/svg" viewBox="0 0 1536 1536">
   <g id="original" transform="translate(256,256)"><circle cx="512" cy="512" r="512" style="fill:#3776ab"/>
   <path d="M510.16 257.46c-129.91 0-121.8 56.34-121.8 56.34l.14 58.37h124v17.52H339.26s-83.13-9.43-83.13 121.66 72.56 126.44 72.56 126.44H372V577s-2.33-72.56 71.4-72.56h123s69.08 1.12 69.08-66.77V325.38s10.44-67.92-125.32-67.92Zm-68.36 39.25a22.3 22.3 0 1 1-22.3 22.3 22.28 22.28 0 0 1 22.3-22.3Zm72 469.84c129.91 0 121.8-56.34 121.8-56.34l-.14-58.37h-124v-17.53h173.28s83.13 9.43 83.13-121.66-72.56-126.44-72.56-126.44H652V447s2.33 72.56-71.4 72.56h-123s-69.08-1.12-69.08 66.77v112.29s-10.44 67.92 125.32 67.92Zm68.36-39.25a22.3 22.3 0 1 1 22.3-22.3 22.28 22.28 0 0 1-22.26 22.29Z" style="fill:#fff"/>
</g><g id="hat" transform="rotate(-19.664861,2554.5888,-1846.2773)"><path id="🎅" style="fill:rgb(255, 26, 56);stroke:#ffffff;stroke-width:39.4767;stroke-linecap:square;stroke-linejoin:round;stroke-miterlimit:5;stroke-dasharray:none;stroke-opacity:1" d="M 1.3888427 -777.64079 C -126.41754 -822.85625 -272.88081 -794.17541 -427.74092 -723.17061 L -411.15071 -760.0823 L -459.32489 -749.02795 L -495.42034 -783.89788 L -500.16434 -732.99008 L -543.31109 -708.17992 L -498.06911 -687.77279 L -488.63916 -637.57198 L -455.93489 -675.86625 L -406.96025 -669.64773 L -425.31773 -701.97648 C -290.88513 -689.16754 -86.608888 -639.13439 -273.63981 -347.58743 C -128.15384 -457.46783 0.38614654 -456.79247 307.39427 -419.56777 C 228.26451 -624.2273 123.30628 -734.50873 1.3888427 -777.64079 z "/></g></svg>
