<svg xmlns="http://www.w3.org/2000/svg" viewBox="0 0 1536 1536">
   <g id="original" transform="translate(256,256)"><circle cx="512" cy="512" r="512" style="fill:#f60000"/>
   <path d="M494.89 358.52a235.72 235.72 0 0 0-164.89-70h-69l5.18 13.53c5.92 15.44 12.55 27.89 19.86 38.14a133.61 133.61 0 0 0 26.92 27l.2.19c48.18 34.07 115.84 27 198.43 102.38l.67 1.17c5 4.58 9.43 6.26 13 6.19h.82a8.77 8.77 0 0 0 6.92-13.35 19 19 0 0 1-3.84-12.53 155.87 155.87 0 0 1 60.81 32.24l-1.5 3c-2.89 5.79-14.54 8.78-28.69 11.61-10.9 2.21-23.35 4.3-34.46 7.6v-.11c-16.75 4.86-30.34 12.29-30.74 26.5a22.89 22.89 0 0 0 14.2 21.72l16.71 6.68A408.3 408.3 0 0 1 668.8 657.9a2.17 2.17 0 0 1 0 3 2.67 2.67 0 0 1-1.5 0 1.5 1.5 0 0 1-1.17 0 407.8 407.8 0 0 0-177.75-82.36q-7.09-1.37-14.23-2.5a10.86 10.86 0 0 1-9.19-9.52c-12.06-112.14-116.62-126.2-166.81-191a127.6 127.6 0 0 1-9.27-13.68l125 327.61H825z" style="fill:#fff"/>
</g><g id="hat" transform="rotate(-19.664861,2554.5888,-1846.2773)"><path id="🎅" style="fill:rgb(255, 13, 4);stroke:#ffffff;stroke-width:39.4767;stroke-linecap:square;stroke-linejoin:round;stroke-miterlimit:5;stroke-dasharray:none;stroke-opacity:1" d="M 1.3888427 -777.64079 C -126.41754 -822.85625 -272.88081 -794.17541 -427.74092 -723.17061 L -411.15071 -760.0823 L -459.32489 -749.02795 L -495.42034 -783.89788 L -500.16434 -732.99008 L -543.31109 -708.17992 L -498.06911 -687.77279 L -488.63916 -637.57198 L -455.93489 -675.86625 L -406.96025 -669.64773 L -425.31773 -701.97648 C -290.88513 -689.16754 -86.608888 -639.13439 -273.63981 -347.58743 C -128.15384 -457.46783 0.38614654 -456.79247 307.39427 -419.56777 C 228.26451 -624.2273 123.30628 -734.50873 1.3888427 -777.64079 z "/></g></svg>
