<svg xmlns="http://www.w3.org/2000/svg" viewBox="0 0 1536 1536">
   <g id="original" transform="translate(256,256)"><circle cx="512" cy="512" r="512" style="fill:#3ea448"/>
   <path d="M416 500.68c44.7-82.31 103.58-144.62 157.08-173.54l-53.73-84.6c-4.23-6.63-11-6.63-15 0L210.36 706c-4.23 6.63-.69 8.57 7 8.57h140.25c-2.17-59.91 15.78-135.82 58.42-213.9M591.4 379.84c-28.81-15.78-91 42.64-138.9 130.56s-63.22 171.83-34.41 187.72c20.92 11.32 56.13-18.52 93.75-67.57V518.29c0-11.66 7.32-18.06 12.8-7.89L556 569.62c.46-.69.69-1.26 1.14-1.94 47.9-87.91 63.22-171.94 34.3-187.83M813.64 706 695 518.86a557.53 557.53 0 0 1-45.62 109.41 614.12 614.12 0 0 1-33.5 54.3l22.41 32h168.4c7.66 0 11.2-1.94 7-8.57" style="fill:#fff"/>
</g><g id="hat" transform="rotate(-19.664861,2554.5888,-1846.2773)"><path id="🎅" style="fill:rgb(255, 80, 98);stroke:#ffffff;stroke-width:39.4767;stroke-linecap:square;stroke-linejoin:round;stroke-miterlimit:5;stroke-dasharray:none;stroke-opacity:1" d="M 1.3888427 -777.64079 C -126.41754 -822.85625 -272.88081 -794.17541 -427.74092 -723.17061 L -411.15071 -760.0823 L -459.32489 -749.02795 L -495.42034 -783.89788 L -500.16434 -732.99008 L -543.31109 -708.17992 L -498.06911 -687.77279 L -488.63916 -637.57198 L -455.93489 -675.86625 L -406.96025 -669.64773 L -425.31773 -701.97648 C -290.88513 -689.16754 -86.608888 -639.13439 -273.63981 -347.58743 C -128.15384 -457.46783 0.38614654 -456.79247 307.39427 -419.56777 C 228.26451 -624.2273 123.30628 -734.50873 1.3888427 -777.64079 z "/></g></svg>
