<svg xmlns="http://www.w3.org/2000/svg" viewBox="0 0 1536 1536">
   <g id="original" transform="translate(256,256)"><circle cx="512" cy="512" r="512" style="fill:#13111c"/>
   <path d="M619.88 547.5H258.19c-.93-6.74-1.58-13.58-2-20.51H648c-3 11.35-12 20.51-28.12 20.51Zm-341.11 70.84Zm18.5 0h-18.56c40.41 88.43 129.46 149.94 233 149.94s192.54-61.54 233-149.94Zm214.46-362.62c-95.75 0-179.07 52.61-223.07 130.38C323 386 390 386 390 386c79.15 0 82.1.35 97.56 1l9.57.35c33.35 1.11 74.34 4.69 106.6 29.11 17.51 13.24 42.79 42.47 57.85 63.3 13.93 19.26 17.94 41.4 8.47 62.62-8.72 19.5-27.48 31.13-50.19 31.13H263.12a234.7 234.7 0 0 0 5.37 18.89H755a255.57 255.57 0 0 0 13-80.4c0-141.53-114.73-256.28-256.27-256.28ZM258.38 475.2Q256.55 488 256 501h388.9a46.46 46.46 0 0 0-5-7.39c-66.49-85.95-102.25-78.49-153.41-80.68-17.06-.7-28.62-1-96.52-1-36.27 0-75.7.09-114.1.19a254.84 254.84 0 0 0-12.36 37.09H462.8v26Z" style="fill:#fff"/>
</g><g id="hat" transform="rotate(-19.664861,2554.5888,-1846.2773)"><path id="🎅" style="fill:rgb(255, 24, 27);stroke:#ffffff;stroke-width:39.4767;stroke-linecap:square;stroke-linejoin:round;stroke-miterlimit:5;stroke-dasharray:none;stroke-opacity:1" d="M 1.3888427 -777.64079 C -126.41754 -822.85625 -272.88081 -794.17541 -427.74092 -723.17061 L -411.15071 -760.0823 L -459.32489 -749.02795 L -495.42034 -783.89788 L -500.16434 -732.99008 L -543.31109 -708.17992 L -498.06911 -687.77279 L -488.63916 -637.57198 L -455.93489 -675.86625 L -406.96025 -669.64773 L -425.31773 -701.97648 C -290.88513 -689.16754 -86.608888 -639.13439 -273.63981 -347.58743 C -128.15384 -457.46783 0.38614654 -456.79247 307.39427 -419.56777 C 228.26451 -624.2273 123.30628 -734.50873 1.3888427 -777.64079 z "/></g></svg>
