<svg xmlns="http://www.w3.org/2000/svg" viewBox="0 0 1536 1536">
   <g id="original" transform="translate(256,256)"><circle cx="512" cy="512" r="512" style="fill:#e00"/>
   <path d="M606.08 544.61c37 0 90.57-7.65 90.57-51.82a41.65 41.65 0 0 0-.92-10.15l-22.05-96c-5.09-21.12-9.56-30.72-46.54-49.26-28.7-14.71-91.22-39-109.71-39-17.22 0-22.22 22.26-42.76 22.26-19.76 0-34.44-16.62-52.93-16.62-17.75 0-29.32 12.14-38.26 37.09 0 0-24.88 70.39-28.08 80.59a19.14 19.14 0 0 0-.65 5.76c0 27.35 107.41 117.06 251.32 117.06m96.25-33.74a148.05 148.05 0 0 1 5.12 30.05c0 41.54-46.58 64.6-107.79 64.6-138.35.06-259.6-81.25-259.6-135a54.88 54.88 0 0 1 4.47-21.69c-49.72 2.43-114.13 11.34-114.13 68.38 0 93.36 220.7 208.54 395.44 208.54 134 0 167.76-60.77 167.76-108.76 0-37.74-32.54-80.59-91.22-106.17" style="fill:#fff"/>
</g><g id="hat" transform="rotate(-19.664861,2554.5888,-1846.2773)"><path id="🎅" style="fill:rgb(255, 1, 37);stroke:#ffffff;stroke-width:39.4767;stroke-linecap:square;stroke-linejoin:round;stroke-miterlimit:5;stroke-dasharray:none;stroke-opacity:1" d="M 1.3888427 -777.64079 C -126.41754 -822.85625 -272.88081 -794.17541 -427.74092 -723.17061 L -411.15071 -760.0823 L -459.32489 -749.02795 L -495.42034 -783.89788 L -500.16434 -732.99008 L -543.31109 -708.17992 L -498.06911 -687.77279 L -488.63916 -637.57198 L -455.93489 -675.86625 L -406.96025 -669.64773 L -425.31773 -701.97648 C -290.88513 -689.16754 -86.608888 -639.13439 -273.63981 -347.58743 C -128.15384 -457.46783 0.38614654 -456.79247 307.39427 -419.56777 C 228.26451 -624.2273 123.30628 -734.50873 1.3888427 -777.64079 z "/></g></svg>
