<svg xmlns="http://www.w3.org/2000/svg" viewBox="0 0 1536 1536">
   <g id="original" transform="translate(256,256)"><circle cx="512" cy="512" r="512" style="fill:#e01300"/>
   <path data-name="Republic Wireless logomark (made by krisu)" d="M574.74 285.81A62.73 62.73 0 1 1 512 223.09a62.73 62.73 0 0 1 62.74 62.72ZM395.43 687.24a4.65 4.65 0 0 0-7.32 4.36 124.89 124.89 0 0 0 247.8.23 4.65 4.65 0 0 0-7.31-4.38c-26.37 18.38-68.64 30.33-116.43 30.33-47.96-.01-90.39-12.04-116.74-30.54ZM419.58 542a3.69 3.69 0 0 0-5.8 3.46 99 99 0 0 0 196.48.18 3.69 3.69 0 0 0-5.79-3.47c-20.91 14.57-54.43 24-92.32 24s-71.68-9.53-92.57-24.17Zm26.21-128a2.73 2.73 0 0 0-4.29 2.56 73.16 73.16 0 0 0 145.15.14 2.73 2.73 0 0 0-4.28-2.57c-15.44 10.77-40.21 17.76-68.2 17.76s-52.95-7.13-68.38-17.96Z" style="fill:#fff"/>
</g><g id="hat" transform="rotate(-19.664861,2554.5888,-1846.2773)"><path id="🎅" style="fill:rgb(255, 91, 23);stroke:#ffffff;stroke-width:39.4767;stroke-linecap:square;stroke-linejoin:round;stroke-miterlimit:5;stroke-dasharray:none;stroke-opacity:1" d="M 1.3888427 -777.64079 C -126.41754 -822.85625 -272.88081 -794.17541 -427.74092 -723.17061 L -411.15071 -760.0823 L -459.32489 -749.02795 L -495.42034 -783.89788 L -500.16434 -732.99008 L -543.31109 -708.17992 L -498.06911 -687.77279 L -488.63916 -637.57198 L -455.93489 -675.86625 L -406.96025 -669.64773 L -425.31773 -701.97648 C -290.88513 -689.16754 -86.608888 -639.13439 -273.63981 -347.58743 C -128.15384 -457.46783 0.38614654 -456.79247 307.39427 -419.56777 C 228.26451 -624.2273 123.30628 -734.50873 1.3888427 -777.64079 z "/></g></svg>
