<svg xmlns="http://www.w3.org/2000/svg" viewBox="0 0 1536 1536">
   <g id="original" transform="translate(256,256)"><circle cx="512" cy="512" r="512" style="fill:#ff4654"/>
   <path d="M293 489.38c0-23.94-18-39.41-45.92-39.41H177.5l18.56 25.74v98.81h31.14v-46.61h6.38l25.69 46.62h35.19l-28.61-49.1A36.71 36.71 0 0 0 293 489.38Zm-47.68 16.19h-18.13V476h18.12c10.32 0 16 5.19 16 14.61.01 9.79-5.52 14.96-16 14.96ZM490.19 450h33L479 574.53h-38.4L396.4 450h33.16l.12.36 30.11 91.73Zm-179.43 0h76.72v26H341.9v23h40.3v24.29h-40.3v26h45.57v25.15h-76.71Zm282.57-1.76c-36.52 0-64.06 27.38-64.06 63.68a62.74 62.74 0 0 0 61.44 63.88h2.61a62.37 62.37 0 0 0 63.7-61v-2.84c-.02-36.36-27.38-63.75-63.69-63.75Zm0 99.05c-19.4 0-32-13.65-32.2-34.84v-.53c0-21.81 12.34-35.36 32.2-35.36 19.45 0 32 13.88 32 35.36s-12.54 35.35-32 35.35ZM846.5 450v26h-32.72v98.51h-31.14V476h-32.73v-26Zm-142.69 99.34h39.42v25.18h-70.56V450h31.14Z" style="fill:#fff"/>
</g><g id="hat" transform="rotate(-19.664861,2554.5888,-1846.2773)"><path id="🎅" style="fill:rgb(255, 22, 69);stroke:#ffffff;stroke-width:39.4767;stroke-linecap:square;stroke-linejoin:round;stroke-miterlimit:5;stroke-dasharray:none;stroke-opacity:1" d="M 1.3888427 -777.64079 C -126.41754 -822.85625 -272.88081 -794.17541 -427.74092 -723.17061 L -411.15071 -760.0823 L -459.32489 -749.02795 L -495.42034 -783.89788 L -500.16434 -732.99008 L -543.31109 -708.17992 L -498.06911 -687.77279 L -488.63916 -637.57198 L -455.93489 -675.86625 L -406.96025 -669.64773 L -425.31773 -701.97648 C -290.88513 -689.16754 -86.608888 -639.13439 -273.63981 -347.58743 C -128.15384 -457.46783 0.38614654 -456.79247 307.39427 -419.56777 C 228.26451 -624.2273 123.30628 -734.50873 1.3888427 -777.64079 z "/></g></svg>
