<svg xmlns="http://www.w3.org/2000/svg" viewBox="0 0 1536 1536">
   <g id="original" transform="translate(256,256)"><circle cx="512" cy="512" r="512" style="fill:#5bb254"/>
   <path d="M716 656c28.27 0 52 25.09 52 56s-23.73 56-52 56H308c-28.27 0-52-25.07-52-56s23.73-56 52-56Zm52-332v232c0 37.16-30.79 68-68 68H324c-37.14 0-68-30.86-68-68V324c0-37.16 30.84-68 68-68h376c37.16 0 68 30.84 68 68Zm-56 24a36 36 0 0 0-36-36H348a36 36 0 0 0-36 36v184a36 36 0 0 0 36 36h328a36 36 0 0 0 36-36Zm-107.88 36.24a54.61 54.61 0 1 1-54.61 54.61 54.61 54.61 0 0 1 54.61-54.61m-181.39 0a54.61 54.61 0 1 1-54.61 54.61 54.61 54.61 0 0 1 54.61-54.61" style="fill:#fff"/>
</g><g id="hat" transform="rotate(-19.664861,2554.5888,-1846.2773)"><path id="🎅" style="fill:rgb(255, 104, 118);stroke:#ffffff;stroke-width:39.4767;stroke-linecap:square;stroke-linejoin:round;stroke-miterlimit:5;stroke-dasharray:none;stroke-opacity:1" d="M 1.3888427 -777.64079 C -126.41754 -822.85625 -272.88081 -794.17541 -427.74092 -723.17061 L -411.15071 -760.0823 L -459.32489 -749.02795 L -495.42034 -783.89788 L -500.16434 -732.99008 L -543.31109 -708.17992 L -498.06911 -687.77279 L -488.63916 -637.57198 L -455.93489 -675.86625 L -406.96025 -669.64773 L -425.31773 -701.97648 C -290.88513 -689.16754 -86.608888 -639.13439 -273.63981 -347.58743 C -128.15384 -457.46783 0.38614654 -456.79247 307.39427 -419.56777 C 228.26451 -624.2273 123.30628 -734.50873 1.3888427 -777.64079 z "/></g></svg>
