<svg xmlns="http://www.w3.org/2000/svg" viewBox="0 0 1536 1536">
   <g id="original" transform="translate(256,256)"><circle cx="512" cy="512" r="512" style="fill:#37beff"/>
   <path d="M512 273.8c-85.5 0-157 64.9-165.1 150l-64.7 37.3 93.5 54c-41.8-75.2-14.6-170.1 60.6-211.8 23.1-12.9 49.2-19.6 75.7-19.6 86.1 0 155.8 69.8 155.8 155.8 0 26.4-6.7 52.4-19.5 75.5l93.4-53.9-64.6-37.3c-8.1-85.1-79.6-150-165.1-150zM272.3 466.9v147.8L507 750.2V602.5L272.3 466.9zm479.4 0-115.4 66.7-104.8 60.5-2.2 1.3-12.3 7.1v147.8l234.7-135.6V466.9z" style="fill:#fff"/>
</g><g id="hat" transform="rotate(-19.664861,2554.5888,-1846.2773)"><path id="🎅" style="fill:rgb(255, 74, 102);stroke:#ffffff;stroke-width:39.4767;stroke-linecap:square;stroke-linejoin:round;stroke-miterlimit:5;stroke-dasharray:none;stroke-opacity:1" d="M 1.3888427 -777.64079 C -126.41754 -822.85625 -272.88081 -794.17541 -427.74092 -723.17061 L -411.15071 -760.0823 L -459.32489 -749.02795 L -495.42034 -783.89788 L -500.16434 -732.99008 L -543.31109 -708.17992 L -498.06911 -687.77279 L -488.63916 -637.57198 L -455.93489 -675.86625 L -406.96025 -669.64773 L -425.31773 -701.97648 C -290.88513 -689.16754 -86.608888 -639.13439 -273.63981 -347.58743 C -128.15384 -457.46783 0.38614654 -456.79247 307.39427 -419.56777 C 228.26451 -624.2273 123.30628 -734.50873 1.3888427 -777.64079 z "/></g></svg>
