<svg xmlns="http://www.w3.org/2000/svg" viewBox="0 0 1536 1536">
   <g id="original" transform="translate(256,256)"><circle cx="512" cy="512" r="512" style="fill:#d6422b"/>
   <path d="m512 218.318-256.156 146.84v293.684L512 805.682l256.156-146.84V365.158L512 218.318zm0 54.82 207.209 119.43v238.21L512 750.208 304.791 630.777V392.568L512 273.138zM409.21 411.17l.327.652-.326-.326-72.441 72.442 175.882 175.556 72.442-72.115 103.441-103.442-72.441-72.44v-.327H409.21z" style="fill:#fff"/>
</g><g id="hat" transform="rotate(-19.664861,2554.5888,-1846.2773)"><path id="🎅" style="fill:rgb(255, 14, 27);stroke:#ffffff;stroke-width:39.4767;stroke-linecap:square;stroke-linejoin:round;stroke-miterlimit:5;stroke-dasharray:none;stroke-opacity:1" d="M 1.3888427 -777.64079 C -126.41754 -822.85625 -272.88081 -794.17541 -427.74092 -723.17061 L -411.15071 -760.0823 L -459.32489 -749.02795 L -495.42034 -783.89788 L -500.16434 -732.99008 L -543.31109 -708.17992 L -498.06911 -687.77279 L -488.63916 -637.57198 L -455.93489 -675.86625 L -406.96025 -669.64773 L -425.31773 -701.97648 C -290.88513 -689.16754 -86.608888 -639.13439 -273.63981 -347.58743 C -128.15384 -457.46783 0.38614654 -456.79247 307.39427 -419.56777 C 228.26451 -624.2273 123.30628 -734.50873 1.3888427 -777.64079 z "/></g></svg>
