<svg xmlns="http://www.w3.org/2000/svg" viewBox="0 0 1536 1536">
   <g id="original" transform="translate(256,256)"><circle cx="512" cy="512" r="512" style="fill:#7ab800"/>
   <path d="M465.79 672 828.5 441.77 671.78 672H465.79ZM224 534.66 269.07 672h177.27L224 534.66Zm221.74 124.85-173.1-207.8-48.24 71.07 221.34 136.73Zm12.67-.91 222.87-358.31-327.72 232.5 104.85 125.82Zm252.31-223.69c24.26 0 44.26-19.73 44.57-43.98.15-11.9-4.34-23.15-12.65-31.68-8.31-8.52-19.45-13.3-31.35-13.46h-.58c-24.28 0-44.27 19.72-44.57 43.98-.16 11.91 4.33 23.17 12.64 31.68 8.32 8.53 19.45 13.3 31.35 13.46h.6Zm-14.77-138.68L832 427.32 472.47 655.54l223.48-359.31Zm14.76 114.47c11.24 0 20.36-9.11 20.36-20.34S721.96 370 710.71 370s-20.37 9.11-20.37 20.36 9.11 20.34 20.37 20.34Zm26.39-46.03c6.87 7.04 10.57 16.34 10.45 26.18-.27 20.04-16.78 36.34-36.83 36.34h-.49c-9.84-.13-19.04-4.09-25.91-11.13-6.86-7.05-10.58-16.34-10.45-26.18.26-20.03 16.79-36.34 36.84-36.34h.49c9.83.13 19.04 4.09 25.91 11.13Z" style="fill:#fff"/>
</g><g id="hat" transform="rotate(-19.664861,2554.5888,-1846.2773)"><path id="🎅" style="fill:rgb(255, 113, 70);stroke:#ffffff;stroke-width:39.4767;stroke-linecap:square;stroke-linejoin:round;stroke-miterlimit:5;stroke-dasharray:none;stroke-opacity:1" d="M 1.3888427 -777.64079 C -126.41754 -822.85625 -272.88081 -794.17541 -427.74092 -723.17061 L -411.15071 -760.0823 L -459.32489 -749.02795 L -495.42034 -783.89788 L -500.16434 -732.99008 L -543.31109 -708.17992 L -498.06911 -687.77279 L -488.63916 -637.57198 L -455.93489 -675.86625 L -406.96025 -669.64773 L -425.31773 -701.97648 C -290.88513 -689.16754 -86.608888 -639.13439 -273.63981 -347.58743 C -128.15384 -457.46783 0.38614654 -456.79247 307.39427 -419.56777 C 228.26451 -624.2273 123.30628 -734.50873 1.3888427 -777.64079 z "/></g></svg>
