<svg xmlns="http://www.w3.org/2000/svg" viewBox="0 0 1536 1536">
   <g id="original" transform="translate(256,256)"><circle cx="512" cy="512" r="512" style="fill:#584674"/>
   <path d="M552.74 279.17a47.87 47.87 0 0 0-82 0L403.29 394.7A330.17 330.17 0 0 1 585.23 668h-47.35A283.73 283.73 0 0 0 379.4 435.08L317 543a163.19 163.19 0 0 1 94.61 124.75H302.83a7.79 7.79 0 0 1-6.36-11.38l30.14-51.25a110.09 110.09 0 0 0-34.44-19.48l-29.83 51.25a46.54 46.54 0 0 0 16.76 63.64l.56.32a47.77 47.77 0 0 0 23.17 6.15h148.94a198.86 198.86 0 0 0-82-177.44l23.68-41A244.68 244.68 0 0 1 499 707h126.21A367.79 367.79 0 0 0 457 381.06l47.87-82a7.89 7.89 0 0 1 10.76-2.77c5.43 3 208 356.41 211.78 360.51a7.79 7.79 0 0 1-7 11.58h-48.77q.92 19.58 0 39.05h49A47 47 0 0 0 768 660.7v-.51a46 46 0 0 0-6.36-23.37Z" style="fill:#fff"/>
</g><g id="hat" transform="rotate(-19.664861,2554.5888,-1846.2773)"><path id="🎅" style="fill:rgb(255, 71, 99);stroke:#ffffff;stroke-width:39.4767;stroke-linecap:square;stroke-linejoin:round;stroke-miterlimit:5;stroke-dasharray:none;stroke-opacity:1" d="M 1.3888427 -777.64079 C -126.41754 -822.85625 -272.88081 -794.17541 -427.74092 -723.17061 L -411.15071 -760.0823 L -459.32489 -749.02795 L -495.42034 -783.89788 L -500.16434 -732.99008 L -543.31109 -708.17992 L -498.06911 -687.77279 L -488.63916 -637.57198 L -455.93489 -675.86625 L -406.96025 -669.64773 L -425.31773 -701.97648 C -290.88513 -689.16754 -86.608888 -639.13439 -273.63981 -347.58743 C -128.15384 -457.46783 0.38614654 -456.79247 307.39427 -419.56777 C 228.26451 -624.2273 123.30628 -734.50873 1.3888427 -777.64079 z "/></g></svg>
