<svg xmlns="http://www.w3.org/2000/svg" viewBox="0 0 1536 1536">
   <g id="original" transform="translate(256,256)"><circle cx="512" cy="512" r="512" style="fill:#4a154b"/>
   <path d="M363.56 579.52a53.78 53.78 0 1 1-53.76-53.76h53.76Zm27.11 0a53.78 53.78 0 0 1 107.56 0V714.2a53.78 53.78 0 1 1-107.56 0Zm53.78-216a53.78 53.78 0 1 1 53.78-53.76v53.76Zm0 27.11a53.78 53.78 0 1 1 0 107.56H309.8a53.78 53.78 0 1 1 0-107.56Zm215.94 53.78a53.8 53.8 0 1 1 53.8 53.78h-53.8Zm-27.05 0a53.79 53.79 0 0 1-107.58 0V309.8a53.79 53.79 0 1 1 107.58 0Zm-53.82 215.98a53.8 53.8 0 1 1-53.76 53.8v-53.8Zm0-27.05a53.79 53.79 0 0 1 0-107.58H714.2a53.79 53.79 0 1 1 0 107.58Z" style="fill:#fff"/>
</g><g id="hat" transform="rotate(-19.664861,2554.5888,-1846.2773)"><path id="🎅" style="fill:rgb(255, 40, 12);stroke:#ffffff;stroke-width:39.4767;stroke-linecap:square;stroke-linejoin:round;stroke-miterlimit:5;stroke-dasharray:none;stroke-opacity:1" d="M 1.3888427 -777.64079 C -126.41754 -822.85625 -272.88081 -794.17541 -427.74092 -723.17061 L -411.15071 -760.0823 L -459.32489 -749.02795 L -495.42034 -783.89788 L -500.16434 -732.99008 L -543.31109 -708.17992 L -498.06911 -687.77279 L -488.63916 -637.57198 L -455.93489 -675.86625 L -406.96025 -669.64773 L -425.31773 -701.97648 C -290.88513 -689.16754 -86.608888 -639.13439 -273.63981 -347.58743 C -128.15384 -457.46783 0.38614654 -456.79247 307.39427 -419.56777 C 228.26451 -624.2273 123.30628 -734.50873 1.3888427 -777.64079 z "/></g></svg>
