<svg xmlns="http://www.w3.org/2000/svg" viewBox="0 0 1536 1536">
   <g id="original" transform="translate(256,256)"><circle cx="512" cy="512" r="512" style="fill:#00a9ce"/>
   <path d="M599.73 545.27a69.29 69.29 0 1 0 27.77-94 69.29 69.29 0 0 0-27.77 94Zm-.1 148.48a69.29 69.29 0 1 0 27.77-94 69.29 69.29 0 0 0-27.77 94Zm-87.39-230.9c-27.72 0-51.47 21.78-49.49 49.49 0 13.86 4 25.74 13.86 35.63 9.9 7.92 21.78 13.86 35.63 13.86a49 49 0 0 0 49.49-49.49c0-13.86-4-25.74-13.86-35.63-9.9-7.92-21.78-13.86-35.63-13.86m69.29 49.49c0 37.61-31.67 69.29-69.29 69.29S443 550 443 512.34s31.67-69.29 69.29-69.29 69.24 31.68 69.24 69.29Zm79.19-198c-27.72 0-51.47 21.78-49.49 49.49 0 13.86 4 25.74 13.86 35.63 9.9 7.92 21.78 13.86 35.63 13.86a49 49 0 0 0 49.49-49.49c0-13.86-4-25.74-13.86-35.63-9.9-7.92-21.78-13.86-35.63-13.86M730 363.87c0 37.61-31.67 69.29-69.29 69.29s-69.29-31.67-69.29-69.29 31.67-69.29 69.29-69.29S730 326.26 730 363.87ZM335.24 575.14A69.29 69.29 0 1 0 300 483.73a69.29 69.29 0 0 0 35.24 91.41ZM484 426.73a69.29 69.29 0 1 0-35.29-91.41A69.29 69.29 0 0 0 484 426.73Zm-148.59-.18a69.29 69.29 0 1 0-35.29-91.41 69.29 69.29 0 0 0 35.31 91.41Zm148.24 297.37a69.29 69.29 0 1 0-35.29-91.41 69.29 69.29 0 0 0 35.29 91.41Zm-119.88-112.6c-27.72 0-51.47 21.78-49.49 49.49a49.49 49.49 0 0 0 99 0c0-13.86-4-25.74-13.86-35.63-9.9-7.92-21.78-13.86-35.63-13.86m69.29 49.49c0 37.61-31.67 69.29-69.29 69.29s-69.29-31.67-69.29-69.29 31.67-69.29 69.29-69.29 69.26 31.68 69.26 69.3Z" style="fill:#fff"/>
</g><g id="hat" transform="rotate(-19.664861,2554.5888,-1846.2773)"><path id="🎅" style="fill:rgb(255, 55, 95);stroke:#ffffff;stroke-width:39.4767;stroke-linecap:square;stroke-linejoin:round;stroke-miterlimit:5;stroke-dasharray:none;stroke-opacity:1" d="M 1.3888427 -777.64079 C -126.41754 -822.85625 -272.88081 -794.17541 -427.74092 -723.17061 L -411.15071 -760.0823 L -459.32489 -749.02795 L -495.42034 -783.89788 L -500.16434 -732.99008 L -543.31109 -708.17992 L -498.06911 -687.77279 L -488.63916 -637.57198 L -455.93489 -675.86625 L -406.96025 -669.64773 L -425.31773 -701.97648 C -290.88513 -689.16754 -86.608888 -639.13439 -273.63981 -347.58743 C -128.15384 -457.46783 0.38614654 -456.79247 307.39427 -419.56777 C 228.26451 -624.2273 123.30628 -734.50873 1.3888427 -777.64079 z "/></g></svg>
