<svg xmlns="http://www.w3.org/2000/svg" viewBox="0 0 1536 1536">
   <g id="original" transform="translate(256,256)"><circle cx="512" cy="512" r="512" style="fill:#f60"/>
   <path d="M569.58 471.57c-.44-2.62 3.93-3.93 5.68-.87 7.87 14.86 15.73 35 15.73 55.94v.44c0 45-34.09 81.73-76 81.73s-76-36.71-76-81.73v-.44c0-73.86 59.44-85.66 56.38-132.86a4.48 4.48 0 0 1 7.43-3.93c15.73 14.42 45.45 52.45 45.45 135.92-.08 48.95 35.75 9.61 21.33-54.2ZM462.5 700.15l29.28-29.72c2.62-3.06 2.62-7.87 0-10.49L339.26 507a9.76 9.76 0 0 1 0-14L532 299.81a7.08 7.08 0 0 0 1.75-7.87 6.89 6.89 0 0 0-6.56-4.37h-59a9.16 9.16 0 0 0-4.81 1.75L258 494.74c-2.62 3.06-2.62 7.87 0 10.49l194.45 194.48a8.06 8.06 0 0 0 5.24 2.19 9.16 9.16 0 0 0 4.81-1.75Zm34.09 36.27h58.56a7.24 7.24 0 0 0 5.24-2.19l205.42-205.4a7.39 7.39 0 0 0 0-10.49l-194-194.49c-1.31-1.31-2.62-2.62-4.81-2.62a7.24 7.24 0 0 0-5.24 2.19L532 353.13c-2.62 3.06-2.62 7.87 0 10.49l153 153a8.7 8.7 0 0 1 3.06 7 10.31 10.31 0 0 1-3.06 7L491.79 723.75a7.08 7.08 0 0 0-1.75 7.87 6.89 6.89 0 0 0 6.56 4.37Z" style="fill:#fff"/>
</g><g id="hat" transform="rotate(-19.664861,2554.5888,-1846.2773)"><path id="🎅" style="fill:rgb(255, 50, 105);stroke:#ffffff;stroke-width:39.4767;stroke-linecap:square;stroke-linejoin:round;stroke-miterlimit:5;stroke-dasharray:none;stroke-opacity:1" d="M 1.3888427 -777.64079 C -126.41754 -822.85625 -272.88081 -794.17541 -427.74092 -723.17061 L -411.15071 -760.0823 L -459.32489 -749.02795 L -495.42034 -783.89788 L -500.16434 -732.99008 L -543.31109 -708.17992 L -498.06911 -687.77279 L -488.63916 -637.57198 L -455.93489 -675.86625 L -406.96025 -669.64773 L -425.31773 -701.97648 C -290.88513 -689.16754 -86.608888 -639.13439 -273.63981 -347.58743 C -128.15384 -457.46783 0.38614654 -456.79247 307.39427 -419.56777 C 228.26451 -624.2273 123.30628 -734.50873 1.3888427 -777.64079 z "/></g></svg>
