<svg xmlns="http://www.w3.org/2000/svg" viewBox="0 0 1536 1536">
   <g id="original" transform="translate(256,256)"><circle cx="512" cy="512" r="512" style="fill:#fa8d29"/>
   <path d="m258 641.63 3.26-64.81A197.4 197.4 0 0 0 355.05 600c30.58 0 39.95-10.14 39.95-24 0-18.75-19.57-22.83-51.36-32.2-46.47-13.86-87.64-31.39-87.64-90.5 0-64.81 48.1-88.86 105.58-88.86 35.06 0 70.52 8.15 94.57 15.9l-3.26 62.37c-17.53-7.75-44-18.75-84-18.75C336.71 424 331 437.4 331 448c0 20.79 23.64 25.27 51.77 33.83 50.55 14.67 86 32.61 86 87.64 0 64-47.29 90.09-110.88 90.09-38.71 0-74.99-8.15-99.89-17.93Zm437.6 12.72V545h-96v109.35h-72.31V369.73h72.38v115.48h96V369.73H768v284.62Z" style="fill:#fff"/>
</g><g id="hat" transform="rotate(-19.664861,2554.5888,-1846.2773)"><path id="🎅" style="fill:rgb(255, 18, 21);stroke:#ffffff;stroke-width:39.4767;stroke-linecap:square;stroke-linejoin:round;stroke-miterlimit:5;stroke-dasharray:none;stroke-opacity:1" d="M 1.3888427 -777.64079 C -126.41754 -822.85625 -272.88081 -794.17541 -427.74092 -723.17061 L -411.15071 -760.0823 L -459.32489 -749.02795 L -495.42034 -783.89788 L -500.16434 -732.99008 L -543.31109 -708.17992 L -498.06911 -687.77279 L -488.63916 -637.57198 L -455.93489 -675.86625 L -406.96025 -669.64773 L -425.31773 -701.97648 C -290.88513 -689.16754 -86.608888 -639.13439 -273.63981 -347.58743 C -128.15384 -457.46783 0.38614654 -456.79247 307.39427 -419.56777 C 228.26451 -624.2273 123.30628 -734.50873 1.3888427 -777.64079 z "/></g></svg>
