<svg xmlns="http://www.w3.org/2000/svg" viewBox="0 0 1536 1536">
   <g id="original" transform="translate(256,256)"><circle cx="512" cy="512" r="512" style="fill:#178a9e"/>
   <path d="M706 356.32V356c-.29-4.33-.59-9.35-.91-14.57-.6-10-1.25-20.81-1.95-29a100.49 100.49 0 0 0-4-15.42c-10.16-22.6-30.06-33.5-51.06-38.71-9.57-1.66-21.33-2-33.84-2.27H493.75c-77.68 4.18-110.34 49.17-119.1 73.14-34 101.74-55.23 233.51-70.52 328.62l-.89 5.52-5 45.21a77.93 77.93 0 0 0 2.3 22.38c9.54 27.58 38.31 50.81 101.69 27.67 59.87-26 130.6-58.38 203.74-94.68 41.64-24 102.64-79.2 105.77-148.91-.52-51.7-2.26-105.91-5.74-158.66Zm-96.29 38.23a10.94 10.94 0 0 1-10.94 10.94 65.65 65.65 0 0 0-65.65 65.65v40.19a122.13 122.13 0 0 1-122.17 122.13 10.62 10.62 0 0 1-10.62-10.62v-33.25a10.94 10.94 0 0 1 10.94-10.94A65.65 65.65 0 0 0 476.92 513v-40.2A122.13 122.13 0 0 1 599 350.68a10.62 10.62 0 0 1 10.62 10.62Z" style="fill:#fff"/>
</g><g id="hat" transform="rotate(-19.664861,2554.5888,-1846.2773)"><path id="🎅" style="fill:rgb(255, 108, 24);stroke:#ffffff;stroke-width:39.4767;stroke-linecap:square;stroke-linejoin:round;stroke-miterlimit:5;stroke-dasharray:none;stroke-opacity:1" d="M 1.3888427 -777.64079 C -126.41754 -822.85625 -272.88081 -794.17541 -427.74092 -723.17061 L -411.15071 -760.0823 L -459.32489 -749.02795 L -495.42034 -783.89788 L -500.16434 -732.99008 L -543.31109 -708.17992 L -498.06911 -687.77279 L -488.63916 -637.57198 L -455.93489 -675.86625 L -406.96025 -669.64773 L -425.31773 -701.97648 C -290.88513 -689.16754 -86.608888 -639.13439 -273.63981 -347.58743 C -128.15384 -457.46783 0.38614654 -456.79247 307.39427 -419.56777 C 228.26451 -624.2273 123.30628 -734.50873 1.3888427 -777.64079 z "/></g></svg>
