<svg xmlns="http://www.w3.org/2000/svg" viewBox="0 0 1536 1536">
   <g id="original" transform="translate(256,256)"><circle cx="512" cy="512" r="512" style="fill:#512fc9"/>
   <path d="m771.3 589.11-53.23-45.32 1-6.16a194 194 0 0 0 1.48-25.57c0-10.65-.55-21.59-2.46-31.71l53.23-45.27 1.18-1a9.83 9.83 0 0 0 2.07-11c-10.87-32.78-29.62-64-52.69-89.86-3.25-3.71-7.87-5.05-12.19-3.18l-67.09 22.91-5.6-4.33a208.7 208.7 0 0 0-49.8-27.39L573.92 253l-.39-1.41a11.15 11.15 0 0 0-8.85-7.39 269 269 0 0 0-105.33 0 11.15 11.15 0 0 0-9.24 8.8l-13.29 68.2-6 2.41a195 195 0 0 0-49.37 29.3L314.35 330l-1.48-.48a10.6 10.6 0 0 0-10.76 3.69c-23.11 25.88-41.81 57.09-52.66 89.87a9.78 9.78 0 0 0 3.25 12l53.23 45.29-1 6.14a194.44 194.44 0 0 0-1.46 25.55 174.54 174.54 0 0 0 2.46 31.73l-53.21 45.32-1.18 1a9.85 9.85 0 0 0-2.07 11c10.85 32.8 29.57 64 52.66 89.81 3.28 3.73 7.89 5.07 12.22 3.21l67.06-22.93 4.89 3.94a201.8 201.8 0 0 0 50.5 27.78l13.29 68.25.36 1.41a11.19 11.19 0 0 0 8.87 7.39 277.24 277.24 0 0 0 105.35 0 11.19 11.19 0 0 0 9.24-8.8l13.31-68.25 6.64-2.68a204.62 204.62 0 0 0 48.73-29l67.06 22.93 1.46.5c3.89 1 7.85-.39 10.76-3.71 23.09-25.84 41.81-57 52.66-89.81a9.78 9.78 0 0 0-3.23-12.04ZM512 671.75c-88.4 0-160.06-71.52-160.06-159.74S423.54 352.27 512 352.26c88.42 0 160.07 71.53 160.07 159.74S600.4 671.75 512 671.75Zm0-319.49Zm-101.3 90h202.6v47.55h-77.19V604h-48.22V489.81H410.7Z" style="fill:#fff"/>
</g><g id="hat" transform="rotate(-19.664861,2554.5888,-1846.2773)"><path id="🎅" style="fill:rgb(255, 52, 119);stroke:#ffffff;stroke-width:39.4767;stroke-linecap:square;stroke-linejoin:round;stroke-miterlimit:5;stroke-dasharray:none;stroke-opacity:1" d="M 1.3888427 -777.64079 C -126.41754 -822.85625 -272.88081 -794.17541 -427.74092 -723.17061 L -411.15071 -760.0823 L -459.32489 -749.02795 L -495.42034 -783.89788 L -500.16434 -732.99008 L -543.31109 -708.17992 L -498.06911 -687.77279 L -488.63916 -637.57198 L -455.93489 -675.86625 L -406.96025 -669.64773 L -425.31773 -701.97648 C -290.88513 -689.16754 -86.608888 -639.13439 -273.63981 -347.58743 C -128.15384 -457.46783 0.38614654 -456.79247 307.39427 -419.56777 C 228.26451 -624.2273 123.30628 -734.50873 1.3888427 -777.64079 z "/></g></svg>
