<svg xmlns="http://www.w3.org/2000/svg" viewBox="0 0 1536 1536">
   <g id="original" transform="translate(256,256)"><circle cx="512" cy="512" r="512"/>
   <path d="M166.63 435.25h76.75v25.58h-25.59v127.92h-25.58V460.83h-25.58Zm434.91 127.92h51.17V512h-51.17Zm230.25-102.34v-25.58h-51.17V512h25.58v-51.17ZM294.54 512h51.17v-25.58h-51.17v-25.59h51.17v-25.58H269v127.92h102.29v-25.59h-76.75Zm76.75-51.17h25.58v127.92h25.58V460.83H448v-25.58h-76.71Zm179.08 25.58h-51.16v-25.58h51.17v-25.58h-76.75v153.5h25.58V512h25.58v76.75H576v-25.58h-25.63V512H576v-51.17h-25.63Zm127.92-25.58h25.58V512h-25.58v25.58H755V512h-25.54v-51.17H755v-25.58h-76.71Zm153.5 0V512h-25.58v25.58h51.17v-76.75Z" style="fill:#fff"/>
</g><g id="hat" transform="rotate(-19.664861,2554.5888,-1846.2773)"><path id="🎅" style="fill:rgb(255, 95, 105);stroke:#ffffff;stroke-width:39.4767;stroke-linecap:square;stroke-linejoin:round;stroke-miterlimit:5;stroke-dasharray:none;stroke-opacity:1" d="M 1.3888427 -777.64079 C -126.41754 -822.85625 -272.88081 -794.17541 -427.74092 -723.17061 L -411.15071 -760.0823 L -459.32489 -749.02795 L -495.42034 -783.89788 L -500.16434 -732.99008 L -543.31109 -708.17992 L -498.06911 -687.77279 L -488.63916 -637.57198 L -455.93489 -675.86625 L -406.96025 -669.64773 L -425.31773 -701.97648 C -290.88513 -689.16754 -86.608888 -639.13439 -273.63981 -347.58743 C -128.15384 -457.46783 0.38614654 -456.79247 307.39427 -419.56777 C 228.26451 -624.2273 123.30628 -734.50873 1.3888427 -777.64079 z "/></g></svg>
