<svg xmlns="http://www.w3.org/2000/svg" viewBox="0 0 1536 1536">
   <g id="original" transform="translate(256,256)"><circle cx="512" cy="512" r="512"/>
   <path d="M732.63 380.26v87.16c-45.2 0-87.08-14.46-121.27-39v177.14c0 88.46-71.97 160.43-160.43 160.43-34.19 0-65.88-10.78-91.94-29.08-41.37-29.05-68.49-77.08-68.49-131.36 0-88.46 71.97-160.44 160.43-160.44 7.34 0 14.54.6 21.62 1.57v88.98c-6.84-2.14-14.08-3.39-21.62-3.39-40.4 0-73.27 32.87-73.27 73.27 0 28.13 15.96 52.58 39.28 64.85 10.17 5.35 21.72 8.42 33.99 8.42 39.47 0 71.66-31.4 73.13-70.51l.14-349.32h87.16c0 7.56.73 14.94 2.06 22.12 6.15 33.21 25.86 61.7 53.17 79.51 19.02 12.4 41.69 19.64 66.04 19.64Z" style="fill:#fff"/>
</g><g id="hat" transform="rotate(-19.664861,2554.5888,-1846.2773)"><path id="🎅" style="fill:rgb(255, 122, 64);stroke:#ffffff;stroke-width:39.4767;stroke-linecap:square;stroke-linejoin:round;stroke-miterlimit:5;stroke-dasharray:none;stroke-opacity:1" d="M 1.3888427 -777.64079 C -126.41754 -822.85625 -272.88081 -794.17541 -427.74092 -723.17061 L -411.15071 -760.0823 L -459.32489 -749.02795 L -495.42034 -783.89788 L -500.16434 -732.99008 L -543.31109 -708.17992 L -498.06911 -687.77279 L -488.63916 -637.57198 L -455.93489 -675.86625 L -406.96025 -669.64773 L -425.31773 -701.97648 C -290.88513 -689.16754 -86.608888 -639.13439 -273.63981 -347.58743 C -128.15384 -457.46783 0.38614654 -456.79247 307.39427 -419.56777 C 228.26451 -624.2273 123.30628 -734.50873 1.3888427 -777.64079 z "/></g></svg>
