<svg xmlns="http://www.w3.org/2000/svg" viewBox="0 0 1536 1536">
   <g id="original" transform="translate(256,256)"><circle cx="512" cy="512" r="512" style="fill:#25aae1"/>
   <path d="M304.7 268.44c34.34.07 68.68-.09 103 .08q49.7 116.62 99.64 233.16c.36 1.11 1.36 2.34.49 3.5Q447.23 630.58 386.64 756h-99.08q66.09-126.4 132.1-252.87-57.38-117.39-114.96-234.69Zm295.47 37.76Q557.94 405 515.7 503.84q60.92 125.83 121.65 251.77 49.55-.06 99.09 0-66-126.4-132.06-252.74 57.49-117.42 115-234.84c-34.34.11-68.69-.15-103 .12-5.23 12.75-10.86 25.34-16.21 38.04Z" style="fill:#fff"/>
</g><g id="hat" transform="rotate(-19.664861,2554.5888,-1846.2773)"><path id="🎅" style="fill:rgb(255, 76, 22);stroke:#ffffff;stroke-width:39.4767;stroke-linecap:square;stroke-linejoin:round;stroke-miterlimit:5;stroke-dasharray:none;stroke-opacity:1" d="M 1.3888427 -777.64079 C -126.41754 -822.85625 -272.88081 -794.17541 -427.74092 -723.17061 L -411.15071 -760.0823 L -459.32489 -749.02795 L -495.42034 -783.89788 L -500.16434 -732.99008 L -543.31109 -708.17992 L -498.06911 -687.77279 L -488.63916 -637.57198 L -455.93489 -675.86625 L -406.96025 -669.64773 L -425.31773 -701.97648 C -290.88513 -689.16754 -86.608888 -639.13439 -273.63981 -347.58743 C -128.15384 -457.46783 0.38614654 -456.79247 307.39427 -419.56777 C 228.26451 -624.2273 123.30628 -734.50873 1.3888427 -777.64079 z "/></g></svg>
