<svg xmlns="http://www.w3.org/2000/svg" viewBox="0 0 1536 1536">
   <g id="original" transform="translate(256,256)"><circle cx="512" cy="512" r="512" style="fill:#4acbd6"/>
   <path d="M579.77 256a189.58 189.58 0 0 0-190.16 189.93v40.46h106.2v-40.46c0-45.55 36.93-82.42 84-82.42 46.53 0 78.91 32.75 78.91 81.39 0 48.14-34.9 83.47-81.46 83.47h-39.98v107.5h39.95c103.72 0 187.68-85.48 187.68-191 0-109.54-78.4-188.9-185.13-188.9M259.09 612.34c0 13.31 11.12 26.62 26.29 26.62h101.17v102.42c0 13.31 11.12 26.62 26.29 26.62h86.5V524.79H259.09Z" style="fill:#fff"/>
</g><g id="hat" transform="rotate(-19.664861,2554.5888,-1846.2773)"><path id="🎅" style="fill:rgb(255, 0, 100);stroke:#ffffff;stroke-width:39.4767;stroke-linecap:square;stroke-linejoin:round;stroke-miterlimit:5;stroke-dasharray:none;stroke-opacity:1" d="M 1.3888427 -777.64079 C -126.41754 -822.85625 -272.88081 -794.17541 -427.74092 -723.17061 L -411.15071 -760.0823 L -459.32489 -749.02795 L -495.42034 -783.89788 L -500.16434 -732.99008 L -543.31109 -708.17992 L -498.06911 -687.77279 L -488.63916 -637.57198 L -455.93489 -675.86625 L -406.96025 -669.64773 L -425.31773 -701.97648 C -290.88513 -689.16754 -86.608888 -639.13439 -273.63981 -347.58743 C -128.15384 -457.46783 0.38614654 -456.79247 307.39427 -419.56777 C 228.26451 -624.2273 123.30628 -734.50873 1.3888427 -777.64079 z "/></g></svg>
