<svg xmlns="http://www.w3.org/2000/svg" viewBox="0 0 1536 1536">
   <g id="original" transform="translate(256,256)"><circle cx="512" cy="512" r="512" style="fill:#5cdd8b"/>
   <path d="m734.66 406.26-2.47-5.64-3.26-5.23c-25.26-40.56-56.9-71.94-94-93.26C597 280.37 554 269.35 507 269.35s-90 11.08-127.75 32.94c-37.07 21.48-68.44 53.08-93.24 93.91l-3.5 5.77-2.51 6.25C258.46 461 248 507.33 248 550c0 51.57 15.35 96 45.61 132 50.34 59.87 138.65 72.7 205.08 72.7h3.13a525.91 525.91 0 0 0 104.39-11.13c37.12-7.88 68.49-19.16 93.24-33.53C728 693.4 776 652.84 776 567.59c0-44.97-13.52-97.74-41.34-161.33ZM656.8 636.49c-68.45 39.72-246.81 51.83-298.15-9.23q-51.34-61.06 0-187 52.21-86 148.4-86t149.76 86q68.43 156.51-.01 196.23Zm-75.25-156.08c21 49.5 24.34 75.52 24.47 86.5-17.77 7.39-52.33 16.23-96.46 17.62-49.59 1.56-79.12-7.8-86.71-13C421 569 418 563.32 418 550c0-12.93 3-35.53 16.74-71 18.63-28.14 40-39.74 72.35-39.74 33 .04 54.91 12.03 74.46 41.15Z" style="fill:#f2f2f2"/>
</g><g id="hat" transform="rotate(-19.664861,2554.5888,-1846.2773)"><path id="🎅" style="fill:rgb(255, 122, 117);stroke:#ffffff;stroke-width:39.4767;stroke-linecap:square;stroke-linejoin:round;stroke-miterlimit:5;stroke-dasharray:none;stroke-opacity:1" d="M 1.3888427 -777.64079 C -126.41754 -822.85625 -272.88081 -794.17541 -427.74092 -723.17061 L -411.15071 -760.0823 L -459.32489 -749.02795 L -495.42034 -783.89788 L -500.16434 -732.99008 L -543.31109 -708.17992 L -498.06911 -687.77279 L -488.63916 -637.57198 L -455.93489 -675.86625 L -406.96025 -669.64773 L -425.31773 -701.97648 C -290.88513 -689.16754 -86.608888 -639.13439 -273.63981 -347.58743 C -128.15384 -457.46783 0.38614654 -456.79247 307.39427 -419.56777 C 228.26451 -624.2273 123.30628 -734.50873 1.3888427 -777.64079 z "/></g></svg>
