<svg xmlns="http://www.w3.org/2000/svg" viewBox="0 0 1536 1536">
   <g id="original" transform="translate(256,256)"><circle cx="512" cy="512" r="512" style="fill:#007bfc"/>
   <path d="M259.94 357.38a25.6 25.6 0 0 1 21.66-39.25h131.13a25.56 25.56 0 0 1 21.65 12l181.91 288.49a25.6 25.6 0 0 1 0 27.3l-65.57 104a25.6 25.6 0 0 1-43.32 0Zm395.23 158.15a25.61 25.61 0 0 0 43.32 0l22.58-35.81 43-68.19a25.63 25.63 0 0 0 0-27.32l-34.13-54.13a25.57 25.57 0 0 0-21.66-12H577.13a25.6 25.6 0 0 0-21.66 39.25Z" style="fill:#fff"/>
</g><g id="hat" transform="rotate(-19.664861,2554.5888,-1846.2773)"><path id="🎅" style="fill:rgb(255, 72, 74);stroke:#ffffff;stroke-width:39.4767;stroke-linecap:square;stroke-linejoin:round;stroke-miterlimit:5;stroke-dasharray:none;stroke-opacity:1" d="M 1.3888427 -777.64079 C -126.41754 -822.85625 -272.88081 -794.17541 -427.74092 -723.17061 L -411.15071 -760.0823 L -459.32489 -749.02795 L -495.42034 -783.89788 L -500.16434 -732.99008 L -543.31109 -708.17992 L -498.06911 -687.77279 L -488.63916 -637.57198 L -455.93489 -675.86625 L -406.96025 -669.64773 L -425.31773 -701.97648 C -290.88513 -689.16754 -86.608888 -639.13439 -273.63981 -347.58743 C -128.15384 -457.46783 0.38614654 -456.79247 307.39427 -419.56777 C 228.26451 -624.2273 123.30628 -734.50873 1.3888427 -777.64079 z "/></g></svg>
