<svg xmlns="http://www.w3.org/2000/svg" viewBox="0 0 1536 1536">
   <g id="original" transform="translate(256,256)"><circle cx="512" cy="512" r="512" style="fill:#17d24f"/>
   <path d="M693 331c-100-100-262-100-362 0s-100 262 0 362 262 100 362 0 100-262 0-362Zm27.66 157.78-110.23-100-112.78 106.47-59.2 55.7v-83l89.78-85.32 67.06-63.36a210.53 210.53 0 0 1 125.39 169.49Zm-2 60.38a208.64 208.64 0 0 1-22 62.86l-62.8-57.28v-83ZM544.11 304.4l-47.44 44.83-58.38 55.37v-89.24a210.3 210.3 0 0 1 105.89-10.94Zm-151.74 248-87-78.11a208.64 208.64 0 0 1 22.86-63.89l64.16 57.6Zm0-212.9v66.68L355 372.71a210.64 210.64 0 0 1 37.36-33.17ZM303.12 534l112.76 101.17L587.76 473.4V555L429.2 705a210.46 210.46 0 0 1-126.07-171Zm177.36 185.68L587.8 618.21v89.66A208.79 208.79 0 0 1 512 722a212.26 212.26 0 0 1-31.58-2.34Zm153.28-36.6v-66.33l36.6 33.14a212.45 212.45 0 0 1-36.49 33.21Z" style="fill:#fff"/>
</g><g id="hat" transform="rotate(-19.664861,2554.5888,-1846.2773)"><path id="🎅" style="fill:rgb(255, 33, 85);stroke:#ffffff;stroke-width:39.4767;stroke-linecap:square;stroke-linejoin:round;stroke-miterlimit:5;stroke-dasharray:none;stroke-opacity:1" d="M 1.3888427 -777.64079 C -126.41754 -822.85625 -272.88081 -794.17541 -427.74092 -723.17061 L -411.15071 -760.0823 L -459.32489 -749.02795 L -495.42034 -783.89788 L -500.16434 -732.99008 L -543.31109 -708.17992 L -498.06911 -687.77279 L -488.63916 -637.57198 L -455.93489 -675.86625 L -406.96025 -669.64773 L -425.31773 -701.97648 C -290.88513 -689.16754 -86.608888 -639.13439 -273.63981 -347.58743 C -128.15384 -457.46783 0.38614654 -456.79247 307.39427 -419.56777 C 228.26451 -624.2273 123.30628 -734.50873 1.3888427 -777.64079 z "/></g></svg>
