<svg xmlns="http://www.w3.org/2000/svg" viewBox="0 0 1536 1536">
   <g id="original" transform="translate(256,256)"><circle cx="512" cy="512" r="512" style="fill:#fcb216"/>
   <path d="M670.3 351.5v4.3c12.3 2.9 23.1 10.3 30.4 20.7 7.5 13.1 11.1 28.1 10.3 43.2 0 19.8-3 39.6-9 58.5-7 22.1-15.8 43.6-26.2 64.3l-12.2 26.8-60.1-145.9c-2.9-6.9-5.4-14.1-7.4-21.4-1.6-5.6-2.5-11.3-2.9-17-.3-7.3 2.3-14.4 7.2-19.8s11.8-8.5 19.1-8.8v-4.3H438.3v4.3c6.2 1.1 12.1 3.2 17.7 6.1 5.7 3.8 10.4 8.8 14 14.6 6.3 9.8 11.6 20.2 16.1 31l28.3 67.5-51.1 101.1L387.1 400c-2-3.5-3.6-7.2-4.8-11.1-.6-2.8-1-5.6-1.1-8.5 0-5.4 1.9-10.6 5.5-14.6 4.4-4.7 9.9-8.3 16.1-10.3v-4H217.9v4.3c15 4.6 28.6 12.9 39.5 24.3 14.3 16.4 26 35 34.7 54.9l117 259.9h4.8l105.4-208.8L609.4 695h4.8l107.2-231.3c11.4-26.3 25.7-51.3 42.7-74.4 11.1-14.5 25.5-26.1 41.9-34.1V351H670.3v.5z" style="fill:#fff"/>
</g><g id="hat" transform="rotate(-19.664861,2554.5888,-1846.2773)"><path id="🎅" style="fill:rgb(255, 114, 94);stroke:#ffffff;stroke-width:39.4767;stroke-linecap:square;stroke-linejoin:round;stroke-miterlimit:5;stroke-dasharray:none;stroke-opacity:1" d="M 1.3888427 -777.64079 C -126.41754 -822.85625 -272.88081 -794.17541 -427.74092 -723.17061 L -411.15071 -760.0823 L -459.32489 -749.02795 L -495.42034 -783.89788 L -500.16434 -732.99008 L -543.31109 -708.17992 L -498.06911 -687.77279 L -488.63916 -637.57198 L -455.93489 -675.86625 L -406.96025 -669.64773 L -425.31773 -701.97648 C -290.88513 -689.16754 -86.608888 -639.13439 -273.63981 -347.58743 C -128.15384 -457.46783 0.38614654 -456.79247 307.39427 -419.56777 C 228.26451 -624.2273 123.30628 -734.50873 1.3888427 -777.64079 z "/></g></svg>
