<svg xmlns="http://www.w3.org/2000/svg" viewBox="0 0 1536 1536">
   <g id="original" transform="translate(256,256)"><circle cx="512" cy="512" r="512" style="fill:#78bd43"/>
   <path d="M784 512.17c0-150.22-121.78-272-272-272s-272 121.78-272 272c0 144.84 113.5 264.27 258.15 271.64v-58.49a62.14 62.14 0 0 0 34.41-.8v58.87C674.4 772.64 784 654.41 784 512.16ZM515.57 316.58l56.7 52.4-56.77 50.46-56.65-48.69 56.72-54.18ZM511 704.99a171.912 171.912 0 0 1-124.95-86.69 216.756 216.756 0 0 1-22.26-92.7c-.82-31.7 2.07-63.39 8.58-94.43 6.75-33.38 16.4-66.11 28.85-97.82l120.68 107.6a144.695 144.695 0 0 1 49.38 86.87c3.82 29.05.49 58.6-9.71 86.07A324.271 324.271 0 0 1 510.99 705Zm153.89-179.67c-.41 32.13-7.93 63.78-22.03 92.65a175.78 175.78 0 0 1-117.46 87.59 344.19 344.19 0 0 0 50.08-93.38c9.85-28.2 12.67-58.38 8.21-87.91a152.794 152.794 0 0 0-51.58-88.99l-9.43-8.41 104.81-93.43a585.744 585.744 0 0 1 28.8 97.6c6.53 31.03 9.43 62.72 8.63 94.43l-.02-.15Z" style="fill:#fff"/>
</g><g id="hat" transform="rotate(-19.664861,2554.5888,-1846.2773)"><path id="🎅" style="fill:rgb(255, 58, 45);stroke:#ffffff;stroke-width:39.4767;stroke-linecap:square;stroke-linejoin:round;stroke-miterlimit:5;stroke-dasharray:none;stroke-opacity:1" d="M 1.3888427 -777.64079 C -126.41754 -822.85625 -272.88081 -794.17541 -427.74092 -723.17061 L -411.15071 -760.0823 L -459.32489 -749.02795 L -495.42034 -783.89788 L -500.16434 -732.99008 L -543.31109 -708.17992 L -498.06911 -687.77279 L -488.63916 -637.57198 L -455.93489 -675.86625 L -406.96025 -669.64773 L -425.31773 -701.97648 C -290.88513 -689.16754 -86.608888 -639.13439 -273.63981 -347.58743 C -128.15384 -457.46783 0.38614654 -456.79247 307.39427 -419.56777 C 228.26451 -624.2273 123.30628 -734.50873 1.3888427 -777.64079 z "/></g></svg>
