<svg xmlns="http://www.w3.org/2000/svg" viewBox="0 0 1536 1536">
   <g id="original" transform="translate(256,256)"><circle cx="512" cy="512" r="512" style="fill:#367ca9"/>
   <path d="M782.97 435.92c-2.02-26.11-4.55-46.2-7.57-60.27-5.55-20.09-14-36.91-25.36-50.47-11.36-13.55-25.1-23.85-41.25-30.89-32.29-14.56-85.27-21.85-158.95-21.85h-73.42c-67.11 0-114.8 4.78-143.06 14.32h-.76c-18.17 6.03-33.43 14.44-45.8 25.23-12.37 10.8-22.33 23.73-29.9 38.79-7.07 15.07-11.98 34.41-14.75 58.01-2.78 23.61-4.16 51.23-4.16 82.86 0 38.67.88 71.06 2.65 97.18 1.77 26.12 4.67 46.46 8.7 61.02 11.6 39.17 34.05 66.04 67.36 80.61 29.76 14.06 83 21.09 159.71 21.09h73.42c33.3 0 61.55-1.25 84.77-3.76 23.21-2.51 42.14-6.03 56.77-10.56v-.75c17.16-5.03 32.04-12.93 44.65-23.73 12.62-10.79 22.71-23.72 30.28-38.79 7.05-15.57 12.1-35.15 15.13-58.76 3.03-23.61 4.54-50.97 4.54-82.11 0-38.67-1.01-71.05-3.03-97.18Zm-57.54 97.17c0 25.6-1.01 47.69-3.03 66.26-2.02 18.57-5.8 33.12-11.35 43.66-7.57 20.09-23.71 32.89-48.42 38.4-19.67 5.03-57.49 7.53-113.48 7.53h-72.63c-56.49 0-94.57-2.5-114.23-7.53-24.21-5.51-40.86-18.31-49.93-38.4-9.59-22.08-14.38-58.72-14.38-109.92v-41.42c0-51.2 4.79-87.84 14.38-109.92 8.57-20.57 24.97-33.62 49.18-39.15 20.17-5.02 58.5-7.53 114.99-7.53h72.63c56.49 0 94.57 2.51 114.23 7.53 24.72 5.53 40.59 18.58 47.66 39.15 5.55 10.54 9.33 25.1 11.35 43.67 2.02 18.57 3.03 40.65 3.03 66.25v41.42Zm-51.58-21.57 15.77 31.97-32.1 15.7-32.1 15.7-32.1 15.7-32.1 15.7-32.1 15.7-32.1 15.7-32.1 15.7-32.1 15.7-15.77-31.97-15.77-31.97-15.77-31.97-15.77-31.97-15.77-31.97-15.77-31.96 32.1-15.7 32.1-15.7 15.77 31.97 15.77 31.97 15.77 31.97 15.77 31.97 15.77 31.97 32.1-15.7-15.77-31.97-15.77-31.97-15.77-31.97-15.77-31.97-15.77-31.97 32.1-15.7 32.1-15.7 15.77 31.97 15.77 31.97 15.77 31.97 15.77 31.97 15.77 31.97 32.1-15.7-15.77-31.97-15.77-31.97-15.77-31.97-15.77-31.97-15.77-31.97 32.1-15.7 32.1-15.7 15.77 31.97 15.77 31.97 15.77 31.97 15.77 31.97 15.77 31.97Z" style="fill:#fff"/>
</g><g id="hat" transform="rotate(-19.664861,2554.5888,-1846.2773)"><path id="🎅" style="fill:rgb(255, 37, 85);stroke:#ffffff;stroke-width:39.4767;stroke-linecap:square;stroke-linejoin:round;stroke-miterlimit:5;stroke-dasharray:none;stroke-opacity:1" d="M 1.3888427 -777.64079 C -126.41754 -822.85625 -272.88081 -794.17541 -427.74092 -723.17061 L -411.15071 -760.0823 L -459.32489 -749.02795 L -495.42034 -783.89788 L -500.16434 -732.99008 L -543.31109 -708.17992 L -498.06911 -687.77279 L -488.63916 -637.57198 L -455.93489 -675.86625 L -406.96025 -669.64773 L -425.31773 -701.97648 C -290.88513 -689.16754 -86.608888 -639.13439 -273.63981 -347.58743 C -128.15384 -457.46783 0.38614654 -456.79247 307.39427 -419.56777 C 228.26451 -624.2273 123.30628 -734.50873 1.3888427 -777.64079 z "/></g></svg>
