<svg xmlns="http://www.w3.org/2000/svg" viewBox="0 0 1536 1536">
   <g id="original" transform="translate(256,256)"><circle cx="512" cy="512" r="512" style="fill:#ea7100"/>
   <path d="M276.2 466.8v-24.5h63v141.2h-63v-24.3h36.9v-92.4h-36.9zm-29.5-.2v-24.3h-63v141.2h37.5l25.5 51.5v-76.2l-36.9.1v-92.4h36.9zm272.1-17.8 1-1.4 5.4-6.1H494l-44.7 53-44.8-53-31.5.2 5.6 6 55 65.4-55 65.5-5.6 6.2h31.5l44.8-53 44.7 53 31.3-.2-5.3-6-55.3-65.4 54.1-64.2zm136-7.4H538.4v143.3h116.4c7.1.1 14-2.7 19-7.8 5.2-5 8-11.9 7.9-19v-89.6c.1-7.2-2.7-14.1-7.9-19-5-5.2-11.9-8-19-7.9zm2.8 116.5c0 .8-.3 1.5-.8 2.1-.5.6-1.3.9-2.1.8h-89.6c-.8 0-1.5-.3-2.1-.8-.5-.6-.8-1.3-.8-2.1v-89.6c0-.8.2-1.5.8-2.1.5-.6 1.3-.9 2.1-.9h89.6c.8 0 1.5.3 2.1.9.6.5.9 1.3.8 2.1v89.6zm174.9-108.6c-5-5.2-11.9-8-19-7.9h-89.7c-7.2-.1-14 2.8-19 7.9-5.1 5-7.9 11.9-7.8 19v116.4h24v-49h95.4v49h23.9V468.3c.2-7.1-2.7-14-7.8-19zm-16.1 62.3H721v-43.3c-.1-.8.3-1.6.9-2.1.5-.6 1.2-.9 1.9-.9h89.7c.7 0 1.5.3 1.9.9.6.5 1 1.3.9 2.1v43.3z" style="fill:#fff"/>
</g><g id="hat" transform="rotate(-19.664861,2554.5888,-1846.2773)"><path id="🎅" style="fill:rgb(255, 93, 59);stroke:#ffffff;stroke-width:39.4767;stroke-linecap:square;stroke-linejoin:round;stroke-miterlimit:5;stroke-dasharray:none;stroke-opacity:1" d="M 1.3888427 -777.64079 C -126.41754 -822.85625 -272.88081 -794.17541 -427.74092 -723.17061 L -411.15071 -760.0823 L -459.32489 -749.02795 L -495.42034 -783.89788 L -500.16434 -732.99008 L -543.31109 -708.17992 L -498.06911 -687.77279 L -488.63916 -637.57198 L -455.93489 -675.86625 L -406.96025 -669.64773 L -425.31773 -701.97648 C -290.88513 -689.16754 -86.608888 -639.13439 -273.63981 -347.58743 C -128.15384 -457.46783 0.38614654 -456.79247 307.39427 -419.56777 C 228.26451 -624.2273 123.30628 -734.50873 1.3888427 -777.64079 z "/></g></svg>
