<svg xmlns="http://www.w3.org/2000/svg" viewBox="0 0 1536 1536">
   <g id="original" transform="translate(256,256)"><circle cx="512" cy="512" r="512" style="fill:#304ffe"/>
   <path d="m763 546.42-76.84 46.1V398L763 351.9v194.52ZM346.03 699.48 507.9 796.6v-92.48L346.03 607v92.48ZM677.97 607 516.1 704.12v92.48l161.87-97.12V607ZM516.1 300.88v121.58l101.34-60.78-101.34-60.81ZM346.04 470.94v121.58l50.69-30.4 50.69-30.4-101.37-60.79Zm277.38 98.42-50.69-30.4v121.58l101.37-60.79-50.69-30.4Zm-115.51-146.9V300.88l-101.34 60.81 101.34 60.78Zm-158 177.3 101.37 60.79V538.97l-50.69 30.4-50.69 30.4Zm282.55-34.53 45.51 27.29V470.94L576.6 531.73l55.86 33.5ZM390.64 361.68l-.03-.02 113.43-68.03-77.07-46.24-162.1 97.26 77.07 46.24 48.7-29.22ZM261.01 546.41l76.84 46.1V397.99l-76.84-46.1v194.52Zm258.96-252.78 113.43 68.03-.03.02 48.7 29.22 77.07-46.24-162.1-97.26-77.07 46.24Z" style="fill:#fff"/>
</g><g id="hat" transform="rotate(-19.664861,2554.5888,-1846.2773)"><path id="🎅" style="fill:rgb(255, 121, 51);stroke:#ffffff;stroke-width:39.4767;stroke-linecap:square;stroke-linejoin:round;stroke-miterlimit:5;stroke-dasharray:none;stroke-opacity:1" d="M 1.3888427 -777.64079 C -126.41754 -822.85625 -272.88081 -794.17541 -427.74092 -723.17061 L -411.15071 -760.0823 L -459.32489 -749.02795 L -495.42034 -783.89788 L -500.16434 -732.99008 L -543.31109 -708.17992 L -498.06911 -687.77279 L -488.63916 -637.57198 L -455.93489 -675.86625 L -406.96025 -669.64773 L -425.31773 -701.97648 C -290.88513 -689.16754 -86.608888 -639.13439 -273.63981 -347.58743 C -128.15384 -457.46783 0.38614654 -456.79247 307.39427 -419.56777 C 228.26451 -624.2273 123.30628 -734.50873 1.3888427 -777.64079 z "/></g></svg>
