<svg xmlns="http://www.w3.org/2000/svg" viewBox="0 0 1536 1536">
   <g id="original" transform="translate(256,256)"><circle cx="512" cy="512" r="512" style="fill:#f46ac5"/>
   <path d="M381.41 768a75.86 75.86 0 0 1-47.05-135.38l336.07-265.54c18.47-14.6 19.64-35.38 14.57-50S666.14 287 642.59 287H381.41c-23.55 0-37.35 15.58-42.42 30.16s-3.9 35.36 14.57 50l42.14 33.3a15.48 15.48 0 0 1-9.61 27.54 15.33 15.33 0 0 1-9.59-3.34l-42.14-33.29A75.86 75.86 0 0 1 381.41 256h261.18a75.86 75.86 0 0 1 47.05 135.38L353.56 656.92c-18.47 14.59-19.64 35.38-14.57 50S357.86 737 381.41 737h261.18c23.55 0 37.35-15.58 42.42-30.16s3.9-35.36-14.57-50l-43.49-34.36a15.48 15.48 0 0 1 9.61-27.63 15.34 15.34 0 0 1 9.6 3.34l43.49 34.36A75.86 75.86 0 0 1 642.59 768Zm-29-219.78a15.34 15.34 0 0 0 9.59-3.34l207.09-163.66a19.68 19.68 0 0 0-12.2-35.13H454.77a15.48 15.48 0 1 0 0 31h69.64L342.75 520.58a15.48 15.48 0 0 0 9.62 27.63Zm113.24 128h96.22a15.48 15.48 0 1 0 0-31h-63.78l181.66-143.53a15.48 15.48 0 0 0-19.21-24.29L453.4 641.06a19.68 19.68 0 0 0 12.21 35.13Z" style="fill:#fff"/>
</g><g id="hat" transform="rotate(-19.664861,2554.5888,-1846.2773)"><path id="🎅" style="fill:rgb(255, 93, 75);stroke:#ffffff;stroke-width:39.4767;stroke-linecap:square;stroke-linejoin:round;stroke-miterlimit:5;stroke-dasharray:none;stroke-opacity:1" d="M 1.3888427 -777.64079 C -126.41754 -822.85625 -272.88081 -794.17541 -427.74092 -723.17061 L -411.15071 -760.0823 L -459.32489 -749.02795 L -495.42034 -783.89788 L -500.16434 -732.99008 L -543.31109 -708.17992 L -498.06911 -687.77279 L -488.63916 -637.57198 L -455.93489 -675.86625 L -406.96025 -669.64773 L -425.31773 -701.97648 C -290.88513 -689.16754 -86.608888 -639.13439 -273.63981 -347.58743 C -128.15384 -457.46783 0.38614654 -456.79247 307.39427 -419.56777 C 228.26451 -624.2273 123.30628 -734.50873 1.3888427 -777.64079 z "/></g></svg>
