<svg xmlns="http://www.w3.org/2000/svg" viewBox="0 0 1536 1536">
   <g id="original" transform="translate(256,256)"><circle cx="512" cy="512" r="512" style="fill:#050608"/>
   <path d="M761.5 310.2v-45.7h-499v45.7h226.6v27.1c-86.7 11.4-153.6 85.5-153.6 175.2 0 89.7 66.9 163.7 153.6 175.2v72h43.1V688c88.5-9.8 157.3-84.7 157.3-175.6 0-91-68.8-165.8-157.3-175.6v-26.6h229.3zM379.4 512.4c0-65.4 47.4-119.8 109.7-130.9v261.7c-62.3-11-109.7-65.4-109.7-130.8zm266.2 0c0 66.7-49.3 122-113.4 131.5v-263c64.2 9.5 113.4 64.8 113.4 131.5z" style="fill:#fff"/>
</g><g id="hat" transform="rotate(-19.664861,2554.5888,-1846.2773)"><path id="🎅" style="fill:rgb(255, 106, 33);stroke:#ffffff;stroke-width:39.4767;stroke-linecap:square;stroke-linejoin:round;stroke-miterlimit:5;stroke-dasharray:none;stroke-opacity:1" d="M 1.3888427 -777.64079 C -126.41754 -822.85625 -272.88081 -794.17541 -427.74092 -723.17061 L -411.15071 -760.0823 L -459.32489 -749.02795 L -495.42034 -783.89788 L -500.16434 -732.99008 L -543.31109 -708.17992 L -498.06911 -687.77279 L -488.63916 -637.57198 L -455.93489 -675.86625 L -406.96025 -669.64773 L -425.31773 -701.97648 C -290.88513 -689.16754 -86.608888 -639.13439 -273.63981 -347.58743 C -128.15384 -457.46783 0.38614654 -456.79247 307.39427 -419.56777 C 228.26451 -624.2273 123.30628 -734.50873 1.3888427 -777.64079 z "/></g></svg>
